<svg width="136" height="50" viewBox="0 0 136 50" fill="none" xmlns="http://www.w3.org/2000/svg">
<path d="M0 0H17.3637V4.88355H7.05401V8.8524H15.8599V13.4414H7.05401V22.7279H0V0Z" fill="#FF8D66"/>
<path d="M19.7047 6.26334H25.6115V8.96092C26.1799 7.793 26.7639 6.992 27.3634 6.55791C27.9732 6.11348 28.7225 5.89126 29.6113 5.89126C30.5415 5.89126 31.5596 6.18066 32.6655 6.75945L30.7121 11.2554C29.9679 10.9453 29.3788 10.7903 28.9447 10.7903C28.1179 10.7903 27.4771 11.1314 27.0223 11.8135C26.3711 12.7747 26.0456 14.5731 26.0456 17.2087V22.7279H19.7047V6.26334Z" fill="#FF8D66"/>
<path d="M33.5027 14.5421C33.5027 12.0306 34.3502 9.96347 36.0452 8.34079C37.7403 6.70777 40.0296 5.89126 42.9132 5.89126C46.2102 5.89126 48.7011 6.8473 50.3858 8.75938C51.7398 10.2994 52.4167 12.1959 52.4167 14.4491C52.4167 16.9813 51.5744 19.0588 49.8897 20.6814C48.2153 22.2938 45.895 23.0999 42.9287 23.0999C40.2828 23.0999 38.1433 22.4281 36.5103 21.0845C34.5052 19.4205 33.5027 17.2397 33.5027 14.5421ZM39.828 14.5266C39.828 15.9943 40.1226 17.0795 40.7117 17.7823C41.3112 18.4851 42.0605 18.8365 42.9597 18.8365C43.8692 18.8365 44.6134 18.4903 45.1922 17.7978C45.7813 17.1053 46.0759 15.9943 46.0759 14.4646C46.0759 13.0383 45.7813 11.9789 45.1922 11.2864C44.6031 10.5836 43.8744 10.2322 43.0062 10.2322C42.0864 10.2322 41.3267 10.5888 40.7272 11.3019C40.1278 12.0047 39.828 13.0796 39.828 14.5266Z" fill="#FF8D66"/>
<path d="M55.4554 6.26334H61.3311V8.94542C62.2097 7.84985 63.0985 7.06951 63.9977 6.60442C64.8969 6.12898 65.9925 5.89126 67.2844 5.89126C69.0311 5.89126 70.3954 6.41321 71.3773 7.4571C72.3695 8.49065 72.8656 10.0927 72.8656 12.2631V22.7279H66.5248V13.6739C66.5248 12.6404 66.3336 11.9117 65.9511 11.488C65.5687 11.0539 65.0313 10.8368 64.3388 10.8368C63.574 10.8368 62.9538 11.1262 62.4784 11.705C62.003 12.2838 61.7652 13.3225 61.7652 14.8212V22.7279H55.4554V6.26334Z" fill="#FF8D66"/>
<path d="M84.2451 0V6.26334H87.7178V10.8678H84.2451V16.7126C84.2451 17.4154 84.3122 17.8805 84.4466 18.1079C84.6533 18.4593 85.015 18.635 85.5318 18.635C85.9969 18.635 86.6481 18.5006 87.4852 18.2319L87.9503 22.5883C86.3897 22.9294 84.9324 23.0999 83.5784 23.0999C82.0074 23.0999 80.8498 22.8984 80.1057 22.4953C79.3615 22.0922 78.8086 21.4824 78.4468 20.6659C78.0954 19.8391 77.9197 18.5058 77.9197 16.6661V10.8678H75.5942V6.26334H77.9197V3.24019L84.2451 0Z" fill="#FF8D66"/>
<path d="M0.257996 26.9001H19.079V31.7526H7.2965V35.3649H18.2263V40.0004H7.2965V44.4808H19.4201V49.6279H0.257996V26.9001Z" fill="#FF8D66"/>
<path d="M22.7998 33.1634H28.6756V35.8455C29.5541 34.7499 30.443 33.9696 31.3422 33.5045C32.2413 33.029 33.3369 32.7913 34.6289 32.7913C36.3756 32.7913 37.7399 33.3133 38.7217 34.3572C39.7139 35.3907 40.2101 36.9927 40.2101 39.1632V49.6279H33.8692V40.574C33.8692 39.5404 33.678 38.8118 33.2956 38.388C32.9131 37.9539 32.3757 37.7369 31.6832 37.7369C30.9184 37.7369 30.2983 38.0263 29.8228 38.6051C29.3474 39.1839 29.1097 40.2226 29.1097 41.7212V49.6279H22.7998V33.1634Z" fill="#FF8D66"/>
<path d="M61.3101 26.9001V49.6279H55.4033V47.1939C54.5765 48.2275 53.822 48.9251 53.1398 49.2869C52.2303 49.7623 51.2174 50 50.1012 50C47.8584 50 46.1427 49.1473 44.9541 47.442C43.7758 45.7366 43.1867 43.6643 43.1867 41.2251C43.1867 38.4965 43.8378 36.4088 45.1401 34.9618C46.4527 33.5148 48.1167 32.7913 50.1322 32.7913C51.1141 32.7913 52.0029 32.9567 52.7987 33.2874C53.6049 33.6182 54.3181 34.1143 54.9382 34.7757V26.9001H61.3101ZM54.9847 41.3492C54.9847 40.0572 54.7108 39.096 54.163 38.4655C53.6153 37.8247 52.9228 37.5043 52.0856 37.5043C51.3518 37.5043 50.7368 37.8092 50.2407 38.419C49.7446 39.0288 49.4965 40.052 49.4965 41.4887C49.4965 42.8323 49.7498 43.8193 50.2562 44.4498C50.773 45.0699 51.4086 45.38 52.1631 45.38C52.9693 45.38 53.6411 45.0648 54.1785 44.4343C54.716 43.8038 54.9847 42.7755 54.9847 41.3492Z" fill="#FF8D66"/>
<mask id="path-3-outside-1_110_110" maskUnits="userSpaceOnUse" x="54.3278" y="-0.4084" width="82.7862" height="50.5119" fill="black">
<rect fill="white" x="54.3278" y="-0.4084" width="82.7862" height="50.5119"/>
<path d="M66.9669 34.563C67.1186 34.9795 67.2146 35.4164 67.2552 35.8734C67.2907 36.3165 67.2605 36.7521 67.1647 37.1801C66.8545 38.6612 66.3676 40.0886 65.7039 41.4625C65.049 42.8174 64.2275 44.0599 63.2393 45.1902L63.2696 45.2735C63.2949 45.343 63.2785 45.4276 63.2204 45.5273C63.1813 45.6359 63.1271 45.7028 63.0576 45.7281C62.8771 45.7938 62.7565 45.7433 62.6959 45.5767C62.5456 45.5528 62.4452 45.4714 62.3947 45.3325C62.3745 45.2769 62.3725 45.2069 62.3889 45.1223C61.943 44.3725 61.5786 43.6087 61.2955 42.8311C60.8053 41.4841 60.4917 40.1043 60.355 38.6915C60.2132 37.2649 60.1345 35.8389 60.1189 34.4135C60.1111 33.6143 60.131 32.805 60.1788 31.9856C60.2404 31.1611 60.3443 30.3449 60.4905 29.5368C60.6456 28.7098 60.8574 27.9093 61.1261 27.1353C61.4037 26.3423 61.7456 25.5967 62.1519 24.8984C62.1784 24.8416 62.2194 24.803 62.275 24.7828C62.3722 24.7474 62.4681 24.7518 62.5628 24.796C62.6576 24.8402 62.7201 24.9039 62.7504 24.9872C62.7757 25.0566 62.7795 25.1103 62.7618 25.1482C62.5348 26.08 62.3179 26.9531 62.1111 27.7675C61.9182 28.5769 61.7555 29.383 61.6232 30.186C61.4858 30.9752 61.3819 31.7914 61.3115 32.6348C61.236 33.4643 61.2116 34.3696 61.2384 35.3506C61.5539 34.7483 61.9198 34.1983 62.3363 33.7007C62.7478 33.1893 63.2868 32.8123 63.9533 32.5697C64.0644 32.5292 64.1502 32.5058 64.2108 32.4995C64.2853 32.4881 64.3977 32.4944 64.5479 32.5184C64.7121 32.5372 64.8364 32.5549 64.921 32.5713C65.4387 32.6974 65.8662 32.9428 66.2034 33.3076C66.5355 33.6585 66.79 34.0769 66.9669 34.563ZM65.9955 34.9401C65.9298 34.7596 65.8313 34.5753 65.6999 34.3872C65.5774 34.1802 65.4347 34.0041 65.2718 33.859C65.1177 33.6949 64.9415 33.5781 64.7433 33.5088C64.5451 33.4394 64.3418 33.4426 64.1335 33.5184C63.8141 33.6347 63.513 33.8229 63.2303 34.083C62.9564 34.3243 62.7021 34.5977 62.4673 34.9033C62.2326 35.2089 62.0193 35.5303 61.8275 35.8674C61.6307 36.1907 61.4496 36.4925 61.2843 36.7728C61.3288 37.8889 61.4175 38.9967 61.5504 40.0964C61.6972 41.1909 61.9601 42.259 62.3392 43.3005C62.4706 43.6615 62.6253 44.0219 62.8035 44.3817C63.0041 44.0256 63.2426 43.6007 63.5189 43.1069C63.7902 42.5993 64.0678 42.0658 64.3517 41.5064C64.6356 40.947 64.905 40.3693 65.1599 39.7734C65.4286 39.1723 65.6462 38.582 65.8127 38.0025C65.9931 37.4178 66.1066 36.8654 66.1531 36.3453C66.1997 35.8251 66.1472 35.3567 65.9955 34.9401Z"/>
<path d="M69.9231 26.1543C69.9534 26.2376 69.9541 26.3474 69.9251 26.4838L69.927 26.5539C69.9851 26.6271 70.0217 26.6845 70.0369 26.7262C69.9649 26.831 69.9233 26.9326 69.912 27.0311C69.8956 27.1157 69.811 27.1858 69.6583 27.2414C69.5333 27.2869 69.3906 27.2838 69.2303 27.2321C69.0648 27.1664 68.9543 27.0573 68.8987 26.9045C68.8078 26.6546 68.7553 26.4456 68.7414 26.2777C68.7363 26.0909 68.8934 25.9393 69.2128 25.8231C69.3378 25.7776 69.476 25.7902 69.6275 25.8608C69.7791 25.9315 69.8776 26.0293 69.9231 26.1543ZM74.4579 37.7101C74.4831 37.7796 74.4825 37.8427 74.456 37.8995C74.3084 38.3149 74.1678 38.7278 74.0341 39.1382C73.9092 39.5296 73.7559 39.9078 73.5742 40.2727C73.4064 40.6326 73.1887 40.9635 72.9212 41.2653C72.6586 41.581 72.3273 41.8588 71.9271 42.0988C71.4916 42.0687 71.1538 41.94 70.9138 41.7128C70.679 41.4995 70.4907 41.1985 70.3492 40.8096L70.0763 40.0598C69.9449 39.6987 69.8431 39.3111 69.771 38.8971C69.7128 38.4779 69.6597 38.0727 69.6116 37.6813C69.5395 37.0942 69.4661 36.4604 69.3914 35.78C69.3306 35.0944 69.2931 34.4082 69.279 33.7214C69.2738 33.0157 69.3064 32.3276 69.3769 31.6571C69.4423 30.9728 69.5703 30.3523 69.7608 29.7954C69.805 29.7007 69.8617 29.6407 69.9312 29.6155C70.0145 29.5851 70.1105 29.5895 70.219 29.6286C70.3226 29.6538 70.392 29.7151 70.4274 29.8123L70.4426 29.8539C70.4744 30.6758 70.4866 31.552 70.4793 32.4825C70.4809 33.3941 70.4969 34.3239 70.5275 35.2721C70.5669 36.2013 70.641 37.1179 70.7499 38.0218C70.8726 38.9207 71.0755 39.759 71.3585 40.5366C71.3889 40.6199 71.4318 40.738 71.4874 40.8907C71.5569 41.0384 71.6409 41.1179 71.7394 41.1293C72.0247 40.9625 72.2859 40.6866 72.5232 40.3014C72.7743 39.9113 72.9926 39.5173 73.1781 39.1195C73.3774 38.7167 73.5453 38.3568 73.6815 38.0399C73.8178 37.723 73.9276 37.5493 74.0109 37.519C74.0803 37.4937 74.1624 37.5032 74.2571 37.5473C74.3657 37.5864 74.4326 37.6407 74.4579 37.7101Z"/>
<path d="M91.4693 35.3871C91.6312 36.3504 91.5487 37.1824 91.2219 37.8832C90.9141 38.5929 90.2912 39.1498 89.3532 39.5541C88.8773 39.7588 88.3648 39.906 87.8156 39.9958C87.2715 40.0995 86.7147 40.1685 86.1453 40.2027C85.5759 40.237 85.0059 40.2479 84.4352 40.2354C83.8696 40.2369 83.3248 40.2307 82.8008 40.217C82.0383 40.1957 81.2662 40.1701 80.4847 40.14C79.7171 40.1049 78.9665 40.1815 78.233 40.3698C78.0007 40.4229 77.7779 40.4804 77.5646 40.5424C77.3563 40.6182 77.1505 40.7009 76.9472 40.7906C76.8551 40.8399 76.7674 40.8797 76.684 40.91C76.6007 40.9404 76.513 40.9801 76.4208 41.0294C76.1671 41.1532 75.9159 41.284 75.6672 41.4217C75.4375 41.5682 75.2103 41.7216 74.9856 41.8821C74.8846 41.9503 74.7792 42.0279 74.6694 42.1151C74.5507 42.2212 74.4453 42.2988 74.3532 42.3481C74.2699 42.3784 74.1739 42.374 74.0653 42.3349C73.9567 42.2958 73.8803 42.2372 73.8361 42.1589C73.7629 42.044 73.7647 41.9411 73.8417 41.8502C74.2377 40.4322 74.695 39.0313 75.2135 37.6474C75.7269 36.2496 76.2808 34.8765 76.875 33.5279C77.2321 32.7375 77.5847 31.9565 77.933 31.185C78.2762 30.3996 78.6547 29.6249 79.0686 28.8609C78.7884 29.0415 78.4848 29.2228 78.1578 29.4047C77.8258 29.5727 77.5027 29.7218 77.1883 29.8519C76.9573 29.9517 76.7029 30.0522 76.4252 30.1533C76.1424 30.2405 75.8476 30.3163 75.5409 30.3808C75.248 30.4402 74.9475 30.4788 74.6394 30.4966C74.3453 30.5093 74.0688 30.4841 73.8099 30.4211C73.7064 30.3959 73.6445 30.3555 73.6243 30.2999C73.5852 30.2355 73.5757 30.1446 73.5958 30.0272C73.616 29.9098 73.6677 29.8359 73.751 29.8056L73.7927 29.7904C74.5287 29.6955 75.2414 29.5148 75.9307 29.2482C76.1566 29.1345 76.3712 29.0328 76.5745 28.9431C76.7865 28.8344 76.9986 28.7258 77.2107 28.6172C77.5932 28.415 77.9542 28.1972 78.2938 27.9635C78.6472 27.7248 79.0202 27.5182 79.4128 27.3439C79.4772 27.3047 79.5858 27.2573 79.7385 27.2017C79.8913 27.1461 80.0099 27.1265 80.0945 27.1429C80.0932 27.0962 80.1273 27.0602 80.1968 27.035C80.2801 27.0046 80.376 27.009 80.4846 27.0481C80.5882 27.0733 80.6646 27.132 80.7138 27.2242C80.7429 27.2608 80.7561 27.3189 80.7536 27.3984C80.6288 27.9628 80.4503 28.531 80.2182 29.103C79.9861 29.675 79.7375 30.2451 79.4725 30.8133C79.2076 31.3815 78.9331 31.9453 78.6492 32.5047C78.3603 33.0502 78.0921 33.5882 77.8448 34.1185C77.3414 35.1981 76.8613 36.2771 76.4046 37.3554C75.9618 38.4287 75.517 39.5184 75.0704 40.6245C75.5779 40.204 76.1503 39.8541 76.7878 39.5749C77.2915 39.3601 77.7807 39.2135 78.2554 39.1351C78.749 39.0655 79.2363 39.0218 79.7174 39.004C80.2034 39 80.6971 39.0169 81.1983 39.0547C81.6996 39.0924 82.2191 39.1156 82.757 39.1243C83.6786 39.1505 84.6022 39.1603 85.5276 39.1538C86.453 39.1472 87.3646 39.0592 88.2622 38.8897C88.5551 38.8303 88.8101 38.7532 89.0272 38.6584C89.1105 38.6281 89.1774 38.5959 89.2279 38.5618C89.6937 38.3294 90.0686 38.0199 90.3526 37.6335C90.6504 37.242 90.8157 36.7887 90.8484 36.2736C90.8584 36.1284 90.8546 35.9883 90.8369 35.8532C90.8192 35.7181 90.8109 35.5874 90.8121 35.4612C90.7995 35.34 90.8487 35.2591 90.9598 35.2187C91.0431 35.1884 91.1296 35.1884 91.2192 35.2186C91.3228 35.2439 91.4061 35.3 91.4693 35.3871Z"/>
<path d="M83.3739 22.1803C83.4042 22.2636 83.4048 22.3734 83.3758 22.5098L83.3778 22.5799C83.4359 22.6531 83.4725 22.7105 83.4876 22.7522C83.4157 22.857 83.3741 22.9586 83.3627 23.0571C83.3464 23.1417 83.2618 23.2118 83.109 23.2674C82.9841 23.3129 82.8414 23.3098 82.681 23.2581C82.5156 23.1925 82.4051 23.0833 82.3495 22.9305C82.2585 22.6806 82.2061 22.4716 82.1922 22.3037C82.187 22.1169 82.3442 21.9653 82.6636 21.8491C82.7886 21.8036 82.9268 21.8162 83.0783 21.8868C83.2299 21.9575 83.3284 22.0553 83.3739 22.1803ZM87.8305 32.8429C87.8558 32.9123 87.8552 32.9755 87.8287 33.0323C87.6811 33.4477 87.5404 33.8606 87.4067 34.271C87.2818 34.6624 87.1286 35.0406 86.9469 35.4055C86.779 35.7654 86.5614 36.0962 86.2938 36.398C86.0313 36.7137 85.6999 36.9916 85.2998 37.2316C84.8642 37.2014 84.5264 37.0728 84.2865 36.8456C84.0516 36.6323 83.8634 36.3312 83.7219 35.9424L83.4489 35.1925C83.3175 34.8315 83.2158 34.4439 83.1437 34.0298C83.0855 33.6107 83.0323 33.2054 82.9842 32.814C82.9121 32.227 82.8387 31.5932 82.764 30.9127C82.7032 30.2272 82.6658 29.541 82.6517 28.8542C82.6464 28.1484 82.679 27.4603 82.7495 26.7899C82.815 26.1056 82.9429 25.485 83.1334 24.9282C83.1776 24.8335 83.2344 24.7735 83.3038 24.7482C83.3871 24.7179 83.4831 24.7223 83.5917 24.7614C83.6952 24.7866 83.7647 24.8478 83.8001 24.945L83.8152 24.9867C83.847 25.8086 83.8593 26.6848 83.852 27.6153C83.8535 28.5268 83.8696 29.4567 83.9001 30.4048C83.9396 31.3341 84.0137 32.2506 84.1225 33.1546C84.2453 34.0535 84.4481 34.8917 84.7312 35.6694C84.7615 35.7527 84.8045 35.8707 84.8601 36.0235C84.9295 36.1712 85.0135 36.2507 85.112 36.262C85.3973 36.0953 85.6586 35.8194 85.8958 35.4342C86.1469 35.044 86.3652 34.65 86.5507 34.2523C86.7501 33.8495 86.9179 33.4896 87.0541 33.1727C87.1904 32.8557 87.3002 32.6821 87.3835 32.6518C87.4529 32.6265 87.535 32.6359 87.6297 32.6801C87.7383 32.7192 87.8052 32.7735 87.8305 32.8429Z"/>
<path d="M94.1705 24.6617C94.3221 25.0783 94.4182 25.5151 94.4587 25.9721C94.4942 26.4153 94.464 26.8508 94.3682 27.2789C94.058 28.7599 93.5711 30.1874 92.9074 31.5612C92.2526 32.9161 91.431 34.1587 90.4428 35.2889L90.4731 35.3723C90.4984 35.4417 90.482 35.5263 90.424 35.626C90.3848 35.7346 90.3306 35.8016 90.2611 35.8268C90.0806 35.8925 89.96 35.8421 89.8994 35.6754C89.7491 35.6515 89.6487 35.5701 89.5982 35.4312C89.578 35.3757 89.5761 35.3056 89.5925 35.221C89.1466 34.4712 88.7821 33.7075 88.4991 32.9298C88.0088 31.5828 87.6953 30.203 87.5585 28.7902C87.4167 27.3636 87.338 25.9376 87.3224 24.5122C87.3146 23.713 87.3346 22.9037 87.3823 22.0843C87.4439 21.2599 87.5478 20.4436 87.6941 19.6355C87.8491 18.8085 88.061 18.008 88.3297 17.234C88.6072 16.441 88.9491 15.6954 89.3554 14.9971C89.3819 14.9403 89.423 14.9018 89.4785 14.8815C89.5757 14.8462 89.6717 14.8506 89.7664 14.8947C89.8611 14.9389 89.9236 15.0026 89.9539 15.0859C89.9792 15.1554 89.983 15.209 89.9653 15.2469C89.7383 16.1787 89.5214 17.0518 89.3146 17.8662C89.1217 18.6756 88.9591 19.4818 88.8267 20.2848C88.6894 21.0739 88.5854 21.8902 88.515 22.7336C88.4395 23.5631 88.4151 24.4683 88.4419 25.4493C88.7574 24.847 89.1234 24.297 89.5398 23.7995C89.9513 23.288 90.4903 22.911 91.1568 22.6684C91.2679 22.628 91.3538 22.6046 91.4144 22.5982C91.4888 22.5869 91.6012 22.5931 91.7515 22.6171C91.9156 22.636 92.04 22.6536 92.1246 22.67C92.6422 22.7961 93.0697 23.0415 93.4069 23.4063C93.739 23.7572 93.9936 24.1757 94.1705 24.6617ZM93.199 25.0388C93.1333 24.8583 93.0348 24.674 92.9035 24.4859C92.7809 24.2789 92.6382 24.1028 92.4753 23.9577C92.3212 23.7936 92.1451 23.6769 91.9468 23.6075C91.7486 23.5381 91.5453 23.5413 91.337 23.6171C91.0176 23.7334 90.7166 23.9216 90.4338 24.1818C90.1599 24.423 89.9056 24.6964 89.6709 25.002C89.4361 25.3076 89.2229 25.629 89.0311 25.9661C88.8342 26.2894 88.6531 26.5912 88.4878 26.8715C88.5323 27.9876 88.621 29.0955 88.7539 30.1951C88.9007 31.2897 89.1636 32.3577 89.5427 33.3992C89.6741 33.7602 89.8289 34.1206 90.007 34.4804C90.2076 34.1243 90.4461 33.6994 90.7225 33.2057C90.9938 32.698 91.2714 32.1645 91.5553 31.6052C91.8392 31.0458 92.1086 30.4681 92.3634 29.8721C92.6322 29.271 92.8498 28.6807 93.0163 28.1012C93.1966 27.5166 93.3101 26.9642 93.3567 26.444C93.4032 25.9238 93.3507 25.4554 93.199 25.0388Z"/>
<path d="M102.993 21.3563C103.185 21.884 103.332 22.483 103.435 23.1534C103.551 23.8187 103.605 24.5068 103.596 25.2176C103.587 25.9284 103.518 26.6455 103.388 27.369C103.267 28.0735 103.068 28.7358 102.791 29.3558C102.527 29.9707 102.172 30.5087 101.727 30.9696C101.3 31.4394 100.781 31.7855 100.17 32.0079C99.7121 32.1747 99.2708 32.1937 98.8466 32.0651C98.4274 31.9503 98.0315 31.7484 97.659 31.4594C97.3003 31.1654 96.9871 30.8233 96.7193 30.4333C96.4465 30.0293 96.2393 29.6329 96.0978 29.2441C95.931 28.7859 95.8293 28.3118 95.7925 27.822C95.7163 26.4029 95.9268 25.0368 96.4238 23.7236C96.9209 22.4104 97.6964 21.2789 98.7503 20.3292C98.773 20.3052 98.8052 20.2856 98.8469 20.2705C98.9441 20.2351 99.0261 20.2445 99.0931 20.2988C99.1739 20.348 99.2295 20.4143 99.2598 20.4976C99.2952 20.5948 99.27 20.6983 99.1841 20.8082C99.0302 20.9901 98.8762 21.1719 98.7222 21.3538C98.5632 21.5217 98.4142 21.7175 98.2754 21.941C97.7139 22.7744 97.3114 23.6993 97.068 24.7157C96.8246 25.7322 96.7283 26.7422 96.7791 27.7459C96.7881 28.0729 96.8583 28.4169 96.9897 28.778C97.0958 29.0696 97.2512 29.3669 97.4558 29.6698C97.6604 29.9728 97.8991 30.2397 98.1719 30.4707C98.4396 30.6878 98.7338 30.848 99.0546 30.9515C99.3841 31.036 99.7225 31.015 100.07 30.8887C100.292 30.8078 100.485 30.6903 100.649 30.5363C100.827 30.3771 100.983 30.2022 101.119 30.0115C101.51 29.4445 101.805 28.7867 102.004 28.0379C102.204 27.2892 102.325 26.5215 102.369 25.7349C102.408 24.9345 102.375 24.1524 102.27 23.3885C102.16 22.6109 101.989 21.9026 101.756 21.2638L101.665 21.0139C101.506 20.663 101.27 20.4029 100.957 20.2339C100.657 20.0597 100.32 19.9544 99.9452 19.9179C99.8328 19.9116 99.723 19.9123 99.6157 19.9199C99.5222 19.9224 99.4263 19.918 99.3278 19.9067C99.1687 19.9017 99.0639 19.8298 99.0134 19.6909C98.978 19.5937 98.9754 19.5003 99.0057 19.4106C99.036 19.321 99.1022 19.2654 99.2045 19.2439L99.2253 19.2363C99.5409 19.1529 99.8648 19.1137 100.197 19.1186C100.543 19.1185 100.869 19.1727 101.176 19.2812C101.483 19.3897 101.761 19.5481 102.009 19.7563C102.272 19.9595 102.485 20.2201 102.648 20.5383C102.726 20.667 102.791 20.8008 102.841 20.9397C102.887 21.0647 102.937 21.2035 102.993 21.3563Z"/>
<path d="M114.475 21.9892C114.382 22.8566 114.247 23.6527 114.071 24.3774C113.889 25.0883 113.584 25.8282 113.156 26.5972C112.952 26.9862 112.655 27.2514 112.267 27.3929C112.058 27.4687 111.834 27.4795 111.594 27.4253C111.373 27.3799 111.19 27.2657 111.045 27.0827C110.992 27.0233 110.936 26.9337 110.876 26.8138C110.831 26.6888 110.776 26.5594 110.712 26.4256C110.661 26.2868 110.613 26.1548 110.567 26.0299C110.531 25.8859 110.497 25.7723 110.467 25.689C110.193 26.4491 109.796 27.1519 109.276 27.7972C108.775 28.4513 108.129 28.9224 107.338 29.2105C107.296 29.2257 107.228 29.2345 107.135 29.2371C107.055 29.2346 106.992 29.234 106.946 29.2352C106.571 29.1987 106.239 29.0442 105.951 28.7716C105.677 28.4939 105.479 28.1884 105.358 27.8551C105.191 27.3969 105.083 26.9254 105.032 26.4406C104.99 25.9368 104.991 25.4413 105.033 24.9539C105.085 24.4476 105.172 23.952 105.294 23.4672C105.417 22.9823 105.56 22.5133 105.726 22.06C106.137 20.8567 106.705 19.7379 107.429 18.7036C108.148 17.6555 109.002 16.7159 109.989 15.8849C109.998 15.866 110.023 15.8489 110.064 15.8337C110.162 15.7984 110.244 15.8078 110.311 15.8621C110.392 15.9113 110.447 15.9776 110.477 16.0609C110.523 16.1859 110.505 16.2869 110.423 16.3639C110.232 16.5748 110.039 16.7788 109.843 16.9758C109.656 17.1538 109.475 17.3458 109.298 17.5517C108.08 19.0014 107.196 20.6127 106.646 22.3854C106.539 22.739 106.437 23.1298 106.342 23.5578C106.246 23.9858 106.176 24.4202 106.132 24.8608C106.083 25.2875 106.066 25.7181 106.083 26.1524C106.113 26.5816 106.194 26.9768 106.326 27.3378C106.346 27.3934 106.383 27.4742 106.438 27.5802C106.487 27.6724 106.546 27.7689 106.614 27.8699C106.677 27.957 106.751 28.0321 106.837 28.0952C106.932 28.1394 107.021 28.1463 107.104 28.116C107.507 27.9694 107.858 27.7237 108.157 27.379C108.47 27.0291 108.735 26.6339 108.952 26.1932C109.169 25.7525 109.344 25.3036 109.476 24.8466C109.609 24.3895 109.7 23.9709 109.751 23.5909C109.858 22.8914 109.93 22.2046 109.968 21.5303C110 20.8423 110.033 20.1542 110.066 19.4661C110.072 19.1807 110.077 18.8487 110.08 18.4699C110.098 18.0861 110.126 17.7534 110.165 17.4719C110.186 17.3544 110.258 17.273 110.383 17.2275C110.48 17.1921 110.574 17.1896 110.663 17.2198C110.753 17.2501 110.815 17.3139 110.851 17.4111L110.845 17.4603C110.916 18.0006 110.976 18.553 111.024 19.1173C111.067 19.6678 111.093 20.2163 111.104 20.763C111.105 20.9827 111.1 21.2283 111.089 21.4997C111.078 21.7712 111.074 22.0003 111.08 22.1872C111.087 22.2945 111.102 22.3993 111.123 22.5015C111.159 22.5987 111.187 22.6985 111.209 22.8007C111.248 23.0381 111.28 23.2779 111.305 23.5203C111.339 23.7438 111.369 23.9767 111.395 24.2191C111.426 24.5221 111.467 24.8295 111.518 25.1414C111.577 25.4343 111.66 25.7265 111.766 26.0181C111.792 26.0876 111.814 26.1501 111.834 26.2056C111.855 26.2612 111.882 26.3142 111.916 26.3647C112.013 26.3293 112.109 26.2472 112.204 26.1184C112.312 25.9845 112.416 25.8368 112.514 25.6751C112.608 25.4996 112.687 25.3292 112.753 25.1637C112.832 24.9933 112.894 24.8607 112.938 24.766C113.193 24.17 113.409 23.533 113.587 22.8549C113.644 22.7085 113.684 22.5601 113.708 22.4099C113.741 22.2407 113.786 22.0828 113.843 21.9364C113.859 21.8518 113.909 21.7943 113.992 21.764C114.089 21.7286 114.185 21.733 114.28 21.7772C114.375 21.8213 114.44 21.892 114.475 21.9892Z"/>
<path d="M120.999 13.8591C121.039 13.9702 121.07 14.0768 121.092 14.1791C121.113 14.2814 121.13 14.3931 121.143 14.5143C121.156 14.6355 121.099 14.7188 120.974 14.7643C120.919 14.7845 120.828 14.794 120.702 14.7928C120.584 14.7726 120.515 14.7348 120.495 14.6792L120.448 14.4842C120.412 14.387 120.356 14.274 120.277 14.1452C120.213 14.0114 120.13 13.8921 120.029 13.7874C119.937 13.6637 119.834 13.5753 119.72 13.5223C119.602 13.4555 119.473 13.4473 119.334 13.4978C119.001 13.6191 118.685 13.8522 118.385 14.1969C118.081 14.5278 117.833 14.8385 117.64 15.1289C117.559 15.2527 117.451 15.4332 117.318 15.6706C117.184 15.908 117.048 16.1618 116.911 16.4321C116.773 16.7023 116.647 16.9605 116.532 17.2067C116.431 17.4479 116.366 17.6367 116.337 17.773C116.316 17.8438 116.298 17.9681 116.284 18.1461C116.279 18.3052 116.273 18.4807 116.264 18.6726C116.269 18.8595 116.264 19.0419 116.251 19.2199C116.251 19.3929 116.245 19.5286 116.234 19.6271C116.199 20.3948 116.17 21.1599 116.149 21.9224C116.142 22.68 116.151 23.4394 116.176 24.2007C116.182 24.5605 116.196 24.9247 116.22 25.2934C116.263 25.6709 116.287 26.0395 116.293 26.3994C116.277 26.5307 116.228 26.6115 116.145 26.6418C116.089 26.662 115.993 26.6576 115.857 26.6286C115.74 26.6085 115.671 26.5706 115.651 26.5151C115.595 26.3623 115.553 26.1812 115.524 25.9716C115.508 25.757 115.487 25.5682 115.459 25.4054C115.311 24.437 115.21 23.4674 115.155 22.4966C115.101 21.5257 115.093 20.5535 115.132 19.5801C115.135 19.2013 115.137 18.7525 115.137 18.2336C115.151 17.7096 115.169 17.1762 115.191 16.6333C115.209 16.0765 115.246 15.5519 115.303 15.0595C115.368 14.5482 115.466 14.1271 115.598 13.7963C115.633 13.7205 115.685 13.67 115.755 13.6447C115.81 13.6245 115.899 13.6314 116.022 13.6655C116.153 13.6806 116.231 13.7229 116.257 13.7923C116.272 13.8339 116.286 13.9154 116.298 14.0366C116.306 14.1439 116.319 14.2651 116.336 14.4002C116.349 14.5214 116.355 14.6451 116.354 14.7714C116.361 14.8787 116.366 14.9557 116.367 15.0024C116.69 14.5074 117.046 14.0395 117.436 13.5988C117.826 13.158 118.313 12.8315 118.896 12.6192C119.146 12.5283 119.382 12.5055 119.603 12.5509C119.819 12.5824 120.019 12.6587 120.205 12.7798C120.391 12.901 120.549 13.0556 120.68 13.2437C120.812 13.4318 120.918 13.6369 120.999 13.8591Z"/>
<path d="M128.126 2.39564C128.141 2.4373 128.146 2.47455 128.143 2.50737C128.087 3.73836 128.046 4.9643 128.019 6.18518C128 7.38713 128.012 8.60926 128.056 9.85158C128.163 9.84398 128.289 9.8452 128.435 9.85526C128.58 9.86532 128.673 9.92589 128.713 10.037C128.748 10.1342 128.751 10.2276 128.721 10.3173C128.69 10.4069 128.627 10.4694 128.529 10.5048C128.474 10.525 128.399 10.5364 128.306 10.539C128.226 10.5365 128.154 10.5314 128.088 10.5239C128.112 11.2385 128.152 11.9947 128.206 12.7926C128.261 13.5905 128.332 14.3903 128.419 15.192C128.52 15.9886 128.649 16.7752 128.806 17.5516C128.958 18.3141 129.155 19.0287 129.398 19.6952C129.418 19.7507 129.446 19.8271 129.481 19.9243C129.511 20.0076 129.549 20.0884 129.593 20.1667C129.637 20.245 129.683 20.3068 129.731 20.3523C129.798 20.4065 129.873 20.4185 129.956 20.3882C130.081 20.3427 130.22 20.1823 130.371 19.907C130.536 19.6267 130.692 19.3186 130.837 18.9827C130.977 18.6329 131.108 18.3021 131.23 17.9902C131.362 17.6594 131.458 17.4277 131.52 17.2951C131.536 17.2105 131.586 17.1531 131.669 17.1227C131.753 17.0924 131.842 17.0993 131.936 17.1435C132.031 17.1877 132.094 17.2514 132.124 17.3347C132.149 17.4041 132.153 17.4578 132.135 17.4957C132.014 18.0272 131.855 18.5411 131.659 19.0374C131.462 19.5336 131.237 20.0166 130.983 20.4863C130.796 20.8374 130.543 21.071 130.224 21.1873C129.946 21.2884 129.703 21.2903 129.495 21.1932C129.286 21.096 129.1 20.9515 128.936 20.7597C128.791 20.5766 128.659 20.3652 128.54 20.1253C128.435 19.8804 128.345 19.6538 128.269 19.4456C128.218 19.3067 128.17 19.1748 128.125 19.0498C128.088 18.9059 128.054 18.7689 128.022 18.6389C127.938 18.9684 127.817 19.3504 127.661 19.7847C127.5 20.2052 127.305 20.6219 127.078 21.0348C126.865 21.4427 126.613 21.8095 126.323 22.1353C126.051 22.47 125.742 22.7005 125.395 22.8268C125.034 22.9583 124.705 22.9836 124.408 22.9029C124.126 22.8171 123.874 22.6651 123.653 22.4467C123.437 22.2422 123.245 21.9974 123.079 21.7121C122.926 21.4217 122.799 21.1377 122.698 20.86C122.48 20.2629 122.33 19.6335 122.246 18.972C122.172 18.2915 122.153 17.6141 122.191 16.9399C122.237 16.2468 122.338 15.5732 122.493 14.9192C122.643 14.2512 122.851 13.6332 123.116 13.0649C123.425 12.402 123.858 11.8199 124.414 11.3185C124.966 10.8032 125.596 10.4167 126.304 10.1589C126.401 10.1235 126.492 10.0907 126.575 10.0603C126.672 10.025 126.772 9.99652 126.874 9.97503C126.84 9.40563 126.814 8.79394 126.796 8.13995C126.792 7.48091 126.809 6.81428 126.846 6.14008C126.884 5.46587 126.95 4.80491 127.045 4.1572C127.153 3.50444 127.298 2.90911 127.48 2.37121C127.496 2.28662 127.553 2.22663 127.65 2.19125C127.733 2.16092 127.822 2.16784 127.917 2.212C128.021 2.23722 128.09 2.29844 128.126 2.39564ZM126.924 10.7591L126.757 10.8197C125.933 11.104 125.274 11.5638 124.782 12.199C124.299 12.8152 123.935 13.5217 123.69 14.3185C123.454 15.0963 123.32 15.9157 123.287 16.7767C123.269 17.6328 123.316 18.4332 123.43 19.1781C123.478 19.5694 123.568 19.9456 123.699 20.3067C123.74 20.4178 123.795 20.5705 123.866 20.7649C123.946 20.9404 124.039 21.1108 124.147 21.2762C124.268 21.4365 124.393 21.564 124.522 21.6586C124.664 21.7482 124.819 21.7627 124.986 21.702C125.208 21.6212 125.451 21.3831 125.716 20.9879C125.99 20.5737 126.249 20.1178 126.492 19.6203C126.745 19.1039 126.979 18.6019 127.195 18.1145C127.41 17.6271 127.571 17.2698 127.677 17.0425C127.695 17.0046 127.718 16.9806 127.745 16.9705C127.461 15.9732 127.269 14.9499 127.171 13.9008C127.081 12.8327 126.998 11.7855 126.924 10.7591Z"/>
</mask>
<path d="M66.9669 34.563C67.1186 34.9795 67.2146 35.4164 67.2552 35.8734C67.2907 36.3165 67.2605 36.7521 67.1647 37.1801C66.8545 38.6612 66.3676 40.0886 65.7039 41.4625C65.049 42.8174 64.2275 44.0599 63.2393 45.1902L63.2696 45.2735C63.2949 45.343 63.2785 45.4276 63.2204 45.5273C63.1813 45.6359 63.1271 45.7028 63.0576 45.7281C62.8771 45.7938 62.7565 45.7433 62.6959 45.5767C62.5456 45.5528 62.4452 45.4714 62.3947 45.3325C62.3745 45.2769 62.3725 45.2069 62.3889 45.1223C61.943 44.3725 61.5786 43.6087 61.2955 42.8311C60.8053 41.4841 60.4917 40.1043 60.355 38.6915C60.2132 37.2649 60.1345 35.8389 60.1189 34.4135C60.1111 33.6143 60.131 32.805 60.1788 31.9856C60.2404 31.1611 60.3443 30.3449 60.4905 29.5368C60.6456 28.7098 60.8574 27.9093 61.1261 27.1353C61.4037 26.3423 61.7456 25.5967 62.1519 24.8984C62.1784 24.8416 62.2194 24.803 62.275 24.7828C62.3722 24.7474 62.4681 24.7518 62.5628 24.796C62.6576 24.8402 62.7201 24.9039 62.7504 24.9872C62.7757 25.0566 62.7795 25.1103 62.7618 25.1482C62.5348 26.08 62.3179 26.9531 62.1111 27.7675C61.9182 28.5769 61.7555 29.383 61.6232 30.186C61.4858 30.9752 61.3819 31.7914 61.3115 32.6348C61.236 33.4643 61.2116 34.3696 61.2384 35.3506C61.5539 34.7483 61.9198 34.1983 62.3363 33.7007C62.7478 33.1893 63.2868 32.8123 63.9533 32.5697C64.0644 32.5292 64.1502 32.5058 64.2108 32.4995C64.2853 32.4881 64.3977 32.4944 64.5479 32.5184C64.7121 32.5372 64.8364 32.5549 64.921 32.5713C65.4387 32.6974 65.8662 32.9428 66.2034 33.3076C66.5355 33.6585 66.79 34.0769 66.9669 34.563ZM65.9955 34.9401C65.9298 34.7596 65.8313 34.5753 65.6999 34.3872C65.5774 34.1802 65.4347 34.0041 65.2718 33.859C65.1177 33.6949 64.9415 33.5781 64.7433 33.5088C64.5451 33.4394 64.3418 33.4426 64.1335 33.5184C63.8141 33.6347 63.513 33.8229 63.2303 34.083C62.9564 34.3243 62.7021 34.5977 62.4673 34.9033C62.2326 35.2089 62.0193 35.5303 61.8275 35.8674C61.6307 36.1907 61.4496 36.4925 61.2843 36.7728C61.3288 37.8889 61.4175 38.9967 61.5504 40.0964C61.6972 41.1909 61.9601 42.259 62.3392 43.3005C62.4706 43.6615 62.6253 44.0219 62.8035 44.3817C63.0041 44.0256 63.2426 43.6007 63.5189 43.1069C63.7902 42.5993 64.0678 42.0658 64.3517 41.5064C64.6356 40.947 64.905 40.3693 65.1599 39.7734C65.4286 39.1723 65.6462 38.582 65.8127 38.0025C65.9931 37.4178 66.1066 36.8654 66.1531 36.3453C66.1997 35.8251 66.1472 35.3567 65.9955 34.9401Z" fill="#F5F6F7"/>
<path d="M69.9231 26.1543C69.9534 26.2376 69.9541 26.3474 69.9251 26.4838L69.927 26.5539C69.9851 26.6271 70.0217 26.6845 70.0369 26.7262C69.9649 26.831 69.9233 26.9326 69.912 27.0311C69.8956 27.1157 69.811 27.1858 69.6583 27.2414C69.5333 27.2869 69.3906 27.2838 69.2303 27.2321C69.0648 27.1664 68.9543 27.0573 68.8987 26.9045C68.8078 26.6546 68.7553 26.4456 68.7414 26.2777C68.7363 26.0909 68.8934 25.9393 69.2128 25.8231C69.3378 25.7776 69.476 25.7902 69.6275 25.8608C69.7791 25.9315 69.8776 26.0293 69.9231 26.1543ZM74.4579 37.7101C74.4831 37.7796 74.4825 37.8427 74.456 37.8995C74.3084 38.3149 74.1678 38.7278 74.0341 39.1382C73.9092 39.5296 73.7559 39.9078 73.5742 40.2727C73.4064 40.6326 73.1887 40.9635 72.9212 41.2653C72.6586 41.581 72.3273 41.8588 71.9271 42.0988C71.4916 42.0687 71.1538 41.94 70.9138 41.7128C70.679 41.4995 70.4907 41.1985 70.3492 40.8096L70.0763 40.0598C69.9449 39.6987 69.8431 39.3111 69.771 38.8971C69.7128 38.4779 69.6597 38.0727 69.6116 37.6813C69.5395 37.0942 69.4661 36.4604 69.3914 35.78C69.3306 35.0944 69.2931 34.4082 69.279 33.7214C69.2738 33.0157 69.3064 32.3276 69.3769 31.6571C69.4423 30.9728 69.5703 30.3523 69.7608 29.7954C69.805 29.7007 69.8617 29.6407 69.9312 29.6155C70.0145 29.5851 70.1105 29.5895 70.219 29.6286C70.3226 29.6538 70.392 29.7151 70.4274 29.8123L70.4426 29.8539C70.4744 30.6758 70.4866 31.552 70.4793 32.4825C70.4809 33.3941 70.4969 34.3239 70.5275 35.2721C70.5669 36.2013 70.641 37.1179 70.7499 38.0218C70.8726 38.9207 71.0755 39.759 71.3585 40.5366C71.3889 40.6199 71.4318 40.738 71.4874 40.8907C71.5569 41.0384 71.6409 41.1179 71.7394 41.1293C72.0247 40.9625 72.2859 40.6866 72.5232 40.3014C72.7743 39.9113 72.9926 39.5173 73.1781 39.1195C73.3774 38.7167 73.5453 38.3568 73.6815 38.0399C73.8178 37.723 73.9276 37.5493 74.0109 37.519C74.0803 37.4937 74.1624 37.5032 74.2571 37.5473C74.3657 37.5864 74.4326 37.6407 74.4579 37.7101Z" fill="#F5F6F7"/>
<path d="M91.4693 35.3871C91.6312 36.3504 91.5487 37.1824 91.2219 37.8832C90.9141 38.5929 90.2912 39.1498 89.3532 39.5541C88.8773 39.7588 88.3648 39.906 87.8156 39.9958C87.2715 40.0995 86.7147 40.1685 86.1453 40.2027C85.5759 40.237 85.0059 40.2479 84.4352 40.2354C83.8696 40.2369 83.3248 40.2307 82.8008 40.217C82.0383 40.1957 81.2662 40.1701 80.4847 40.14C79.7171 40.1049 78.9665 40.1815 78.233 40.3698C78.0007 40.4229 77.7779 40.4804 77.5646 40.5424C77.3563 40.6182 77.1505 40.7009 76.9472 40.7906C76.8551 40.8399 76.7674 40.8797 76.684 40.91C76.6007 40.9404 76.513 40.9801 76.4208 41.0294C76.1671 41.1532 75.9159 41.284 75.6672 41.4217C75.4375 41.5682 75.2103 41.7216 74.9856 41.8821C74.8846 41.9503 74.7792 42.0279 74.6694 42.1151C74.5507 42.2212 74.4453 42.2988 74.3532 42.3481C74.2699 42.3784 74.1739 42.374 74.0653 42.3349C73.9567 42.2958 73.8803 42.2372 73.8361 42.1589C73.7629 42.044 73.7647 41.9411 73.8417 41.8502C74.2377 40.4322 74.695 39.0313 75.2135 37.6474C75.7269 36.2496 76.2808 34.8765 76.875 33.5279C77.2321 32.7375 77.5847 31.9565 77.933 31.185C78.2762 30.3996 78.6547 29.6249 79.0686 28.8609C78.7884 29.0415 78.4848 29.2228 78.1578 29.4047C77.8258 29.5727 77.5027 29.7218 77.1883 29.8519C76.9573 29.9517 76.7029 30.0522 76.4252 30.1533C76.1424 30.2405 75.8476 30.3163 75.5409 30.3808C75.248 30.4402 74.9475 30.4788 74.6394 30.4966C74.3453 30.5093 74.0688 30.4841 73.8099 30.4211C73.7064 30.3959 73.6445 30.3555 73.6243 30.2999C73.5852 30.2355 73.5757 30.1446 73.5958 30.0272C73.616 29.9098 73.6677 29.8359 73.751 29.8056L73.7927 29.7904C74.5287 29.6955 75.2414 29.5148 75.9307 29.2482C76.1566 29.1345 76.3712 29.0328 76.5745 28.9431C76.7865 28.8344 76.9986 28.7258 77.2107 28.6172C77.5932 28.415 77.9542 28.1972 78.2938 27.9635C78.6472 27.7248 79.0202 27.5182 79.4128 27.3439C79.4772 27.3047 79.5858 27.2573 79.7385 27.2017C79.8913 27.1461 80.0099 27.1265 80.0945 27.1429C80.0932 27.0962 80.1273 27.0602 80.1968 27.035C80.2801 27.0046 80.376 27.009 80.4846 27.0481C80.5882 27.0733 80.6646 27.132 80.7138 27.2242C80.7429 27.2608 80.7561 27.3189 80.7536 27.3984C80.6288 27.9628 80.4503 28.531 80.2182 29.103C79.9861 29.675 79.7375 30.2451 79.4725 30.8133C79.2076 31.3815 78.9331 31.9453 78.6492 32.5047C78.3603 33.0502 78.0921 33.5882 77.8448 34.1185C77.3414 35.1981 76.8613 36.2771 76.4046 37.3554C75.9618 38.4287 75.517 39.5184 75.0704 40.6245C75.5779 40.204 76.1503 39.8541 76.7878 39.5749C77.2915 39.3601 77.7807 39.2135 78.2554 39.1351C78.749 39.0655 79.2363 39.0218 79.7174 39.004C80.2034 39 80.6971 39.0169 81.1983 39.0547C81.6996 39.0924 82.2191 39.1156 82.757 39.1243C83.6786 39.1505 84.6022 39.1603 85.5276 39.1538C86.453 39.1472 87.3646 39.0592 88.2622 38.8897C88.5551 38.8303 88.8101 38.7532 89.0272 38.6584C89.1105 38.6281 89.1774 38.5959 89.2279 38.5618C89.6937 38.3294 90.0686 38.0199 90.3526 37.6335C90.6504 37.242 90.8157 36.7887 90.8484 36.2736C90.8584 36.1284 90.8546 35.9883 90.8369 35.8532C90.8192 35.7181 90.8109 35.5874 90.8121 35.4612C90.7995 35.34 90.8487 35.2591 90.9598 35.2187C91.0431 35.1884 91.1296 35.1884 91.2192 35.2186C91.3228 35.2439 91.4061 35.3 91.4693 35.3871Z" fill="#F5F6F7"/>
<path d="M83.3739 22.1803C83.4042 22.2636 83.4048 22.3734 83.3758 22.5098L83.3778 22.5799C83.4359 22.6531 83.4725 22.7105 83.4876 22.7522C83.4157 22.857 83.3741 22.9586 83.3627 23.0571C83.3464 23.1417 83.2618 23.2118 83.109 23.2674C82.9841 23.3129 82.8414 23.3098 82.681 23.2581C82.5156 23.1925 82.4051 23.0833 82.3495 22.9305C82.2585 22.6806 82.2061 22.4716 82.1922 22.3037C82.187 22.1169 82.3442 21.9653 82.6636 21.8491C82.7886 21.8036 82.9268 21.8162 83.0783 21.8868C83.2299 21.9575 83.3284 22.0553 83.3739 22.1803ZM87.8305 32.8429C87.8558 32.9123 87.8552 32.9755 87.8287 33.0323C87.6811 33.4477 87.5404 33.8606 87.4067 34.271C87.2818 34.6624 87.1286 35.0406 86.9469 35.4055C86.779 35.7654 86.5614 36.0962 86.2938 36.398C86.0313 36.7137 85.6999 36.9916 85.2998 37.2316C84.8642 37.2014 84.5264 37.0728 84.2865 36.8456C84.0516 36.6323 83.8634 36.3312 83.7219 35.9424L83.4489 35.1925C83.3175 34.8315 83.2158 34.4439 83.1437 34.0298C83.0855 33.6107 83.0323 33.2054 82.9842 32.814C82.9121 32.227 82.8387 31.5932 82.764 30.9127C82.7032 30.2272 82.6658 29.541 82.6517 28.8542C82.6464 28.1484 82.679 27.4603 82.7495 26.7899C82.815 26.1056 82.9429 25.485 83.1334 24.9282C83.1776 24.8335 83.2344 24.7735 83.3038 24.7482C83.3871 24.7179 83.4831 24.7223 83.5917 24.7614C83.6952 24.7866 83.7647 24.8478 83.8001 24.945L83.8152 24.9867C83.847 25.8086 83.8593 26.6848 83.852 27.6153C83.8535 28.5268 83.8696 29.4567 83.9001 30.4048C83.9396 31.3341 84.0137 32.2506 84.1225 33.1546C84.2453 34.0535 84.4481 34.8917 84.7312 35.6694C84.7615 35.7527 84.8045 35.8707 84.8601 36.0235C84.9295 36.1712 85.0135 36.2507 85.112 36.262C85.3973 36.0953 85.6586 35.8194 85.8958 35.4342C86.1469 35.044 86.3652 34.65 86.5507 34.2523C86.7501 33.8495 86.9179 33.4896 87.0541 33.1727C87.1904 32.8557 87.3002 32.6821 87.3835 32.6518C87.4529 32.6265 87.535 32.6359 87.6297 32.6801C87.7383 32.7192 87.8052 32.7735 87.8305 32.8429Z" fill="#F5F6F7"/>
<path d="M94.1705 24.6617C94.3221 25.0783 94.4182 25.5151 94.4587 25.9721C94.4942 26.4153 94.464 26.8508 94.3682 27.2789C94.058 28.7599 93.5711 30.1874 92.9074 31.5612C92.2526 32.9161 91.431 34.1587 90.4428 35.2889L90.4731 35.3723C90.4984 35.4417 90.482 35.5263 90.424 35.626C90.3848 35.7346 90.3306 35.8016 90.2611 35.8268C90.0806 35.8925 89.96 35.8421 89.8994 35.6754C89.7491 35.6515 89.6487 35.5701 89.5982 35.4312C89.578 35.3757 89.5761 35.3056 89.5925 35.221C89.1466 34.4712 88.7821 33.7075 88.4991 32.9298C88.0088 31.5828 87.6953 30.203 87.5585 28.7902C87.4167 27.3636 87.338 25.9376 87.3224 24.5122C87.3146 23.713 87.3346 22.9037 87.3823 22.0843C87.4439 21.2599 87.5478 20.4436 87.6941 19.6355C87.8491 18.8085 88.061 18.008 88.3297 17.234C88.6072 16.441 88.9491 15.6954 89.3554 14.9971C89.3819 14.9403 89.423 14.9018 89.4785 14.8815C89.5757 14.8462 89.6717 14.8506 89.7664 14.8947C89.8611 14.9389 89.9236 15.0026 89.9539 15.0859C89.9792 15.1554 89.983 15.209 89.9653 15.2469C89.7383 16.1787 89.5214 17.0518 89.3146 17.8662C89.1217 18.6756 88.9591 19.4818 88.8267 20.2848C88.6894 21.0739 88.5854 21.8902 88.515 22.7336C88.4395 23.5631 88.4151 24.4683 88.4419 25.4493C88.7574 24.847 89.1234 24.297 89.5398 23.7995C89.9513 23.288 90.4903 22.911 91.1568 22.6684C91.2679 22.628 91.3538 22.6046 91.4144 22.5982C91.4888 22.5869 91.6012 22.5931 91.7515 22.6171C91.9156 22.636 92.04 22.6536 92.1246 22.67C92.6422 22.7961 93.0697 23.0415 93.4069 23.4063C93.739 23.7572 93.9936 24.1757 94.1705 24.6617ZM93.199 25.0388C93.1333 24.8583 93.0348 24.674 92.9035 24.4859C92.7809 24.2789 92.6382 24.1028 92.4753 23.9577C92.3212 23.7936 92.1451 23.6769 91.9468 23.6075C91.7486 23.5381 91.5453 23.5413 91.337 23.6171C91.0176 23.7334 90.7166 23.9216 90.4338 24.1818C90.1599 24.423 89.9056 24.6964 89.6709 25.002C89.4361 25.3076 89.2229 25.629 89.0311 25.9661C88.8342 26.2894 88.6531 26.5912 88.4878 26.8715C88.5323 27.9876 88.621 29.0955 88.7539 30.1951C88.9007 31.2897 89.1636 32.3577 89.5427 33.3992C89.6741 33.7602 89.8289 34.1206 90.007 34.4804C90.2076 34.1243 90.4461 33.6994 90.7225 33.2057C90.9938 32.698 91.2714 32.1645 91.5553 31.6052C91.8392 31.0458 92.1086 30.4681 92.3634 29.8721C92.6322 29.271 92.8498 28.6807 93.0163 28.1012C93.1966 27.5166 93.3101 26.9642 93.3567 26.444C93.4032 25.9238 93.3507 25.4554 93.199 25.0388Z" fill="#F5F6F7"/>
<path d="M102.993 21.3563C103.185 21.884 103.332 22.483 103.435 23.1534C103.551 23.8187 103.605 24.5068 103.596 25.2176C103.587 25.9284 103.518 26.6455 103.388 27.369C103.267 28.0735 103.068 28.7358 102.791 29.3558C102.527 29.9707 102.172 30.5087 101.727 30.9696C101.3 31.4394 100.781 31.7855 100.17 32.0079C99.7121 32.1747 99.2708 32.1937 98.8466 32.0651C98.4274 31.9503 98.0315 31.7484 97.659 31.4594C97.3003 31.1654 96.9871 30.8233 96.7193 30.4333C96.4465 30.0293 96.2393 29.6329 96.0978 29.2441C95.931 28.7859 95.8293 28.3118 95.7925 27.822C95.7163 26.4029 95.9268 25.0368 96.4238 23.7236C96.9209 22.4104 97.6964 21.2789 98.7503 20.3292C98.773 20.3052 98.8052 20.2856 98.8469 20.2705C98.9441 20.2351 99.0261 20.2445 99.0931 20.2988C99.1739 20.348 99.2295 20.4143 99.2598 20.4976C99.2952 20.5948 99.27 20.6983 99.1841 20.8082C99.0302 20.9901 98.8762 21.1719 98.7222 21.3538C98.5632 21.5217 98.4142 21.7175 98.2754 21.941C97.7139 22.7744 97.3114 23.6993 97.068 24.7157C96.8246 25.7322 96.7283 26.7422 96.7791 27.7459C96.7881 28.0729 96.8583 28.4169 96.9897 28.778C97.0958 29.0696 97.2512 29.3669 97.4558 29.6698C97.6604 29.9728 97.8991 30.2397 98.1719 30.4707C98.4396 30.6878 98.7338 30.848 99.0546 30.9515C99.3841 31.036 99.7225 31.015 100.07 30.8887C100.292 30.8078 100.485 30.6903 100.649 30.5363C100.827 30.3771 100.983 30.2022 101.119 30.0115C101.51 29.4445 101.805 28.7867 102.004 28.0379C102.204 27.2892 102.325 26.5215 102.369 25.7349C102.408 24.9345 102.375 24.1524 102.27 23.3885C102.16 22.6109 101.989 21.9026 101.756 21.2638L101.665 21.0139C101.506 20.663 101.27 20.4029 100.957 20.2339C100.657 20.0597 100.32 19.9544 99.9452 19.9179C99.8328 19.9116 99.723 19.9123 99.6157 19.9199C99.5222 19.9224 99.4263 19.918 99.3278 19.9067C99.1687 19.9017 99.0639 19.8298 99.0134 19.6909C98.978 19.5937 98.9754 19.5003 99.0057 19.4106C99.036 19.321 99.1022 19.2654 99.2045 19.2439L99.2253 19.2363C99.5409 19.1529 99.8648 19.1137 100.197 19.1186C100.543 19.1185 100.869 19.1727 101.176 19.2812C101.483 19.3897 101.761 19.5481 102.009 19.7563C102.272 19.9595 102.485 20.2201 102.648 20.5383C102.726 20.667 102.791 20.8008 102.841 20.9397C102.887 21.0647 102.937 21.2035 102.993 21.3563Z" fill="#F5F6F7"/>
<path d="M114.475 21.9892C114.382 22.8566 114.247 23.6527 114.071 24.3774C113.889 25.0883 113.584 25.8282 113.156 26.5972C112.952 26.9862 112.655 27.2514 112.267 27.3929C112.058 27.4687 111.834 27.4795 111.594 27.4253C111.373 27.3799 111.19 27.2657 111.045 27.0827C110.992 27.0233 110.936 26.9337 110.876 26.8138C110.831 26.6888 110.776 26.5594 110.712 26.4256C110.661 26.2868 110.613 26.1548 110.567 26.0299C110.531 25.8859 110.497 25.7723 110.467 25.689C110.193 26.4491 109.796 27.1519 109.276 27.7972C108.775 28.4513 108.129 28.9224 107.338 29.2105C107.296 29.2257 107.228 29.2345 107.135 29.2371C107.055 29.2346 106.992 29.234 106.946 29.2352C106.571 29.1987 106.239 29.0442 105.951 28.7716C105.677 28.4939 105.479 28.1884 105.358 27.8551C105.191 27.3969 105.083 26.9254 105.032 26.4406C104.99 25.9368 104.991 25.4413 105.033 24.9539C105.085 24.4476 105.172 23.952 105.294 23.4672C105.417 22.9823 105.56 22.5133 105.726 22.06C106.137 20.8567 106.705 19.7379 107.429 18.7036C108.148 17.6555 109.002 16.7159 109.989 15.8849C109.998 15.866 110.023 15.8489 110.064 15.8337C110.162 15.7984 110.244 15.8078 110.311 15.8621C110.392 15.9113 110.447 15.9776 110.477 16.0609C110.523 16.1859 110.505 16.2869 110.423 16.3639C110.232 16.5748 110.039 16.7788 109.843 16.9758C109.656 17.1538 109.475 17.3458 109.298 17.5517C108.08 19.0014 107.196 20.6127 106.646 22.3854C106.539 22.739 106.437 23.1298 106.342 23.5578C106.246 23.9858 106.176 24.4202 106.132 24.8608C106.083 25.2875 106.066 25.7181 106.083 26.1524C106.113 26.5816 106.194 26.9768 106.326 27.3378C106.346 27.3934 106.383 27.4742 106.438 27.5802C106.487 27.6724 106.546 27.7689 106.614 27.8699C106.677 27.957 106.751 28.0321 106.837 28.0952C106.932 28.1394 107.021 28.1463 107.104 28.116C107.507 27.9694 107.858 27.7237 108.157 27.379C108.47 27.0291 108.735 26.6339 108.952 26.1932C109.169 25.7525 109.344 25.3036 109.476 24.8466C109.609 24.3895 109.7 23.9709 109.751 23.5909C109.858 22.8914 109.93 22.2046 109.968 21.5303C110 20.8423 110.033 20.1542 110.066 19.4661C110.072 19.1807 110.077 18.8487 110.08 18.4699C110.098 18.0861 110.126 17.7534 110.165 17.4719C110.186 17.3544 110.258 17.273 110.383 17.2275C110.48 17.1921 110.574 17.1896 110.663 17.2198C110.753 17.2501 110.815 17.3139 110.851 17.4111L110.845 17.4603C110.916 18.0006 110.976 18.553 111.024 19.1173C111.067 19.6678 111.093 20.2163 111.104 20.763C111.105 20.9827 111.1 21.2283 111.089 21.4997C111.078 21.7712 111.074 22.0003 111.08 22.1872C111.087 22.2945 111.102 22.3993 111.123 22.5015C111.159 22.5987 111.187 22.6985 111.209 22.8007C111.248 23.0381 111.28 23.2779 111.305 23.5203C111.339 23.7438 111.369 23.9767 111.395 24.2191C111.426 24.5221 111.467 24.8295 111.518 25.1414C111.577 25.4343 111.66 25.7265 111.766 26.0181C111.792 26.0876 111.814 26.1501 111.834 26.2056C111.855 26.2612 111.882 26.3142 111.916 26.3647C112.013 26.3293 112.109 26.2472 112.204 26.1184C112.312 25.9845 112.416 25.8368 112.514 25.6751C112.608 25.4996 112.687 25.3292 112.753 25.1637C112.832 24.9933 112.894 24.8607 112.938 24.766C113.193 24.17 113.409 23.533 113.587 22.8549C113.644 22.7085 113.684 22.5601 113.708 22.4099C113.741 22.2407 113.786 22.0828 113.843 21.9364C113.859 21.8518 113.909 21.7943 113.992 21.764C114.089 21.7286 114.185 21.733 114.28 21.7772C114.375 21.8213 114.44 21.892 114.475 21.9892Z" fill="#F5F6F7"/>
<path d="M120.999 13.8591C121.039 13.9702 121.07 14.0768 121.092 14.1791C121.113 14.2814 121.13 14.3931 121.143 14.5143C121.156 14.6355 121.099 14.7188 120.974 14.7643C120.919 14.7845 120.828 14.794 120.702 14.7928C120.584 14.7726 120.515 14.7348 120.495 14.6792L120.448 14.4842C120.412 14.387 120.356 14.274 120.277 14.1452C120.213 14.0114 120.13 13.8921 120.029 13.7874C119.937 13.6637 119.834 13.5753 119.72 13.5223C119.602 13.4555 119.473 13.4473 119.334 13.4978C119.001 13.6191 118.685 13.8522 118.385 14.1969C118.081 14.5278 117.833 14.8385 117.64 15.1289C117.559 15.2527 117.451 15.4332 117.318 15.6706C117.184 15.908 117.048 16.1618 116.911 16.4321C116.773 16.7023 116.647 16.9605 116.532 17.2067C116.431 17.4479 116.366 17.6367 116.337 17.773C116.316 17.8438 116.298 17.9681 116.284 18.1461C116.279 18.3052 116.273 18.4807 116.264 18.6726C116.269 18.8595 116.264 19.0419 116.251 19.2199C116.251 19.3929 116.245 19.5286 116.234 19.6271C116.199 20.3948 116.17 21.1599 116.149 21.9224C116.142 22.68 116.151 23.4394 116.176 24.2007C116.182 24.5605 116.196 24.9247 116.22 25.2934C116.263 25.6709 116.287 26.0395 116.293 26.3994C116.277 26.5307 116.228 26.6115 116.145 26.6418C116.089 26.662 115.993 26.6576 115.857 26.6286C115.74 26.6085 115.671 26.5706 115.651 26.5151C115.595 26.3623 115.553 26.1812 115.524 25.9716C115.508 25.757 115.487 25.5682 115.459 25.4054C115.311 24.437 115.21 23.4674 115.155 22.4966C115.101 21.5257 115.093 20.5535 115.132 19.5801C115.135 19.2013 115.137 18.7525 115.137 18.2336C115.151 17.7096 115.169 17.1762 115.191 16.6333C115.209 16.0765 115.246 15.5519 115.303 15.0595C115.368 14.5482 115.466 14.1271 115.598 13.7963C115.633 13.7205 115.685 13.67 115.755 13.6447C115.81 13.6245 115.899 13.6314 116.022 13.6655C116.153 13.6806 116.231 13.7229 116.257 13.7923C116.272 13.8339 116.286 13.9154 116.298 14.0366C116.306 14.1439 116.319 14.2651 116.336 14.4002C116.349 14.5214 116.355 14.6451 116.354 14.7714C116.361 14.8787 116.366 14.9557 116.367 15.0024C116.69 14.5074 117.046 14.0395 117.436 13.5988C117.826 13.158 118.313 12.8315 118.896 12.6192C119.146 12.5283 119.382 12.5055 119.603 12.5509C119.819 12.5824 120.019 12.6587 120.205 12.7798C120.391 12.901 120.549 13.0556 120.68 13.2437C120.812 13.4318 120.918 13.6369 120.999 13.8591Z" fill="#F5F6F7"/>
<path d="M128.126 2.39564C128.141 2.4373 128.146 2.47455 128.143 2.50737C128.087 3.73836 128.046 4.9643 128.019 6.18518C128 7.38713 128.012 8.60926 128.056 9.85158C128.163 9.84398 128.289 9.8452 128.435 9.85526C128.58 9.86532 128.673 9.92589 128.713 10.037C128.748 10.1342 128.751 10.2276 128.721 10.3173C128.69 10.4069 128.627 10.4694 128.529 10.5048C128.474 10.525 128.399 10.5364 128.306 10.539C128.226 10.5365 128.154 10.5314 128.088 10.5239C128.112 11.2385 128.152 11.9947 128.206 12.7926C128.261 13.5905 128.332 14.3903 128.419 15.192C128.52 15.9886 128.649 16.7752 128.806 17.5516C128.958 18.3141 129.155 19.0287 129.398 19.6952C129.418 19.7507 129.446 19.8271 129.481 19.9243C129.511 20.0076 129.549 20.0884 129.593 20.1667C129.637 20.245 129.683 20.3068 129.731 20.3523C129.798 20.4065 129.873 20.4185 129.956 20.3882C130.081 20.3427 130.22 20.1823 130.371 19.907C130.536 19.6267 130.692 19.3186 130.837 18.9827C130.977 18.6329 131.108 18.3021 131.23 17.9902C131.362 17.6594 131.458 17.4277 131.52 17.2951C131.536 17.2105 131.586 17.1531 131.669 17.1227C131.753 17.0924 131.842 17.0993 131.936 17.1435C132.031 17.1877 132.094 17.2514 132.124 17.3347C132.149 17.4041 132.153 17.4578 132.135 17.4957C132.014 18.0272 131.855 18.5411 131.659 19.0374C131.462 19.5336 131.237 20.0166 130.983 20.4863C130.796 20.8374 130.543 21.071 130.224 21.1873C129.946 21.2884 129.703 21.2903 129.495 21.1932C129.286 21.096 129.1 20.9515 128.936 20.7597C128.791 20.5766 128.659 20.3652 128.54 20.1253C128.435 19.8804 128.345 19.6538 128.269 19.4456C128.218 19.3067 128.17 19.1748 128.125 19.0498C128.088 18.9059 128.054 18.7689 128.022 18.6389C127.938 18.9684 127.817 19.3504 127.661 19.7847C127.5 20.2052 127.305 20.6219 127.078 21.0348C126.865 21.4427 126.613 21.8095 126.323 22.1353C126.051 22.47 125.742 22.7005 125.395 22.8268C125.034 22.9583 124.705 22.9836 124.408 22.9029C124.126 22.8171 123.874 22.6651 123.653 22.4467C123.437 22.2422 123.245 21.9974 123.079 21.7121C122.926 21.4217 122.799 21.1377 122.698 20.86C122.48 20.2629 122.33 19.6335 122.246 18.972C122.172 18.2915 122.153 17.6141 122.191 16.9399C122.237 16.2468 122.338 15.5732 122.493 14.9192C122.643 14.2512 122.851 13.6332 123.116 13.0649C123.425 12.402 123.858 11.8199 124.414 11.3185C124.966 10.8032 125.596 10.4167 126.304 10.1589C126.401 10.1235 126.492 10.0907 126.575 10.0603C126.672 10.025 126.772 9.99652 126.874 9.97503C126.84 9.40563 126.814 8.79394 126.796 8.13995C126.792 7.48091 126.809 6.81428 126.846 6.14008C126.884 5.46587 126.95 4.80491 127.045 4.1572C127.153 3.50444 127.298 2.90911 127.48 2.37121C127.496 2.28662 127.553 2.22663 127.65 2.19125C127.733 2.16092 127.822 2.16784 127.917 2.212C128.021 2.23722 128.09 2.29844 128.126 2.39564ZM126.924 10.7591L126.757 10.8197C125.933 11.104 125.274 11.5638 124.782 12.199C124.299 12.8152 123.935 13.5217 123.69 14.3185C123.454 15.0963 123.32 15.9157 123.287 16.7767C123.269 17.6328 123.316 18.4332 123.43 19.1781C123.478 19.5694 123.568 19.9456 123.699 20.3067C123.74 20.4178 123.795 20.5705 123.866 20.7649C123.946 20.9404 124.039 21.1108 124.147 21.2762C124.268 21.4365 124.393 21.564 124.522 21.6586C124.664 21.7482 124.819 21.7627 124.986 21.702C125.208 21.6212 125.451 21.3831 125.716 20.9879C125.99 20.5737 126.249 20.1178 126.492 19.6203C126.745 19.1039 126.979 18.6019 127.195 18.1145C127.41 17.6271 127.571 17.2698 127.677 17.0425C127.695 17.0046 127.718 16.9806 127.745 16.9705C127.461 15.9732 127.269 14.9499 127.171 13.9008C127.081 12.8327 126.998 11.7855 126.924 10.7591Z" fill="#F5F6F7"/>
<path d="M66.9669 34.563C67.1186 34.9795 67.2146 35.4164 67.2552 35.8734C67.2907 36.3165 67.2605 36.7521 67.1647 37.1801C66.8545 38.6612 66.3676 40.0886 65.7039 41.4625C65.049 42.8174 64.2275 44.0599 63.2393 45.1902L63.2696 45.2735C63.2949 45.343 63.2785 45.4276 63.2204 45.5273C63.1813 45.6359 63.1271 45.7028 63.0576 45.7281C62.8771 45.7938 62.7565 45.7433 62.6959 45.5767C62.5456 45.5528 62.4452 45.4714 62.3947 45.3325C62.3745 45.2769 62.3725 45.2069 62.3889 45.1223C61.943 44.3725 61.5786 43.6087 61.2955 42.8311C60.8053 41.4841 60.4917 40.1043 60.355 38.6915C60.2132 37.2649 60.1345 35.8389 60.1189 34.4135C60.1111 33.6143 60.131 32.805 60.1788 31.9856C60.2404 31.1611 60.3443 30.3449 60.4905 29.5368C60.6456 28.7098 60.8574 27.9093 61.1261 27.1353C61.4037 26.3423 61.7456 25.5967 62.1519 24.8984C62.1784 24.8416 62.2194 24.803 62.275 24.7828C62.3722 24.7474 62.4681 24.7518 62.5628 24.796C62.6576 24.8402 62.7201 24.9039 62.7504 24.9872C62.7757 25.0566 62.7795 25.1103 62.7618 25.1482C62.5348 26.08 62.3179 26.9531 62.1111 27.7675C61.9182 28.5769 61.7555 29.383 61.6232 30.186C61.4858 30.9752 61.3819 31.7914 61.3115 32.6348C61.236 33.4643 61.2116 34.3696 61.2384 35.3506C61.5539 34.7483 61.9198 34.1983 62.3363 33.7007C62.7478 33.1893 63.2868 32.8123 63.9533 32.5697C64.0644 32.5292 64.1502 32.5058 64.2108 32.4995C64.2853 32.4881 64.3977 32.4944 64.5479 32.5184C64.7121 32.5372 64.8364 32.5549 64.921 32.5713C65.4387 32.6974 65.8662 32.9428 66.2034 33.3076C66.5355 33.6585 66.79 34.0769 66.9669 34.563ZM65.9955 34.9401C65.9298 34.7596 65.8313 34.5753 65.6999 34.3872C65.5774 34.1802 65.4347 34.0041 65.2718 33.859C65.1177 33.6949 64.9415 33.5781 64.7433 33.5088C64.5451 33.4394 64.3418 33.4426 64.1335 33.5184C63.8141 33.6347 63.513 33.8229 63.2303 34.083C62.9564 34.3243 62.7021 34.5977 62.4673 34.9033C62.2326 35.2089 62.0193 35.5303 61.8275 35.8674C61.6307 36.1907 61.4496 36.4925 61.2843 36.7728C61.3288 37.8889 61.4175 38.9967 61.5504 40.0964C61.6972 41.1909 61.9601 42.259 62.3392 43.3005C62.4706 43.6615 62.6253 44.0219 62.8035 44.3817C63.0041 44.0256 63.2426 43.6007 63.5189 43.1069C63.7902 42.5993 64.0678 42.0658 64.3517 41.5064C64.6356 40.947 64.905 40.3693 65.1599 39.7734C65.4286 39.1723 65.6462 38.582 65.8127 38.0025C65.9931 37.4178 66.1066 36.8654 66.1531 36.3453C66.1997 35.8251 66.1472 35.3567 65.9955 34.9401Z" stroke="#F5F6F7" mask="url(#path-3-outside-1_110_110)"/>
<path d="M69.9231 26.1543C69.9534 26.2376 69.9541 26.3474 69.9251 26.4838L69.927 26.5539C69.9851 26.6271 70.0217 26.6845 70.0369 26.7262C69.9649 26.831 69.9233 26.9326 69.912 27.0311C69.8956 27.1157 69.811 27.1858 69.6583 27.2414C69.5333 27.2869 69.3906 27.2838 69.2303 27.2321C69.0648 27.1664 68.9543 27.0573 68.8987 26.9045C68.8078 26.6546 68.7553 26.4456 68.7414 26.2777C68.7363 26.0909 68.8934 25.9393 69.2128 25.8231C69.3378 25.7776 69.476 25.7902 69.6275 25.8608C69.7791 25.9315 69.8776 26.0293 69.9231 26.1543ZM74.4579 37.7101C74.4831 37.7796 74.4825 37.8427 74.456 37.8995C74.3084 38.3149 74.1678 38.7278 74.0341 39.1382C73.9092 39.5296 73.7559 39.9078 73.5742 40.2727C73.4064 40.6326 73.1887 40.9635 72.9212 41.2653C72.6586 41.581 72.3273 41.8588 71.9271 42.0988C71.4916 42.0687 71.1538 41.94 70.9138 41.7128C70.679 41.4995 70.4907 41.1985 70.3492 40.8096L70.0763 40.0598C69.9449 39.6987 69.8431 39.3111 69.771 38.8971C69.7128 38.4779 69.6597 38.0727 69.6116 37.6813C69.5395 37.0942 69.4661 36.4604 69.3914 35.78C69.3306 35.0944 69.2931 34.4082 69.279 33.7214C69.2738 33.0157 69.3064 32.3276 69.3769 31.6571C69.4423 30.9728 69.5703 30.3523 69.7608 29.7954C69.805 29.7007 69.8617 29.6407 69.9312 29.6155C70.0145 29.5851 70.1105 29.5895 70.219 29.6286C70.3226 29.6538 70.392 29.7151 70.4274 29.8123L70.4426 29.8539C70.4744 30.6758 70.4866 31.552 70.4793 32.4825C70.4809 33.3941 70.4969 34.3239 70.5275 35.2721C70.5669 36.2013 70.641 37.1179 70.7499 38.0218C70.8726 38.9207 71.0755 39.759 71.3585 40.5366C71.3889 40.6199 71.4318 40.738 71.4874 40.8907C71.5569 41.0384 71.6409 41.1179 71.7394 41.1293C72.0247 40.9625 72.2859 40.6866 72.5232 40.3014C72.7743 39.9113 72.9926 39.5173 73.1781 39.1195C73.3774 38.7167 73.5453 38.3568 73.6815 38.0399C73.8178 37.723 73.9276 37.5493 74.0109 37.519C74.0803 37.4937 74.1624 37.5032 74.2571 37.5473C74.3657 37.5864 74.4326 37.6407 74.4579 37.7101Z" stroke="#F5F6F7" mask="url(#path-3-outside-1_110_110)"/>
<path d="M91.4693 35.3871C91.6312 36.3504 91.5487 37.1824 91.2219 37.8832C90.9141 38.5929 90.2912 39.1498 89.3532 39.5541C88.8773 39.7588 88.3648 39.906 87.8156 39.9958C87.2715 40.0995 86.7147 40.1685 86.1453 40.2027C85.5759 40.237 85.0059 40.2479 84.4352 40.2354C83.8696 40.2369 83.3248 40.2307 82.8008 40.217C82.0383 40.1957 81.2662 40.1701 80.4847 40.14C79.7171 40.1049 78.9665 40.1815 78.233 40.3698C78.0007 40.4229 77.7779 40.4804 77.5646 40.5424C77.3563 40.6182 77.1505 40.7009 76.9472 40.7906C76.8551 40.8399 76.7674 40.8797 76.684 40.91C76.6007 40.9404 76.513 40.9801 76.4208 41.0294C76.1671 41.1532 75.9159 41.284 75.6672 41.4217C75.4375 41.5682 75.2103 41.7216 74.9856 41.8821C74.8846 41.9503 74.7792 42.0279 74.6694 42.1151C74.5507 42.2212 74.4453 42.2988 74.3532 42.3481C74.2699 42.3784 74.1739 42.374 74.0653 42.3349C73.9567 42.2958 73.8803 42.2372 73.8361 42.1589C73.7629 42.044 73.7647 41.9411 73.8417 41.8502C74.2377 40.4322 74.695 39.0313 75.2135 37.6474C75.7269 36.2496 76.2808 34.8765 76.875 33.5279C77.2321 32.7375 77.5847 31.9565 77.933 31.185C78.2762 30.3996 78.6547 29.6249 79.0686 28.8609C78.7884 29.0415 78.4848 29.2228 78.1578 29.4047C77.8258 29.5727 77.5027 29.7218 77.1883 29.8519C76.9573 29.9517 76.7029 30.0522 76.4252 30.1533C76.1424 30.2405 75.8476 30.3163 75.5409 30.3808C75.248 30.4402 74.9475 30.4788 74.6394 30.4966C74.3453 30.5093 74.0688 30.4841 73.8099 30.4211C73.7064 30.3959 73.6445 30.3555 73.6243 30.2999C73.5852 30.2355 73.5757 30.1446 73.5958 30.0272C73.616 29.9098 73.6677 29.8359 73.751 29.8056L73.7927 29.7904C74.5287 29.6955 75.2414 29.5148 75.9307 29.2482C76.1566 29.1345 76.3712 29.0328 76.5745 28.9431C76.7865 28.8344 76.9986 28.7258 77.2107 28.6172C77.5932 28.415 77.9542 28.1972 78.2938 27.9635C78.6472 27.7248 79.0202 27.5182 79.4128 27.3439C79.4772 27.3047 79.5858 27.2573 79.7385 27.2017C79.8913 27.1461 80.0099 27.1265 80.0945 27.1429C80.0932 27.0962 80.1273 27.0602 80.1968 27.035C80.2801 27.0046 80.376 27.009 80.4846 27.0481C80.5882 27.0733 80.6646 27.132 80.7138 27.2242C80.7429 27.2608 80.7561 27.3189 80.7536 27.3984C80.6288 27.9628 80.4503 28.531 80.2182 29.103C79.9861 29.675 79.7375 30.2451 79.4725 30.8133C79.2076 31.3815 78.9331 31.9453 78.6492 32.5047C78.3603 33.0502 78.0921 33.5882 77.8448 34.1185C77.3414 35.1981 76.8613 36.2771 76.4046 37.3554C75.9618 38.4287 75.517 39.5184 75.0704 40.6245C75.5779 40.204 76.1503 39.8541 76.7878 39.5749C77.2915 39.3601 77.7807 39.2135 78.2554 39.1351C78.749 39.0655 79.2363 39.0218 79.7174 39.004C80.2034 39 80.6971 39.0169 81.1983 39.0547C81.6996 39.0924 82.2191 39.1156 82.757 39.1243C83.6786 39.1505 84.6022 39.1603 85.5276 39.1538C86.453 39.1472 87.3646 39.0592 88.2622 38.8897C88.5551 38.8303 88.8101 38.7532 89.0272 38.6584C89.1105 38.6281 89.1774 38.5959 89.2279 38.5618C89.6937 38.3294 90.0686 38.0199 90.3526 37.6335C90.6504 37.242 90.8157 36.7887 90.8484 36.2736C90.8584 36.1284 90.8546 35.9883 90.8369 35.8532C90.8192 35.7181 90.8109 35.5874 90.8121 35.4612C90.7995 35.34 90.8487 35.2591 90.9598 35.2187C91.0431 35.1884 91.1296 35.1884 91.2192 35.2186C91.3228 35.2439 91.4061 35.3 91.4693 35.3871Z" stroke="#F5F6F7" mask="url(#path-3-outside-1_110_110)"/>
<path d="M83.3739 22.1803C83.4042 22.2636 83.4048 22.3734 83.3758 22.5098L83.3778 22.5799C83.4359 22.6531 83.4725 22.7105 83.4876 22.7522C83.4157 22.857 83.3741 22.9586 83.3627 23.0571C83.3464 23.1417 83.2618 23.2118 83.109 23.2674C82.9841 23.3129 82.8414 23.3098 82.681 23.2581C82.5156 23.1925 82.4051 23.0833 82.3495 22.9305C82.2585 22.6806 82.2061 22.4716 82.1922 22.3037C82.187 22.1169 82.3442 21.9653 82.6636 21.8491C82.7886 21.8036 82.9268 21.8162 83.0783 21.8868C83.2299 21.9575 83.3284 22.0553 83.3739 22.1803ZM87.8305 32.8429C87.8558 32.9123 87.8552 32.9755 87.8287 33.0323C87.6811 33.4477 87.5404 33.8606 87.4067 34.271C87.2818 34.6624 87.1286 35.0406 86.9469 35.4055C86.779 35.7654 86.5614 36.0962 86.2938 36.398C86.0313 36.7137 85.6999 36.9916 85.2998 37.2316C84.8642 37.2014 84.5264 37.0728 84.2865 36.8456C84.0516 36.6323 83.8634 36.3312 83.7219 35.9424L83.4489 35.1925C83.3175 34.8315 83.2158 34.4439 83.1437 34.0298C83.0855 33.6107 83.0323 33.2054 82.9842 32.814C82.9121 32.227 82.8387 31.5932 82.764 30.9127C82.7032 30.2272 82.6658 29.541 82.6517 28.8542C82.6464 28.1484 82.679 27.4603 82.7495 26.7899C82.815 26.1056 82.9429 25.485 83.1334 24.9282C83.1776 24.8335 83.2344 24.7735 83.3038 24.7482C83.3871 24.7179 83.4831 24.7223 83.5917 24.7614C83.6952 24.7866 83.7647 24.8478 83.8001 24.945L83.8152 24.9867C83.847 25.8086 83.8593 26.6848 83.852 27.6153C83.8535 28.5268 83.8696 29.4567 83.9001 30.4048C83.9396 31.3341 84.0137 32.2506 84.1225 33.1546C84.2453 34.0535 84.4481 34.8917 84.7312 35.6694C84.7615 35.7527 84.8045 35.8707 84.8601 36.0235C84.9295 36.1712 85.0135 36.2507 85.112 36.262C85.3973 36.0953 85.6586 35.8194 85.8958 35.4342C86.1469 35.044 86.3652 34.65 86.5507 34.2523C86.7501 33.8495 86.9179 33.4896 87.0541 33.1727C87.1904 32.8557 87.3002 32.6821 87.3835 32.6518C87.4529 32.6265 87.535 32.6359 87.6297 32.6801C87.7383 32.7192 87.8052 32.7735 87.8305 32.8429Z" stroke="#F5F6F7" mask="url(#path-3-outside-1_110_110)"/>
<path d="M94.1705 24.6617C94.3221 25.0783 94.4182 25.5151 94.4587 25.9721C94.4942 26.4153 94.464 26.8508 94.3682 27.2789C94.058 28.7599 93.5711 30.1874 92.9074 31.5612C92.2526 32.9161 91.431 34.1587 90.4428 35.2889L90.4731 35.3723C90.4984 35.4417 90.482 35.5263 90.424 35.626C90.3848 35.7346 90.3306 35.8016 90.2611 35.8268C90.0806 35.8925 89.96 35.8421 89.8994 35.6754C89.7491 35.6515 89.6487 35.5701 89.5982 35.4312C89.578 35.3757 89.5761 35.3056 89.5925 35.221C89.1466 34.4712 88.7821 33.7075 88.4991 32.9298C88.0088 31.5828 87.6953 30.203 87.5585 28.7902C87.4167 27.3636 87.338 25.9376 87.3224 24.5122C87.3146 23.713 87.3346 22.9037 87.3823 22.0843C87.4439 21.2599 87.5478 20.4436 87.6941 19.6355C87.8491 18.8085 88.061 18.008 88.3297 17.234C88.6072 16.441 88.9491 15.6954 89.3554 14.9971C89.3819 14.9403 89.423 14.9018 89.4785 14.8815C89.5757 14.8462 89.6717 14.8506 89.7664 14.8947C89.8611 14.9389 89.9236 15.0026 89.9539 15.0859C89.9792 15.1554 89.983 15.209 89.9653 15.2469C89.7383 16.1787 89.5214 17.0518 89.3146 17.8662C89.1217 18.6756 88.9591 19.4818 88.8267 20.2848C88.6894 21.0739 88.5854 21.8902 88.515 22.7336C88.4395 23.5631 88.4151 24.4683 88.4419 25.4493C88.7574 24.847 89.1234 24.297 89.5398 23.7995C89.9513 23.288 90.4903 22.911 91.1568 22.6684C91.2679 22.628 91.3538 22.6046 91.4144 22.5982C91.4888 22.5869 91.6012 22.5931 91.7515 22.6171C91.9156 22.636 92.04 22.6536 92.1246 22.67C92.6422 22.7961 93.0697 23.0415 93.4069 23.4063C93.739 23.7572 93.9936 24.1757 94.1705 24.6617ZM93.199 25.0388C93.1333 24.8583 93.0348 24.674 92.9035 24.4859C92.7809 24.2789 92.6382 24.1028 92.4753 23.9577C92.3212 23.7936 92.1451 23.6769 91.9468 23.6075C91.7486 23.5381 91.5453 23.5413 91.337 23.6171C91.0176 23.7334 90.7166 23.9216 90.4338 24.1818C90.1599 24.423 89.9056 24.6964 89.6709 25.002C89.4361 25.3076 89.2229 25.629 89.0311 25.9661C88.8342 26.2894 88.6531 26.5912 88.4878 26.8715C88.5323 27.9876 88.621 29.0955 88.7539 30.1951C88.9007 31.2897 89.1636 32.3577 89.5427 33.3992C89.6741 33.7602 89.8289 34.1206 90.007 34.4804C90.2076 34.1243 90.4461 33.6994 90.7225 33.2057C90.9938 32.698 91.2714 32.1645 91.5553 31.6052C91.8392 31.0458 92.1086 30.4681 92.3634 29.8721C92.6322 29.271 92.8498 28.6807 93.0163 28.1012C93.1966 27.5166 93.3101 26.9642 93.3567 26.444C93.4032 25.9238 93.3507 25.4554 93.199 25.0388Z" stroke="#F5F6F7" mask="url(#path-3-outside-1_110_110)"/>
<path d="M102.993 21.3563C103.185 21.884 103.332 22.483 103.435 23.1534C103.551 23.8187 103.605 24.5068 103.596 25.2176C103.587 25.9284 103.518 26.6455 103.388 27.369C103.267 28.0735 103.068 28.7358 102.791 29.3558C102.527 29.9707 102.172 30.5087 101.727 30.9696C101.3 31.4394 100.781 31.7855 100.17 32.0079C99.7121 32.1747 99.2708 32.1937 98.8466 32.0651C98.4274 31.9503 98.0315 31.7484 97.659 31.4594C97.3003 31.1654 96.9871 30.8233 96.7193 30.4333C96.4465 30.0293 96.2393 29.6329 96.0978 29.2441C95.931 28.7859 95.8293 28.3118 95.7925 27.822C95.7163 26.4029 95.9268 25.0368 96.4238 23.7236C96.9209 22.4104 97.6964 21.2789 98.7503 20.3292C98.773 20.3052 98.8052 20.2856 98.8469 20.2705C98.9441 20.2351 99.0261 20.2445 99.0931 20.2988C99.1739 20.348 99.2295 20.4143 99.2598 20.4976C99.2952 20.5948 99.27 20.6983 99.1841 20.8082C99.0302 20.9901 98.8762 21.1719 98.7222 21.3538C98.5632 21.5217 98.4142 21.7175 98.2754 21.941C97.7139 22.7744 97.3114 23.6993 97.068 24.7157C96.8246 25.7322 96.7283 26.7422 96.7791 27.7459C96.7881 28.0729 96.8583 28.4169 96.9897 28.778C97.0958 29.0696 97.2512 29.3669 97.4558 29.6698C97.6604 29.9728 97.8991 30.2397 98.1719 30.4707C98.4396 30.6878 98.7338 30.848 99.0546 30.9515C99.3841 31.036 99.7225 31.015 100.07 30.8887C100.292 30.8078 100.485 30.6903 100.649 30.5363C100.827 30.3771 100.983 30.2022 101.119 30.0115C101.51 29.4445 101.805 28.7867 102.004 28.0379C102.204 27.2892 102.325 26.5215 102.369 25.7349C102.408 24.9345 102.375 24.1524 102.27 23.3885C102.16 22.6109 101.989 21.9026 101.756 21.2638L101.665 21.0139C101.506 20.663 101.27 20.4029 100.957 20.2339C100.657 20.0597 100.32 19.9544 99.9452 19.9179C99.8328 19.9116 99.723 19.9123 99.6157 19.9199C99.5222 19.9224 99.4263 19.918 99.3278 19.9067C99.1687 19.9017 99.0639 19.8298 99.0134 19.6909C98.978 19.5937 98.9754 19.5003 99.0057 19.4106C99.036 19.321 99.1022 19.2654 99.2045 19.2439L99.2253 19.2363C99.5409 19.1529 99.8648 19.1137 100.197 19.1186C100.543 19.1185 100.869 19.1727 101.176 19.2812C101.483 19.3897 101.761 19.5481 102.009 19.7563C102.272 19.9595 102.485 20.2201 102.648 20.5383C102.726 20.667 102.791 20.8008 102.841 20.9397C102.887 21.0647 102.937 21.2035 102.993 21.3563Z" stroke="#F5F6F7" mask="url(#path-3-outside-1_110_110)"/>
<path d="M114.475 21.9892C114.382 22.8566 114.247 23.6527 114.071 24.3774C113.889 25.0883 113.584 25.8282 113.156 26.5972C112.952 26.9862 112.655 27.2514 112.267 27.3929C112.058 27.4687 111.834 27.4795 111.594 27.4253C111.373 27.3799 111.19 27.2657 111.045 27.0827C110.992 27.0233 110.936 26.9337 110.876 26.8138C110.831 26.6888 110.776 26.5594 110.712 26.4256C110.661 26.2868 110.613 26.1548 110.567 26.0299C110.531 25.8859 110.497 25.7723 110.467 25.689C110.193 26.4491 109.796 27.1519 109.276 27.7972C108.775 28.4513 108.129 28.9224 107.338 29.2105C107.296 29.2257 107.228 29.2345 107.135 29.2371C107.055 29.2346 106.992 29.234 106.946 29.2352C106.571 29.1987 106.239 29.0442 105.951 28.7716C105.677 28.4939 105.479 28.1884 105.358 27.8551C105.191 27.3969 105.083 26.9254 105.032 26.4406C104.99 25.9368 104.991 25.4413 105.033 24.9539C105.085 24.4476 105.172 23.952 105.294 23.4672C105.417 22.9823 105.56 22.5133 105.726 22.06C106.137 20.8567 106.705 19.7379 107.429 18.7036C108.148 17.6555 109.002 16.7159 109.989 15.8849C109.998 15.866 110.023 15.8489 110.064 15.8337C110.162 15.7984 110.244 15.8078 110.311 15.8621C110.392 15.9113 110.447 15.9776 110.477 16.0609C110.523 16.1859 110.505 16.2869 110.423 16.3639C110.232 16.5748 110.039 16.7788 109.843 16.9758C109.656 17.1538 109.475 17.3458 109.298 17.5517C108.08 19.0014 107.196 20.6127 106.646 22.3854C106.539 22.739 106.437 23.1298 106.342 23.5578C106.246 23.9858 106.176 24.4202 106.132 24.8608C106.083 25.2875 106.066 25.7181 106.083 26.1524C106.113 26.5816 106.194 26.9768 106.326 27.3378C106.346 27.3934 106.383 27.4742 106.438 27.5802C106.487 27.6724 106.546 27.7689 106.614 27.8699C106.677 27.957 106.751 28.0321 106.837 28.0952C106.932 28.1394 107.021 28.1463 107.104 28.116C107.507 27.9694 107.858 27.7237 108.157 27.379C108.47 27.0291 108.735 26.6339 108.952 26.1932C109.169 25.7525 109.344 25.3036 109.476 24.8466C109.609 24.3895 109.7 23.9709 109.751 23.5909C109.858 22.8914 109.93 22.2046 109.968 21.5303C110 20.8423 110.033 20.1542 110.066 19.4661C110.072 19.1807 110.077 18.8487 110.08 18.4699C110.098 18.0861 110.126 17.7534 110.165 17.4719C110.186 17.3544 110.258 17.273 110.383 17.2275C110.48 17.1921 110.574 17.1896 110.663 17.2198C110.753 17.2501 110.815 17.3139 110.851 17.4111L110.845 17.4603C110.916 18.0006 110.976 18.553 111.024 19.1173C111.067 19.6678 111.093 20.2163 111.104 20.763C111.105 20.9827 111.1 21.2283 111.089 21.4997C111.078 21.7712 111.074 22.0003 111.08 22.1872C111.087 22.2945 111.102 22.3993 111.123 22.5015C111.159 22.5987 111.187 22.6985 111.209 22.8007C111.248 23.0381 111.28 23.2779 111.305 23.5203C111.339 23.7438 111.369 23.9767 111.395 24.2191C111.426 24.5221 111.467 24.8295 111.518 25.1414C111.577 25.4343 111.66 25.7265 111.766 26.0181C111.792 26.0876 111.814 26.1501 111.834 26.2056C111.855 26.2612 111.882 26.3142 111.916 26.3647C112.013 26.3293 112.109 26.2472 112.204 26.1184C112.312 25.9845 112.416 25.8368 112.514 25.6751C112.608 25.4996 112.687 25.3292 112.753 25.1637C112.832 24.9933 112.894 24.8607 112.938 24.766C113.193 24.17 113.409 23.533 113.587 22.8549C113.644 22.7085 113.684 22.5601 113.708 22.4099C113.741 22.2407 113.786 22.0828 113.843 21.9364C113.859 21.8518 113.909 21.7943 113.992 21.764C114.089 21.7286 114.185 21.733 114.28 21.7772C114.375 21.8213 114.44 21.892 114.475 21.9892Z" stroke="#F5F6F7" mask="url(#path-3-outside-1_110_110)"/>
<path d="M120.999 13.8591C121.039 13.9702 121.07 14.0768 121.092 14.1791C121.113 14.2814 121.13 14.3931 121.143 14.5143C121.156 14.6355 121.099 14.7188 120.974 14.7643C120.919 14.7845 120.828 14.794 120.702 14.7928C120.584 14.7726 120.515 14.7348 120.495 14.6792L120.448 14.4842C120.412 14.387 120.356 14.274 120.277 14.1452C120.213 14.0114 120.13 13.8921 120.029 13.7874C119.937 13.6637 119.834 13.5753 119.72 13.5223C119.602 13.4555 119.473 13.4473 119.334 13.4978C119.001 13.6191 118.685 13.8522 118.385 14.1969C118.081 14.5278 117.833 14.8385 117.64 15.1289C117.559 15.2527 117.451 15.4332 117.318 15.6706C117.184 15.908 117.048 16.1618 116.911 16.4321C116.773 16.7023 116.647 16.9605 116.532 17.2067C116.431 17.4479 116.366 17.6367 116.337 17.773C116.316 17.8438 116.298 17.9681 116.284 18.1461C116.279 18.3052 116.273 18.4807 116.264 18.6726C116.269 18.8595 116.264 19.0419 116.251 19.2199C116.251 19.3929 116.245 19.5286 116.234 19.6271C116.199 20.3948 116.17 21.1599 116.149 21.9224C116.142 22.68 116.151 23.4394 116.176 24.2007C116.182 24.5605 116.196 24.9247 116.22 25.2934C116.263 25.6709 116.287 26.0395 116.293 26.3994C116.277 26.5307 116.228 26.6115 116.145 26.6418C116.089 26.662 115.993 26.6576 115.857 26.6286C115.74 26.6085 115.671 26.5706 115.651 26.5151C115.595 26.3623 115.553 26.1812 115.524 25.9716C115.508 25.757 115.487 25.5682 115.459 25.4054C115.311 24.437 115.21 23.4674 115.155 22.4966C115.101 21.5257 115.093 20.5535 115.132 19.5801C115.135 19.2013 115.137 18.7525 115.137 18.2336C115.151 17.7096 115.169 17.1762 115.191 16.6333C115.209 16.0765 115.246 15.5519 115.303 15.0595C115.368 14.5482 115.466 14.1271 115.598 13.7963C115.633 13.7205 115.685 13.67 115.755 13.6447C115.81 13.6245 115.899 13.6314 116.022 13.6655C116.153 13.6806 116.231 13.7229 116.257 13.7923C116.272 13.8339 116.286 13.9154 116.298 14.0366C116.306 14.1439 116.319 14.2651 116.336 14.4002C116.349 14.5214 116.355 14.6451 116.354 14.7714C116.361 14.8787 116.366 14.9557 116.367 15.0024C116.69 14.5074 117.046 14.0395 117.436 13.5988C117.826 13.158 118.313 12.8315 118.896 12.6192C119.146 12.5283 119.382 12.5055 119.603 12.5509C119.819 12.5824 120.019 12.6587 120.205 12.7798C120.391 12.901 120.549 13.0556 120.68 13.2437C120.812 13.4318 120.918 13.6369 120.999 13.8591Z" stroke="#F5F6F7" mask="url(#path-3-outside-1_110_110)"/>
<path d="M128.126 2.39564C128.141 2.4373 128.146 2.47455 128.143 2.50737C128.087 3.73836 128.046 4.9643 128.019 6.18518C128 7.38713 128.012 8.60926 128.056 9.85158C128.163 9.84398 128.289 9.8452 128.435 9.85526C128.58 9.86532 128.673 9.92589 128.713 10.037C128.748 10.1342 128.751 10.2276 128.721 10.3173C128.69 10.4069 128.627 10.4694 128.529 10.5048C128.474 10.525 128.399 10.5364 128.306 10.539C128.226 10.5365 128.154 10.5314 128.088 10.5239C128.112 11.2385 128.152 11.9947 128.206 12.7926C128.261 13.5905 128.332 14.3903 128.419 15.192C128.52 15.9886 128.649 16.7752 128.806 17.5516C128.958 18.3141 129.155 19.0287 129.398 19.6952C129.418 19.7507 129.446 19.8271 129.481 19.9243C129.511 20.0076 129.549 20.0884 129.593 20.1667C129.637 20.245 129.683 20.3068 129.731 20.3523C129.798 20.4065 129.873 20.4185 129.956 20.3882C130.081 20.3427 130.22 20.1823 130.371 19.907C130.536 19.6267 130.692 19.3186 130.837 18.9827C130.977 18.6329 131.108 18.3021 131.23 17.9902C131.362 17.6594 131.458 17.4277 131.52 17.2951C131.536 17.2105 131.586 17.1531 131.669 17.1227C131.753 17.0924 131.842 17.0993 131.936 17.1435C132.031 17.1877 132.094 17.2514 132.124 17.3347C132.149 17.4041 132.153 17.4578 132.135 17.4957C132.014 18.0272 131.855 18.5411 131.659 19.0374C131.462 19.5336 131.237 20.0166 130.983 20.4863C130.796 20.8374 130.543 21.071 130.224 21.1873C129.946 21.2884 129.703 21.2903 129.495 21.1932C129.286 21.096 129.1 20.9515 128.936 20.7597C128.791 20.5766 128.659 20.3652 128.54 20.1253C128.435 19.8804 128.345 19.6538 128.269 19.4456C128.218 19.3067 128.17 19.1748 128.125 19.0498C128.088 18.9059 128.054 18.7689 128.022 18.6389C127.938 18.9684 127.817 19.3504 127.661 19.7847C127.5 20.2052 127.305 20.6219 127.078 21.0348C126.865 21.4427 126.613 21.8095 126.323 22.1353C126.051 22.47 125.742 22.7005 125.395 22.8268C125.034 22.9583 124.705 22.9836 124.408 22.9029C124.126 22.8171 123.874 22.6651 123.653 22.4467C123.437 22.2422 123.245 21.9974 123.079 21.7121C122.926 21.4217 122.799 21.1377 122.698 20.86C122.48 20.2629 122.33 19.6335 122.246 18.972C122.172 18.2915 122.153 17.6141 122.191 16.9399C122.237 16.2468 122.338 15.5732 122.493 14.9192C122.643 14.2512 122.851 13.6332 123.116 13.0649C123.425 12.402 123.858 11.8199 124.414 11.3185C124.966 10.8032 125.596 10.4167 126.304 10.1589C126.401 10.1235 126.492 10.0907 126.575 10.0603C126.672 10.025 126.772 9.99652 126.874 9.97503C126.84 9.40563 126.814 8.79394 126.796 8.13995C126.792 7.48091 126.809 6.81428 126.846 6.14008C126.884 5.46587 126.95 4.80491 127.045 4.1572C127.153 3.50444 127.298 2.90911 127.48 2.37121C127.496 2.28662 127.553 2.22663 127.65 2.19125C127.733 2.16092 127.822 2.16784 127.917 2.212C128.021 2.23722 128.09 2.29844 128.126 2.39564ZM126.924 10.7591L126.757 10.8197C125.933 11.104 125.274 11.5638 124.782 12.199C124.299 12.8152 123.935 13.5217 123.69 14.3185C123.454 15.0963 123.32 15.9157 123.287 16.7767C123.269 17.6328 123.316 18.4332 123.43 19.1781C123.478 19.5694 123.568 19.9456 123.699 20.3067C123.74 20.4178 123.795 20.5705 123.866 20.7649C123.946 20.9404 124.039 21.1108 124.147 21.2762C124.268 21.4365 124.393 21.564 124.522 21.6586C124.664 21.7482 124.819 21.7627 124.986 21.702C125.208 21.6212 125.451 21.3831 125.716 20.9879C125.99 20.5737 126.249 20.1178 126.492 19.6203C126.745 19.1039 126.979 18.6019 127.195 18.1145C127.41 17.6271 127.571 17.2698 127.677 17.0425C127.695 17.0046 127.718 16.9806 127.745 16.9705C127.461 15.9732 127.269 14.9499 127.171 13.9008C127.081 12.8327 126.998 11.7855 126.924 10.7591Z" stroke="#F5F6F7" mask="url(#path-3-outside-1_110_110)"/>
</svg>
