<svg width="146" height="52" viewBox="0 0 146 52" fill="none" xmlns="http://www.w3.org/2000/svg">
<path d="M0 1H17.3637V5.88355H7.05401V9.8524H15.8599V14.4414H7.05401V23.7279H0V1Z" fill="#FF8D66"/>
<path d="M19.7047 7.26334H25.6115V9.96092C26.1799 8.793 26.7639 7.992 27.3634 7.55791C27.9732 7.11348 28.7225 6.89126 29.6113 6.89126C30.5415 6.89126 31.5596 7.18066 32.6655 7.75945L30.7121 12.2554C29.9679 11.9453 29.3788 11.7903 28.9447 11.7903C28.1179 11.7903 27.4771 12.1314 27.0223 12.8135C26.3711 13.7747 26.0456 15.5731 26.0456 18.2087V23.7279H19.7047V7.26334Z" fill="#FF8D66"/>
<path fill-rule="evenodd" clip-rule="evenodd" d="M36.0452 9.34079C34.3502 10.9635 33.5027 13.0306 33.5027 15.5421C33.5027 18.2397 34.5052 20.4205 36.5103 22.0845C38.1433 23.4281 40.2828 24.0999 42.9287 24.0999C45.895 24.0999 48.2153 23.2938 49.8897 21.6814C51.5744 20.0588 52.4167 17.9813 52.4167 15.4491C52.4167 13.1959 51.7397 11.2994 50.3858 9.75938C48.7011 7.8473 46.2102 6.89126 42.9132 6.89126C40.0296 6.89126 37.7402 7.70777 36.0452 9.34079ZM39.828 15.5266C39.828 16.9943 40.1226 18.0795 40.7117 18.7823C41.3112 19.4851 42.0605 19.8365 42.9597 19.8365C43.8692 19.8365 44.6134 19.4903 45.1922 18.7978C45.7813 18.1053 46.0759 16.9943 46.0759 15.4646C46.0759 14.0383 45.7813 12.9789 45.1922 12.2864C44.6031 11.5836 43.8744 11.2322 43.0062 11.2322C42.0864 11.2322 41.3267 11.5888 40.7272 12.3019C40.1278 13.0047 39.828 14.0796 39.828 15.5266Z" fill="#FF8D66"/>
<path d="M55.4554 7.26334H61.3311V9.94542C62.2097 8.84985 63.0985 8.06951 63.9977 7.60441C64.8969 7.12898 65.9925 6.89126 67.2844 6.89126C69.0311 6.89126 70.3954 7.41321 71.3773 8.4571C72.3695 9.49065 72.8656 11.0927 72.8656 13.2631V23.7279H66.5248V14.6739C66.5248 13.6404 66.3336 12.9117 65.9511 12.488C65.5687 12.0539 65.0313 11.8368 64.3388 11.8368C63.574 11.8368 62.9538 12.1262 62.4784 12.705C62.003 13.2838 61.7652 14.3225 61.7652 15.8212V23.7279H55.4554V7.26334Z" fill="#FF8D66"/>
<path d="M84.2451 7.26334V1L77.9197 4.24019V7.26334H75.5942V11.8678H77.9197V17.6661C77.9197 19.5058 78.0954 20.8391 78.4468 21.6659C78.8086 22.4824 79.3615 23.0922 80.1057 23.4953C80.8498 23.8984 82.0074 24.0999 83.5784 24.0999C84.9324 24.0999 86.3897 23.9294 87.9503 23.5883L87.4852 19.2319C86.6481 19.5006 85.9969 19.635 85.5318 19.635C85.015 19.635 84.6533 19.4593 84.4466 19.1079C84.3122 18.8805 84.2451 18.4154 84.2451 17.7126V11.8678H87.7178V7.26334H84.2451Z" fill="#FF8D66"/>
<path fill-rule="evenodd" clip-rule="evenodd" d="M61.3101 50.6279V27.9H54.9383V35.7757C54.3181 35.1142 53.605 34.6181 52.7988 34.2874C52.003 33.9567 51.1141 33.7913 50.1322 33.7913C48.1168 33.7913 46.4528 34.5148 45.1402 35.9618C43.8379 37.4087 43.1868 39.4965 43.1868 42.2251C43.1868 44.6643 43.7759 46.7366 44.9541 48.4419C46.1427 50.1473 47.8584 51 50.1012 51C51.2175 51 52.2303 50.7623 53.1399 50.2868C53.822 49.9251 54.5765 49.2274 55.4034 48.1939V50.6279H61.3101ZM54.9848 42.3491C54.9848 41.0572 54.7109 40.096 54.1631 39.4655C53.6153 38.8247 52.9228 38.5043 52.0856 38.5043C51.3518 38.5043 50.7369 38.8092 50.2408 39.419C49.7447 40.0288 49.4966 41.052 49.4966 42.4887C49.4966 43.8323 49.7498 44.8193 50.2563 45.4498C50.773 46.0699 51.4087 46.38 52.1632 46.38C52.9693 46.38 53.6412 46.0647 54.1786 45.4343C54.7161 44.8038 54.9848 43.7754 54.9848 42.3491Z" fill="#FF8D66"/>
<path d="M22.7999 34.1634H28.6756V36.8454C29.5542 35.7499 30.443 34.9695 31.3422 34.5044C32.2414 34.029 33.337 33.7913 34.6289 33.7913C36.3756 33.7913 37.7399 34.3132 38.7218 35.3571C39.714 36.3907 40.2101 37.9927 40.2101 40.1632V50.6279H33.8693V41.574C33.8693 40.5404 33.678 39.8117 33.2956 39.388C32.9132 38.9539 32.3758 38.7368 31.6833 38.7368C30.9184 38.7368 30.2983 39.0262 29.8229 39.605C29.3475 40.1838 29.1097 41.2225 29.1097 42.7212V50.6279H22.7999V34.1634Z" fill="#FF8D66"/>
<path d="M0.258057 27.9H19.0791V32.7526H7.29656V36.3648H18.2264V41.0003H7.29656V45.4808H19.4202V50.6279H0.258057V27.9Z" fill="#FF8D66"/>
<mask id="path-2-outside-1_204_34" maskUnits="userSpaceOnUse" x="58" y="0" width="88" height="52" fill="black">
<rect fill="white" x="58" width="88" height="52"/>
<path fill-rule="evenodd" clip-rule="evenodd" d="M140.842 1.35658C140.846 1.32152 140.84 1.28175 140.823 1.23729C140.786 1.13355 140.711 1.06833 140.6 1.04161C140.499 0.994641 140.403 0.987435 140.314 1.02C140.209 1.05798 140.148 1.12217 140.131 1.21255C139.935 1.78738 139.778 2.42349 139.66 3.12085C139.557 3.81279 139.485 4.51882 139.443 5.23894C139.401 5.95906 139.382 6.67103 139.385 7.37487C139.403 8.07328 139.429 8.7265 139.465 9.33453C139.355 9.3577 139.248 9.38828 139.144 9.42627L138.853 9.53209C138.093 9.80885 137.416 10.223 136.823 10.7744C136.225 11.311 135.759 11.9337 135.426 12.6423C135.141 13.2497 134.917 13.9102 134.754 14.6239C134.587 15.3227 134.477 16.0423 134.426 16.7827C134.384 17.5028 134.402 18.2261 134.481 18.9527C134.569 19.6591 134.729 20.3309 134.961 20.9681C135.069 21.2645 135.205 21.5676 135.368 21.8774C135.547 22.1817 135.751 22.4428 135.983 22.6607C136.219 22.8935 136.489 23.0553 136.793 23.1464C137.111 23.2319 137.464 23.2042 137.851 23.0631C138.224 22.9274 138.556 22.6806 138.848 22.3227C139.16 21.9741 139.431 21.5818 139.661 21.1457C139.905 20.7043 140.115 20.2589 140.289 19.8095C140.458 19.3453 140.588 18.9371 140.679 18.585C140.713 18.7238 140.749 18.87 140.788 19.0236L140.942 19.446C141.023 19.6683 141.119 19.9101 141.231 20.1714C141.358 20.4273 141.499 20.6529 141.655 20.848C141.83 21.0526 142.03 21.2065 142.253 21.3099C142.477 21.4132 142.737 21.4106 143.036 21.302C143.379 21.1772 143.651 20.9272 143.852 20.5519C144.125 20.0497 144.367 19.5334 144.58 19.003C144.792 18.4726 144.963 17.9235 145.094 17.3555C145.113 17.315 145.109 17.2577 145.082 17.1836C145.05 17.0947 144.983 17.0268 144.882 16.9798C144.78 16.9328 144.685 16.9256 144.595 16.9582C144.506 16.9907 144.452 17.0522 144.434 17.1426C144.368 17.2843 144.264 17.532 144.122 17.8856C143.99 18.2189 143.849 18.5725 143.698 18.9463C143.541 19.3053 143.374 19.6347 143.196 19.9344C143.033 20.2288 142.885 20.4003 142.751 20.4492C142.661 20.4817 142.58 20.4691 142.509 20.4113C142.457 20.3629 142.408 20.2969 142.361 20.2134C142.314 20.1299 142.274 20.0437 142.241 19.9548L142.152 19.7102C141.893 18.9989 141.683 18.2362 141.522 17.4221C141.356 16.5933 141.219 15.7535 141.112 14.903C141.02 14.047 140.945 13.1929 140.888 12.3409C140.832 11.4889 140.791 10.6813 140.766 9.91817C140.837 9.9261 140.915 9.93132 141 9.93383C141.1 9.93091 141.18 9.9186 141.24 9.89689C141.344 9.8589 141.413 9.79201 141.445 9.6962C141.478 9.60039 141.476 9.50062 141.438 9.39688C141.395 9.27832 141.295 9.21382 141.139 9.20338C140.984 9.19294 140.848 9.19189 140.733 9.20024C140.689 7.87355 140.679 6.56836 140.701 5.28467C140.733 3.98074 140.78 2.67137 140.842 1.35658ZM139.337 10.2369L139.516 10.1718C139.595 11.2678 139.681 12.3861 139.775 13.5266C139.879 14.6468 140.082 15.7392 140.385 16.8038C140.355 16.8146 140.331 16.8403 140.312 16.8808C140.198 17.1237 140.024 17.5057 139.792 18.0267C139.559 18.5477 139.307 19.0842 139.035 19.6363C138.773 20.1681 138.495 20.6555 138.2 21.0984C137.915 21.5211 137.653 21.7759 137.414 21.8627C137.235 21.9278 137.07 21.9127 136.917 21.8173C136.779 21.7165 136.645 21.5806 136.515 21.4096C136.4 21.2332 136.3 21.0514 136.215 20.8642L136.037 20.3751C135.897 19.9898 135.801 19.5882 135.751 19.1703C135.63 18.3751 135.581 17.5203 135.602 16.6061C135.639 15.6864 135.785 14.811 136.04 13.9799C136.304 13.1285 136.696 12.3732 137.216 11.714C137.745 11.0346 138.452 10.5422 139.337 10.2369ZM133.153 13.4948C133.196 13.6134 133.229 13.7272 133.252 13.8364C133.275 13.9456 133.293 14.0649 133.306 14.1943C133.32 14.3237 133.259 14.4128 133.125 14.4617C133.065 14.4834 132.968 14.4937 132.832 14.4926C132.706 14.4714 132.633 14.4311 132.611 14.3718L132.561 14.1636C132.523 14.0598 132.462 13.9393 132.378 13.8019C132.31 13.6592 132.221 13.532 132.113 13.4203C132.014 13.2884 131.904 13.1942 131.782 13.1379C131.655 13.0667 131.517 13.0582 131.368 13.1125C131.01 13.2427 130.67 13.4923 130.348 13.8611C130.021 14.2151 129.754 14.5474 129.546 14.858C129.459 14.9903 129.344 15.1834 129.2 15.4372C129.056 15.691 128.91 15.9623 128.762 16.2512C128.613 16.5401 128.478 16.8161 128.354 17.0793C128.245 17.3371 128.175 17.5389 128.144 17.6846C128.12 17.7601 128.101 17.893 128.086 18.0831C128.08 18.253 128.073 18.4405 128.063 18.6454C128.068 18.845 128.063 19.0398 128.048 19.23C128.047 19.4147 128.041 19.5597 128.029 19.6649C127.989 20.4848 127.957 21.302 127.933 22.1164C127.924 22.9255 127.932 23.7365 127.957 24.5495C127.962 24.9338 127.977 25.3227 128.002 25.7164C128.048 26.1194 128.073 26.5131 128.078 26.8974C128.061 27.0376 128.008 27.1241 127.919 27.1566C127.859 27.1783 127.756 27.1738 127.61 27.1432C127.484 27.1219 127.41 27.0816 127.389 27.0223C127.329 26.8593 127.284 26.6659 127.253 26.4421C127.237 26.2129 127.215 26.0114 127.185 25.8375C127.028 24.8037 126.922 23.7684 126.865 22.7316C126.809 21.6949 126.802 20.6566 126.846 19.617C126.851 19.2124 126.854 18.7331 126.854 18.1789C126.87 17.6193 126.891 17.0496 126.916 16.4697C126.936 15.8751 126.977 15.3147 127.039 14.7887C127.11 14.2425 127.217 13.7926 127.358 13.439C127.396 13.358 127.452 13.3039 127.527 13.2768C127.587 13.2551 127.682 13.2623 127.813 13.2984C127.954 13.3143 128.038 13.3592 128.065 13.4333C128.081 13.4778 128.096 13.5647 128.109 13.6942C128.117 13.8088 128.131 13.9382 128.149 14.0824C128.163 14.2118 128.169 14.3439 128.167 14.4788C128.175 14.5934 128.18 14.6756 128.181 14.7255C128.529 14.1962 128.912 13.6957 129.331 13.2242C129.751 12.7527 130.274 12.403 130.9 12.1751C131.168 12.0774 131.421 12.0526 131.658 12.1006C131.889 12.1338 132.105 12.2149 132.304 12.3439C132.502 12.4729 132.672 12.6377 132.813 12.8382C132.953 13.0388 133.067 13.2577 133.153 13.4948ZM104.652 26.4864C104.61 25.9984 104.507 25.5321 104.346 25.0875C104.157 24.5688 103.885 24.1225 103.529 23.7484C103.168 23.3595 102.71 23.0983 102.155 22.9647C102.064 22.9474 101.931 22.9288 101.755 22.909C101.593 22.8837 101.473 22.8772 101.393 22.8895C101.328 22.8964 101.236 22.9216 101.116 22.965C100.401 23.2255 99.8216 23.6293 99.3791 24.1763C98.9312 24.7086 98.5374 25.2967 98.1977 25.9406C98.171 24.893 98.199 23.9261 98.2817 23.0401C98.3591 22.1392 98.4723 21.2672 98.6213 20.4242C98.765 19.5663 98.9411 18.705 99.1498 17.8402C99.3734 16.97 99.6079 16.0371 99.8534 15.0415C99.8724 15.001 99.8685 14.9437 99.8415 14.8696C99.8091 14.7807 99.7422 14.7127 99.6407 14.6658C99.5392 14.6188 99.4362 14.6143 99.3319 14.6523C99.2722 14.674 99.2281 14.7152 99.1996 14.776C98.7622 15.5226 98.3937 16.3196 98.0943 17.167C97.8044 17.9942 97.5754 18.8496 97.4074 19.7332C97.2488 20.5965 97.1356 21.4684 97.0678 22.3491C97.0149 23.2243 96.9918 24.0886 96.9985 24.9421C97.0122 26.4644 97.0937 27.9872 97.2429 29.5105C97.3867 31.019 97.7203 32.492 98.2435 33.9295C98.5455 34.7594 98.935 35.5743 99.4119 36.3742C99.3941 36.4646 99.396 36.5394 99.4176 36.5987C99.4715 36.7469 99.5791 36.8336 99.7402 36.8589C99.805 37.0367 99.9342 37.0904 100.128 37.0198C100.203 36.9927 100.261 36.9211 100.303 36.805C100.366 36.6984 100.383 36.608 100.356 36.5339L100.324 36.445C101.387 35.2358 102.271 33.9071 102.976 32.4587C103.691 30.9901 104.217 29.4646 104.552 27.8822C104.656 27.4249 104.689 26.9596 104.652 26.4864ZM102.987 24.9025C103.127 25.1031 103.233 25.2997 103.303 25.4923C103.464 25.9369 103.52 26.4371 103.469 26.9927C103.418 27.5483 103.295 28.1385 103.1 28.7632C102.92 29.3825 102.686 30.0134 102.396 30.6559C102.121 31.2929 101.831 31.9104 101.525 32.5085C101.22 33.1065 100.921 33.6768 100.628 34.2195C100.331 34.7474 100.074 35.2017 99.8582 35.5824C99.6678 35.1985 99.5025 34.8139 99.3622 34.4286C98.9577 33.3171 98.6778 32.177 98.5226 31.0084C98.3823 29.8342 98.2894 28.6513 98.244 27.4594C98.4219 27.1597 98.6168 26.837 98.8287 26.4913C99.0352 26.1309 99.2647 25.7872 99.5172 25.4603C99.7697 25.1335 100.043 24.8409 100.338 24.5827C100.641 24.3043 100.965 24.1027 101.308 23.9779C101.531 23.8965 101.749 23.8926 101.962 23.9663C102.175 24.04 102.363 24.1643 102.528 24.3392C102.703 24.4939 102.856 24.6816 102.987 24.9025ZM95.305 25.5082C95.3265 25.5674 95.3353 25.6146 95.3312 25.6497C95.3148 27.3675 95.2503 29.0693 95.1378 30.755C95.0199 32.4259 94.9528 34.1202 94.9364 35.8381C94.9174 36.6674 94.9283 37.4858 94.9689 38.2934C95.0245 39.0955 95.0855 39.9125 95.1518 40.7443C95.1664 40.9236 95.1682 41.0908 95.1571 41.2459C95.1663 41.4104 95.1708 41.585 95.1705 41.7697C95.1911 42.3831 95.1989 42.9845 95.1939 43.5737C95.1943 44.1778 95.1594 44.7779 95.0893 45.374C95.0193 45.9702 94.9011 46.5502 94.735 47.1142C94.5742 47.693 94.3444 48.2214 94.0455 48.6994C93.7521 49.1922 93.3945 49.6245 92.9726 49.9962C92.5561 50.3828 92.0571 50.6819 91.4756 50.8935C91.0387 51.0526 90.6525 51.0008 90.2476 50.9465C90.0861 50.9248 89.9216 50.9027 89.7496 50.8935C89.55 50.8896 89.3418 50.9055 89.1318 50.9217C88.6976 50.955 88.2552 50.9889 87.8629 50.849C87.2862 50.6561 86.7347 50.3701 86.2083 49.9911C85.6725 49.6323 85.1652 49.2127 84.6865 48.7324C84.6351 48.684 84.6013 48.6375 84.5851 48.5931C84.527 48.4799 84.532 48.3774 84.5998 48.2856C84.6582 48.214 84.7321 48.1619 84.8216 48.1294C84.8812 48.1077 84.9415 48.1109 85.0024 48.1391C85.0633 48.1673 85.1168 48.1982 85.1628 48.2318C85.3265 48.3568 85.4854 48.492 85.6396 48.6372C85.7843 48.8028 85.9459 48.9453 86.1245 49.0649C86.4614 49.2947 86.8302 49.4962 87.2309 49.6692C87.6221 49.8625 88.0343 49.9978 88.4677 50.075C88.8915 50.1725 89.3188 50.21 89.7496 50.1874C90.1858 50.1797 90.6052 50.1026 91.0078 49.9561C91.6191 49.7336 92.1317 49.3792 92.5457 48.8929C93.1293 48.1769 93.5242 47.3367 93.7304 46.3722C93.9365 45.4076 94.0459 44.386 94.0585 43.3073C94.067 42.2636 94.0152 41.2167 93.9032 40.1666C93.8114 39.1259 93.7412 38.1444 93.6926 37.2223C93.5731 37.4504 93.4216 37.7069 93.2382 37.9918C93.0549 38.2767 92.8587 38.5496 92.6497 38.8103C92.446 39.0858 92.2241 39.3344 91.984 39.556C91.7588 39.7723 91.5344 39.9211 91.3107 40.0025C90.8783 40.1599 90.432 40.1629 89.9717 40.0116C89.5262 39.8548 89.1725 39.5556 88.9104 39.1139C88.728 38.8446 88.5835 38.5867 88.4769 38.3402C88.2798 37.8917 88.1195 37.4046 87.9957 36.879C87.8815 36.3332 87.7923 35.7866 87.7282 35.2393C87.6736 34.6718 87.642 34.121 87.6333 33.5871C87.6193 33.0384 87.629 32.5313 87.6623 32.0661C87.7222 31.0709 87.8173 30.0796 87.9476 29.0923C87.9777 28.8967 87.9977 28.6965 88.0075 28.4915C88.0173 28.2865 88.0447 28.0835 88.0898 27.8825C88.117 27.7719 88.1903 27.6949 88.3096 27.6515C88.3842 27.6243 88.4823 27.6389 88.6042 27.6953C88.7206 27.7368 88.8024 27.7994 88.8497 27.8828L88.904 28.2407C88.9963 28.912 89.0386 29.5847 89.0307 30.2589C89.0377 30.9277 89.0244 31.5871 88.9909 32.2371C88.9725 32.6969 88.9548 33.1817 88.9377 33.6914C88.9301 34.1809 88.9401 34.6723 88.9677 35.1658C89.0103 35.6538 89.0779 36.141 89.1706 36.6276C89.2578 37.0993 89.3973 37.5521 89.5889 37.9858C89.6524 38.1138 89.7185 38.2491 89.7874 38.3919C89.8711 38.5293 89.9671 38.6538 90.0753 38.7654C90.1781 38.8623 90.2904 38.9389 90.4122 38.9953C90.5287 39.0368 90.6614 39.0304 90.8105 38.9762C91.064 38.8839 91.3325 38.6939 91.6161 38.406C91.8943 38.1034 92.1644 37.7785 92.4264 37.4314C92.683 37.0694 92.9146 36.7082 93.1211 36.3478C93.3425 35.9819 93.5177 35.6747 93.6468 35.4263C93.6461 34.2182 93.686 33.0289 93.7665 31.8583C93.8416 30.6729 93.9621 29.4962 94.1279 28.3282C94.1964 27.8669 94.2622 27.3982 94.3253 26.9221C94.383 26.4311 94.4637 25.957 94.5674 25.4997C94.5893 25.3742 94.6599 25.2898 94.7791 25.2464C94.8835 25.2084 94.9817 25.223 95.0737 25.2902C95.1752 25.3372 95.2523 25.4098 95.305 25.5082ZM85.9747 29.03C86.1428 28.9352 86.1918 28.7915 86.1217 28.5988C86.0947 28.5247 86.0481 28.4662 85.9818 28.4232C85.9101 28.3654 85.8295 28.3527 85.74 28.3853C84.5324 28.8249 83.4246 29.4462 82.4168 30.2494C81.4185 31.0323 80.6333 32.0063 80.0611 33.1712C79.8993 33.5154 79.7957 33.8803 79.7504 34.266C79.72 34.6464 79.7695 35.0143 79.8989 35.37C80.023 35.7109 80.2048 35.9552 80.4443 36.103C80.6988 36.2454 80.9797 36.3445 81.2871 36.4005C81.5891 36.4416 81.9081 36.4597 82.244 36.4549C82.58 36.4502 82.8963 36.4609 83.1929 36.4872C83.4841 36.4987 83.7414 36.5561 83.9647 36.6594C84.203 36.7573 84.3679 36.9323 84.4597 37.1842L84.5406 37.4065C84.6808 37.7918 84.7364 38.1996 84.7072 38.6298C84.6876 39.0397 84.5873 39.437 84.4065 39.8217C84.2406 40.201 84.0112 40.5446 83.7181 40.8527C83.4196 41.146 83.0765 41.3631 82.6888 41.5042C82.2564 41.6616 81.848 41.676 81.4635 41.5474C81.0736 41.404 80.7245 41.187 80.4161 40.8965C80.1077 40.6059 79.8333 40.2694 79.5928 39.887C79.3672 39.4992 79.1924 39.1349 79.0683 38.794C79.036 38.7051 78.9643 38.6473 78.8533 38.6206C78.7571 38.5884 78.6718 38.5859 78.5972 38.613C78.478 38.6565 78.4074 38.7409 78.3855 38.8663C78.3636 38.9918 78.362 39.1266 78.3808 39.2708C78.4144 39.4097 78.4507 39.5559 78.4898 39.7095L78.6111 40.0429C78.707 40.3063 78.8227 40.5598 78.9582 40.8035L78.9471 40.8269C78.7854 41.1711 78.5924 41.5687 78.3681 42.0195C78.1534 42.4501 77.9034 42.8768 77.6183 43.2994C77.348 43.7167 77.0522 44.0173 76.7308 44.2014C76.6604 44.1935 76.607 44.1626 76.5705 44.1088L76.5057 43.9309C76.1983 43.0862 76.0014 42.1509 75.915 41.1249C75.8287 40.099 75.7945 39.0541 75.8125 37.9902C75.8251 36.9115 75.8607 35.8496 75.9194 34.8045C75.9875 33.7391 76.0202 32.7622 76.0177 31.8736C76.0123 31.8588 76.0143 31.8413 76.0238 31.821C75.9861 31.7173 75.909 31.6446 75.7926 31.6031C75.6761 31.5616 75.5732 31.5571 75.4837 31.5896C75.4092 31.6168 75.3481 31.6809 75.3005 31.7822C75.0462 32.4286 74.8647 33.1827 74.7563 34.0446C74.6425 34.8916 74.5747 35.7722 74.5528 36.6865C74.531 37.6007 74.5465 38.5014 74.5992 39.3885C74.6614 40.2554 74.7414 41.0318 74.8392 41.7179C74.7005 41.9866 74.5137 42.3315 74.2787 42.7527C74.0436 43.1739 73.7835 43.5959 73.4984 44.0185C73.2227 44.421 72.9288 44.7965 72.6167 45.145C72.3141 45.4734 72.0137 45.6918 71.7155 45.8003C71.4918 45.8817 71.2886 45.8801 71.1059 45.7956C70.9327 45.6908 70.7812 45.553 70.6514 45.382C70.5163 45.1962 70.4035 45.0023 70.3131 44.8003C70.2172 44.5834 70.1397 44.3934 70.0803 44.2304C69.8754 43.6673 69.7327 43.0898 69.6524 42.4981C69.587 41.9009 69.5467 41.303 69.5314 40.7043C69.5257 40.0855 69.5328 39.4787 69.5527 38.884C69.5822 38.2691 69.5818 37.665 69.5516 37.0718C69.5586 36.9518 69.5521 36.7947 69.5321 36.6006C69.5216 36.3862 69.5037 36.1746 69.4783 35.9656C69.4624 35.7365 69.437 35.5275 69.4021 35.3388C69.3767 35.1299 69.3451 34.9735 69.3074 34.8698C69.2804 34.7957 69.2087 34.7379 69.0923 34.6963C68.9758 34.6548 68.8804 34.6476 68.8058 34.6747C68.7014 34.7127 68.6309 34.7972 68.5941 34.928C68.5478 35.0791 68.5224 35.2646 68.518 35.4844C68.5082 35.6894 68.4929 35.8795 68.4723 36.0549C68.4254 36.5754 68.3812 37.1034 68.3397 37.6388C68.2928 38.1594 68.256 38.6846 68.2294 39.2146C68.2133 39.9589 68.2371 40.6971 68.3009 41.4291C68.3593 42.1463 68.4807 42.8742 68.6651 43.6127C68.7444 43.9698 68.8488 44.3262 68.9783 44.6819C69.1023 45.0227 69.2589 45.3602 69.448 45.6941C69.6317 46.0133 69.8494 46.2865 70.1009 46.5138C70.362 46.7209 70.6564 46.8571 70.9842 46.9224C71.3173 47.0026 71.6925 46.9667 72.11 46.8148C72.4231 46.7008 72.7262 46.4898 73.0193 46.1817C73.3178 45.8884 73.5927 45.5534 73.8439 45.1767C74.1101 44.7945 74.3437 44.4158 74.5448 44.0405C74.7554 43.6449 74.9246 43.298 75.0524 42.9997C75.1321 43.1722 75.1893 43.3527 75.2243 43.5414C75.2538 43.7153 75.2982 43.8837 75.3575 44.0467C75.6272 44.7877 76.1616 45.189 76.9608 45.2506C77.3852 44.9787 77.7386 44.6738 78.0209 44.3361C78.3181 43.9929 78.5646 43.6263 78.7603 43.2362C78.9709 42.8407 79.1511 42.431 79.3008 42.0073C79.354 41.8568 79.4087 41.7047 79.4649 41.551C79.728 41.8666 80.0274 42.1332 80.3629 42.3508C80.7607 42.6088 81.1939 42.7784 81.6625 42.8596C82.146 42.9354 82.6486 42.8783 83.1705 42.6884C83.7221 42.4876 84.2008 42.1791 84.6065 41.7629C85.0176 41.3615 85.3394 40.9003 85.5719 40.3793C85.799 39.8435 85.9253 39.2857 85.9506 38.7059C85.9759 38.126 85.8888 37.5619 85.6892 37.0136C85.5166 36.5393 85.2869 36.1866 85.0001 35.9553C84.7079 35.7092 84.3926 35.5387 84.0541 35.4437C83.7305 35.3433 83.3933 35.2982 83.0424 35.3084C82.7065 35.3132 82.3881 35.32 82.0874 35.3287C81.8016 35.3321 81.553 35.3218 81.3417 35.298C81.1305 35.2742 80.9951 35.1808 80.9358 35.0178C80.8441 34.7659 80.8079 34.5273 80.8273 34.3021C80.8561 34.0566 80.9202 33.8151 81.0195 33.5776C81.3703 32.7786 81.8611 32.0628 82.4921 31.4304C83.1325 30.7777 83.8257 30.2233 84.5714 29.7673C84.7396 29.6725 84.9002 29.5805 85.0535 29.4911C85.2216 29.3964 85.3924 29.309 85.5659 29.2291C85.6351 29.1871 85.7022 29.1627 85.7672 29.1558C85.8418 29.1287 85.9109 29.0867 85.9747 29.03ZM66.3483 38.9174C66.5101 39.362 66.6123 39.8283 66.6549 40.3164C66.692 40.7895 66.6587 41.2548 66.555 41.7121C66.2192 43.2945 65.6938 44.82 64.9788 46.2886C64.2734 47.737 63.3894 49.0657 62.3267 50.2749L62.3591 50.3638C62.386 50.4379 62.3683 50.5283 62.3058 50.6349C62.2636 50.751 62.2052 50.8226 62.1307 50.8497C61.9369 50.9203 61.8076 50.8666 61.7429 50.6888C61.5817 50.6635 61.4742 50.5768 61.4202 50.4286C61.3986 50.3693 61.3967 50.2945 61.4145 50.2041C60.9376 49.4042 60.5482 48.5894 60.2461 47.7594C59.7229 46.3219 59.3894 44.8489 59.2456 43.3404C59.0964 41.8171 59.0149 40.2943 59.0011 38.772C58.9944 37.9185 59.0175 37.0542 59.0704 36.179C59.1383 35.2983 59.2515 34.4264 59.41 33.5631C59.5781 32.6795 59.8071 31.8241 60.097 30.9969C60.3964 30.1495 60.7648 29.3525 61.2022 28.6059C61.2308 28.5451 61.2749 28.5039 61.3345 28.4822C61.4389 28.4442 61.5418 28.4487 61.6433 28.4957C61.7448 28.5426 61.8118 28.6106 61.8441 28.6995C61.8711 28.7736 61.8751 28.8309 61.8561 28.8714C61.6106 29.867 61.3761 30.7999 61.1525 31.6701C60.9438 32.5349 60.7676 33.3962 60.624 34.2541C60.4749 35.0971 60.3617 35.9691 60.2844 36.87C60.2016 37.756 60.1736 38.7229 60.2004 39.7705C60.5401 39.1266 60.9339 38.5385 61.3818 38.0062C61.8243 37.4592 62.4034 37.0554 63.119 36.7949C63.2383 36.7515 63.3305 36.7263 63.3955 36.7194C63.4754 36.7071 63.596 36.7136 63.7572 36.7389C63.9332 36.7587 64.0666 36.7773 64.1573 36.7946C64.7125 36.9282 65.1706 37.1894 65.5317 37.5783C65.8873 37.9524 66.1595 38.3987 66.3483 38.9174ZM65.3053 39.3222C65.2352 39.1296 65.1298 38.933 64.9893 38.7324C64.8582 38.5115 64.7055 38.3238 64.531 38.1691C64.366 37.9942 64.1773 37.8699 63.9647 37.7962C63.7521 37.7225 63.534 37.7264 63.3104 37.8078C62.9675 37.9326 62.6441 38.1342 62.3402 38.4126C62.0458 38.6708 61.7724 38.9634 61.5199 39.2902C61.2674 39.6171 61.0379 39.9608 60.8314 40.3212C60.6195 40.6669 60.4246 40.9896 60.2466 41.2893C60.2921 42.4812 60.3849 43.6642 60.5252 44.8383C60.6804 46.0069 60.9603 47.147 61.3649 48.2585C61.5051 48.6439 61.6704 49.0284 61.8608 49.4123C62.0768 49.0316 62.3336 48.5773 62.6311 48.0494C62.9232 47.5067 63.2222 46.9364 63.528 46.3384C63.8337 45.7404 64.124 45.1228 64.3987 44.4858C64.6882 43.8433 64.923 43.2124 65.1028 42.5931C65.2975 41.9684 65.4204 41.3782 65.4715 40.8226C65.5225 40.267 65.4671 39.7668 65.3053 39.3222ZM113.818 21.5391C114.023 22.1023 114.18 22.7417 114.289 23.4574C114.412 24.1678 114.468 24.9025 114.458 25.6616C114.447 26.4208 114.371 27.1868 114.23 27.9597C114.099 28.7124 113.884 29.4201 113.585 30.0828C113.301 30.7401 112.919 31.3154 112.44 31.8086C111.981 32.3112 111.424 32.6819 110.768 32.9207C110.276 33.0998 109.802 33.121 109.347 32.9845C108.898 32.8628 108.474 32.648 108.074 32.3401C107.69 32.0268 107.355 31.6622 107.068 31.2462C106.777 30.8153 106.555 30.3924 106.404 29.9775C106.226 29.4884 106.118 28.9824 106.079 28.4593C106.001 26.9439 106.229 25.4845 106.765 24.081C107.301 22.6775 108.136 21.4675 109.269 20.451C109.293 20.4253 109.328 20.4044 109.372 20.3881C109.477 20.3501 109.565 20.36 109.636 20.4178C109.723 20.4702 109.782 20.5409 109.815 20.6298C109.853 20.7335 109.825 20.8442 109.733 20.9617L109.236 21.5453C109.065 21.725 108.905 21.9343 108.756 22.1733C108.151 23.0646 107.718 24.0532 107.454 25.1393C107.191 26.2253 107.086 27.3042 107.138 28.376C107.147 28.7252 107.222 29.0925 107.362 29.4778C107.475 29.789 107.641 30.1062 107.86 30.4293C108.079 30.7524 108.335 31.037 108.627 31.2831C108.914 31.5144 109.229 31.685 109.573 31.7948C109.926 31.8843 110.289 31.8613 110.662 31.7256C110.901 31.6388 111.108 31.5129 111.285 31.348C111.476 31.1777 111.644 30.9906 111.789 30.7866C112.21 30.1803 112.528 29.4771 112.744 28.677C112.959 27.877 113.091 27.0569 113.14 26.2167C113.183 25.3618 113.15 24.5265 113.038 23.711C112.922 22.8807 112.74 22.1247 112.492 21.443L112.394 21.1762C112.224 20.8017 111.972 20.5245 111.636 20.3446C111.315 20.1592 110.954 20.0475 110.551 20.0092C110.431 20.0028 110.313 20.0037 110.198 20.0121C110.098 20.015 109.995 20.0105 109.889 19.9986C109.718 19.9936 109.606 19.917 109.552 19.7688C109.514 19.665 109.512 19.5653 109.544 19.4695C109.577 19.3736 109.648 19.3142 109.758 19.291L109.78 19.2829C110.119 19.1931 110.467 19.1505 110.823 19.1551C111.194 19.1543 111.544 19.2115 111.873 19.3267C112.202 19.442 112.5 19.6105 112.767 19.8324C113.048 20.0489 113.276 20.3268 113.45 20.6662C113.534 20.8035 113.602 20.9463 113.656 21.0945L113.818 21.5391ZM125.698 24.7426C125.889 23.9682 126.035 23.1178 126.137 22.1912C126.099 22.0875 126.029 22.0121 125.928 21.9651C125.826 21.9182 125.723 21.9137 125.619 21.9517C125.53 21.9842 125.476 22.0457 125.458 22.1361C125.397 22.2926 125.349 22.4613 125.313 22.642C125.287 22.8026 125.243 22.9611 125.182 23.1176C124.99 23.8421 124.757 24.5229 124.482 25.1599L124.282 25.5851C124.211 25.7619 124.126 25.9441 124.025 26.1318C123.919 26.3046 123.808 26.4626 123.691 26.6058C123.589 26.7436 123.486 26.8314 123.382 26.8694C123.345 26.8156 123.316 26.759 123.295 26.6997L123.222 26.4997C123.109 26.1884 123.02 25.8765 122.957 25.5638C122.904 25.2309 122.86 24.9027 122.827 24.5791C122.8 24.3203 122.769 24.0716 122.733 23.833C122.706 23.5742 122.672 23.3181 122.63 23.0647C122.607 22.9555 122.577 22.8491 122.539 22.7453C122.516 22.6361 122.501 22.5243 122.493 22.4097C122.488 22.2101 122.492 21.9654 122.504 21.6755C122.517 21.3855 122.523 21.1233 122.522 20.8887C122.512 20.3048 122.485 19.719 122.44 19.1313C122.389 18.5287 122.326 17.9389 122.252 17.362L122.258 17.3094C122.22 17.2056 122.153 17.1377 122.057 17.1055C121.961 17.0734 121.86 17.0763 121.756 17.1143C121.622 17.1631 121.544 17.2503 121.522 17.3757C121.48 17.6765 121.448 18.0319 121.429 18.4418C121.424 18.8463 121.418 19.201 121.411 19.5057L121.302 21.7105C121.26 22.4306 121.181 23.1643 121.064 23.9116C121.009 24.3175 120.91 24.7647 120.767 25.2532C120.624 25.7416 120.436 26.2214 120.202 26.6925C119.968 27.1636 119.683 27.5862 119.347 27.9605C119.025 28.3293 118.648 28.5924 118.216 28.7498C118.126 28.7823 118.031 28.7751 117.929 28.7282C117.837 28.6609 117.757 28.5809 117.69 28.488C117.617 28.3803 117.554 28.2773 117.501 28.179C117.443 28.0658 117.403 27.9796 117.382 27.9204C117.242 27.535 117.156 27.1132 117.124 26.6548C117.107 26.191 117.125 25.7312 117.179 25.2753C117.227 24.8046 117.303 24.3406 117.407 23.8833C117.511 23.426 117.62 23.0084 117.736 22.6306C118.33 20.7362 119.282 19.0136 120.591 17.4627C120.781 17.2425 120.977 17.0371 121.177 16.8466C121.388 16.6358 121.595 16.4175 121.8 16.1919C121.889 16.1095 121.908 16.0015 121.86 15.8682C121.827 15.7792 121.768 15.7086 121.681 15.6562C121.61 15.5984 121.522 15.5885 121.417 15.6264C121.372 15.6427 121.345 15.661 121.336 15.6812C120.275 16.5708 119.358 17.5761 118.584 18.6969C117.804 19.803 117.193 20.999 116.749 22.285C116.571 22.7694 116.416 23.2707 116.283 23.7887C116.151 24.3068 116.057 24.8362 116 25.3771C115.953 25.8976 115.952 26.4269 115.996 26.9648C116.049 27.4824 116.165 27.9858 116.343 28.4748C116.472 28.8305 116.684 29.1563 116.977 29.4523C117.285 29.7429 117.641 29.9073 118.043 29.9455C118.093 29.944 118.161 29.9445 118.246 29.947C118.346 29.9441 118.419 29.9345 118.464 29.9182C119.313 29.6089 120.008 29.1044 120.547 28.4048C121.106 27.7145 121.533 26.9632 121.829 26.1508C121.861 26.2398 121.897 26.361 121.936 26.5147L122.089 26.937C122.158 27.0798 122.217 27.2179 122.266 27.3513C122.329 27.4792 122.389 27.5748 122.446 27.6381C122.601 27.8332 122.798 27.9548 123.035 28.0028C123.292 28.0602 123.532 28.0482 123.756 27.9668C124.173 27.8149 124.492 27.531 124.712 27.1152C125.173 26.2931 125.501 25.5022 125.698 24.7426Z"/>
</mask>
<path fill-rule="evenodd" clip-rule="evenodd" d="M140.842 1.35658C140.846 1.32152 140.84 1.28175 140.823 1.23729C140.786 1.13355 140.711 1.06833 140.6 1.04161C140.499 0.994641 140.403 0.987435 140.314 1.02C140.209 1.05798 140.148 1.12217 140.131 1.21255C139.935 1.78738 139.778 2.42349 139.66 3.12085C139.557 3.81279 139.485 4.51882 139.443 5.23894C139.401 5.95906 139.382 6.67103 139.385 7.37487C139.403 8.07328 139.429 8.7265 139.465 9.33453C139.355 9.3577 139.248 9.38828 139.144 9.42627L138.853 9.53209C138.093 9.80885 137.416 10.223 136.823 10.7744C136.225 11.311 135.759 11.9337 135.426 12.6423C135.141 13.2497 134.917 13.9102 134.754 14.6239C134.587 15.3227 134.477 16.0423 134.426 16.7827C134.384 17.5028 134.402 18.2261 134.481 18.9527C134.569 19.6591 134.729 20.3309 134.961 20.9681C135.069 21.2645 135.205 21.5676 135.368 21.8774C135.547 22.1817 135.751 22.4428 135.983 22.6607C136.219 22.8935 136.489 23.0553 136.793 23.1464C137.111 23.2319 137.464 23.2042 137.851 23.0631C138.224 22.9274 138.556 22.6806 138.848 22.3227C139.16 21.9741 139.431 21.5818 139.661 21.1457C139.905 20.7043 140.115 20.2589 140.289 19.8095C140.458 19.3453 140.588 18.9371 140.679 18.585C140.713 18.7238 140.749 18.87 140.788 19.0236L140.942 19.446C141.023 19.6683 141.119 19.9101 141.231 20.1714C141.358 20.4273 141.499 20.6529 141.655 20.848C141.83 21.0526 142.03 21.2065 142.253 21.3099C142.477 21.4132 142.737 21.4106 143.036 21.302C143.379 21.1772 143.651 20.9272 143.852 20.5519C144.125 20.0497 144.367 19.5334 144.58 19.003C144.792 18.4726 144.963 17.9235 145.094 17.3555C145.113 17.315 145.109 17.2577 145.082 17.1836C145.05 17.0947 144.983 17.0268 144.882 16.9798C144.78 16.9328 144.685 16.9256 144.595 16.9582C144.506 16.9907 144.452 17.0522 144.434 17.1426C144.368 17.2843 144.264 17.532 144.122 17.8856C143.99 18.2189 143.849 18.5725 143.698 18.9463C143.541 19.3053 143.374 19.6347 143.196 19.9344C143.033 20.2288 142.885 20.4003 142.751 20.4492C142.661 20.4817 142.58 20.4691 142.509 20.4113C142.457 20.3629 142.408 20.2969 142.361 20.2134C142.314 20.1299 142.274 20.0437 142.241 19.9548L142.152 19.7102C141.893 18.9989 141.683 18.2362 141.522 17.4221C141.356 16.5933 141.219 15.7535 141.112 14.903C141.02 14.047 140.945 13.1929 140.888 12.3409C140.832 11.4889 140.791 10.6813 140.766 9.91817C140.837 9.9261 140.915 9.93132 141 9.93383C141.1 9.93091 141.18 9.9186 141.24 9.89689C141.344 9.8589 141.413 9.79201 141.445 9.6962C141.478 9.60039 141.476 9.50062 141.438 9.39688C141.395 9.27832 141.295 9.21382 141.139 9.20338C140.984 9.19294 140.848 9.19189 140.733 9.20024C140.689 7.87355 140.679 6.56836 140.701 5.28467C140.733 3.98074 140.78 2.67137 140.842 1.35658ZM139.337 10.2369L139.516 10.1718C139.595 11.2678 139.681 12.3861 139.775 13.5266C139.879 14.6468 140.082 15.7392 140.385 16.8038C140.355 16.8146 140.331 16.8403 140.312 16.8808C140.198 17.1237 140.024 17.5057 139.792 18.0267C139.559 18.5477 139.307 19.0842 139.035 19.6363C138.773 20.1681 138.495 20.6555 138.2 21.0984C137.915 21.5211 137.653 21.7759 137.414 21.8627C137.235 21.9278 137.07 21.9127 136.917 21.8173C136.779 21.7165 136.645 21.5806 136.515 21.4096C136.4 21.2332 136.3 21.0514 136.215 20.8642L136.037 20.3751C135.897 19.9898 135.801 19.5882 135.751 19.1703C135.63 18.3751 135.581 17.5203 135.602 16.6061C135.639 15.6864 135.785 14.811 136.04 13.9799C136.304 13.1285 136.696 12.3732 137.216 11.714C137.745 11.0346 138.452 10.5422 139.337 10.2369ZM133.153 13.4948C133.196 13.6134 133.229 13.7272 133.252 13.8364C133.275 13.9456 133.293 14.0649 133.306 14.1943C133.32 14.3237 133.259 14.4128 133.125 14.4617C133.065 14.4834 132.968 14.4937 132.832 14.4926C132.706 14.4714 132.633 14.4311 132.611 14.3718L132.561 14.1636C132.523 14.0598 132.462 13.9393 132.378 13.8019C132.31 13.6592 132.221 13.532 132.113 13.4203C132.014 13.2884 131.904 13.1942 131.782 13.1379C131.655 13.0667 131.517 13.0582 131.368 13.1125C131.01 13.2427 130.67 13.4923 130.348 13.8611C130.021 14.2151 129.754 14.5474 129.546 14.858C129.459 14.9903 129.344 15.1834 129.2 15.4372C129.056 15.691 128.91 15.9623 128.762 16.2512C128.613 16.5401 128.478 16.8161 128.354 17.0793C128.245 17.3371 128.175 17.5389 128.144 17.6846C128.12 17.7601 128.101 17.893 128.086 18.0831C128.08 18.253 128.073 18.4405 128.063 18.6454C128.068 18.845 128.063 19.0398 128.048 19.23C128.047 19.4147 128.041 19.5597 128.029 19.6649C127.989 20.4848 127.957 21.302 127.933 22.1164C127.924 22.9255 127.932 23.7365 127.957 24.5495C127.962 24.9338 127.977 25.3227 128.002 25.7164C128.048 26.1194 128.073 26.5131 128.078 26.8974C128.061 27.0376 128.008 27.1241 127.919 27.1566C127.859 27.1783 127.756 27.1738 127.61 27.1432C127.484 27.1219 127.41 27.0816 127.389 27.0223C127.329 26.8593 127.284 26.6659 127.253 26.4421C127.237 26.2129 127.215 26.0114 127.185 25.8375C127.028 24.8037 126.922 23.7684 126.865 22.7316C126.809 21.6949 126.802 20.6566 126.846 19.617C126.851 19.2124 126.854 18.7331 126.854 18.1789C126.87 17.6193 126.891 17.0496 126.916 16.4697C126.936 15.8751 126.977 15.3147 127.039 14.7887C127.11 14.2425 127.217 13.7926 127.358 13.439C127.396 13.358 127.452 13.3039 127.527 13.2768C127.587 13.2551 127.682 13.2623 127.813 13.2984C127.954 13.3143 128.038 13.3592 128.065 13.4333C128.081 13.4778 128.096 13.5647 128.109 13.6942C128.117 13.8088 128.131 13.9382 128.149 14.0824C128.163 14.2118 128.169 14.3439 128.167 14.4788C128.175 14.5934 128.18 14.6756 128.181 14.7255C128.529 14.1962 128.912 13.6957 129.331 13.2242C129.751 12.7527 130.274 12.403 130.9 12.1751C131.168 12.0774 131.421 12.0526 131.658 12.1006C131.889 12.1338 132.105 12.2149 132.304 12.3439C132.502 12.4729 132.672 12.6377 132.813 12.8382C132.953 13.0388 133.067 13.2577 133.153 13.4948ZM104.652 26.4864C104.61 25.9984 104.507 25.5321 104.346 25.0875C104.157 24.5688 103.885 24.1225 103.529 23.7484C103.168 23.3595 102.71 23.0983 102.155 22.9647C102.064 22.9474 101.931 22.9288 101.755 22.909C101.593 22.8837 101.473 22.8772 101.393 22.8895C101.328 22.8964 101.236 22.9216 101.116 22.965C100.401 23.2255 99.8216 23.6293 99.3791 24.1763C98.9312 24.7086 98.5374 25.2967 98.1977 25.9406C98.171 24.893 98.199 23.9261 98.2817 23.0401C98.3591 22.1392 98.4723 21.2672 98.6213 20.4242C98.765 19.5663 98.9411 18.705 99.1498 17.8402C99.3734 16.97 99.6079 16.0371 99.8534 15.0415C99.8724 15.001 99.8685 14.9437 99.8415 14.8696C99.8091 14.7807 99.7422 14.7127 99.6407 14.6658C99.5392 14.6188 99.4362 14.6143 99.3319 14.6523C99.2722 14.674 99.2281 14.7152 99.1996 14.776C98.7622 15.5226 98.3937 16.3196 98.0943 17.167C97.8044 17.9942 97.5754 18.8496 97.4074 19.7332C97.2488 20.5965 97.1356 21.4684 97.0678 22.3491C97.0149 23.2243 96.9918 24.0886 96.9985 24.9421C97.0122 26.4644 97.0937 27.9872 97.2429 29.5105C97.3867 31.019 97.7203 32.492 98.2435 33.9295C98.5455 34.7594 98.935 35.5743 99.4119 36.3742C99.3941 36.4646 99.396 36.5394 99.4176 36.5987C99.4715 36.7469 99.5791 36.8336 99.7402 36.8589C99.805 37.0367 99.9342 37.0904 100.128 37.0198C100.203 36.9927 100.261 36.9211 100.303 36.805C100.366 36.6984 100.383 36.608 100.356 36.5339L100.324 36.445C101.387 35.2358 102.271 33.9071 102.976 32.4587C103.691 30.9901 104.217 29.4646 104.552 27.8822C104.656 27.4249 104.689 26.9596 104.652 26.4864ZM102.987 24.9025C103.127 25.1031 103.233 25.2997 103.303 25.4923C103.464 25.9369 103.52 26.4371 103.469 26.9927C103.418 27.5483 103.295 28.1385 103.1 28.7632C102.92 29.3825 102.686 30.0134 102.396 30.6559C102.121 31.2929 101.831 31.9104 101.525 32.5085C101.22 33.1065 100.921 33.6768 100.628 34.2195C100.331 34.7474 100.074 35.2017 99.8582 35.5824C99.6678 35.1985 99.5025 34.8139 99.3622 34.4286C98.9577 33.3171 98.6778 32.177 98.5226 31.0084C98.3823 29.8342 98.2894 28.6513 98.244 27.4594C98.4219 27.1597 98.6168 26.837 98.8287 26.4913C99.0352 26.1309 99.2647 25.7872 99.5172 25.4603C99.7697 25.1335 100.043 24.8409 100.338 24.5827C100.641 24.3043 100.965 24.1027 101.308 23.9779C101.531 23.8965 101.749 23.8926 101.962 23.9663C102.175 24.04 102.363 24.1643 102.528 24.3392C102.703 24.4939 102.856 24.6816 102.987 24.9025ZM95.305 25.5082C95.3265 25.5674 95.3353 25.6146 95.3312 25.6497C95.3148 27.3675 95.2503 29.0693 95.1378 30.755C95.0199 32.4259 94.9528 34.1202 94.9364 35.8381C94.9174 36.6674 94.9283 37.4858 94.9689 38.2934C95.0245 39.0955 95.0855 39.9125 95.1518 40.7443C95.1664 40.9236 95.1682 41.0908 95.1571 41.2459C95.1663 41.4104 95.1708 41.585 95.1705 41.7697C95.1911 42.3831 95.1989 42.9845 95.1939 43.5737C95.1943 44.1778 95.1594 44.7779 95.0893 45.374C95.0193 45.9702 94.9011 46.5502 94.735 47.1142C94.5742 47.693 94.3444 48.2214 94.0455 48.6994C93.7521 49.1922 93.3945 49.6245 92.9726 49.9962C92.5561 50.3828 92.0571 50.6819 91.4756 50.8935C91.0387 51.0526 90.6525 51.0008 90.2476 50.9465C90.0861 50.9248 89.9216 50.9027 89.7496 50.8935C89.55 50.8896 89.3418 50.9055 89.1318 50.9217C88.6976 50.955 88.2552 50.9889 87.8629 50.849C87.2862 50.6561 86.7347 50.3701 86.2083 49.9911C85.6725 49.6323 85.1652 49.2127 84.6865 48.7324C84.6351 48.684 84.6013 48.6375 84.5851 48.5931C84.527 48.4799 84.532 48.3774 84.5998 48.2856C84.6582 48.214 84.7321 48.1619 84.8216 48.1294C84.8812 48.1077 84.9415 48.1109 85.0024 48.1391C85.0633 48.1673 85.1168 48.1982 85.1628 48.2318C85.3265 48.3568 85.4854 48.492 85.6396 48.6372C85.7843 48.8028 85.9459 48.9453 86.1245 49.0649C86.4614 49.2947 86.8302 49.4962 87.2309 49.6692C87.6221 49.8625 88.0343 49.9978 88.4677 50.075C88.8915 50.1725 89.3188 50.21 89.7496 50.1874C90.1858 50.1797 90.6052 50.1026 91.0078 49.9561C91.6191 49.7336 92.1317 49.3792 92.5457 48.8929C93.1293 48.1769 93.5242 47.3367 93.7304 46.3722C93.9365 45.4076 94.0459 44.386 94.0585 43.3073C94.067 42.2636 94.0152 41.2167 93.9032 40.1666C93.8114 39.1259 93.7412 38.1444 93.6926 37.2223C93.5731 37.4504 93.4216 37.7069 93.2382 37.9918C93.0549 38.2767 92.8587 38.5496 92.6497 38.8103C92.446 39.0858 92.2241 39.3344 91.984 39.556C91.7588 39.7723 91.5344 39.9211 91.3107 40.0025C90.8783 40.1599 90.432 40.1629 89.9717 40.0116C89.5262 39.8548 89.1725 39.5556 88.9104 39.1139C88.728 38.8446 88.5835 38.5867 88.4769 38.3402C88.2798 37.8917 88.1195 37.4046 87.9957 36.879C87.8815 36.3332 87.7923 35.7866 87.7282 35.2393C87.6736 34.6718 87.642 34.121 87.6333 33.5871C87.6193 33.0384 87.629 32.5313 87.6623 32.0661C87.7222 31.0709 87.8173 30.0796 87.9476 29.0923C87.9777 28.8967 87.9977 28.6965 88.0075 28.4915C88.0173 28.2865 88.0447 28.0835 88.0898 27.8825C88.117 27.7719 88.1903 27.6949 88.3096 27.6515C88.3842 27.6243 88.4823 27.6389 88.6042 27.6953C88.7206 27.7368 88.8024 27.7994 88.8497 27.8828L88.904 28.2407C88.9963 28.912 89.0386 29.5847 89.0307 30.2589C89.0377 30.9277 89.0244 31.5871 88.9909 32.2371C88.9725 32.6969 88.9548 33.1817 88.9377 33.6914C88.9301 34.1809 88.9401 34.6723 88.9677 35.1658C89.0103 35.6538 89.0779 36.141 89.1706 36.6276C89.2578 37.0993 89.3973 37.5521 89.5889 37.9858C89.6524 38.1138 89.7185 38.2491 89.7874 38.3919C89.8711 38.5293 89.9671 38.6538 90.0753 38.7654C90.1781 38.8623 90.2904 38.9389 90.4122 38.9953C90.5287 39.0368 90.6614 39.0304 90.8105 38.9762C91.064 38.8839 91.3325 38.6939 91.6161 38.406C91.8943 38.1034 92.1644 37.7785 92.4264 37.4314C92.683 37.0694 92.9146 36.7082 93.1211 36.3478C93.3425 35.9819 93.5177 35.6747 93.6468 35.4263C93.6461 34.2182 93.686 33.0289 93.7665 31.8583C93.8416 30.6729 93.9621 29.4962 94.1279 28.3282C94.1964 27.8669 94.2622 27.3982 94.3253 26.9221C94.383 26.4311 94.4637 25.957 94.5674 25.4997C94.5893 25.3742 94.6599 25.2898 94.7791 25.2464C94.8835 25.2084 94.9817 25.223 95.0737 25.2902C95.1752 25.3372 95.2523 25.4098 95.305 25.5082ZM85.9747 29.03C86.1428 28.9352 86.1918 28.7915 86.1217 28.5988C86.0947 28.5247 86.0481 28.4662 85.9818 28.4232C85.9101 28.3654 85.8295 28.3527 85.74 28.3853C84.5324 28.8249 83.4246 29.4462 82.4168 30.2494C81.4185 31.0323 80.6333 32.0063 80.0611 33.1712C79.8993 33.5154 79.7957 33.8803 79.7504 34.266C79.72 34.6464 79.7695 35.0143 79.8989 35.37C80.023 35.7109 80.2048 35.9552 80.4443 36.103C80.6988 36.2454 80.9797 36.3445 81.2871 36.4005C81.5891 36.4416 81.9081 36.4597 82.244 36.4549C82.58 36.4502 82.8963 36.4609 83.1929 36.4872C83.4841 36.4987 83.7414 36.5561 83.9647 36.6594C84.203 36.7573 84.3679 36.9323 84.4597 37.1842L84.5406 37.4065C84.6808 37.7918 84.7364 38.1996 84.7072 38.6298C84.6876 39.0397 84.5873 39.437 84.4065 39.8217C84.2406 40.201 84.0112 40.5446 83.7181 40.8527C83.4196 41.146 83.0765 41.3631 82.6888 41.5042C82.2564 41.6616 81.848 41.676 81.4635 41.5474C81.0736 41.404 80.7245 41.187 80.4161 40.8965C80.1077 40.6059 79.8333 40.2694 79.5928 39.887C79.3672 39.4992 79.1924 39.1349 79.0683 38.794C79.036 38.7051 78.9643 38.6473 78.8533 38.6206C78.7571 38.5884 78.6718 38.5859 78.5972 38.613C78.478 38.6565 78.4074 38.7409 78.3855 38.8663C78.3636 38.9918 78.362 39.1266 78.3808 39.2708C78.4144 39.4097 78.4507 39.5559 78.4898 39.7095L78.6111 40.0429C78.707 40.3063 78.8227 40.5598 78.9582 40.8035L78.9471 40.8269C78.7854 41.1711 78.5924 41.5687 78.3681 42.0195C78.1534 42.4501 77.9034 42.8768 77.6183 43.2994C77.348 43.7167 77.0522 44.0173 76.7308 44.2014C76.6604 44.1935 76.607 44.1626 76.5705 44.1088L76.5057 43.9309C76.1983 43.0862 76.0014 42.1509 75.915 41.1249C75.8287 40.099 75.7945 39.0541 75.8125 37.9902C75.8251 36.9115 75.8607 35.8496 75.9194 34.8045C75.9875 33.7391 76.0202 32.7622 76.0177 31.8736C76.0123 31.8588 76.0143 31.8413 76.0238 31.821C75.9861 31.7173 75.909 31.6446 75.7926 31.6031C75.6761 31.5616 75.5732 31.5571 75.4837 31.5896C75.4092 31.6168 75.3481 31.6809 75.3005 31.7822C75.0462 32.4286 74.8647 33.1827 74.7563 34.0446C74.6425 34.8916 74.5747 35.7722 74.5528 36.6865C74.531 37.6007 74.5465 38.5014 74.5992 39.3885C74.6614 40.2554 74.7414 41.0318 74.8392 41.7179C74.7005 41.9866 74.5137 42.3315 74.2787 42.7527C74.0436 43.1739 73.7835 43.5959 73.4984 44.0185C73.2227 44.421 72.9288 44.7965 72.6167 45.145C72.3141 45.4734 72.0137 45.6918 71.7155 45.8003C71.4918 45.8817 71.2886 45.8801 71.1059 45.7956C70.9327 45.6908 70.7812 45.553 70.6514 45.382C70.5163 45.1962 70.4035 45.0023 70.3131 44.8003C70.2172 44.5834 70.1397 44.3934 70.0803 44.2304C69.8754 43.6673 69.7327 43.0898 69.6524 42.4981C69.587 41.9009 69.5467 41.303 69.5314 40.7043C69.5257 40.0855 69.5328 39.4787 69.5527 38.884C69.5822 38.2691 69.5818 37.665 69.5516 37.0718C69.5586 36.9518 69.5521 36.7947 69.5321 36.6006C69.5216 36.3862 69.5037 36.1746 69.4783 35.9656C69.4624 35.7365 69.437 35.5275 69.4021 35.3388C69.3767 35.1299 69.3451 34.9735 69.3074 34.8698C69.2804 34.7957 69.2087 34.7379 69.0923 34.6963C68.9758 34.6548 68.8804 34.6476 68.8058 34.6747C68.7014 34.7127 68.6309 34.7972 68.5941 34.928C68.5478 35.0791 68.5224 35.2646 68.518 35.4844C68.5082 35.6894 68.4929 35.8795 68.4723 36.0549C68.4254 36.5754 68.3812 37.1034 68.3397 37.6388C68.2928 38.1594 68.256 38.6846 68.2294 39.2146C68.2133 39.9589 68.2371 40.6971 68.3009 41.4291C68.3593 42.1463 68.4807 42.8742 68.6651 43.6127C68.7444 43.9698 68.8488 44.3262 68.9783 44.6819C69.1023 45.0227 69.2589 45.3602 69.448 45.6941C69.6317 46.0133 69.8494 46.2865 70.1009 46.5138C70.362 46.7209 70.6564 46.8571 70.9842 46.9224C71.3173 47.0026 71.6925 46.9667 72.11 46.8148C72.4231 46.7008 72.7262 46.4898 73.0193 46.1817C73.3178 45.8884 73.5927 45.5534 73.8439 45.1767C74.1101 44.7945 74.3437 44.4158 74.5448 44.0405C74.7554 43.6449 74.9246 43.298 75.0524 42.9997C75.1321 43.1722 75.1893 43.3527 75.2243 43.5414C75.2538 43.7153 75.2982 43.8837 75.3575 44.0467C75.6272 44.7877 76.1616 45.189 76.9608 45.2506C77.3852 44.9787 77.7386 44.6738 78.0209 44.3361C78.3181 43.9929 78.5646 43.6263 78.7603 43.2362C78.9709 42.8407 79.1511 42.431 79.3008 42.0073C79.354 41.8568 79.4087 41.7047 79.4649 41.551C79.728 41.8666 80.0274 42.1332 80.3629 42.3508C80.7607 42.6088 81.1939 42.7784 81.6625 42.8596C82.146 42.9354 82.6486 42.8783 83.1705 42.6884C83.7221 42.4876 84.2008 42.1791 84.6065 41.7629C85.0176 41.3615 85.3394 40.9003 85.5719 40.3793C85.799 39.8435 85.9253 39.2857 85.9506 38.7059C85.9759 38.126 85.8888 37.5619 85.6892 37.0136C85.5166 36.5393 85.2869 36.1866 85.0001 35.9553C84.7079 35.7092 84.3926 35.5387 84.0541 35.4437C83.7305 35.3433 83.3933 35.2982 83.0424 35.3084C82.7065 35.3132 82.3881 35.32 82.0874 35.3287C81.8016 35.3321 81.553 35.3218 81.3417 35.298C81.1305 35.2742 80.9951 35.1808 80.9358 35.0178C80.8441 34.7659 80.8079 34.5273 80.8273 34.3021C80.8561 34.0566 80.9202 33.8151 81.0195 33.5776C81.3703 32.7786 81.8611 32.0628 82.4921 31.4304C83.1325 30.7777 83.8257 30.2233 84.5714 29.7673C84.7396 29.6725 84.9002 29.5805 85.0535 29.4911C85.2216 29.3964 85.3924 29.309 85.5659 29.2291C85.6351 29.1871 85.7022 29.1627 85.7672 29.1558C85.8418 29.1287 85.9109 29.0867 85.9747 29.03ZM66.3483 38.9174C66.5101 39.362 66.6123 39.8283 66.6549 40.3164C66.692 40.7895 66.6587 41.2548 66.555 41.7121C66.2192 43.2945 65.6938 44.82 64.9788 46.2886C64.2734 47.737 63.3894 49.0657 62.3267 50.2749L62.3591 50.3638C62.386 50.4379 62.3683 50.5283 62.3058 50.6349C62.2636 50.751 62.2052 50.8226 62.1307 50.8497C61.9369 50.9203 61.8076 50.8666 61.7429 50.6888C61.5817 50.6635 61.4742 50.5768 61.4202 50.4286C61.3986 50.3693 61.3967 50.2945 61.4145 50.2041C60.9376 49.4042 60.5482 48.5894 60.2461 47.7594C59.7229 46.3219 59.3894 44.8489 59.2456 43.3404C59.0964 41.8171 59.0149 40.2943 59.0011 38.772C58.9944 37.9185 59.0175 37.0542 59.0704 36.179C59.1383 35.2983 59.2515 34.4264 59.41 33.5631C59.5781 32.6795 59.8071 31.8241 60.097 30.9969C60.3964 30.1495 60.7648 29.3525 61.2022 28.6059C61.2308 28.5451 61.2749 28.5039 61.3345 28.4822C61.4389 28.4442 61.5418 28.4487 61.6433 28.4957C61.7448 28.5426 61.8118 28.6106 61.8441 28.6995C61.8711 28.7736 61.8751 28.8309 61.8561 28.8714C61.6106 29.867 61.3761 30.7999 61.1525 31.6701C60.9438 32.5349 60.7676 33.3962 60.624 34.2541C60.4749 35.0971 60.3617 35.9691 60.2844 36.87C60.2016 37.756 60.1736 38.7229 60.2004 39.7705C60.5401 39.1266 60.9339 38.5385 61.3818 38.0062C61.8243 37.4592 62.4034 37.0554 63.119 36.7949C63.2383 36.7515 63.3305 36.7263 63.3955 36.7194C63.4754 36.7071 63.596 36.7136 63.7572 36.7389C63.9332 36.7587 64.0666 36.7773 64.1573 36.7946C64.7125 36.9282 65.1706 37.1894 65.5317 37.5783C65.8873 37.9524 66.1595 38.3987 66.3483 38.9174ZM65.3053 39.3222C65.2352 39.1296 65.1298 38.933 64.9893 38.7324C64.8582 38.5115 64.7055 38.3238 64.531 38.1691C64.366 37.9942 64.1773 37.8699 63.9647 37.7962C63.7521 37.7225 63.534 37.7264 63.3104 37.8078C62.9675 37.9326 62.6441 38.1342 62.3402 38.4126C62.0458 38.6708 61.7724 38.9634 61.5199 39.2902C61.2674 39.6171 61.0379 39.9608 60.8314 40.3212C60.6195 40.6669 60.4246 40.9896 60.2466 41.2893C60.2921 42.4812 60.3849 43.6642 60.5252 44.8383C60.6804 46.0069 60.9603 47.147 61.3649 48.2585C61.5051 48.6439 61.6704 49.0284 61.8608 49.4123C62.0768 49.0316 62.3336 48.5773 62.6311 48.0494C62.9232 47.5067 63.2222 46.9364 63.528 46.3384C63.8337 45.7404 64.124 45.1228 64.3987 44.4858C64.6882 43.8433 64.923 43.2124 65.1028 42.5931C65.2975 41.9684 65.4204 41.3782 65.4715 40.8226C65.5225 40.267 65.4671 39.7668 65.3053 39.3222ZM113.818 21.5391C114.023 22.1023 114.18 22.7417 114.289 23.4574C114.412 24.1678 114.468 24.9025 114.458 25.6616C114.447 26.4208 114.371 27.1868 114.23 27.9597C114.099 28.7124 113.884 29.4201 113.585 30.0828C113.301 30.7401 112.919 31.3154 112.44 31.8086C111.981 32.3112 111.424 32.6819 110.768 32.9207C110.276 33.0998 109.802 33.121 109.347 32.9845C108.898 32.8628 108.474 32.648 108.074 32.3401C107.69 32.0268 107.355 31.6622 107.068 31.2462C106.777 30.8153 106.555 30.3924 106.404 29.9775C106.226 29.4884 106.118 28.9824 106.079 28.4593C106.001 26.9439 106.229 25.4845 106.765 24.081C107.301 22.6775 108.136 21.4675 109.269 20.451C109.293 20.4253 109.328 20.4044 109.372 20.3881C109.477 20.3501 109.565 20.36 109.636 20.4178C109.723 20.4702 109.782 20.5409 109.815 20.6298C109.853 20.7335 109.825 20.8442 109.733 20.9617L109.236 21.5453C109.065 21.725 108.905 21.9343 108.756 22.1733C108.151 23.0646 107.718 24.0532 107.454 25.1393C107.191 26.2253 107.086 27.3042 107.138 28.376C107.147 28.7252 107.222 29.0925 107.362 29.4778C107.475 29.789 107.641 30.1062 107.86 30.4293C108.079 30.7524 108.335 31.037 108.627 31.2831C108.914 31.5144 109.229 31.685 109.573 31.7948C109.926 31.8843 110.289 31.8613 110.662 31.7256C110.901 31.6388 111.108 31.5129 111.285 31.348C111.476 31.1777 111.644 30.9906 111.789 30.7866C112.21 30.1803 112.528 29.4771 112.744 28.677C112.959 27.877 113.091 27.0569 113.14 26.2167C113.183 25.3618 113.15 24.5265 113.038 23.711C112.922 22.8807 112.74 22.1247 112.492 21.443L112.394 21.1762C112.224 20.8017 111.972 20.5245 111.636 20.3446C111.315 20.1592 110.954 20.0475 110.551 20.0092C110.431 20.0028 110.313 20.0037 110.198 20.0121C110.098 20.015 109.995 20.0105 109.889 19.9986C109.718 19.9936 109.606 19.917 109.552 19.7688C109.514 19.665 109.512 19.5653 109.544 19.4695C109.577 19.3736 109.648 19.3142 109.758 19.291L109.78 19.2829C110.119 19.1931 110.467 19.1505 110.823 19.1551C111.194 19.1543 111.544 19.2115 111.873 19.3267C112.202 19.442 112.5 19.6105 112.767 19.8324C113.048 20.0489 113.276 20.3268 113.45 20.6662C113.534 20.8035 113.602 20.9463 113.656 21.0945L113.818 21.5391ZM125.698 24.7426C125.889 23.9682 126.035 23.1178 126.137 22.1912C126.099 22.0875 126.029 22.0121 125.928 21.9651C125.826 21.9182 125.723 21.9137 125.619 21.9517C125.53 21.9842 125.476 22.0457 125.458 22.1361C125.397 22.2926 125.349 22.4613 125.313 22.642C125.287 22.8026 125.243 22.9611 125.182 23.1176C124.99 23.8421 124.757 24.5229 124.482 25.1599L124.282 25.5851C124.211 25.7619 124.126 25.9441 124.025 26.1318C123.919 26.3046 123.808 26.4626 123.691 26.6058C123.589 26.7436 123.486 26.8314 123.382 26.8694C123.345 26.8156 123.316 26.759 123.295 26.6997L123.222 26.4997C123.109 26.1884 123.02 25.8765 122.957 25.5638C122.904 25.2309 122.86 24.9027 122.827 24.5791C122.8 24.3203 122.769 24.0716 122.733 23.833C122.706 23.5742 122.672 23.3181 122.63 23.0647C122.607 22.9555 122.577 22.8491 122.539 22.7453C122.516 22.6361 122.501 22.5243 122.493 22.4097C122.488 22.2101 122.492 21.9654 122.504 21.6755C122.517 21.3855 122.523 21.1233 122.522 20.8887C122.512 20.3048 122.485 19.719 122.44 19.1313C122.389 18.5287 122.326 17.9389 122.252 17.362L122.258 17.3094C122.22 17.2056 122.153 17.1377 122.057 17.1055C121.961 17.0734 121.86 17.0763 121.756 17.1143C121.622 17.1631 121.544 17.2503 121.522 17.3757C121.48 17.6765 121.448 18.0319 121.429 18.4418C121.424 18.8463 121.418 19.201 121.411 19.5057L121.302 21.7105C121.26 22.4306 121.181 23.1643 121.064 23.9116C121.009 24.3175 120.91 24.7647 120.767 25.2532C120.624 25.7416 120.436 26.2214 120.202 26.6925C119.968 27.1636 119.683 27.5862 119.347 27.9605C119.025 28.3293 118.648 28.5924 118.216 28.7498C118.126 28.7823 118.031 28.7751 117.929 28.7282C117.837 28.6609 117.757 28.5809 117.69 28.488C117.617 28.3803 117.554 28.2773 117.501 28.179C117.443 28.0658 117.403 27.9796 117.382 27.9204C117.242 27.535 117.156 27.1132 117.124 26.6548C117.107 26.191 117.125 25.7312 117.179 25.2753C117.227 24.8046 117.303 24.3406 117.407 23.8833C117.511 23.426 117.62 23.0084 117.736 22.6306C118.33 20.7362 119.282 19.0136 120.591 17.4627C120.781 17.2425 120.977 17.0371 121.177 16.8466C121.388 16.6358 121.595 16.4175 121.8 16.1919C121.889 16.1095 121.908 16.0015 121.86 15.8682C121.827 15.7792 121.768 15.7086 121.681 15.6562C121.61 15.5984 121.522 15.5885 121.417 15.6264C121.372 15.6427 121.345 15.661 121.336 15.6812C120.275 16.5708 119.358 17.5761 118.584 18.6969C117.804 19.803 117.193 20.999 116.749 22.285C116.571 22.7694 116.416 23.2707 116.283 23.7887C116.151 24.3068 116.057 24.8362 116 25.3771C115.953 25.8976 115.952 26.4269 115.996 26.9648C116.049 27.4824 116.165 27.9858 116.343 28.4748C116.472 28.8305 116.684 29.1563 116.977 29.4523C117.285 29.7429 117.641 29.9073 118.043 29.9455C118.093 29.944 118.161 29.9445 118.246 29.947C118.346 29.9441 118.419 29.9345 118.464 29.9182C119.313 29.6089 120.008 29.1044 120.547 28.4048C121.106 27.7145 121.533 26.9632 121.829 26.1508C121.861 26.2398 121.897 26.361 121.936 26.5147L122.089 26.937C122.158 27.0798 122.217 27.2179 122.266 27.3513C122.329 27.4792 122.389 27.5748 122.446 27.6381C122.601 27.8332 122.798 27.9548 123.035 28.0028C123.292 28.0602 123.532 28.0482 123.756 27.9668C124.173 27.8149 124.492 27.531 124.712 27.1152C125.173 26.2931 125.501 25.5022 125.698 24.7426Z" fill="#EDEFF2"/>
<path fill-rule="evenodd" clip-rule="evenodd" d="M140.842 1.35658C140.846 1.32152 140.84 1.28175 140.823 1.23729C140.786 1.13355 140.711 1.06833 140.6 1.04161C140.499 0.994641 140.403 0.987435 140.314 1.02C140.209 1.05798 140.148 1.12217 140.131 1.21255C139.935 1.78738 139.778 2.42349 139.66 3.12085C139.557 3.81279 139.485 4.51882 139.443 5.23894C139.401 5.95906 139.382 6.67103 139.385 7.37487C139.403 8.07328 139.429 8.7265 139.465 9.33453C139.355 9.3577 139.248 9.38828 139.144 9.42627L138.853 9.53209C138.093 9.80885 137.416 10.223 136.823 10.7744C136.225 11.311 135.759 11.9337 135.426 12.6423C135.141 13.2497 134.917 13.9102 134.754 14.6239C134.587 15.3227 134.477 16.0423 134.426 16.7827C134.384 17.5028 134.402 18.2261 134.481 18.9527C134.569 19.6591 134.729 20.3309 134.961 20.9681C135.069 21.2645 135.205 21.5676 135.368 21.8774C135.547 22.1817 135.751 22.4428 135.983 22.6607C136.219 22.8935 136.489 23.0553 136.793 23.1464C137.111 23.2319 137.464 23.2042 137.851 23.0631C138.224 22.9274 138.556 22.6806 138.848 22.3227C139.16 21.9741 139.431 21.5818 139.661 21.1457C139.905 20.7043 140.115 20.2589 140.289 19.8095C140.458 19.3453 140.588 18.9371 140.679 18.585C140.713 18.7238 140.749 18.87 140.788 19.0236L140.942 19.446C141.023 19.6683 141.119 19.9101 141.231 20.1714C141.358 20.4273 141.499 20.6529 141.655 20.848C141.83 21.0526 142.03 21.2065 142.253 21.3099C142.477 21.4132 142.737 21.4106 143.036 21.302C143.379 21.1772 143.651 20.9272 143.852 20.5519C144.125 20.0497 144.367 19.5334 144.58 19.003C144.792 18.4726 144.963 17.9235 145.094 17.3555C145.113 17.315 145.109 17.2577 145.082 17.1836C145.05 17.0947 144.983 17.0268 144.882 16.9798C144.78 16.9328 144.685 16.9256 144.595 16.9582C144.506 16.9907 144.452 17.0522 144.434 17.1426C144.368 17.2843 144.264 17.532 144.122 17.8856C143.99 18.2189 143.849 18.5725 143.698 18.9463C143.541 19.3053 143.374 19.6347 143.196 19.9344C143.033 20.2288 142.885 20.4003 142.751 20.4492C142.661 20.4817 142.58 20.4691 142.509 20.4113C142.457 20.3629 142.408 20.2969 142.361 20.2134C142.314 20.1299 142.274 20.0437 142.241 19.9548L142.152 19.7102C141.893 18.9989 141.683 18.2362 141.522 17.4221C141.356 16.5933 141.219 15.7535 141.112 14.903C141.02 14.047 140.945 13.1929 140.888 12.3409C140.832 11.4889 140.791 10.6813 140.766 9.91817C140.837 9.9261 140.915 9.93132 141 9.93383C141.1 9.93091 141.18 9.9186 141.24 9.89689C141.344 9.8589 141.413 9.79201 141.445 9.6962C141.478 9.60039 141.476 9.50062 141.438 9.39688C141.395 9.27832 141.295 9.21382 141.139 9.20338C140.984 9.19294 140.848 9.19189 140.733 9.20024C140.689 7.87355 140.679 6.56836 140.701 5.28467C140.733 3.98074 140.78 2.67137 140.842 1.35658ZM139.337 10.2369L139.516 10.1718C139.595 11.2678 139.681 12.3861 139.775 13.5266C139.879 14.6468 140.082 15.7392 140.385 16.8038C140.355 16.8146 140.331 16.8403 140.312 16.8808C140.198 17.1237 140.024 17.5057 139.792 18.0267C139.559 18.5477 139.307 19.0842 139.035 19.6363C138.773 20.1681 138.495 20.6555 138.2 21.0984C137.915 21.5211 137.653 21.7759 137.414 21.8627C137.235 21.9278 137.07 21.9127 136.917 21.8173C136.779 21.7165 136.645 21.5806 136.515 21.4096C136.4 21.2332 136.3 21.0514 136.215 20.8642L136.037 20.3751C135.897 19.9898 135.801 19.5882 135.751 19.1703C135.63 18.3751 135.581 17.5203 135.602 16.6061C135.639 15.6864 135.785 14.811 136.04 13.9799C136.304 13.1285 136.696 12.3732 137.216 11.714C137.745 11.0346 138.452 10.5422 139.337 10.2369ZM133.153 13.4948C133.196 13.6134 133.229 13.7272 133.252 13.8364C133.275 13.9456 133.293 14.0649 133.306 14.1943C133.32 14.3237 133.259 14.4128 133.125 14.4617C133.065 14.4834 132.968 14.4937 132.832 14.4926C132.706 14.4714 132.633 14.4311 132.611 14.3718L132.561 14.1636C132.523 14.0598 132.462 13.9393 132.378 13.8019C132.31 13.6592 132.221 13.532 132.113 13.4203C132.014 13.2884 131.904 13.1942 131.782 13.1379C131.655 13.0667 131.517 13.0582 131.368 13.1125C131.01 13.2427 130.67 13.4923 130.348 13.8611C130.021 14.2151 129.754 14.5474 129.546 14.858C129.459 14.9903 129.344 15.1834 129.2 15.4372C129.056 15.691 128.91 15.9623 128.762 16.2512C128.613 16.5401 128.478 16.8161 128.354 17.0793C128.245 17.3371 128.175 17.5389 128.144 17.6846C128.12 17.7601 128.101 17.893 128.086 18.0831C128.08 18.253 128.073 18.4405 128.063 18.6454C128.068 18.845 128.063 19.0398 128.048 19.23C128.047 19.4147 128.041 19.5597 128.029 19.6649C127.989 20.4848 127.957 21.302 127.933 22.1164C127.924 22.9255 127.932 23.7365 127.957 24.5495C127.962 24.9338 127.977 25.3227 128.002 25.7164C128.048 26.1194 128.073 26.5131 128.078 26.8974C128.061 27.0376 128.008 27.1241 127.919 27.1566C127.859 27.1783 127.756 27.1738 127.61 27.1432C127.484 27.1219 127.41 27.0816 127.389 27.0223C127.329 26.8593 127.284 26.6659 127.253 26.4421C127.237 26.2129 127.215 26.0114 127.185 25.8375C127.028 24.8037 126.922 23.7684 126.865 22.7316C126.809 21.6949 126.802 20.6566 126.846 19.617C126.851 19.2124 126.854 18.7331 126.854 18.1789C126.87 17.6193 126.891 17.0496 126.916 16.4697C126.936 15.8751 126.977 15.3147 127.039 14.7887C127.11 14.2425 127.217 13.7926 127.358 13.439C127.396 13.358 127.452 13.3039 127.527 13.2768C127.587 13.2551 127.682 13.2623 127.813 13.2984C127.954 13.3143 128.038 13.3592 128.065 13.4333C128.081 13.4778 128.096 13.5647 128.109 13.6942C128.117 13.8088 128.131 13.9382 128.149 14.0824C128.163 14.2118 128.169 14.3439 128.167 14.4788C128.175 14.5934 128.18 14.6756 128.181 14.7255C128.529 14.1962 128.912 13.6957 129.331 13.2242C129.751 12.7527 130.274 12.403 130.9 12.1751C131.168 12.0774 131.421 12.0526 131.658 12.1006C131.889 12.1338 132.105 12.2149 132.304 12.3439C132.502 12.4729 132.672 12.6377 132.813 12.8382C132.953 13.0388 133.067 13.2577 133.153 13.4948ZM104.652 26.4864C104.61 25.9984 104.507 25.5321 104.346 25.0875C104.157 24.5688 103.885 24.1225 103.529 23.7484C103.168 23.3595 102.71 23.0983 102.155 22.9647C102.064 22.9474 101.931 22.9288 101.755 22.909C101.593 22.8837 101.473 22.8772 101.393 22.8895C101.328 22.8964 101.236 22.9216 101.116 22.965C100.401 23.2255 99.8216 23.6293 99.3791 24.1763C98.9312 24.7086 98.5374 25.2967 98.1977 25.9406C98.171 24.893 98.199 23.9261 98.2817 23.0401C98.3591 22.1392 98.4723 21.2672 98.6213 20.4242C98.765 19.5663 98.9411 18.705 99.1498 17.8402C99.3734 16.97 99.6079 16.0371 99.8534 15.0415C99.8724 15.001 99.8685 14.9437 99.8415 14.8696C99.8091 14.7807 99.7422 14.7127 99.6407 14.6658C99.5392 14.6188 99.4362 14.6143 99.3319 14.6523C99.2722 14.674 99.2281 14.7152 99.1996 14.776C98.7622 15.5226 98.3937 16.3196 98.0943 17.167C97.8044 17.9942 97.5754 18.8496 97.4074 19.7332C97.2488 20.5965 97.1356 21.4684 97.0678 22.3491C97.0149 23.2243 96.9918 24.0886 96.9985 24.9421C97.0122 26.4644 97.0937 27.9872 97.2429 29.5105C97.3867 31.019 97.7203 32.492 98.2435 33.9295C98.5455 34.7594 98.935 35.5743 99.4119 36.3742C99.3941 36.4646 99.396 36.5394 99.4176 36.5987C99.4715 36.7469 99.5791 36.8336 99.7402 36.8589C99.805 37.0367 99.9342 37.0904 100.128 37.0198C100.203 36.9927 100.261 36.9211 100.303 36.805C100.366 36.6984 100.383 36.608 100.356 36.5339L100.324 36.445C101.387 35.2358 102.271 33.9071 102.976 32.4587C103.691 30.9901 104.217 29.4646 104.552 27.8822C104.656 27.4249 104.689 26.9596 104.652 26.4864ZM102.987 24.9025C103.127 25.1031 103.233 25.2997 103.303 25.4923C103.464 25.9369 103.52 26.4371 103.469 26.9927C103.418 27.5483 103.295 28.1385 103.1 28.7632C102.92 29.3825 102.686 30.0134 102.396 30.6559C102.121 31.2929 101.831 31.9104 101.525 32.5085C101.22 33.1065 100.921 33.6768 100.628 34.2195C100.331 34.7474 100.074 35.2017 99.8582 35.5824C99.6678 35.1985 99.5025 34.8139 99.3622 34.4286C98.9577 33.3171 98.6778 32.177 98.5226 31.0084C98.3823 29.8342 98.2894 28.6513 98.244 27.4594C98.4219 27.1597 98.6168 26.837 98.8287 26.4913C99.0352 26.1309 99.2647 25.7872 99.5172 25.4603C99.7697 25.1335 100.043 24.8409 100.338 24.5827C100.641 24.3043 100.965 24.1027 101.308 23.9779C101.531 23.8965 101.749 23.8926 101.962 23.9663C102.175 24.04 102.363 24.1643 102.528 24.3392C102.703 24.4939 102.856 24.6816 102.987 24.9025ZM95.305 25.5082C95.3265 25.5674 95.3353 25.6146 95.3312 25.6497C95.3148 27.3675 95.2503 29.0693 95.1378 30.755C95.0199 32.4259 94.9528 34.1202 94.9364 35.8381C94.9174 36.6674 94.9283 37.4858 94.9689 38.2934C95.0245 39.0955 95.0855 39.9125 95.1518 40.7443C95.1664 40.9236 95.1682 41.0908 95.1571 41.2459C95.1663 41.4104 95.1708 41.585 95.1705 41.7697C95.1911 42.3831 95.1989 42.9845 95.1939 43.5737C95.1943 44.1778 95.1594 44.7779 95.0893 45.374C95.0193 45.9702 94.9011 46.5502 94.735 47.1142C94.5742 47.693 94.3444 48.2214 94.0455 48.6994C93.7521 49.1922 93.3945 49.6245 92.9726 49.9962C92.5561 50.3828 92.0571 50.6819 91.4756 50.8935C91.0387 51.0526 90.6525 51.0008 90.2476 50.9465C90.0861 50.9248 89.9216 50.9027 89.7496 50.8935C89.55 50.8896 89.3418 50.9055 89.1318 50.9217C88.6976 50.955 88.2552 50.9889 87.8629 50.849C87.2862 50.6561 86.7347 50.3701 86.2083 49.9911C85.6725 49.6323 85.1652 49.2127 84.6865 48.7324C84.6351 48.684 84.6013 48.6375 84.5851 48.5931C84.527 48.4799 84.532 48.3774 84.5998 48.2856C84.6582 48.214 84.7321 48.1619 84.8216 48.1294C84.8812 48.1077 84.9415 48.1109 85.0024 48.1391C85.0633 48.1673 85.1168 48.1982 85.1628 48.2318C85.3265 48.3568 85.4854 48.492 85.6396 48.6372C85.7843 48.8028 85.9459 48.9453 86.1245 49.0649C86.4614 49.2947 86.8302 49.4962 87.2309 49.6692C87.6221 49.8625 88.0343 49.9978 88.4677 50.075C88.8915 50.1725 89.3188 50.21 89.7496 50.1874C90.1858 50.1797 90.6052 50.1026 91.0078 49.9561C91.6191 49.7336 92.1317 49.3792 92.5457 48.8929C93.1293 48.1769 93.5242 47.3367 93.7304 46.3722C93.9365 45.4076 94.0459 44.386 94.0585 43.3073C94.067 42.2636 94.0152 41.2167 93.9032 40.1666C93.8114 39.1259 93.7412 38.1444 93.6926 37.2223C93.5731 37.4504 93.4216 37.7069 93.2382 37.9918C93.0549 38.2767 92.8587 38.5496 92.6497 38.8103C92.446 39.0858 92.2241 39.3344 91.984 39.556C91.7588 39.7723 91.5344 39.9211 91.3107 40.0025C90.8783 40.1599 90.432 40.1629 89.9717 40.0116C89.5262 39.8548 89.1725 39.5556 88.9104 39.1139C88.728 38.8446 88.5835 38.5867 88.4769 38.3402C88.2798 37.8917 88.1195 37.4046 87.9957 36.879C87.8815 36.3332 87.7923 35.7866 87.7282 35.2393C87.6736 34.6718 87.642 34.121 87.6333 33.5871C87.6193 33.0384 87.629 32.5313 87.6623 32.0661C87.7222 31.0709 87.8173 30.0796 87.9476 29.0923C87.9777 28.8967 87.9977 28.6965 88.0075 28.4915C88.0173 28.2865 88.0447 28.0835 88.0898 27.8825C88.117 27.7719 88.1903 27.6949 88.3096 27.6515C88.3842 27.6243 88.4823 27.6389 88.6042 27.6953C88.7206 27.7368 88.8024 27.7994 88.8497 27.8828L88.904 28.2407C88.9963 28.912 89.0386 29.5847 89.0307 30.2589C89.0377 30.9277 89.0244 31.5871 88.9909 32.2371C88.9725 32.6969 88.9548 33.1817 88.9377 33.6914C88.9301 34.1809 88.9401 34.6723 88.9677 35.1658C89.0103 35.6538 89.0779 36.141 89.1706 36.6276C89.2578 37.0993 89.3973 37.5521 89.5889 37.9858C89.6524 38.1138 89.7185 38.2491 89.7874 38.3919C89.8711 38.5293 89.9671 38.6538 90.0753 38.7654C90.1781 38.8623 90.2904 38.9389 90.4122 38.9953C90.5287 39.0368 90.6614 39.0304 90.8105 38.9762C91.064 38.8839 91.3325 38.6939 91.6161 38.406C91.8943 38.1034 92.1644 37.7785 92.4264 37.4314C92.683 37.0694 92.9146 36.7082 93.1211 36.3478C93.3425 35.9819 93.5177 35.6747 93.6468 35.4263C93.6461 34.2182 93.686 33.0289 93.7665 31.8583C93.8416 30.6729 93.9621 29.4962 94.1279 28.3282C94.1964 27.8669 94.2622 27.3982 94.3253 26.9221C94.383 26.4311 94.4637 25.957 94.5674 25.4997C94.5893 25.3742 94.6599 25.2898 94.7791 25.2464C94.8835 25.2084 94.9817 25.223 95.0737 25.2902C95.1752 25.3372 95.2523 25.4098 95.305 25.5082ZM85.9747 29.03C86.1428 28.9352 86.1918 28.7915 86.1217 28.5988C86.0947 28.5247 86.0481 28.4662 85.9818 28.4232C85.9101 28.3654 85.8295 28.3527 85.74 28.3853C84.5324 28.8249 83.4246 29.4462 82.4168 30.2494C81.4185 31.0323 80.6333 32.0063 80.0611 33.1712C79.8993 33.5154 79.7957 33.8803 79.7504 34.266C79.72 34.6464 79.7695 35.0143 79.8989 35.37C80.023 35.7109 80.2048 35.9552 80.4443 36.103C80.6988 36.2454 80.9797 36.3445 81.2871 36.4005C81.5891 36.4416 81.9081 36.4597 82.244 36.4549C82.58 36.4502 82.8963 36.4609 83.1929 36.4872C83.4841 36.4987 83.7414 36.5561 83.9647 36.6594C84.203 36.7573 84.3679 36.9323 84.4597 37.1842L84.5406 37.4065C84.6808 37.7918 84.7364 38.1996 84.7072 38.6298C84.6876 39.0397 84.5873 39.437 84.4065 39.8217C84.2406 40.201 84.0112 40.5446 83.7181 40.8527C83.4196 41.146 83.0765 41.3631 82.6888 41.5042C82.2564 41.6616 81.848 41.676 81.4635 41.5474C81.0736 41.404 80.7245 41.187 80.4161 40.8965C80.1077 40.6059 79.8333 40.2694 79.5928 39.887C79.3672 39.4992 79.1924 39.1349 79.0683 38.794C79.036 38.7051 78.9643 38.6473 78.8533 38.6206C78.7571 38.5884 78.6718 38.5859 78.5972 38.613C78.478 38.6565 78.4074 38.7409 78.3855 38.8663C78.3636 38.9918 78.362 39.1266 78.3808 39.2708C78.4144 39.4097 78.4507 39.5559 78.4898 39.7095L78.6111 40.0429C78.707 40.3063 78.8227 40.5598 78.9582 40.8035L78.9471 40.8269C78.7854 41.1711 78.5924 41.5687 78.3681 42.0195C78.1534 42.4501 77.9034 42.8768 77.6183 43.2994C77.348 43.7167 77.0522 44.0173 76.7308 44.2014C76.6604 44.1935 76.607 44.1626 76.5705 44.1088L76.5057 43.9309C76.1983 43.0862 76.0014 42.1509 75.915 41.1249C75.8287 40.099 75.7945 39.0541 75.8125 37.9902C75.8251 36.9115 75.8607 35.8496 75.9194 34.8045C75.9875 33.7391 76.0202 32.7622 76.0177 31.8736C76.0123 31.8588 76.0143 31.8413 76.0238 31.821C75.9861 31.7173 75.909 31.6446 75.7926 31.6031C75.6761 31.5616 75.5732 31.5571 75.4837 31.5896C75.4092 31.6168 75.3481 31.6809 75.3005 31.7822C75.0462 32.4286 74.8647 33.1827 74.7563 34.0446C74.6425 34.8916 74.5747 35.7722 74.5528 36.6865C74.531 37.6007 74.5465 38.5014 74.5992 39.3885C74.6614 40.2554 74.7414 41.0318 74.8392 41.7179C74.7005 41.9866 74.5137 42.3315 74.2787 42.7527C74.0436 43.1739 73.7835 43.5959 73.4984 44.0185C73.2227 44.421 72.9288 44.7965 72.6167 45.145C72.3141 45.4734 72.0137 45.6918 71.7155 45.8003C71.4918 45.8817 71.2886 45.8801 71.1059 45.7956C70.9327 45.6908 70.7812 45.553 70.6514 45.382C70.5163 45.1962 70.4035 45.0023 70.3131 44.8003C70.2172 44.5834 70.1397 44.3934 70.0803 44.2304C69.8754 43.6673 69.7327 43.0898 69.6524 42.4981C69.587 41.9009 69.5467 41.303 69.5314 40.7043C69.5257 40.0855 69.5328 39.4787 69.5527 38.884C69.5822 38.2691 69.5818 37.665 69.5516 37.0718C69.5586 36.9518 69.5521 36.7947 69.5321 36.6006C69.5216 36.3862 69.5037 36.1746 69.4783 35.9656C69.4624 35.7365 69.437 35.5275 69.4021 35.3388C69.3767 35.1299 69.3451 34.9735 69.3074 34.8698C69.2804 34.7957 69.2087 34.7379 69.0923 34.6963C68.9758 34.6548 68.8804 34.6476 68.8058 34.6747C68.7014 34.7127 68.6309 34.7972 68.5941 34.928C68.5478 35.0791 68.5224 35.2646 68.518 35.4844C68.5082 35.6894 68.4929 35.8795 68.4723 36.0549C68.4254 36.5754 68.3812 37.1034 68.3397 37.6388C68.2928 38.1594 68.256 38.6846 68.2294 39.2146C68.2133 39.9589 68.2371 40.6971 68.3009 41.4291C68.3593 42.1463 68.4807 42.8742 68.6651 43.6127C68.7444 43.9698 68.8488 44.3262 68.9783 44.6819C69.1023 45.0227 69.2589 45.3602 69.448 45.6941C69.6317 46.0133 69.8494 46.2865 70.1009 46.5138C70.362 46.7209 70.6564 46.8571 70.9842 46.9224C71.3173 47.0026 71.6925 46.9667 72.11 46.8148C72.4231 46.7008 72.7262 46.4898 73.0193 46.1817C73.3178 45.8884 73.5927 45.5534 73.8439 45.1767C74.1101 44.7945 74.3437 44.4158 74.5448 44.0405C74.7554 43.6449 74.9246 43.298 75.0524 42.9997C75.1321 43.1722 75.1893 43.3527 75.2243 43.5414C75.2538 43.7153 75.2982 43.8837 75.3575 44.0467C75.6272 44.7877 76.1616 45.189 76.9608 45.2506C77.3852 44.9787 77.7386 44.6738 78.0209 44.3361C78.3181 43.9929 78.5646 43.6263 78.7603 43.2362C78.9709 42.8407 79.1511 42.431 79.3008 42.0073C79.354 41.8568 79.4087 41.7047 79.4649 41.551C79.728 41.8666 80.0274 42.1332 80.3629 42.3508C80.7607 42.6088 81.1939 42.7784 81.6625 42.8596C82.146 42.9354 82.6486 42.8783 83.1705 42.6884C83.7221 42.4876 84.2008 42.1791 84.6065 41.7629C85.0176 41.3615 85.3394 40.9003 85.5719 40.3793C85.799 39.8435 85.9253 39.2857 85.9506 38.7059C85.9759 38.126 85.8888 37.5619 85.6892 37.0136C85.5166 36.5393 85.2869 36.1866 85.0001 35.9553C84.7079 35.7092 84.3926 35.5387 84.0541 35.4437C83.7305 35.3433 83.3933 35.2982 83.0424 35.3084C82.7065 35.3132 82.3881 35.32 82.0874 35.3287C81.8016 35.3321 81.553 35.3218 81.3417 35.298C81.1305 35.2742 80.9951 35.1808 80.9358 35.0178C80.8441 34.7659 80.8079 34.5273 80.8273 34.3021C80.8561 34.0566 80.9202 33.8151 81.0195 33.5776C81.3703 32.7786 81.8611 32.0628 82.4921 31.4304C83.1325 30.7777 83.8257 30.2233 84.5714 29.7673C84.7396 29.6725 84.9002 29.5805 85.0535 29.4911C85.2216 29.3964 85.3924 29.309 85.5659 29.2291C85.6351 29.1871 85.7022 29.1627 85.7672 29.1558C85.8418 29.1287 85.9109 29.0867 85.9747 29.03ZM66.3483 38.9174C66.5101 39.362 66.6123 39.8283 66.6549 40.3164C66.692 40.7895 66.6587 41.2548 66.555 41.7121C66.2192 43.2945 65.6938 44.82 64.9788 46.2886C64.2734 47.737 63.3894 49.0657 62.3267 50.2749L62.3591 50.3638C62.386 50.4379 62.3683 50.5283 62.3058 50.6349C62.2636 50.751 62.2052 50.8226 62.1307 50.8497C61.9369 50.9203 61.8076 50.8666 61.7429 50.6888C61.5817 50.6635 61.4742 50.5768 61.4202 50.4286C61.3986 50.3693 61.3967 50.2945 61.4145 50.2041C60.9376 49.4042 60.5482 48.5894 60.2461 47.7594C59.7229 46.3219 59.3894 44.8489 59.2456 43.3404C59.0964 41.8171 59.0149 40.2943 59.0011 38.772C58.9944 37.9185 59.0175 37.0542 59.0704 36.179C59.1383 35.2983 59.2515 34.4264 59.41 33.5631C59.5781 32.6795 59.8071 31.8241 60.097 30.9969C60.3964 30.1495 60.7648 29.3525 61.2022 28.6059C61.2308 28.5451 61.2749 28.5039 61.3345 28.4822C61.4389 28.4442 61.5418 28.4487 61.6433 28.4957C61.7448 28.5426 61.8118 28.6106 61.8441 28.6995C61.8711 28.7736 61.8751 28.8309 61.8561 28.8714C61.6106 29.867 61.3761 30.7999 61.1525 31.6701C60.9438 32.5349 60.7676 33.3962 60.624 34.2541C60.4749 35.0971 60.3617 35.9691 60.2844 36.87C60.2016 37.756 60.1736 38.7229 60.2004 39.7705C60.5401 39.1266 60.9339 38.5385 61.3818 38.0062C61.8243 37.4592 62.4034 37.0554 63.119 36.7949C63.2383 36.7515 63.3305 36.7263 63.3955 36.7194C63.4754 36.7071 63.596 36.7136 63.7572 36.7389C63.9332 36.7587 64.0666 36.7773 64.1573 36.7946C64.7125 36.9282 65.1706 37.1894 65.5317 37.5783C65.8873 37.9524 66.1595 38.3987 66.3483 38.9174ZM65.3053 39.3222C65.2352 39.1296 65.1298 38.933 64.9893 38.7324C64.8582 38.5115 64.7055 38.3238 64.531 38.1691C64.366 37.9942 64.1773 37.8699 63.9647 37.7962C63.7521 37.7225 63.534 37.7264 63.3104 37.8078C62.9675 37.9326 62.6441 38.1342 62.3402 38.4126C62.0458 38.6708 61.7724 38.9634 61.5199 39.2902C61.2674 39.6171 61.0379 39.9608 60.8314 40.3212C60.6195 40.6669 60.4246 40.9896 60.2466 41.2893C60.2921 42.4812 60.3849 43.6642 60.5252 44.8383C60.6804 46.0069 60.9603 47.147 61.3649 48.2585C61.5051 48.6439 61.6704 49.0284 61.8608 49.4123C62.0768 49.0316 62.3336 48.5773 62.6311 48.0494C62.9232 47.5067 63.2222 46.9364 63.528 46.3384C63.8337 45.7404 64.124 45.1228 64.3987 44.4858C64.6882 43.8433 64.923 43.2124 65.1028 42.5931C65.2975 41.9684 65.4204 41.3782 65.4715 40.8226C65.5225 40.267 65.4671 39.7668 65.3053 39.3222ZM113.818 21.5391C114.023 22.1023 114.18 22.7417 114.289 23.4574C114.412 24.1678 114.468 24.9025 114.458 25.6616C114.447 26.4208 114.371 27.1868 114.23 27.9597C114.099 28.7124 113.884 29.4201 113.585 30.0828C113.301 30.7401 112.919 31.3154 112.44 31.8086C111.981 32.3112 111.424 32.6819 110.768 32.9207C110.276 33.0998 109.802 33.121 109.347 32.9845C108.898 32.8628 108.474 32.648 108.074 32.3401C107.69 32.0268 107.355 31.6622 107.068 31.2462C106.777 30.8153 106.555 30.3924 106.404 29.9775C106.226 29.4884 106.118 28.9824 106.079 28.4593C106.001 26.9439 106.229 25.4845 106.765 24.081C107.301 22.6775 108.136 21.4675 109.269 20.451C109.293 20.4253 109.328 20.4044 109.372 20.3881C109.477 20.3501 109.565 20.36 109.636 20.4178C109.723 20.4702 109.782 20.5409 109.815 20.6298C109.853 20.7335 109.825 20.8442 109.733 20.9617L109.236 21.5453C109.065 21.725 108.905 21.9343 108.756 22.1733C108.151 23.0646 107.718 24.0532 107.454 25.1393C107.191 26.2253 107.086 27.3042 107.138 28.376C107.147 28.7252 107.222 29.0925 107.362 29.4778C107.475 29.789 107.641 30.1062 107.86 30.4293C108.079 30.7524 108.335 31.037 108.627 31.2831C108.914 31.5144 109.229 31.685 109.573 31.7948C109.926 31.8843 110.289 31.8613 110.662 31.7256C110.901 31.6388 111.108 31.5129 111.285 31.348C111.476 31.1777 111.644 30.9906 111.789 30.7866C112.21 30.1803 112.528 29.4771 112.744 28.677C112.959 27.877 113.091 27.0569 113.14 26.2167C113.183 25.3618 113.15 24.5265 113.038 23.711C112.922 22.8807 112.74 22.1247 112.492 21.443L112.394 21.1762C112.224 20.8017 111.972 20.5245 111.636 20.3446C111.315 20.1592 110.954 20.0475 110.551 20.0092C110.431 20.0028 110.313 20.0037 110.198 20.0121C110.098 20.015 109.995 20.0105 109.889 19.9986C109.718 19.9936 109.606 19.917 109.552 19.7688C109.514 19.665 109.512 19.5653 109.544 19.4695C109.577 19.3736 109.648 19.3142 109.758 19.291L109.78 19.2829C110.119 19.1931 110.467 19.1505 110.823 19.1551C111.194 19.1543 111.544 19.2115 111.873 19.3267C112.202 19.442 112.5 19.6105 112.767 19.8324C113.048 20.0489 113.276 20.3268 113.45 20.6662C113.534 20.8035 113.602 20.9463 113.656 21.0945L113.818 21.5391ZM125.698 24.7426C125.889 23.9682 126.035 23.1178 126.137 22.1912C126.099 22.0875 126.029 22.0121 125.928 21.9651C125.826 21.9182 125.723 21.9137 125.619 21.9517C125.53 21.9842 125.476 22.0457 125.458 22.1361C125.397 22.2926 125.349 22.4613 125.313 22.642C125.287 22.8026 125.243 22.9611 125.182 23.1176C124.99 23.8421 124.757 24.5229 124.482 25.1599L124.282 25.5851C124.211 25.7619 124.126 25.9441 124.025 26.1318C123.919 26.3046 123.808 26.4626 123.691 26.6058C123.589 26.7436 123.486 26.8314 123.382 26.8694C123.345 26.8156 123.316 26.759 123.295 26.6997L123.222 26.4997C123.109 26.1884 123.02 25.8765 122.957 25.5638C122.904 25.2309 122.86 24.9027 122.827 24.5791C122.8 24.3203 122.769 24.0716 122.733 23.833C122.706 23.5742 122.672 23.3181 122.63 23.0647C122.607 22.9555 122.577 22.8491 122.539 22.7453C122.516 22.6361 122.501 22.5243 122.493 22.4097C122.488 22.2101 122.492 21.9654 122.504 21.6755C122.517 21.3855 122.523 21.1233 122.522 20.8887C122.512 20.3048 122.485 19.719 122.44 19.1313C122.389 18.5287 122.326 17.9389 122.252 17.362L122.258 17.3094C122.22 17.2056 122.153 17.1377 122.057 17.1055C121.961 17.0734 121.86 17.0763 121.756 17.1143C121.622 17.1631 121.544 17.2503 121.522 17.3757C121.48 17.6765 121.448 18.0319 121.429 18.4418C121.424 18.8463 121.418 19.201 121.411 19.5057L121.302 21.7105C121.26 22.4306 121.181 23.1643 121.064 23.9116C121.009 24.3175 120.91 24.7647 120.767 25.2532C120.624 25.7416 120.436 26.2214 120.202 26.6925C119.968 27.1636 119.683 27.5862 119.347 27.9605C119.025 28.3293 118.648 28.5924 118.216 28.7498C118.126 28.7823 118.031 28.7751 117.929 28.7282C117.837 28.6609 117.757 28.5809 117.69 28.488C117.617 28.3803 117.554 28.2773 117.501 28.179C117.443 28.0658 117.403 27.9796 117.382 27.9204C117.242 27.535 117.156 27.1132 117.124 26.6548C117.107 26.191 117.125 25.7312 117.179 25.2753C117.227 24.8046 117.303 24.3406 117.407 23.8833C117.511 23.426 117.62 23.0084 117.736 22.6306C118.33 20.7362 119.282 19.0136 120.591 17.4627C120.781 17.2425 120.977 17.0371 121.177 16.8466C121.388 16.6358 121.595 16.4175 121.8 16.1919C121.889 16.1095 121.908 16.0015 121.86 15.8682C121.827 15.7792 121.768 15.7086 121.681 15.6562C121.61 15.5984 121.522 15.5885 121.417 15.6264C121.372 15.6427 121.345 15.661 121.336 15.6812C120.275 16.5708 119.358 17.5761 118.584 18.6969C117.804 19.803 117.193 20.999 116.749 22.285C116.571 22.7694 116.416 23.2707 116.283 23.7887C116.151 24.3068 116.057 24.8362 116 25.3771C115.953 25.8976 115.952 26.4269 115.996 26.9648C116.049 27.4824 116.165 27.9858 116.343 28.4748C116.472 28.8305 116.684 29.1563 116.977 29.4523C117.285 29.7429 117.641 29.9073 118.043 29.9455C118.093 29.944 118.161 29.9445 118.246 29.947C118.346 29.9441 118.419 29.9345 118.464 29.9182C119.313 29.6089 120.008 29.1044 120.547 28.4048C121.106 27.7145 121.533 26.9632 121.829 26.1508C121.861 26.2398 121.897 26.361 121.936 26.5147L122.089 26.937C122.158 27.0798 122.217 27.2179 122.266 27.3513C122.329 27.4792 122.389 27.5748 122.446 27.6381C122.601 27.8332 122.798 27.9548 123.035 28.0028C123.292 28.0602 123.532 28.0482 123.756 27.9668C124.173 27.8149 124.492 27.531 124.712 27.1152C125.173 26.2931 125.501 25.5022 125.698 24.7426Z" stroke="#EDEFF2" mask="url(#path-2-outside-1_204_34)"/>
</svg>
