<svg width="200" height="200" viewBox="0 0 200 200" fill="none" xmlns="http://www.w3.org/2000/svg">
<path fill-rule="evenodd" clip-rule="evenodd" d="M1,0.5 C1,0.776,0.776,1,0.5,1 C0.224,1,0,0.776,0,0.5 C0,0.224,0.224,0,0.5,0 C0.776,0,1,0.224,1,0.5 M0.9,0.315 c0,-0.041,-0.034,-0.075,-0.075,-0.075 c-0.041,0,-0.075,0.034,-0.075,0.075 c0,0.041,0.034,0.075,0.075,0.075 c0.041,0,0.075,-0.034,0.075,-0.075 M0.765,0.175 c0,-0.041,-0.034,-0.075,-0.075,-0.075 c-0.041,0,-0.075,0.034,-0.075,0.075 c0,0.041,0.034,0.075,0.075,0.075 c0.041,0,0.075,-0.034,0.075,-0.075 M0.575,0.125 c0,-0.041,-0.034,-0.075,-0.075,-0.075 c-0.041,0,-0.075,0.034,-0.075,0.075 c0,0.041,0.034,0.075,0.075,0.075 c0.041,0,0.075,-0.034,0.075,-0.075 M0.39,0.175 c0,-0.041,-0.034,-0.075,-0.075,-0.075 c-0.041,0,-0.075,0.034,-0.075,0.075 c0,0.041,0.034,0.075,0.075,0.075 c0.041,0,0.075,-0.034,0.075,-0.075 M0.25,0.31 c0,-0.041,-0.034,-0.075,-0.075,-0.075 c-0.041,0,-0.075,0.034,-0.075,0.075 c0,0.041,0.034,0.075,0.075,0.075 c0.041,0,0.075,-0.034,0.075,-0.075 M0.2,0.5 c0,-0.041,-0.034,-0.075,-0.075,-0.075 c-0.041,0,-0.075,0.034,-0.075,0.075 c0,0.041,0.034,0.075,0.075,0.075 c0.041,0,0.075,-0.034,0.075,-0.075 M0.25,0.685 c0,-0.041,-0.034,-0.075,-0.075,-0.075 c-0.041,0,-0.075,0.034,-0.075,0.075 c0,0.041,0.034,0.075,0.075,0.075 c0.041,0,0.075,-0.034,0.075,-0.075 M0.385,0.825 c0,-0.041,-0.034,-0.075,-0.075,-0.075 c-0.041,0,-0.075,0.034,-0.075,0.075 c0,0.041,0.034,0.075,0.075,0.075 c0.041,0,0.075,-0.034,0.075,-0.075 M0.575,0.875 c0,-0.041,-0.034,-0.075,-0.075,-0.075 c-0.041,0,-0.075,0.034,-0.075,0.075 c0,0.041,0.034,0.075,0.075,0.075 c0.041,0,0.075,-0.034,0.075,-0.075 M0.76,0.825 c0,-0.041,-0.034,-0.075,-0.075,-0.075 c-0.041,0,-0.075,0.034,-0.075,0.075 c0,0.041,0.034,0.075,0.075,0.075 c0.041,0,0.075,-0.034,0.075,-0.075" fill="#888888"/>
</svg>
