<svg width="5097" height="60" viewBox="0 0 5097 60" fill="none" xmlns="http://www.w3.org/2000/svg">
<rect width="420" height="60" rx="30" fill="#62708C"/>
<rect x="15" width="405" height="45" rx="22.5" fill="#99A6BF"/>
<rect x="4384" width="300" height="60" rx="30" fill="#62708C"/>
<rect x="4394.71" width="289.286" height="45" rx="22.5" fill="#99A6BF"/>
<rect x="2845" width="300" height="60" rx="30" fill="#62708C"/>
<rect x="2855.71" width="289.286" height="45" rx="22.5" fill="#99A6BF"/>
<rect x="2252" width="300" height="60" rx="30" fill="#62708C"/>
<rect x="2262.71" width="289.286" height="45" rx="22.5" fill="#99A6BF"/>
<rect x="713" width="300" height="60" rx="30" fill="#62708C"/>
<rect x="723.714" width="289.286" height="45" rx="22.5" fill="#99A6BF"/>
<rect x="3438" width="240" height="60" rx="30" fill="#62708C"/>
<rect x="3446.57" width="231.429" height="45" rx="22.5" fill="#99A6BF"/>
<rect x="1719" width="240" height="60" rx="30" fill="#62708C"/>
<rect x="1727.57" width="231.429" height="45" rx="22.5" fill="#99A6BF"/>
<rect x="3971" width="120" height="60" rx="30" fill="#62708C"/>
<rect x="3975.29" width="115.714" height="45" rx="22.5" fill="#99A6BF"/>
<rect x="1306" width="120" height="60" rx="30" fill="#62708C"/>
<rect x="1310.29" width="115.714" height="45" rx="22.5" fill="#99A6BF"/>
<rect x="4977" width="120" height="60" rx="30" fill="#62708C"/>
<rect x="4981.29" width="115.714" height="45" rx="22.5" fill="#99A6BF"/>
</svg>
