<svg width="5100" height="60" viewBox="0 0 5100 60" fill="none" xmlns="http://www.w3.org/2000/svg">
<rect x="3600" width="420" height="60" rx="30" fill="#62708C"/>
<rect x="3615" width="405" height="45" rx="22.5" fill="#99A6BF"/>
<rect x="1920" width="420" height="60" rx="30" fill="#62708C"/>
<rect x="1935" width="405" height="45" rx="22.5" fill="#99A6BF"/>
<rect x="4320" width="300" height="60" rx="30" fill="#62708C"/>
<rect x="4330.71" width="289.286" height="45" rx="22.5" fill="#99A6BF"/>
<rect x="420" width="300" height="60" rx="30" fill="#62708C"/>
<rect x="430.714" width="289.286" height="45" rx="22.5" fill="#99A6BF"/>
<rect x="3060" width="240" height="60" rx="30" fill="#62708C"/>
<rect x="3068.57" width="231.429" height="45" rx="22.5" fill="#99A6BF"/>
<rect x="4920" width="180" height="60" rx="30" fill="#62708C"/>
<rect x="4926.43" width="173.571" height="45" rx="22.5" fill="#99A6BF"/>
<rect x="1020" width="180" height="60" rx="30" fill="#62708C"/>
<rect x="1026.43" width="173.571" height="45" rx="22.5" fill="#99A6BF"/>
<rect x="2640" width="120" height="60" rx="30" fill="#62708C"/>
<rect x="2644.29" width="115.714" height="45" rx="22.5" fill="#99A6BF"/>
<rect x="1500" width="120" height="60" rx="30" fill="#62708C"/>
<rect x="1504.29" width="115.714" height="45" rx="22.5" fill="#99A6BF"/>
<rect width="120" height="60" rx="30" fill="#62708C"/>
<rect x="4.28577" width="115.714" height="45" rx="22.5" fill="#99A6BF"/>
</svg>
