<svg width="1423" height="252" fill="none" xmlns="http://www.w3.org/2000/svg">
<path d="M190 111V247H405L429.866 240.915V115.949L405 111L359.501 111V107.459L357 107H352V111L348.578 111V107.459L346 107L341 107V111L257.228 111V107.459L254 107H249V111L246.305 111V107.459L243 107L238 107V111H190Z" fill="#7C8AA6"/>
<path fill-rule="evenodd" clip-rule="evenodd" d="M254 120H249V127H254V120ZM257 127V120H267V127H257ZM273 127V120H283V127H273ZM286 127V120H296V127H286ZM254 134H249V141H254V134ZM257 141V134H267V141H257ZM273 141V134H283V141H273ZM286 141V134H296V141H286ZM254 148H249V155H254V148ZM257 155V148H267V155H257ZM273 155V148H283V155H273ZM286 155V148H296V155H286ZM254 162H249V169H254V162ZM257 169V162H267V169H257ZM273 169V162H283V169H273ZM286 169V162H296V169H286ZM254 176H249V183H254V176ZM257 183V176H267V183H257ZM273 183V176H283V183H273ZM286 183V176H296V183H286ZM254 190H249V197H254V190ZM257 197V190H267V197H257ZM273 197V190H283V197H273ZM286 197V190H296V197H286ZM254 204H249V211H254V204ZM257 211V204H267V211H257ZM273 211V204H283V211H273ZM286 211V204H296V211H286ZM254 218H249V225H254V218ZM257 225V218H267V225H257ZM273 225V218H283V225H273ZM286 225V218H296V225H286ZM254 232H249V239H254V232ZM257 239V232H267V239H257ZM273 239V232H283V239H273ZM286 239V232H296V239H286ZM225 127V120H235V127H225ZM243 120H238V127H243V120ZM196 127V120H206V127H196ZM209 127V120H219V127H209ZM225 141V134H235V141H225ZM243 134H238V141H243V134ZM196 141V134H206V141H196ZM209 141V134H219V141H209ZM225 155V148H235V155H225ZM243 148H238V155H243V148ZM196 155V148H206V155H196ZM209 155V148H219V155H209ZM225 169V162H235V169H225ZM243 162H238V169H243V162ZM196 169V162H206V169H196ZM209 169V162H219V169H209ZM225 183V176H235V183H225ZM243 176H238V183H243V176ZM196 183V176H206V183H196ZM209 183V176H219V183H209ZM225 197V190H235V197H225ZM243 190H238V197H243V190ZM196 197V190H206V197H196ZM209 197V190H219V197H209ZM225 211V204H235V211H225ZM243 204H238V211H243V204ZM196 211V204H206V211H196ZM209 211V204H219V211H209ZM225 225V218H235V225H225ZM243 218H238V225H243V218ZM196 225V218H206V225H196ZM209 225V218H219V225H209ZM225 239V232H235V239H225ZM243 232H238V239H243V232ZM196 239V232H206V239H196ZM209 239V232H219V239H209ZM357 120H352V127H357V120ZM360 127V120H370V127H360ZM376 127V120H386V127H376ZM389 127V120H399V127H389ZM357 134H352V141H357V134ZM360 141V134H370V141H360ZM376 141V134H386V141H376ZM389 141V134H399V141H389ZM357 148H352V155H357V148ZM360 155V148H370V155H360ZM376 155V148H386V155H376ZM389 155V148H399V155H389ZM357 162H352V169H357V162ZM360 169V162H370V169H360ZM376 169V162H386V169H376ZM389 169V162H399V169H389ZM357 176H352V183H357V176ZM360 183V176H370V183H360ZM376 183V176H386V183H376ZM389 183V176H399V183H389ZM357 190H352V197H357V190ZM360 197V190H370V197H360ZM376 197V190H386V197H376ZM389 197V190H399V197H389ZM357 204H352V211H357V204ZM360 211V204H370V211H360ZM376 211V204H386V211H376ZM389 211V204H399V211H389ZM357 218H352V225H357V218ZM360 225V218H370V225H360ZM376 225V218H386V225H376ZM389 225V218H399V225H389ZM357 232H352V239H357V232ZM360 239V232H370V239H360ZM376 239V232H386V239H376ZM389 239V232H399V239H389ZM328 127V120H338V127H328ZM346 120H341V127H346V120ZM299 127V120H309V127H299ZM312 127V120H322V127H312ZM328 141V134H338V141H328ZM346 134H341V141H346V134ZM299 141V134H309V141H299ZM312 141V134H322V141H312ZM328 155V148H338V155H328ZM346 148H341V155H346V148ZM299 155V148H309V155H299ZM312 155V148H322V155H312ZM328 169V162H338V169H328ZM346 162H341V169H346V162ZM299 169V162H309V169H299ZM312 169V162H322V169H312ZM328 183V176H338V183H328ZM346 176H341V183H346V176ZM299 183V176H309V183H299ZM312 183V176H322V183H312ZM328 197V190H338V197H328ZM346 190H341V197H346V190ZM299 197V190H309V197H299ZM312 197V190H322V197H312ZM328 211V204H338V211H328ZM346 204H341V211H346V204ZM299 211V204H309V211H299ZM312 211V204H322V211H312ZM328 225V218H338V225H328ZM346 218H341V225H346V218ZM299 225V218H309V225H299ZM312 225V218H322V225H312ZM328 239V232H338V239H328ZM346 232H341V239H346V232ZM299 239V232H309V239H299ZM312 239V232H322V239H312Z" fill="#4D5E80"/>
<path d="M246.305 107.459L243 107V111L246.305 111V107.459Z" fill="#6B7A99"/>
<path d="M254 111L257.228 111V107.459L254 107V111Z" fill="#6B7A99"/>
<path d="M346 107V111L348.578 111V107.459L346 107Z" fill="#6B7A99"/>
<path d="M357 111L359.501 111V107.459L357 107V111Z" fill="#6B7A99"/>
<path d="M405 111V247L429.866 240.915V115.949L405 111Z" fill="#6B7A99"/>
<path d="M87 0.354187H0.650787V252H87L129 247V12L87 0.354187Z" fill="#7C8AA6"/>
<path fill-rule="evenodd" clip-rule="evenodd" d="M77.3651 11.0625H82.7619V18.5584H77.3651V11.0625ZM74.127 18.5584V11.0625H63.3333V18.5584H74.127ZM25.5556 18.5584V11.0625H14.7619V18.5584H25.5556ZM6.12698 11.0625H11.5238V18.5584H6.12698V11.0625ZM56.8571 18.5584V11.0625H46.0635V18.5584H56.8571ZM42.8254 18.5584V11.0625H32.0317V18.5584H42.8254ZM77.3651 26.0542H82.7619V33.55H77.3651V26.0542ZM74.127 33.55V26.0542H63.3333V33.55H74.127ZM25.5556 33.55V26.0542H14.7619V33.55H25.5556ZM6.12698 26.0542H11.5238V33.55H6.12698V26.0542ZM56.8571 33.55V26.0542H46.0635V33.55H56.8571ZM42.8254 33.55V26.0542H32.0317V33.55H42.8254ZM77.3651 41.0459H82.7619V48.5417H77.3651V41.0459ZM74.127 48.5417V41.0459H63.3333V48.5417H74.127ZM25.5556 48.5417V41.0459H14.7619V48.5417H25.5556ZM6.12698 41.0459H11.5238V48.5417H6.12698V41.0459ZM56.8571 48.5417V41.0459H46.0635V48.5417H56.8571ZM42.8254 48.5417V41.0459H32.0317V48.5417H42.8254ZM77.3651 56.0375H82.7619V63.5334H77.3651V56.0375ZM74.127 63.5334V56.0375H63.3333V63.5334H74.127ZM25.5556 63.5334V56.0375H14.7619V63.5334H25.5556ZM6.12698 56.0375H11.5238V63.5334H6.12698V56.0375ZM56.8571 63.5334V56.0375H46.0635V63.5334H56.8571ZM42.8254 63.5334V56.0375H32.0317V63.5334H42.8254ZM77.3651 71.0292H82.7619V78.525H77.3651V71.0292ZM74.127 78.525V71.0292H63.3333V78.525H74.127ZM25.5556 78.525V71.0292H14.7619V78.525H25.5556ZM6.12698 71.0292H11.5238V78.525H6.12698V71.0292ZM56.8571 78.525V71.0292H46.0635V78.525H56.8571ZM42.8254 78.525V71.0292H32.0317V78.525H42.8254ZM77.3651 86.0209H82.7619V93.5167H77.3651V86.0209ZM74.127 93.5167V86.0209H63.3333V93.5167H74.127ZM25.5556 93.5167V86.0209H14.7619V93.5167H25.5556ZM6.12698 86.0209H11.5238V93.5167H6.12698V86.0209ZM56.8571 93.5167V86.0209H46.0635V93.5167H56.8571ZM42.8254 93.5167V86.0209H32.0317V93.5167H42.8254ZM77.3651 101.013H82.7619V108.508H77.3651V101.013ZM74.127 108.508V101.013H63.3333V108.508H74.127ZM25.5556 108.508V101.013H14.7619V108.508H25.5556ZM6.12698 101.013H11.5238V108.508H6.12698V101.013ZM56.8571 108.508V101.013H46.0635V108.508H56.8571ZM42.8254 108.508V101.013H32.0317V108.508H42.8254ZM77.3651 116.004H82.7619V123.5H77.3651V116.004ZM74.127 123.5V116.004H63.3333V123.5H74.127ZM25.5556 123.5V116.004H14.7619V123.5H25.5556ZM6.12698 116.004H11.5238V123.5H6.12698V116.004ZM56.8571 123.5V116.004H46.0635V123.5H56.8571ZM42.8254 123.5V116.004H32.0317V123.5H42.8254ZM77.3651 130.996H82.7619V138.492H77.3651V130.996ZM74.127 138.492V130.996H63.3333V138.492H74.127ZM25.5556 138.492V130.996H14.7619V138.492H25.5556ZM6.12698 130.996H11.5238V138.492H6.12698V130.996ZM56.8571 138.492V130.996H46.0635V138.492H56.8571ZM42.8254 138.492V130.996H32.0317V138.492H42.8254ZM77.3651 145.988H82.7619V153.483H77.3651V145.988ZM74.127 153.483V145.988H63.3333V153.483H74.127ZM25.5556 153.483V145.988H14.7619V153.483H25.5556ZM6.12698 145.988H11.5238V153.483H6.12698V145.988ZM56.8571 153.483V145.988H46.0635V153.483H56.8571ZM42.8254 153.483V145.988H32.0317V153.483H42.8254ZM77.3651 160.979H82.7619V168.475H77.3651V160.979ZM74.127 168.475V160.979H63.3333V168.475H74.127ZM25.5556 168.475V160.979H14.7619V168.475H25.5556ZM6.12698 160.979H11.5238V168.475H6.12698V160.979ZM56.8571 168.475V160.979H46.0635V168.475H56.8571ZM42.8254 168.475V160.979H32.0317V168.475H42.8254ZM77.3651 175.971H82.7619V183.467H77.3651V175.971ZM74.127 183.467V175.971H63.3333V183.467H74.127ZM25.5556 183.467V175.971H14.7619V183.467H25.5556ZM6.12698 175.971H11.5238V183.467H6.12698V175.971ZM56.8571 183.467V175.971H46.0635V183.467H56.8571ZM42.8254 183.467V175.971H32.0317V183.467H42.8254ZM77.3651 190.963H82.7619V198.458H77.3651V190.963ZM74.127 198.458V190.963H63.3333V198.458H74.127ZM25.5556 198.458V190.963H14.7619V198.458H25.5556ZM6.12698 190.963H11.5238V198.458H6.12698V190.963ZM56.8571 198.458V190.963H46.0635V198.458H56.8571ZM42.8254 198.458V190.963H32.0317V198.458H42.8254ZM77.3651 205.954H82.7619V213.45H77.3651V205.954ZM74.127 213.45V205.954H63.3333V213.45H74.127ZM25.5556 213.45V205.954H14.7619V213.45H25.5556ZM6.12698 205.954H11.5238V213.45H6.12698V205.954ZM56.8571 213.45V205.954H46.0635V213.45H56.8571ZM42.8254 213.45V205.954H32.0317V213.45H42.8254ZM77.3651 220.946H82.7619V228.442H77.3651V220.946ZM74.127 228.442V220.946H63.3333V228.442H74.127ZM25.5556 228.442V220.946H14.7619V228.442H25.5556ZM6.12698 220.946H11.5238V228.442H6.12698V220.946ZM56.8571 228.442V220.946H46.0635V228.442H56.8571ZM42.8254 228.442V220.946H32.0317V228.442H42.8254ZM77.3651 235.938H82.7619V243.433H77.3651V235.938ZM74.127 243.433V235.938H63.3333V243.433H74.127ZM25.5556 243.433V235.938H14.7619V243.433H25.5556ZM6.12698 235.938H11.5238V243.433H6.12698V235.938ZM56.8571 243.433V235.938H46.0635V243.433H56.8571ZM42.8254 243.433V235.938H32.0317V243.433H42.8254Z" fill="#7C8AA6"/>
<path fill-rule="evenodd" clip-rule="evenodd" d="M77.3651 11.0625H82.7619V18.5584H77.3651V11.0625ZM74.127 18.5584V11.0625H63.3333V18.5584H74.127ZM25.5556 18.5584V11.0625H14.7619V18.5584H25.5556ZM6.12698 11.0625H11.5238V18.5584H6.12698V11.0625ZM56.8571 18.5584V11.0625H46.0635V18.5584H56.8571ZM42.8254 18.5584V11.0625H32.0317V18.5584H42.8254ZM77.3651 26.0542H82.7619V33.55H77.3651V26.0542ZM74.127 33.55V26.0542H63.3333V33.55H74.127ZM25.5556 33.55V26.0542H14.7619V33.55H25.5556ZM6.12698 26.0542H11.5238V33.55H6.12698V26.0542ZM56.8571 33.55V26.0542H46.0635V33.55H56.8571ZM42.8254 33.55V26.0542H32.0317V33.55H42.8254ZM77.3651 41.0459H82.7619V48.5417H77.3651V41.0459ZM74.127 48.5417V41.0459H63.3333V48.5417H74.127ZM25.5556 48.5417V41.0459H14.7619V48.5417H25.5556ZM6.12698 41.0459H11.5238V48.5417H6.12698V41.0459ZM56.8571 48.5417V41.0459H46.0635V48.5417H56.8571ZM42.8254 48.5417V41.0459H32.0317V48.5417H42.8254ZM77.3651 56.0375H82.7619V63.5334H77.3651V56.0375ZM74.127 63.5334V56.0375H63.3333V63.5334H74.127ZM25.5556 63.5334V56.0375H14.7619V63.5334H25.5556ZM6.12698 56.0375H11.5238V63.5334H6.12698V56.0375ZM56.8571 63.5334V56.0375H46.0635V63.5334H56.8571ZM42.8254 63.5334V56.0375H32.0317V63.5334H42.8254ZM77.3651 71.0292H82.7619V78.525H77.3651V71.0292ZM74.127 78.525V71.0292H63.3333V78.525H74.127ZM25.5556 78.525V71.0292H14.7619V78.525H25.5556ZM6.12698 71.0292H11.5238V78.525H6.12698V71.0292ZM56.8571 78.525V71.0292H46.0635V78.525H56.8571ZM42.8254 78.525V71.0292H32.0317V78.525H42.8254ZM77.3651 86.0209H82.7619V93.5167H77.3651V86.0209ZM74.127 93.5167V86.0209H63.3333V93.5167H74.127ZM25.5556 93.5167V86.0209H14.7619V93.5167H25.5556ZM6.12698 86.0209H11.5238V93.5167H6.12698V86.0209ZM56.8571 93.5167V86.0209H46.0635V93.5167H56.8571ZM42.8254 93.5167V86.0209H32.0317V93.5167H42.8254ZM77.3651 101.013H82.7619V108.508H77.3651V101.013ZM74.127 108.508V101.013H63.3333V108.508H74.127ZM25.5556 108.508V101.013H14.7619V108.508H25.5556ZM6.12698 101.013H11.5238V108.508H6.12698V101.013ZM56.8571 108.508V101.013H46.0635V108.508H56.8571ZM42.8254 108.508V101.013H32.0317V108.508H42.8254ZM77.3651 116.004H82.7619V123.5H77.3651V116.004ZM74.127 123.5V116.004H63.3333V123.5H74.127ZM25.5556 123.5V116.004H14.7619V123.5H25.5556ZM6.12698 116.004H11.5238V123.5H6.12698V116.004ZM56.8571 123.5V116.004H46.0635V123.5H56.8571ZM42.8254 123.5V116.004H32.0317V123.5H42.8254ZM77.3651 130.996H82.7619V138.492H77.3651V130.996ZM74.127 138.492V130.996H63.3333V138.492H74.127ZM25.5556 138.492V130.996H14.7619V138.492H25.5556ZM6.12698 130.996H11.5238V138.492H6.12698V130.996ZM56.8571 138.492V130.996H46.0635V138.492H56.8571ZM42.8254 138.492V130.996H32.0317V138.492H42.8254ZM77.3651 145.988H82.7619V153.483H77.3651V145.988ZM74.127 153.483V145.988H63.3333V153.483H74.127ZM25.5556 153.483V145.988H14.7619V153.483H25.5556ZM6.12698 145.988H11.5238V153.483H6.12698V145.988ZM56.8571 153.483V145.988H46.0635V153.483H56.8571ZM42.8254 153.483V145.988H32.0317V153.483H42.8254ZM77.3651 160.979H82.7619V168.475H77.3651V160.979ZM74.127 168.475V160.979H63.3333V168.475H74.127ZM25.5556 168.475V160.979H14.7619V168.475H25.5556ZM6.12698 160.979H11.5238V168.475H6.12698V160.979ZM56.8571 168.475V160.979H46.0635V168.475H56.8571ZM42.8254 168.475V160.979H32.0317V168.475H42.8254ZM77.3651 175.971H82.7619V183.467H77.3651V175.971ZM74.127 183.467V175.971H63.3333V183.467H74.127ZM25.5556 183.467V175.971H14.7619V183.467H25.5556ZM6.12698 175.971H11.5238V183.467H6.12698V175.971ZM56.8571 183.467V175.971H46.0635V183.467H56.8571ZM42.8254 183.467V175.971H32.0317V183.467H42.8254ZM77.3651 190.963H82.7619V198.458H77.3651V190.963ZM74.127 198.458V190.963H63.3333V198.458H74.127ZM25.5556 198.458V190.963H14.7619V198.458H25.5556ZM6.12698 190.963H11.5238V198.458H6.12698V190.963ZM56.8571 198.458V190.963H46.0635V198.458H56.8571ZM42.8254 198.458V190.963H32.0317V198.458H42.8254ZM77.3651 205.954H82.7619V213.45H77.3651V205.954ZM74.127 213.45V205.954H63.3333V213.45H74.127ZM25.5556 213.45V205.954H14.7619V213.45H25.5556ZM6.12698 205.954H11.5238V213.45H6.12698V205.954ZM56.8571 213.45V205.954H46.0635V213.45H56.8571ZM42.8254 213.45V205.954H32.0317V213.45H42.8254ZM77.3651 220.946H82.7619V228.442H77.3651V220.946ZM74.127 228.442V220.946H63.3333V228.442H74.127ZM25.5556 228.442V220.946H14.7619V228.442H25.5556ZM6.12698 220.946H11.5238V228.442H6.12698V220.946ZM56.8571 228.442V220.946H46.0635V228.442H56.8571ZM42.8254 228.442V220.946H32.0317V228.442H42.8254ZM77.3651 235.938H82.7619V243.433H77.3651V235.938ZM74.127 243.433V235.938H63.3333V243.433H74.127ZM25.5556 243.433V235.938H14.7619V243.433H25.5556ZM6.12698 235.938H11.5238V243.433H6.12698V235.938ZM56.8571 243.433V235.938H46.0635V243.433H56.8571ZM42.8254 243.433V235.938H32.0317V243.433H42.8254Z" fill="black" fill-opacity="0.2"/>
<path fill-rule="evenodd" clip-rule="evenodd" d="M77.3651 11.0625H82.7619V18.5584H77.3651V11.0625ZM74.127 18.5584V11.0625H63.3333V18.5584H74.127ZM25.5556 18.5584V11.0625H14.7619V18.5584H25.5556ZM6.12698 11.0625H11.5238V18.5584H6.12698V11.0625ZM56.8571 18.5584V11.0625H46.0635V18.5584H56.8571ZM42.8254 18.5584V11.0625H32.0317V18.5584H42.8254ZM77.3651 26.0542H82.7619V33.55H77.3651V26.0542ZM74.127 33.55V26.0542H63.3333V33.55H74.127ZM25.5556 33.55V26.0542H14.7619V33.55H25.5556ZM6.12698 26.0542H11.5238V33.55H6.12698V26.0542ZM56.8571 33.55V26.0542H46.0635V33.55H56.8571ZM42.8254 33.55V26.0542H32.0317V33.55H42.8254ZM77.3651 41.0459H82.7619V48.5417H77.3651V41.0459ZM74.127 48.5417V41.0459H63.3333V48.5417H74.127ZM25.5556 48.5417V41.0459H14.7619V48.5417H25.5556ZM6.12698 41.0459H11.5238V48.5417H6.12698V41.0459ZM56.8571 48.5417V41.0459H46.0635V48.5417H56.8571ZM42.8254 48.5417V41.0459H32.0317V48.5417H42.8254ZM77.3651 56.0375H82.7619V63.5334H77.3651V56.0375ZM74.127 63.5334V56.0375H63.3333V63.5334H74.127ZM25.5556 63.5334V56.0375H14.7619V63.5334H25.5556ZM6.12698 56.0375H11.5238V63.5334H6.12698V56.0375ZM56.8571 63.5334V56.0375H46.0635V63.5334H56.8571ZM42.8254 63.5334V56.0375H32.0317V63.5334H42.8254ZM77.3651 71.0292H82.7619V78.525H77.3651V71.0292ZM74.127 78.525V71.0292H63.3333V78.525H74.127ZM25.5556 78.525V71.0292H14.7619V78.525H25.5556ZM6.12698 71.0292H11.5238V78.525H6.12698V71.0292ZM56.8571 78.525V71.0292H46.0635V78.525H56.8571ZM42.8254 78.525V71.0292H32.0317V78.525H42.8254ZM77.3651 86.0209H82.7619V93.5167H77.3651V86.0209ZM74.127 93.5167V86.0209H63.3333V93.5167H74.127ZM25.5556 93.5167V86.0209H14.7619V93.5167H25.5556ZM6.12698 86.0209H11.5238V93.5167H6.12698V86.0209ZM56.8571 93.5167V86.0209H46.0635V93.5167H56.8571ZM42.8254 93.5167V86.0209H32.0317V93.5167H42.8254ZM77.3651 101.013H82.7619V108.508H77.3651V101.013ZM74.127 108.508V101.013H63.3333V108.508H74.127ZM25.5556 108.508V101.013H14.7619V108.508H25.5556ZM6.12698 101.013H11.5238V108.508H6.12698V101.013ZM56.8571 108.508V101.013H46.0635V108.508H56.8571ZM42.8254 108.508V101.013H32.0317V108.508H42.8254ZM77.3651 116.004H82.7619V123.5H77.3651V116.004ZM74.127 123.5V116.004H63.3333V123.5H74.127ZM25.5556 123.5V116.004H14.7619V123.5H25.5556ZM6.12698 116.004H11.5238V123.5H6.12698V116.004ZM56.8571 123.5V116.004H46.0635V123.5H56.8571ZM42.8254 123.5V116.004H32.0317V123.5H42.8254ZM77.3651 130.996H82.7619V138.492H77.3651V130.996ZM74.127 138.492V130.996H63.3333V138.492H74.127ZM25.5556 138.492V130.996H14.7619V138.492H25.5556ZM6.12698 130.996H11.5238V138.492H6.12698V130.996ZM56.8571 138.492V130.996H46.0635V138.492H56.8571ZM42.8254 138.492V130.996H32.0317V138.492H42.8254ZM77.3651 145.988H82.7619V153.483H77.3651V145.988ZM74.127 153.483V145.988H63.3333V153.483H74.127ZM25.5556 153.483V145.988H14.7619V153.483H25.5556ZM6.12698 145.988H11.5238V153.483H6.12698V145.988ZM56.8571 153.483V145.988H46.0635V153.483H56.8571ZM42.8254 153.483V145.988H32.0317V153.483H42.8254ZM77.3651 160.979H82.7619V168.475H77.3651V160.979ZM74.127 168.475V160.979H63.3333V168.475H74.127ZM25.5556 168.475V160.979H14.7619V168.475H25.5556ZM6.12698 160.979H11.5238V168.475H6.12698V160.979ZM56.8571 168.475V160.979H46.0635V168.475H56.8571ZM42.8254 168.475V160.979H32.0317V168.475H42.8254ZM77.3651 175.971H82.7619V183.467H77.3651V175.971ZM74.127 183.467V175.971H63.3333V183.467H74.127ZM25.5556 183.467V175.971H14.7619V183.467H25.5556ZM6.12698 175.971H11.5238V183.467H6.12698V175.971ZM56.8571 183.467V175.971H46.0635V183.467H56.8571ZM42.8254 183.467V175.971H32.0317V183.467H42.8254ZM77.3651 190.963H82.7619V198.458H77.3651V190.963ZM74.127 198.458V190.963H63.3333V198.458H74.127ZM25.5556 198.458V190.963H14.7619V198.458H25.5556ZM6.12698 190.963H11.5238V198.458H6.12698V190.963ZM56.8571 198.458V190.963H46.0635V198.458H56.8571ZM42.8254 198.458V190.963H32.0317V198.458H42.8254ZM77.3651 205.954H82.7619V213.45H77.3651V205.954ZM74.127 213.45V205.954H63.3333V213.45H74.127ZM25.5556 213.45V205.954H14.7619V213.45H25.5556ZM6.12698 205.954H11.5238V213.45H6.12698V205.954ZM56.8571 213.45V205.954H46.0635V213.45H56.8571ZM42.8254 213.45V205.954H32.0317V213.45H42.8254ZM77.3651 220.946H82.7619V228.442H77.3651V220.946ZM74.127 228.442V220.946H63.3333V228.442H74.127ZM25.5556 228.442V220.946H14.7619V228.442H25.5556ZM6.12698 220.946H11.5238V228.442H6.12698V220.946ZM56.8571 228.442V220.946H46.0635V228.442H56.8571ZM42.8254 228.442V220.946H32.0317V228.442H42.8254ZM77.3651 235.938H82.7619V243.433H77.3651V235.938ZM74.127 243.433V235.938H63.3333V243.433H74.127ZM25.5556 243.433V235.938H14.7619V243.433H25.5556ZM6.12698 235.938H11.5238V243.433H6.12698V235.938ZM56.8571 243.433V235.938H46.0635V243.433H56.8571ZM42.8254 243.433V235.938H32.0317V243.433H42.8254Z" fill="#4D5E80"/>
<path d="M87 0.354187L129 12V247L87 252V0.354187Z" fill="#6B7A99"/>
<path d="M437.5 228V216.5L465 212.121V208L484 205.31V198L493.5 197H513.5V201.133L521.5 200H588V204H606.5V212L601 214.12V217.5H606.5V229L598.688 233.235L594.081 235.733L591.877 236.928H588.478L586.717 237.868V239.726L565 251.5H437.5V235.5L447 233.322V228H437.5Z" fill="#7C8AA6"/>
<path d="M437.5 235.5H565L586.717 226.081H583.233L563.5 234.5H447V233.322L437.5 235.5Z" fill="#62708C"/>
<path d="M437.5 216.5H565L606.5 204H588V205L551 215H465V212.121L437.5 216.5Z" fill="#62708C"/>
<path fill-rule="evenodd" clip-rule="evenodd" d="M521.5 200L513.5 201.133V202.5L505 204H493.25L484 205.31L465 208H551L588 200H521.5Z" fill="#62708C"/>
<path d="M513.5 197H493.5L484 198H505L513.5 197Z" fill="#62708C"/>
<path d="M601 217.5V218.5L588.478 223.843H591.877L606.5 217.5H601Z" fill="#62708C"/>
<path d="M447 228V233.322V234.5H563.5V228H447Z" fill="#4D5E80"/>
<path d="M601 217.5V214.12L565 228H563.5V234.5L583.233 226.081H586.717V237.868L588.478 236.928V223.843L601 218.5V217.5Z" fill="#4D5E80"/>
<path d="M447 228V233.322V234.5H563.5V228H447Z" fill="#4D5E80"/>
<path d="M601 217.5V214.12L565 228H563.5V234.5L583.233 226.081H586.717V237.868L588.478 236.928V223.843L601 218.5V217.5Z" fill="#4D5E80"/>
<path d="M911.798 197H931.727L941.194 198H920.268L911.798 197Z" fill="#62708C"/>
<path d="M987.53 216.5V228H978.063V233.322L987.53 235.5V251.5H860.479L838.839 239.726V237.868L837.083 236.928H833.697L831.5 235.733L826.909 233.235L819.125 229V217.5H824.606V214.12L819.125 212V204H837.56V200H903.826L911.798 201.133V197L920.268 198H941.194V205.31L960.127 208V212.121L987.53 216.5Z" fill="#7C8AA6"/>
<path d="M987.53 235.5H860.479L838.839 226.081H842.31L861.974 234.5H978.063V233.322L987.53 235.5Z" fill="#62708C"/>
<path d="M824.606 217.5V218.5L837.083 223.843H833.697L819.125 217.5H824.606Z" fill="#62708C"/>
<path d="M987.53 216.5H860.479L819.125 204H837.56V205L874.43 215H960.127V212.121L987.53 216.5Z" fill="#62708C"/>
<path fill-rule="evenodd" clip-rule="evenodd" d="M903.826 200L911.798 201.133V202.5L920.268 204H931.976L941.194 205.31L960.127 208H874.43L837.56 200H903.826Z" fill="#62708C"/>
<path d="M911.798 197H931.727L941.194 198H920.268L911.798 197Z" fill="#62708C"/>
<path d="M978.063 228V233.322V234.5H861.974V228H978.063Z" fill="#4D5E80"/>
<path d="M824.606 217.5V214.12L860.479 228H861.974V234.5L842.31 226.081H838.839V237.868L837.083 236.928V223.843L824.606 218.5V217.5Z" fill="#4D5E80"/>
<path d="M860.479 235.5V251.5L838.839 239.726V237.868V226.081L860.479 235.5Z" fill="#6B7A99"/>
<path d="M819.125 229V217.5L833.697 223.843V236.928L831.5 235.733L826.909 233.235L819.125 229Z" fill="#6B7A99"/>
<path d="M824.606 214.12L819.125 212V204L860.479 216.5V228L824.606 214.12Z" fill="#6B7A99"/>
<path fill-rule="evenodd" clip-rule="evenodd" d="M874.43 215V208L837.56 200V204V205L874.43 215Z" fill="#6B7A99"/>
<path d="M911.798 201.133V197L920.268 198V204L911.798 202.5V201.133Z" fill="#6B7A99"/>
<path d="M1234.16 111V247H1019.92L995.137 240.915V115.949L1019.92 111L1065.25 111V107.459L1067.75 107H1072.73V111L1076.14 111V107.459L1078.71 107L1083.69 107V111L1167.17 111V107.459L1170.38 107H1175.37V111L1178.05 111V107.459L1181.35 107L1186.33 107V111H1234.16Z" fill="#7C8AA6"/>
<path fill-rule="evenodd" clip-rule="evenodd" d="M1170.38 120H1175.37V127H1170.38V120ZM1167.39 127V120H1157.43V127H1167.39ZM1151.45 127V120H1141.49V127H1151.45ZM1138.5 127V120H1128.53V127H1138.5ZM1170.38 134H1175.37V141H1170.38V134ZM1167.39 141V134H1157.43V141H1167.39ZM1151.45 141V134H1141.49V141H1151.45ZM1138.5 141V134H1128.53V141H1138.5ZM1170.38 148H1175.37V155H1170.38V148ZM1167.39 155V148H1157.43V155H1167.39ZM1151.45 155V148H1141.49V155H1151.45ZM1138.5 155V148H1128.53V155H1138.5ZM1170.38 162H1175.37V169H1170.38V162ZM1167.39 169V162H1157.43V169H1167.39ZM1151.45 169V162H1141.49V169H1151.45ZM1138.5 169V162H1128.53V169H1138.5ZM1170.38 176H1175.37V183H1170.38V176ZM1167.39 183V176H1157.43V183H1167.39ZM1151.45 183V176H1141.49V183H1151.45ZM1138.5 183V176H1128.53V183H1138.5ZM1170.38 190H1175.37V197H1170.38V190ZM1167.39 197V190H1157.43V197H1167.39ZM1151.45 197V190H1141.49V197H1151.45ZM1138.5 197V190H1128.53V197H1138.5ZM1170.38 204H1175.37V211H1170.38V204ZM1167.39 211V204H1157.43V211H1167.39ZM1151.45 211V204H1141.49V211H1151.45ZM1138.5 211V204H1128.53V211H1138.5ZM1170.38 218H1175.37V225H1170.38V218ZM1167.39 225V218H1157.43V225H1167.39ZM1151.45 225V218H1141.49V225H1151.45ZM1138.5 225V218H1128.53V225H1138.5ZM1170.38 232H1175.37V239H1170.38V232ZM1167.39 239V232H1157.43V239H1167.39ZM1151.45 239V232H1141.49V239H1151.45ZM1138.5 239V232H1128.53V239H1138.5ZM1199.28 127V120H1189.32V127H1199.28ZM1181.35 120H1186.33V127H1181.35V120ZM1228.18 127V120H1218.21V127H1228.18ZM1215.23 127V120H1205.26V127H1215.23ZM1199.28 141V134H1189.32V141H1199.28ZM1181.35 134H1186.33V141H1181.35V134ZM1228.18 141V134H1218.21V141H1228.18ZM1215.23 141V134H1205.26V141H1215.23ZM1199.28 155V148H1189.32V155H1199.28ZM1181.35 148H1186.33V155H1181.35V148ZM1228.18 155V148H1218.21V155H1228.18ZM1215.23 155V148H1205.26V155H1215.23ZM1199.28 169V162H1189.32V169H1199.28ZM1181.35 162H1186.33V169H1181.35V162ZM1228.18 169V162H1218.21V169H1228.18ZM1215.23 169V162H1205.26V169H1215.23ZM1199.28 183V176H1189.32V183H1199.28ZM1181.35 176H1186.33V183H1181.35V176ZM1228.18 183V176H1218.21V183H1228.18ZM1215.23 183V176H1205.26V183H1215.23ZM1199.28 197V190H1189.32V197H1199.28ZM1181.35 190H1186.33V197H1181.35V190ZM1228.18 197V190H1218.21V197H1228.18ZM1215.23 197V190H1205.26V197H1215.23ZM1199.28 211V204H1189.32V211H1199.28ZM1181.35 204H1186.33V211H1181.35V204ZM1228.18 211V204H1218.21V211H1228.18ZM1215.23 211V204H1205.26V211H1215.23ZM1199.28 225V218H1189.32V225H1199.28ZM1181.35 218H1186.33V225H1181.35V218ZM1228.18 225V218H1218.21V225H1228.18ZM1215.23 225V218H1205.26V225H1215.23ZM1199.28 239V232H1189.32V239H1199.28ZM1181.35 232H1186.33V239H1181.35V232ZM1228.18 239V232H1218.21V239H1228.18ZM1215.23 239V232H1205.26V239H1215.23ZM1067.75 120H1072.73V127H1067.75V120ZM1064.76 127V120H1054.79V127H1064.76ZM1048.81 127V120H1038.85V127H1048.81ZM1035.86 127V120H1025.89V127H1035.86ZM1067.75 134H1072.73V141H1067.75V134ZM1064.76 141V134H1054.79V141H1064.76ZM1048.81 141V134H1038.85V141H1048.81ZM1035.86 141V134H1025.89V141H1035.86ZM1067.75 148H1072.73V155H1067.75V148ZM1064.76 155V148H1054.79V155H1064.76ZM1048.81 155V148H1038.85V155H1048.81ZM1035.86 155V148H1025.89V155H1035.86ZM1067.75 162H1072.73V169H1067.75V162ZM1064.76 169V162H1054.79V169H1064.76ZM1048.81 169V162H1038.85V169H1048.81ZM1035.86 169V162H1025.89V169H1035.86ZM1067.75 176H1072.73V183H1067.75V176ZM1064.76 183V176H1054.79V183H1064.76ZM1048.81 183V176H1038.85V183H1048.81ZM1035.86 183V176H1025.89V183H1035.86ZM1067.75 190H1072.73V197H1067.75V190ZM1064.76 197V190H1054.79V197H1064.76ZM1048.81 197V190H1038.85V197H1048.81ZM1035.86 197V190H1025.89V197H1035.86ZM1067.75 204H1072.73V211H1067.75V204ZM1064.76 211V204H1054.79V211H1064.76ZM1048.81 211V204H1038.85V211H1048.81ZM1035.86 211V204H1025.89V211H1035.86ZM1067.75 218H1072.73V225H1067.75V218ZM1064.76 225V218H1054.79V225H1064.76ZM1048.81 225V218H1038.85V225H1048.81ZM1035.86 225V218H1025.89V225H1035.86ZM1067.75 232H1072.73V239H1067.75V232ZM1064.76 239V232H1054.79V239H1064.76ZM1048.81 239V232H1038.85V239H1048.81ZM1035.86 239V232H1025.89V239H1035.86ZM1096.64 127V120H1086.68V127H1096.64ZM1078.71 120H1083.69V127H1078.71V120ZM1125.54 127V120H1115.58V127H1125.54ZM1112.59 127V120H1102.62V127H1112.59ZM1096.64 141V134H1086.68V141H1096.64ZM1078.71 134H1083.69V141H1078.71V134ZM1125.54 141V134H1115.58V141H1125.54ZM1112.59 141V134H1102.62V141H1112.59ZM1096.64 155V148H1086.68V155H1096.64ZM1078.71 148H1083.69V155H1078.71V148ZM1125.54 155V148H1115.58V155H1125.54ZM1112.59 155V148H1102.62V155H1112.59ZM1096.64 169V162H1086.68V169H1096.64ZM1078.71 162H1083.69V169H1078.71V162ZM1125.54 169V162H1115.58V169H1125.54ZM1112.59 169V162H1102.62V169H1112.59ZM1096.64 183V176H1086.68V183H1096.64ZM1078.71 176H1083.69V183H1078.71V176ZM1125.54 183V176H1115.58V183H1125.54ZM1112.59 183V176H1102.62V183H1112.59ZM1096.64 197V190H1086.68V197H1096.64ZM1078.71 190H1083.69V197H1078.71V190ZM1125.54 197V190H1115.58V197H1125.54ZM1112.59 197V190H1102.62V197H1112.59ZM1096.64 211V204H1086.68V211H1096.64ZM1078.71 204H1083.69V211H1078.71V204ZM1125.54 211V204H1115.58V211H1125.54ZM1112.59 211V204H1102.62V211H1112.59ZM1096.64 225V218H1086.68V225H1096.64ZM1078.71 218H1083.69V225H1078.71V218ZM1125.54 225V218H1115.58V225H1125.54ZM1112.59 225V218H1102.62V225H1112.59ZM1096.64 239V232H1086.68V239H1096.64ZM1078.71 232H1083.69V239H1078.71V232ZM1125.54 239V232H1115.58V239H1125.54ZM1112.59 239V232H1102.62V239H1112.59Z" fill="#4D5E80"/>
<path d="M1178.05 107.459L1181.35 107V111L1178.05 111V107.459Z" fill="#6B7A99"/>
<path d="M1170.38 111L1167.17 111V107.459L1170.38 107V111Z" fill="#6B7A99"/>
<path d="M1078.71 107V111L1076.14 111V107.459L1078.71 107Z" fill="#6B7A99"/>
<path d="M1067.75 111L1065.25 111V107.459L1067.75 107V111Z" fill="#6B7A99"/>
<path d="M1019.92 111V247L995.137 240.915V115.949L1019.92 111Z" fill="#6B7A99"/>
<path d="M1336.8 0.354187H1422.84V252H1336.8L1294.94 247V12L1336.8 0.354187Z" fill="#7C8AA6"/>
<path fill-rule="evenodd" clip-rule="evenodd" d="M1346.4 11.0625H1341.02V18.5584H1346.4V11.0625ZM1349.62 18.5584V11.0625H1360.38V18.5584H1349.62ZM1398.02 18.5584V11.0625H1408.78V18.5584H1398.02ZM1417.38 11.0625H1412.01V18.5584H1417.38V11.0625ZM1366.83 18.5584V11.0625H1377.59V18.5584H1366.83ZM1380.81 18.5584V11.0625H1391.57V18.5584H1380.81ZM1346.4 26.0542H1341.02V33.55H1346.4V26.0542ZM1349.62 33.55V26.0542H1360.38V33.55H1349.62ZM1398.02 33.55V26.0542H1408.78V33.55H1398.02ZM1417.38 26.0542H1412.01V33.55H1417.38V26.0542ZM1366.83 33.55V26.0542H1377.59V33.55H1366.83ZM1380.81 33.55V26.0542H1391.57V33.55H1380.81ZM1346.4 41.0459H1341.02V48.5417H1346.4V41.0459ZM1349.62 48.5417V41.0459H1360.38V48.5417H1349.62ZM1398.02 48.5417V41.0459H1408.78V48.5417H1398.02ZM1417.38 41.0459H1412.01V48.5417H1417.38V41.0459ZM1366.83 48.5417V41.0459H1377.59V48.5417H1366.83ZM1380.81 48.5417V41.0459H1391.57V48.5417H1380.81ZM1346.4 56.0375H1341.02V63.5334H1346.4V56.0375ZM1349.62 63.5334V56.0375H1360.38V63.5334H1349.62ZM1398.02 63.5334V56.0375H1408.78V63.5334H1398.02ZM1417.38 56.0375H1412.01V63.5334H1417.38V56.0375ZM1366.83 63.5334V56.0375H1377.59V63.5334H1366.83ZM1380.81 63.5334V56.0375H1391.57V63.5334H1380.81ZM1346.4 71.0292H1341.02V78.525H1346.4V71.0292ZM1349.62 78.525V71.0292H1360.38V78.525H1349.62ZM1398.02 78.525V71.0292H1408.78V78.525H1398.02ZM1417.38 71.0292H1412.01V78.525H1417.38V71.0292ZM1366.83 78.525V71.0292H1377.59V78.525H1366.83ZM1380.81 78.525V71.0292H1391.57V78.525H1380.81ZM1346.4 86.0209H1341.02V93.5167H1346.4V86.0209ZM1349.62 93.5167V86.0209H1360.38V93.5167H1349.62ZM1398.02 93.5167V86.0209H1408.78V93.5167H1398.02ZM1417.38 86.0209H1412.01V93.5167H1417.38V86.0209ZM1366.83 93.5167V86.0209H1377.59V93.5167H1366.83ZM1380.81 93.5167V86.0209H1391.57V93.5167H1380.81ZM1346.4 101.013H1341.02V108.508H1346.4V101.013ZM1349.62 108.508V101.013H1360.38V108.508H1349.62ZM1398.02 108.508V101.013H1408.78V108.508H1398.02ZM1417.38 101.013H1412.01V108.508H1417.38V101.013ZM1366.83 108.508V101.013H1377.59V108.508H1366.83ZM1380.81 108.508V101.013H1391.57V108.508H1380.81ZM1346.4 116.004H1341.02V123.5H1346.4V116.004ZM1349.62 123.5V116.004H1360.38V123.5H1349.62ZM1398.02 123.5V116.004H1408.78V123.5H1398.02ZM1417.38 116.004H1412.01V123.5H1417.38V116.004ZM1366.83 123.5V116.004H1377.59V123.5H1366.83ZM1380.81 123.5V116.004H1391.57V123.5H1380.81ZM1346.4 130.996H1341.02V138.492H1346.4V130.996ZM1349.62 138.492V130.996H1360.38V138.492H1349.62ZM1398.02 138.492V130.996H1408.78V138.492H1398.02ZM1417.38 130.996H1412.01V138.492H1417.38V130.996ZM1366.83 138.492V130.996H1377.59V138.492H1366.83ZM1380.81 138.492V130.996H1391.57V138.492H1380.81ZM1346.4 145.988H1341.02V153.483H1346.4V145.988ZM1349.62 153.483V145.988H1360.38V153.483H1349.62ZM1398.02 153.483V145.988H1408.78V153.483H1398.02ZM1417.38 145.988H1412.01V153.483H1417.38V145.988ZM1366.83 153.483V145.988H1377.59V153.483H1366.83ZM1380.81 153.483V145.988H1391.57V153.483H1380.81ZM1346.4 160.979H1341.02V168.475H1346.4V160.979ZM1349.62 168.475V160.979H1360.38V168.475H1349.62ZM1398.02 168.475V160.979H1408.78V168.475H1398.02ZM1417.38 160.979H1412.01V168.475H1417.38V160.979ZM1366.83 168.475V160.979H1377.59V168.475H1366.83ZM1380.81 168.475V160.979H1391.57V168.475H1380.81ZM1346.4 175.971H1341.02V183.467H1346.4V175.971ZM1349.62 183.467V175.971H1360.38V183.467H1349.62ZM1398.02 183.467V175.971H1408.78V183.467H1398.02ZM1417.38 175.971H1412.01V183.467H1417.38V175.971ZM1366.83 183.467V175.971H1377.59V183.467H1366.83ZM1380.81 183.467V175.971H1391.57V183.467H1380.81ZM1346.4 190.963H1341.02V198.458H1346.4V190.963ZM1349.62 198.458V190.963H1360.38V198.458H1349.62ZM1398.02 198.458V190.963H1408.78V198.458H1398.02ZM1417.38 190.963H1412.01V198.458H1417.38V190.963ZM1366.83 198.458V190.963H1377.59V198.458H1366.83ZM1380.81 198.458V190.963H1391.57V198.458H1380.81ZM1346.4 205.954H1341.02V213.45H1346.4V205.954ZM1349.62 213.45V205.954H1360.38V213.45H1349.62ZM1398.02 213.45V205.954H1408.78V213.45H1398.02ZM1417.38 205.954H1412.01V213.45H1417.38V205.954ZM1366.83 213.45V205.954H1377.59V213.45H1366.83ZM1380.81 213.45V205.954H1391.57V213.45H1380.81ZM1346.4 220.946H1341.02V228.442H1346.4V220.946ZM1349.62 228.442V220.946H1360.38V228.442H1349.62ZM1398.02 228.442V220.946H1408.78V228.442H1398.02ZM1417.38 220.946H1412.01V228.442H1417.38V220.946ZM1366.83 228.442V220.946H1377.59V228.442H1366.83ZM1380.81 228.442V220.946H1391.57V228.442H1380.81ZM1346.4 235.938H1341.02V243.433H1346.4V235.938ZM1349.62 243.433V235.938H1360.38V243.433H1349.62ZM1398.02 243.433V235.938H1408.78V243.433H1398.02ZM1417.38 235.938H1412.01V243.433H1417.38V235.938ZM1366.83 243.433V235.938H1377.59V243.433H1366.83ZM1380.81 243.433V235.938H1391.57V243.433H1380.81Z" fill="#7C8AA6"/>
<path fill-rule="evenodd" clip-rule="evenodd" d="M1346.4 11.0625H1341.02V18.5584H1346.4V11.0625ZM1349.62 18.5584V11.0625H1360.38V18.5584H1349.62ZM1398.02 18.5584V11.0625H1408.78V18.5584H1398.02ZM1417.38 11.0625H1412.01V18.5584H1417.38V11.0625ZM1366.83 18.5584V11.0625H1377.59V18.5584H1366.83ZM1380.81 18.5584V11.0625H1391.57V18.5584H1380.81ZM1346.4 26.0542H1341.02V33.55H1346.4V26.0542ZM1349.62 33.55V26.0542H1360.38V33.55H1349.62ZM1398.02 33.55V26.0542H1408.78V33.55H1398.02ZM1417.38 26.0542H1412.01V33.55H1417.38V26.0542ZM1366.83 33.55V26.0542H1377.59V33.55H1366.83ZM1380.81 33.55V26.0542H1391.57V33.55H1380.81ZM1346.4 41.0459H1341.02V48.5417H1346.4V41.0459ZM1349.62 48.5417V41.0459H1360.38V48.5417H1349.62ZM1398.02 48.5417V41.0459H1408.78V48.5417H1398.02ZM1417.38 41.0459H1412.01V48.5417H1417.38V41.0459ZM1366.83 48.5417V41.0459H1377.59V48.5417H1366.83ZM1380.81 48.5417V41.0459H1391.57V48.5417H1380.81ZM1346.4 56.0375H1341.02V63.5334H1346.4V56.0375ZM1349.62 63.5334V56.0375H1360.38V63.5334H1349.62ZM1398.02 63.5334V56.0375H1408.78V63.5334H1398.02ZM1417.38 56.0375H1412.01V63.5334H1417.38V56.0375ZM1366.83 63.5334V56.0375H1377.59V63.5334H1366.83ZM1380.81 63.5334V56.0375H1391.57V63.5334H1380.81ZM1346.4 71.0292H1341.02V78.525H1346.4V71.0292ZM1349.62 78.525V71.0292H1360.38V78.525H1349.62ZM1398.02 78.525V71.0292H1408.78V78.525H1398.02ZM1417.38 71.0292H1412.01V78.525H1417.38V71.0292ZM1366.83 78.525V71.0292H1377.59V78.525H1366.83ZM1380.81 78.525V71.0292H1391.57V78.525H1380.81ZM1346.4 86.0209H1341.02V93.5167H1346.4V86.0209ZM1349.62 93.5167V86.0209H1360.38V93.5167H1349.62ZM1398.02 93.5167V86.0209H1408.78V93.5167H1398.02ZM1417.38 86.0209H1412.01V93.5167H1417.38V86.0209ZM1366.83 93.5167V86.0209H1377.59V93.5167H1366.83ZM1380.81 93.5167V86.0209H1391.57V93.5167H1380.81ZM1346.4 101.013H1341.02V108.508H1346.4V101.013ZM1349.62 108.508V101.013H1360.38V108.508H1349.62ZM1398.02 108.508V101.013H1408.78V108.508H1398.02ZM1417.38 101.013H1412.01V108.508H1417.38V101.013ZM1366.83 108.508V101.013H1377.59V108.508H1366.83ZM1380.81 108.508V101.013H1391.57V108.508H1380.81ZM1346.4 116.004H1341.02V123.5H1346.4V116.004ZM1349.62 123.5V116.004H1360.38V123.5H1349.62ZM1398.02 123.5V116.004H1408.78V123.5H1398.02ZM1417.38 116.004H1412.01V123.5H1417.38V116.004ZM1366.83 123.5V116.004H1377.59V123.5H1366.83ZM1380.81 123.5V116.004H1391.57V123.5H1380.81ZM1346.4 130.996H1341.02V138.492H1346.4V130.996ZM1349.62 138.492V130.996H1360.38V138.492H1349.62ZM1398.02 138.492V130.996H1408.78V138.492H1398.02ZM1417.38 130.996H1412.01V138.492H1417.38V130.996ZM1366.83 138.492V130.996H1377.59V138.492H1366.83ZM1380.81 138.492V130.996H1391.57V138.492H1380.81ZM1346.4 145.988H1341.02V153.483H1346.4V145.988ZM1349.62 153.483V145.988H1360.38V153.483H1349.62ZM1398.02 153.483V145.988H1408.78V153.483H1398.02ZM1417.38 145.988H1412.01V153.483H1417.38V145.988ZM1366.83 153.483V145.988H1377.59V153.483H1366.83ZM1380.81 153.483V145.988H1391.57V153.483H1380.81ZM1346.4 160.979H1341.02V168.475H1346.4V160.979ZM1349.62 168.475V160.979H1360.38V168.475H1349.62ZM1398.02 168.475V160.979H1408.78V168.475H1398.02ZM1417.38 160.979H1412.01V168.475H1417.38V160.979ZM1366.83 168.475V160.979H1377.59V168.475H1366.83ZM1380.81 168.475V160.979H1391.57V168.475H1380.81ZM1346.4 175.971H1341.02V183.467H1346.4V175.971ZM1349.62 183.467V175.971H1360.38V183.467H1349.62ZM1398.02 183.467V175.971H1408.78V183.467H1398.02ZM1417.38 175.971H1412.01V183.467H1417.38V175.971ZM1366.83 183.467V175.971H1377.59V183.467H1366.83ZM1380.81 183.467V175.971H1391.57V183.467H1380.81ZM1346.4 190.963H1341.02V198.458H1346.4V190.963ZM1349.62 198.458V190.963H1360.38V198.458H1349.62ZM1398.02 198.458V190.963H1408.78V198.458H1398.02ZM1417.38 190.963H1412.01V198.458H1417.38V190.963ZM1366.83 198.458V190.963H1377.59V198.458H1366.83ZM1380.81 198.458V190.963H1391.57V198.458H1380.81ZM1346.4 205.954H1341.02V213.45H1346.4V205.954ZM1349.62 213.45V205.954H1360.38V213.45H1349.62ZM1398.02 213.45V205.954H1408.78V213.45H1398.02ZM1417.38 205.954H1412.01V213.45H1417.38V205.954ZM1366.83 213.45V205.954H1377.59V213.45H1366.83ZM1380.81 213.45V205.954H1391.57V213.45H1380.81ZM1346.4 220.946H1341.02V228.442H1346.4V220.946ZM1349.62 228.442V220.946H1360.38V228.442H1349.62ZM1398.02 228.442V220.946H1408.78V228.442H1398.02ZM1417.38 220.946H1412.01V228.442H1417.38V220.946ZM1366.83 228.442V220.946H1377.59V228.442H1366.83ZM1380.81 228.442V220.946H1391.57V228.442H1380.81ZM1346.4 235.938H1341.02V243.433H1346.4V235.938ZM1349.62 243.433V235.938H1360.38V243.433H1349.62ZM1398.02 243.433V235.938H1408.78V243.433H1398.02ZM1417.38 235.938H1412.01V243.433H1417.38V235.938ZM1366.83 243.433V235.938H1377.59V243.433H1366.83ZM1380.81 243.433V235.938H1391.57V243.433H1380.81Z" fill="black" fill-opacity="0.2"/>
<path fill-rule="evenodd" clip-rule="evenodd" d="M1346.4 11.0625H1341.02V18.5584H1346.4V11.0625ZM1349.62 18.5584V11.0625H1360.38V18.5584H1349.62ZM1398.02 18.5584V11.0625H1408.78V18.5584H1398.02ZM1417.38 11.0625H1412.01V18.5584H1417.38V11.0625ZM1366.83 18.5584V11.0625H1377.59V18.5584H1366.83ZM1380.81 18.5584V11.0625H1391.57V18.5584H1380.81ZM1346.4 26.0542H1341.02V33.55H1346.4V26.0542ZM1349.62 33.55V26.0542H1360.38V33.55H1349.62ZM1398.02 33.55V26.0542H1408.78V33.55H1398.02ZM1417.38 26.0542H1412.01V33.55H1417.38V26.0542ZM1366.83 33.55V26.0542H1377.59V33.55H1366.83ZM1380.81 33.55V26.0542H1391.57V33.55H1380.81ZM1346.4 41.0459H1341.02V48.5417H1346.4V41.0459ZM1349.62 48.5417V41.0459H1360.38V48.5417H1349.62ZM1398.02 48.5417V41.0459H1408.78V48.5417H1398.02ZM1417.38 41.0459H1412.01V48.5417H1417.38V41.0459ZM1366.83 48.5417V41.0459H1377.59V48.5417H1366.83ZM1380.81 48.5417V41.0459H1391.57V48.5417H1380.81ZM1346.4 56.0375H1341.02V63.5334H1346.4V56.0375ZM1349.62 63.5334V56.0375H1360.38V63.5334H1349.62ZM1398.02 63.5334V56.0375H1408.78V63.5334H1398.02ZM1417.38 56.0375H1412.01V63.5334H1417.38V56.0375ZM1366.83 63.5334V56.0375H1377.59V63.5334H1366.83ZM1380.81 63.5334V56.0375H1391.57V63.5334H1380.81ZM1346.4 71.0292H1341.02V78.525H1346.4V71.0292ZM1349.62 78.525V71.0292H1360.38V78.525H1349.62ZM1398.02 78.525V71.0292H1408.78V78.525H1398.02ZM1417.38 71.0292H1412.01V78.525H1417.38V71.0292ZM1366.83 78.525V71.0292H1377.59V78.525H1366.83ZM1380.81 78.525V71.0292H1391.57V78.525H1380.81ZM1346.4 86.0209H1341.02V93.5167H1346.4V86.0209ZM1349.62 93.5167V86.0209H1360.38V93.5167H1349.62ZM1398.02 93.5167V86.0209H1408.78V93.5167H1398.02ZM1417.38 86.0209H1412.01V93.5167H1417.38V86.0209ZM1366.83 93.5167V86.0209H1377.59V93.5167H1366.83ZM1380.81 93.5167V86.0209H1391.57V93.5167H1380.81ZM1346.4 101.013H1341.02V108.508H1346.4V101.013ZM1349.62 108.508V101.013H1360.38V108.508H1349.62ZM1398.02 108.508V101.013H1408.78V108.508H1398.02ZM1417.38 101.013H1412.01V108.508H1417.38V101.013ZM1366.83 108.508V101.013H1377.59V108.508H1366.83ZM1380.81 108.508V101.013H1391.57V108.508H1380.81ZM1346.4 116.004H1341.02V123.5H1346.4V116.004ZM1349.62 123.5V116.004H1360.38V123.5H1349.62ZM1398.02 123.5V116.004H1408.78V123.5H1398.02ZM1417.38 116.004H1412.01V123.5H1417.38V116.004ZM1366.83 123.5V116.004H1377.59V123.5H1366.83ZM1380.81 123.5V116.004H1391.57V123.5H1380.81ZM1346.4 130.996H1341.02V138.492H1346.4V130.996ZM1349.62 138.492V130.996H1360.38V138.492H1349.62ZM1398.02 138.492V130.996H1408.78V138.492H1398.02ZM1417.38 130.996H1412.01V138.492H1417.38V130.996ZM1366.83 138.492V130.996H1377.59V138.492H1366.83ZM1380.81 138.492V130.996H1391.57V138.492H1380.81ZM1346.4 145.988H1341.02V153.483H1346.4V145.988ZM1349.62 153.483V145.988H1360.38V153.483H1349.62ZM1398.02 153.483V145.988H1408.78V153.483H1398.02ZM1417.38 145.988H1412.01V153.483H1417.38V145.988ZM1366.83 153.483V145.988H1377.59V153.483H1366.83ZM1380.81 153.483V145.988H1391.57V153.483H1380.81ZM1346.4 160.979H1341.02V168.475H1346.4V160.979ZM1349.62 168.475V160.979H1360.38V168.475H1349.62ZM1398.02 168.475V160.979H1408.78V168.475H1398.02ZM1417.38 160.979H1412.01V168.475H1417.38V160.979ZM1366.83 168.475V160.979H1377.59V168.475H1366.83ZM1380.81 168.475V160.979H1391.57V168.475H1380.81ZM1346.4 175.971H1341.02V183.467H1346.4V175.971ZM1349.62 183.467V175.971H1360.38V183.467H1349.62ZM1398.02 183.467V175.971H1408.78V183.467H1398.02ZM1417.38 175.971H1412.01V183.467H1417.38V175.971ZM1366.83 183.467V175.971H1377.59V183.467H1366.83ZM1380.81 183.467V175.971H1391.57V183.467H1380.81ZM1346.4 190.963H1341.02V198.458H1346.4V190.963ZM1349.62 198.458V190.963H1360.38V198.458H1349.62ZM1398.02 198.458V190.963H1408.78V198.458H1398.02ZM1417.38 190.963H1412.01V198.458H1417.38V190.963ZM1366.83 198.458V190.963H1377.59V198.458H1366.83ZM1380.81 198.458V190.963H1391.57V198.458H1380.81ZM1346.4 205.954H1341.02V213.45H1346.4V205.954ZM1349.62 213.45V205.954H1360.38V213.45H1349.62ZM1398.02 213.45V205.954H1408.78V213.45H1398.02ZM1417.38 205.954H1412.01V213.45H1417.38V205.954ZM1366.83 213.45V205.954H1377.59V213.45H1366.83ZM1380.81 213.45V205.954H1391.57V213.45H1380.81ZM1346.4 220.946H1341.02V228.442H1346.4V220.946ZM1349.62 228.442V220.946H1360.38V228.442H1349.62ZM1398.02 228.442V220.946H1408.78V228.442H1398.02ZM1417.38 220.946H1412.01V228.442H1417.38V220.946ZM1366.83 228.442V220.946H1377.59V228.442H1366.83ZM1380.81 228.442V220.946H1391.57V228.442H1380.81ZM1346.4 235.938H1341.02V243.433H1346.4V235.938ZM1349.62 243.433V235.938H1360.38V243.433H1349.62ZM1398.02 243.433V235.938H1408.78V243.433H1398.02ZM1417.38 235.938H1412.01V243.433H1417.38V235.938ZM1366.83 243.433V235.938H1377.59V243.433H1366.83ZM1380.81 243.433V235.938H1391.57V243.433H1380.81Z" fill="#4D5E80"/>
<path d="M1336.8 0.354187L1294.94 12V247L1336.8 252V0.354187Z" fill="#6B7A99"/>
</svg>
