<svg width="1423" height="254" viewBox="0 0 1423 254" fill="none" xmlns="http://www.w3.org/2000/svg">
<path d="M190 111V247H405L429.866 240.915V115.949L405 111L359.501 111V107.459L357 107H352V111L348.578 111V107.459L346 107L341 107V111L257.228 111V107.459L254 107H249V111L246.305 111V107.459L243 107L238 107V111H190Z" fill="#7C8AA6"/>
<path fill-rule="evenodd" clip-rule="evenodd" d="M254 120H249V127H254V120ZM257 127V120H267V127H257ZM273 127V120H283V127H273ZM286 127V120H296V127H286ZM254 134H249V141H254V134ZM257 141V134H267V141H257ZM273 141V134H283V141H273ZM286 141V134H296V141H286ZM254 148H249V155H254V148ZM257 155V148H267V155H257ZM273 155V148H283V155H273ZM286 155V148H296V155H286ZM254 162H249V169H254V162ZM257 169V162H267V169H257ZM273 169V162H283V169H273ZM286 169V162H296V169H286ZM254 176H249V183H254V176ZM257 183V176H267V183H257ZM273 183V176H283V183H273ZM286 183V176H296V183H286ZM254 190H249V197H254V190ZM257 197V190H267V197H257ZM273 197V190H283V197H273ZM286 197V190H296V197H286ZM254 204H249V211H254V204ZM257 211V204H267V211H257ZM273 211V204H283V211H273ZM286 211V204H296V211H286ZM254 218H249V225H254V218ZM257 225V218H267V225H257ZM273 225V218H283V225H273ZM286 225V218H296V225H286ZM254 232H249V239H254V232ZM257 239V232H267V239H257ZM273 239V232H283V239H273ZM286 239V232H296V239H286ZM225 127V120H235V127H225ZM243 120H238V127H243V120ZM196 127V120H206V127H196ZM209 127V120H219V127H209ZM225 141V134H235V141H225ZM243 134H238V141H243V134ZM196 141V134H206V141H196ZM209 141V134H219V141H209ZM225 155V148H235V155H225ZM243 148H238V155H243V148ZM196 155V148H206V155H196ZM209 155V148H219V155H209ZM225 169V162H235V169H225ZM243 162H238V169H243V162ZM196 169V162H206V169H196ZM209 169V162H219V169H209ZM225 183V176H235V183H225ZM243 176H238V183H243V176ZM196 183V176H206V183H196ZM209 183V176H219V183H209ZM225 197V190H235V197H225ZM243 190H238V197H243V190ZM196 197V190H206V197H196ZM209 197V190H219V197H209ZM225 211V204H235V211H225ZM243 204H238V211H243V204ZM196 211V204H206V211H196ZM209 211V204H219V211H209ZM225 225V218H235V225H225ZM243 218H238V225H243V218ZM196 225V218H206V225H196ZM209 225V218H219V225H209ZM225 239V232H235V239H225ZM243 232H238V239H243V232ZM196 239V232H206V239H196ZM209 239V232H219V239H209ZM357 120H352V127H357V120ZM360 127V120H370V127H360ZM376 127V120H386V127H376ZM389 127V120H399V127H389ZM357 134H352V141H357V134ZM360 141V134H370V141H360ZM376 141V134H386V141H376ZM389 141V134H399V141H389ZM357 148H352V155H357V148ZM360 155V148H370V155H360ZM376 155V148H386V155H376ZM389 155V148H399V155H389ZM357 162H352V169H357V162ZM360 169V162H370V169H360ZM376 169V162H386V169H376ZM389 169V162H399V169H389ZM357 176H352V183H357V176ZM360 183V176H370V183H360ZM376 183V176H386V183H376ZM389 183V176H399V183H389ZM357 190H352V197H357V190ZM360 197V190H370V197H360ZM376 197V190H386V197H376ZM389 197V190H399V197H389ZM357 204H352V211H357V204ZM360 211V204H370V211H360ZM376 211V204H386V211H376ZM389 211V204H399V211H389ZM357 218H352V225H357V218ZM360 225V218H370V225H360ZM376 225V218H386V225H376ZM389 225V218H399V225H389ZM357 232H352V239H357V232ZM360 239V232H370V239H360ZM376 239V232H386V239H376ZM389 239V232H399V239H389ZM328 127V120H338V127H328ZM346 120H341V127H346V120ZM299 127V120H309V127H299ZM312 127V120H322V127H312ZM328 141V134H338V141H328ZM346 134H341V141H346V134ZM299 141V134H309V141H299ZM312 141V134H322V141H312ZM328 155V148H338V155H328ZM346 148H341V155H346V148ZM299 155V148H309V155H299ZM312 155V148H322V155H312ZM328 169V162H338V169H328ZM346 162H341V169H346V162ZM299 169V162H309V169H299ZM312 169V162H322V169H312ZM328 183V176H338V183H328ZM346 176H341V183H346V176ZM299 183V176H309V183H299ZM312 183V176H322V183H312ZM328 197V190H338V197H328ZM346 190H341V197H346V190ZM299 197V190H309V197H299ZM312 197V190H322V197H312ZM328 211V204H338V211H328ZM346 204H341V211H346V204ZM299 211V204H309V211H299ZM312 211V204H322V211H312ZM328 225V218H338V225H328ZM346 218H341V225H346V218ZM299 225V218H309V225H299ZM312 225V218H322V225H312ZM328 239V232H338V239H328ZM346 232H341V239H346V232ZM299 239V232H309V239H299ZM312 239V232H322V239H312Z" fill="#4D5E80"/>
<path d="M246.305 107.459L243 107V111L246.305 111V107.459Z" fill="#6B7A99"/>
<path d="M254 111L257.228 111V107.459L254 107V111Z" fill="#6B7A99"/>
<path d="M346 107V111L348.578 111V107.459L346 107Z" fill="#6B7A99"/>
<path d="M357 111L359.501 111V107.459L357 107V111Z" fill="#6B7A99"/>
<path d="M405 111V247L429.866 240.915V115.949L405 111Z" fill="#6B7A99"/>
<path d="M87 0.354187H0.650787V252H87L129 247V12L87 0.354187Z" fill="#7C8AA6"/>
<path fill-rule="evenodd" clip-rule="evenodd" d="M77.3651 11.0625H82.7619V18.5584H77.3651V11.0625ZM74.127 18.5584V11.0625H63.3333V18.5584H74.127ZM25.5556 18.5584V11.0625H14.7619V18.5584H25.5556ZM6.12698 11.0625H11.5238V18.5584H6.12698V11.0625ZM56.8571 18.5584V11.0625H46.0635V18.5584H56.8571ZM42.8254 18.5584V11.0625H32.0317V18.5584H42.8254ZM77.3651 26.0542H82.7619V33.55H77.3651V26.0542ZM74.127 33.55V26.0542H63.3333V33.55H74.127ZM25.5556 33.55V26.0542H14.7619V33.55H25.5556ZM6.12698 26.0542H11.5238V33.55H6.12698V26.0542ZM56.8571 33.55V26.0542H46.0635V33.55H56.8571ZM42.8254 33.55V26.0542H32.0317V33.55H42.8254ZM77.3651 41.0459H82.7619V48.5417H77.3651V41.0459ZM74.127 48.5417V41.0459H63.3333V48.5417H74.127ZM25.5556 48.5417V41.0459H14.7619V48.5417H25.5556ZM6.12698 41.0459H11.5238V48.5417H6.12698V41.0459ZM56.8571 48.5417V41.0459H46.0635V48.5417H56.8571ZM42.8254 48.5417V41.0459H32.0317V48.5417H42.8254ZM77.3651 56.0375H82.7619V63.5334H77.3651V56.0375ZM74.127 63.5334V56.0375H63.3333V63.5334H74.127ZM25.5556 63.5334V56.0375H14.7619V63.5334H25.5556ZM6.12698 56.0375H11.5238V63.5334H6.12698V56.0375ZM56.8571 63.5334V56.0375H46.0635V63.5334H56.8571ZM42.8254 63.5334V56.0375H32.0317V63.5334H42.8254ZM77.3651 71.0292H82.7619V78.525H77.3651V71.0292ZM74.127 78.525V71.0292H63.3333V78.525H74.127ZM25.5556 78.525V71.0292H14.7619V78.525H25.5556ZM6.12698 71.0292H11.5238V78.525H6.12698V71.0292ZM56.8571 78.525V71.0292H46.0635V78.525H56.8571ZM42.8254 78.525V71.0292H32.0317V78.525H42.8254ZM77.3651 86.0209H82.7619V93.5167H77.3651V86.0209ZM74.127 93.5167V86.0209H63.3333V93.5167H74.127ZM25.5556 93.5167V86.0209H14.7619V93.5167H25.5556ZM6.12698 86.0209H11.5238V93.5167H6.12698V86.0209ZM56.8571 93.5167V86.0209H46.0635V93.5167H56.8571ZM42.8254 93.5167V86.0209H32.0317V93.5167H42.8254ZM77.3651 101.013H82.7619V108.508H77.3651V101.013ZM74.127 108.508V101.013H63.3333V108.508H74.127ZM25.5556 108.508V101.013H14.7619V108.508H25.5556ZM6.12698 101.013H11.5238V108.508H6.12698V101.013ZM56.8571 108.508V101.013H46.0635V108.508H56.8571ZM42.8254 108.508V101.013H32.0317V108.508H42.8254ZM77.3651 116.004H82.7619V123.5H77.3651V116.004ZM74.127 123.5V116.004H63.3333V123.5H74.127ZM25.5556 123.5V116.004H14.7619V123.5H25.5556ZM6.12698 116.004H11.5238V123.5H6.12698V116.004ZM56.8571 123.5V116.004H46.0635V123.5H56.8571ZM42.8254 123.5V116.004H32.0317V123.5H42.8254ZM77.3651 130.996H82.7619V138.492H77.3651V130.996ZM74.127 138.492V130.996H63.3333V138.492H74.127ZM25.5556 138.492V130.996H14.7619V138.492H25.5556ZM6.12698 130.996H11.5238V138.492H6.12698V130.996ZM56.8571 138.492V130.996H46.0635V138.492H56.8571ZM42.8254 138.492V130.996H32.0317V138.492H42.8254ZM77.3651 145.988H82.7619V153.483H77.3651V145.988ZM74.127 153.483V145.988H63.3333V153.483H74.127ZM25.5556 153.483V145.988H14.7619V153.483H25.5556ZM6.12698 145.988H11.5238V153.483H6.12698V145.988ZM56.8571 153.483V145.988H46.0635V153.483H56.8571ZM42.8254 153.483V145.988H32.0317V153.483H42.8254ZM77.3651 160.979H82.7619V168.475H77.3651V160.979ZM74.127 168.475V160.979H63.3333V168.475H74.127ZM25.5556 168.475V160.979H14.7619V168.475H25.5556ZM6.12698 160.979H11.5238V168.475H6.12698V160.979ZM56.8571 168.475V160.979H46.0635V168.475H56.8571ZM42.8254 168.475V160.979H32.0317V168.475H42.8254ZM77.3651 175.971H82.7619V183.467H77.3651V175.971ZM74.127 183.467V175.971H63.3333V183.467H74.127ZM25.5556 183.467V175.971H14.7619V183.467H25.5556ZM6.12698 175.971H11.5238V183.467H6.12698V175.971ZM56.8571 183.467V175.971H46.0635V183.467H56.8571ZM42.8254 183.467V175.971H32.0317V183.467H42.8254ZM77.3651 190.963H82.7619V198.458H77.3651V190.963ZM74.127 198.458V190.963H63.3333V198.458H74.127ZM25.5556 198.458V190.963H14.7619V198.458H25.5556ZM6.12698 190.963H11.5238V198.458H6.12698V190.963ZM56.8571 198.458V190.963H46.0635V198.458H56.8571ZM42.8254 198.458V190.963H32.0317V198.458H42.8254ZM77.3651 205.954H82.7619V213.45H77.3651V205.954ZM74.127 213.45V205.954H63.3333V213.45H74.127ZM25.5556 213.45V205.954H14.7619V213.45H25.5556ZM6.12698 205.954H11.5238V213.45H6.12698V205.954ZM56.8571 213.45V205.954H46.0635V213.45H56.8571ZM42.8254 213.45V205.954H32.0317V213.45H42.8254ZM77.3651 220.946H82.7619V228.442H77.3651V220.946ZM74.127 228.442V220.946H63.3333V228.442H74.127ZM25.5556 228.442V220.946H14.7619V228.442H25.5556ZM6.12698 220.946H11.5238V228.442H6.12698V220.946ZM56.8571 228.442V220.946H46.0635V228.442H56.8571ZM42.8254 228.442V220.946H32.0317V228.442H42.8254ZM77.3651 235.938H82.7619V243.433H77.3651V235.938ZM74.127 243.433V235.938H63.3333V243.433H74.127ZM25.5556 243.433V235.938H14.7619V243.433H25.5556ZM6.12698 235.938H11.5238V243.433H6.12698V235.938ZM56.8571 243.433V235.938H46.0635V243.433H56.8571ZM42.8254 243.433V235.938H32.0317V243.433H42.8254Z" fill="#7C8AA6"/>
<path fill-rule="evenodd" clip-rule="evenodd" d="M77.3651 11.0625H82.7619V18.5584H77.3651V11.0625ZM74.127 18.5584V11.0625H63.3333V18.5584H74.127ZM25.5556 18.5584V11.0625H14.7619V18.5584H25.5556ZM6.12698 11.0625H11.5238V18.5584H6.12698V11.0625ZM56.8571 18.5584V11.0625H46.0635V18.5584H56.8571ZM42.8254 18.5584V11.0625H32.0317V18.5584H42.8254ZM77.3651 26.0542H82.7619V33.55H77.3651V26.0542ZM74.127 33.55V26.0542H63.3333V33.55H74.127ZM25.5556 33.55V26.0542H14.7619V33.55H25.5556ZM6.12698 26.0542H11.5238V33.55H6.12698V26.0542ZM56.8571 33.55V26.0542H46.0635V33.55H56.8571ZM42.8254 33.55V26.0542H32.0317V33.55H42.8254ZM77.3651 41.0459H82.7619V48.5417H77.3651V41.0459ZM74.127 48.5417V41.0459H63.3333V48.5417H74.127ZM25.5556 48.5417V41.0459H14.7619V48.5417H25.5556ZM6.12698 41.0459H11.5238V48.5417H6.12698V41.0459ZM56.8571 48.5417V41.0459H46.0635V48.5417H56.8571ZM42.8254 48.5417V41.0459H32.0317V48.5417H42.8254ZM77.3651 56.0375H82.7619V63.5334H77.3651V56.0375ZM74.127 63.5334V56.0375H63.3333V63.5334H74.127ZM25.5556 63.5334V56.0375H14.7619V63.5334H25.5556ZM6.12698 56.0375H11.5238V63.5334H6.12698V56.0375ZM56.8571 63.5334V56.0375H46.0635V63.5334H56.8571ZM42.8254 63.5334V56.0375H32.0317V63.5334H42.8254ZM77.3651 71.0292H82.7619V78.525H77.3651V71.0292ZM74.127 78.525V71.0292H63.3333V78.525H74.127ZM25.5556 78.525V71.0292H14.7619V78.525H25.5556ZM6.12698 71.0292H11.5238V78.525H6.12698V71.0292ZM56.8571 78.525V71.0292H46.0635V78.525H56.8571ZM42.8254 78.525V71.0292H32.0317V78.525H42.8254ZM77.3651 86.0209H82.7619V93.5167H77.3651V86.0209ZM74.127 93.5167V86.0209H63.3333V93.5167H74.127ZM25.5556 93.5167V86.0209H14.7619V93.5167H25.5556ZM6.12698 86.0209H11.5238V93.5167H6.12698V86.0209ZM56.8571 93.5167V86.0209H46.0635V93.5167H56.8571ZM42.8254 93.5167V86.0209H32.0317V93.5167H42.8254ZM77.3651 101.013H82.7619V108.508H77.3651V101.013ZM74.127 108.508V101.013H63.3333V108.508H74.127ZM25.5556 108.508V101.013H14.7619V108.508H25.5556ZM6.12698 101.013H11.5238V108.508H6.12698V101.013ZM56.8571 108.508V101.013H46.0635V108.508H56.8571ZM42.8254 108.508V101.013H32.0317V108.508H42.8254ZM77.3651 116.004H82.7619V123.5H77.3651V116.004ZM74.127 123.5V116.004H63.3333V123.5H74.127ZM25.5556 123.5V116.004H14.7619V123.5H25.5556ZM6.12698 116.004H11.5238V123.5H6.12698V116.004ZM56.8571 123.5V116.004H46.0635V123.5H56.8571ZM42.8254 123.5V116.004H32.0317V123.5H42.8254ZM77.3651 130.996H82.7619V138.492H77.3651V130.996ZM74.127 138.492V130.996H63.3333V138.492H74.127ZM25.5556 138.492V130.996H14.7619V138.492H25.5556ZM6.12698 130.996H11.5238V138.492H6.12698V130.996ZM56.8571 138.492V130.996H46.0635V138.492H56.8571ZM42.8254 138.492V130.996H32.0317V138.492H42.8254ZM77.3651 145.988H82.7619V153.483H77.3651V145.988ZM74.127 153.483V145.988H63.3333V153.483H74.127ZM25.5556 153.483V145.988H14.7619V153.483H25.5556ZM6.12698 145.988H11.5238V153.483H6.12698V145.988ZM56.8571 153.483V145.988H46.0635V153.483H56.8571ZM42.8254 153.483V145.988H32.0317V153.483H42.8254ZM77.3651 160.979H82.7619V168.475H77.3651V160.979ZM74.127 168.475V160.979H63.3333V168.475H74.127ZM25.5556 168.475V160.979H14.7619V168.475H25.5556ZM6.12698 160.979H11.5238V168.475H6.12698V160.979ZM56.8571 168.475V160.979H46.0635V168.475H56.8571ZM42.8254 168.475V160.979H32.0317V168.475H42.8254ZM77.3651 175.971H82.7619V183.467H77.3651V175.971ZM74.127 183.467V175.971H63.3333V183.467H74.127ZM25.5556 183.467V175.971H14.7619V183.467H25.5556ZM6.12698 175.971H11.5238V183.467H6.12698V175.971ZM56.8571 183.467V175.971H46.0635V183.467H56.8571ZM42.8254 183.467V175.971H32.0317V183.467H42.8254ZM77.3651 190.963H82.7619V198.458H77.3651V190.963ZM74.127 198.458V190.963H63.3333V198.458H74.127ZM25.5556 198.458V190.963H14.7619V198.458H25.5556ZM6.12698 190.963H11.5238V198.458H6.12698V190.963ZM56.8571 198.458V190.963H46.0635V198.458H56.8571ZM42.8254 198.458V190.963H32.0317V198.458H42.8254ZM77.3651 205.954H82.7619V213.45H77.3651V205.954ZM74.127 213.45V205.954H63.3333V213.45H74.127ZM25.5556 213.45V205.954H14.7619V213.45H25.5556ZM6.12698 205.954H11.5238V213.45H6.12698V205.954ZM56.8571 213.45V205.954H46.0635V213.45H56.8571ZM42.8254 213.45V205.954H32.0317V213.45H42.8254ZM77.3651 220.946H82.7619V228.442H77.3651V220.946ZM74.127 228.442V220.946H63.3333V228.442H74.127ZM25.5556 228.442V220.946H14.7619V228.442H25.5556ZM6.12698 220.946H11.5238V228.442H6.12698V220.946ZM56.8571 228.442V220.946H46.0635V228.442H56.8571ZM42.8254 228.442V220.946H32.0317V228.442H42.8254ZM77.3651 235.938H82.7619V243.433H77.3651V235.938ZM74.127 243.433V235.938H63.3333V243.433H74.127ZM25.5556 243.433V235.938H14.7619V243.433H25.5556ZM6.12698 235.938H11.5238V243.433H6.12698V235.938ZM56.8571 243.433V235.938H46.0635V243.433H56.8571ZM42.8254 243.433V235.938H32.0317V243.433H42.8254Z" fill="black" fill-opacity="0.2"/>
<path fill-rule="evenodd" clip-rule="evenodd" d="M77.3651 11.0625H82.7619V18.5584H77.3651V11.0625ZM74.127 18.5584V11.0625H63.3333V18.5584H74.127ZM25.5556 18.5584V11.0625H14.7619V18.5584H25.5556ZM6.12698 11.0625H11.5238V18.5584H6.12698V11.0625ZM56.8571 18.5584V11.0625H46.0635V18.5584H56.8571ZM42.8254 18.5584V11.0625H32.0317V18.5584H42.8254ZM77.3651 26.0542H82.7619V33.55H77.3651V26.0542ZM74.127 33.55V26.0542H63.3333V33.55H74.127ZM25.5556 33.55V26.0542H14.7619V33.55H25.5556ZM6.12698 26.0542H11.5238V33.55H6.12698V26.0542ZM56.8571 33.55V26.0542H46.0635V33.55H56.8571ZM42.8254 33.55V26.0542H32.0317V33.55H42.8254ZM77.3651 41.0459H82.7619V48.5417H77.3651V41.0459ZM74.127 48.5417V41.0459H63.3333V48.5417H74.127ZM25.5556 48.5417V41.0459H14.7619V48.5417H25.5556ZM6.12698 41.0459H11.5238V48.5417H6.12698V41.0459ZM56.8571 48.5417V41.0459H46.0635V48.5417H56.8571ZM42.8254 48.5417V41.0459H32.0317V48.5417H42.8254ZM77.3651 56.0375H82.7619V63.5334H77.3651V56.0375ZM74.127 63.5334V56.0375H63.3333V63.5334H74.127ZM25.5556 63.5334V56.0375H14.7619V63.5334H25.5556ZM6.12698 56.0375H11.5238V63.5334H6.12698V56.0375ZM56.8571 63.5334V56.0375H46.0635V63.5334H56.8571ZM42.8254 63.5334V56.0375H32.0317V63.5334H42.8254ZM77.3651 71.0292H82.7619V78.525H77.3651V71.0292ZM74.127 78.525V71.0292H63.3333V78.525H74.127ZM25.5556 78.525V71.0292H14.7619V78.525H25.5556ZM6.12698 71.0292H11.5238V78.525H6.12698V71.0292ZM56.8571 78.525V71.0292H46.0635V78.525H56.8571ZM42.8254 78.525V71.0292H32.0317V78.525H42.8254ZM77.3651 86.0209H82.7619V93.5167H77.3651V86.0209ZM74.127 93.5167V86.0209H63.3333V93.5167H74.127ZM25.5556 93.5167V86.0209H14.7619V93.5167H25.5556ZM6.12698 86.0209H11.5238V93.5167H6.12698V86.0209ZM56.8571 93.5167V86.0209H46.0635V93.5167H56.8571ZM42.8254 93.5167V86.0209H32.0317V93.5167H42.8254ZM77.3651 101.013H82.7619V108.508H77.3651V101.013ZM74.127 108.508V101.013H63.3333V108.508H74.127ZM25.5556 108.508V101.013H14.7619V108.508H25.5556ZM6.12698 101.013H11.5238V108.508H6.12698V101.013ZM56.8571 108.508V101.013H46.0635V108.508H56.8571ZM42.8254 108.508V101.013H32.0317V108.508H42.8254ZM77.3651 116.004H82.7619V123.5H77.3651V116.004ZM74.127 123.5V116.004H63.3333V123.5H74.127ZM25.5556 123.5V116.004H14.7619V123.5H25.5556ZM6.12698 116.004H11.5238V123.5H6.12698V116.004ZM56.8571 123.5V116.004H46.0635V123.5H56.8571ZM42.8254 123.5V116.004H32.0317V123.5H42.8254ZM77.3651 130.996H82.7619V138.492H77.3651V130.996ZM74.127 138.492V130.996H63.3333V138.492H74.127ZM25.5556 138.492V130.996H14.7619V138.492H25.5556ZM6.12698 130.996H11.5238V138.492H6.12698V130.996ZM56.8571 138.492V130.996H46.0635V138.492H56.8571ZM42.8254 138.492V130.996H32.0317V138.492H42.8254ZM77.3651 145.988H82.7619V153.483H77.3651V145.988ZM74.127 153.483V145.988H63.3333V153.483H74.127ZM25.5556 153.483V145.988H14.7619V153.483H25.5556ZM6.12698 145.988H11.5238V153.483H6.12698V145.988ZM56.8571 153.483V145.988H46.0635V153.483H56.8571ZM42.8254 153.483V145.988H32.0317V153.483H42.8254ZM77.3651 160.979H82.7619V168.475H77.3651V160.979ZM74.127 168.475V160.979H63.3333V168.475H74.127ZM25.5556 168.475V160.979H14.7619V168.475H25.5556ZM6.12698 160.979H11.5238V168.475H6.12698V160.979ZM56.8571 168.475V160.979H46.0635V168.475H56.8571ZM42.8254 168.475V160.979H32.0317V168.475H42.8254ZM77.3651 175.971H82.7619V183.467H77.3651V175.971ZM74.127 183.467V175.971H63.3333V183.467H74.127ZM25.5556 183.467V175.971H14.7619V183.467H25.5556ZM6.12698 175.971H11.5238V183.467H6.12698V175.971ZM56.8571 183.467V175.971H46.0635V183.467H56.8571ZM42.8254 183.467V175.971H32.0317V183.467H42.8254ZM77.3651 190.963H82.7619V198.458H77.3651V190.963ZM74.127 198.458V190.963H63.3333V198.458H74.127ZM25.5556 198.458V190.963H14.7619V198.458H25.5556ZM6.12698 190.963H11.5238V198.458H6.12698V190.963ZM56.8571 198.458V190.963H46.0635V198.458H56.8571ZM42.8254 198.458V190.963H32.0317V198.458H42.8254ZM77.3651 205.954H82.7619V213.45H77.3651V205.954ZM74.127 213.45V205.954H63.3333V213.45H74.127ZM25.5556 213.45V205.954H14.7619V213.45H25.5556ZM6.12698 205.954H11.5238V213.45H6.12698V205.954ZM56.8571 213.45V205.954H46.0635V213.45H56.8571ZM42.8254 213.45V205.954H32.0317V213.45H42.8254ZM77.3651 220.946H82.7619V228.442H77.3651V220.946ZM74.127 228.442V220.946H63.3333V228.442H74.127ZM25.5556 228.442V220.946H14.7619V228.442H25.5556ZM6.12698 220.946H11.5238V228.442H6.12698V220.946ZM56.8571 228.442V220.946H46.0635V228.442H56.8571ZM42.8254 228.442V220.946H32.0317V228.442H42.8254ZM77.3651 235.938H82.7619V243.433H77.3651V235.938ZM74.127 243.433V235.938H63.3333V243.433H74.127ZM25.5556 243.433V235.938H14.7619V243.433H25.5556ZM6.12698 235.938H11.5238V243.433H6.12698V235.938ZM56.8571 243.433V235.938H46.0635V243.433H56.8571ZM42.8254 243.433V235.938H32.0317V243.433H42.8254Z" fill="#4D5E80"/>
<path d="M87 0.354187L129 12V247L87 252V0.354187Z" fill="#6B7A99"/>
<path d="M606.539 30.4362V238.358L594 247H548L537.427 251.85H452.253V1.65311H537.427L548 12H551V10L560 7.00003L570 7L572.662 10.1041V12H594L606.539 30.4362Z" fill="#7C8AA6"/>
<path fill-rule="evenodd" clip-rule="evenodd" d="M460.771 12.2998H455.447V19.7524H460.771V12.2998ZM463.965 19.7524V12.2998H474.611V19.7524H463.965ZM511.875 19.7524V12.2998H522.521V19.7524H511.875ZM531.039 12.2998H525.715V19.7524H531.039V12.2998ZM480.999 19.7524V12.2998H491.646V19.7524H480.999ZM494.84 19.7524V12.2998H505.487V19.7524H494.84ZM460.771 27.2051H455.447V34.6578H460.771V27.2051ZM463.965 34.6578V27.2051H474.611V34.6578H463.965ZM511.875 34.6578V27.2051H522.521V34.6578H511.875ZM531.039 27.2051H525.715V34.6578H531.039V27.2051ZM480.999 34.6578V27.2051H491.646V34.6578H480.999ZM494.84 34.6578V27.2051H505.487V34.6578H494.84ZM460.771 42.1105H455.447V49.5631H460.771V42.1105ZM463.965 49.5631V42.1105H474.611V49.5631H463.965ZM511.875 49.5631V42.1105H522.521V49.5631H511.875ZM531.039 42.1105H525.715V49.5631H531.039V42.1105ZM480.999 49.5631V42.1105H491.646V49.5631H480.999ZM494.84 49.5631V42.1105H505.487V49.5631H494.84ZM460.771 57.0158H455.447V64.4685H460.771V57.0158ZM463.965 64.4685V57.0158H474.611V64.4685H463.965ZM511.875 64.4685V57.0158H522.521V64.4685H511.875ZM531.039 57.0158H525.715V64.4685H531.039V57.0158ZM480.999 64.4685V57.0158H491.646V64.4685H480.999ZM494.84 64.4685V57.0158H505.487V64.4685H494.84ZM460.771 71.9212H455.447V79.3738H460.771V71.9212ZM463.965 79.3738V71.9212H474.611V79.3738H463.965ZM511.875 79.3738V71.9212H522.521V79.3738H511.875ZM531.039 71.9212H525.715V79.3738H531.039V71.9212ZM480.999 79.3738V71.9212H491.646V79.3738H480.999ZM494.84 79.3738V71.9212H505.487V79.3738H494.84ZM460.771 86.8265H455.447V94.2792H460.771V86.8265ZM463.965 94.2792V86.8265H474.611V94.2792H463.965ZM511.875 94.2792V86.8265H522.521V94.2792H511.875ZM531.039 86.8265H525.715V94.2792H531.039V86.8265ZM480.999 94.2792V86.8265H491.646V94.2792H480.999ZM494.84 94.2792V86.8265H505.487V94.2792H494.84ZM460.771 101.732H455.447V109.185H460.771V101.732ZM463.965 109.185V101.732H474.611V109.185H463.965ZM511.875 109.185V101.732H522.521V109.185H511.875ZM531.039 101.732H525.715V109.185H531.039V101.732ZM480.999 109.185V101.732H491.646V109.185H480.999ZM494.84 109.185V101.732H505.487V109.185H494.84ZM460.771 116.637H455.447V124.09H460.771V116.637ZM463.965 124.09V116.637H474.611V124.09H463.965ZM511.875 124.09V116.637H522.521V124.09H511.875ZM531.039 116.637H525.715V124.09H531.039V116.637ZM480.999 124.09V116.637H491.646V124.09H480.999ZM494.84 124.09V116.637H505.487V124.09H494.84ZM460.771 131.543H455.447V138.995H460.771V131.543ZM463.965 138.995V131.543H474.611V138.995H463.965ZM511.875 138.995V131.543H522.521V138.995H511.875ZM531.039 131.543H525.715V138.995H531.039V131.543ZM480.999 138.995V131.543H491.646V138.995H480.999ZM494.84 138.995V131.543H505.487V138.995H494.84ZM460.771 146.448H455.447V153.901H460.771V146.448ZM463.965 153.901V146.448H474.611V153.901H463.965ZM511.875 153.901V146.448H522.521V153.901H511.875ZM531.039 146.448H525.715V153.901H531.039V146.448ZM480.999 153.901V146.448H491.646V153.901H480.999ZM494.84 153.901V146.448H505.487V153.901H494.84ZM460.771 161.353H455.447V168.806H460.771V161.353ZM463.965 168.806V161.353H474.611V168.806H463.965ZM511.875 168.806V161.353H522.521V168.806H511.875ZM531.039 161.353H525.715V168.806H531.039V161.353ZM480.999 168.806V161.353H491.646V168.806H480.999ZM494.84 168.806V161.353H505.487V168.806H494.84ZM460.771 176.259H455.447V183.711H460.771V176.259ZM463.965 183.711V176.259H474.611V183.711H463.965ZM511.875 183.711V176.259H522.521V183.711H511.875ZM531.039 176.259H525.715V183.711H531.039V176.259ZM480.999 183.711V176.259H491.646V183.711H480.999ZM494.84 183.711V176.259H505.487V183.711H494.84ZM460.771 191.164H455.447V198.617H460.771V191.164ZM463.965 198.617V191.164H474.611V198.617H463.965ZM511.875 198.617V191.164H522.521V198.617H511.875ZM531.039 191.164H525.715V198.617H531.039V191.164ZM480.999 198.617V191.164H491.646V198.617H480.999ZM494.84 198.617V191.164H505.487V198.617H494.84ZM460.771 206.069H455.447V213.522H460.771V206.069ZM463.965 213.522V206.069H474.611V213.522H463.965ZM511.875 213.522V206.069H522.521V213.522H511.875ZM531.039 206.069H525.715V213.522H531.039V206.069ZM480.999 213.522V206.069H491.646V213.522H480.999ZM494.84 213.522V206.069H505.487V213.522H494.84ZM460.771 220.975H455.447V228.427H460.771V220.975ZM463.965 228.427V220.975H474.611V228.427H463.965ZM511.875 228.427V220.975H522.521V228.427H511.875ZM531.039 220.975H525.715V228.427H531.039V220.975ZM480.999 228.427V220.975H491.646V228.427H480.999ZM494.84 228.427V220.975H505.487V228.427H494.84ZM460.771 235.88H455.447V243.333H460.771V235.88ZM463.965 243.333V235.88H474.611V243.333H463.965ZM511.875 243.333V235.88H522.521V243.333H511.875ZM531.039 235.88H525.715V243.333H531.039V235.88ZM480.999 243.333V235.88H491.646V243.333H480.999ZM494.84 243.333V235.88H505.487V243.333H494.84Z" fill="#4D5E80"/>
<path fill-rule="evenodd" clip-rule="evenodd" d="M554 22H559V26H554V22ZM554 36H559V40H554V36ZM554 50H559V54H554V50ZM554 64H559V68H554V64ZM554 78H559V82H554V78ZM554 92H559V96H554V92ZM554 106H559V110H554V106ZM554 120H559V124H554V120ZM554 134H559V138H554V134ZM554 148H559V152H554V148ZM554 162H559V166H554V162ZM554 176H559V180H554V176ZM554 190H559V194H554V190ZM554 204H559V208H554V204ZM554 218H559V222H554V218ZM554 232H559V236H554V232ZM562 22H567V29H562V22ZM562 36H567V43H562V36ZM562 50H567V57H562V50ZM562 64H567V71H562V64ZM562 78H567V85H562V78ZM562 92H567V99H562V92ZM562 106H567V113H562V106ZM562 120H567V127H562V120ZM562 134H567V141H562V134ZM562 148H567V155H562V148ZM562 162H567V169H562V162ZM562 176H567V183H562V176ZM562 190H567V197H562V190ZM562 204H567V211H562V204ZM562 218H567V225H562V218ZM562 232H567V239H562V232ZM573 22V29H583V22H573ZM586 22H591V29H586V22ZM573 36V43H583V36H573ZM586 36H591V43H586V36ZM573 50V57H583V50H573ZM586 50H591V57H586V50ZM573 64V71H583V64H573ZM586 64H591V71H586V64ZM573 78V85H583V78H573ZM586 78H591V85H586V78ZM573 92V99H583V92H573ZM586 92H591V99H586V92ZM573 106V113H583V106H573ZM586 106H591V113H586V106ZM573 120V127H583V120H573ZM586 120H591V127H586V120ZM573 134V141H583V134H573ZM586 134H591V141H586V134ZM573 148V155H583V148H573ZM586 148H591V155H586V148ZM573 162V169H583V162H573ZM586 162H591V169H586V162ZM573 176V183H583V176H573ZM586 176H591V183H586V176ZM573 190V197H583V190H573ZM586 190H591V197H586V190ZM573 204V211H583V204H573ZM586 204H591V211H586V204ZM573 218V225H583V218H573ZM586 218H591V225H586V218ZM573 232V239H583V232H573ZM586 232H591V239H586V232Z" fill="#4D5E80"/>
<path d="M548 247V12L537.427 1.65311V251.85L548 247Z" fill="#6B7A99"/>
<path d="M606.539 238.358V30.4362L594 12V247L606.539 238.358Z" fill="#6B7A99"/>
<path d="M572.662 12V10.1041L570 7V12H572.662Z" fill="#6B7A99"/>
<path d="M1234.16 111V247H1019.92L995.137 240.915V115.949L1019.92 111L1065.25 111V107.459L1067.75 107H1072.73V111L1076.14 111V107.459L1078.71 107L1083.69 107V111L1167.17 111V107.459L1170.38 107H1175.37V111L1178.05 111V107.459L1181.35 107L1186.33 107V111H1234.16Z" fill="#7C8AA6"/>
<path fill-rule="evenodd" clip-rule="evenodd" d="M1170.38 120H1175.37V127H1170.38V120ZM1167.39 127V120H1157.43V127H1167.39ZM1151.45 127V120H1141.49V127H1151.45ZM1138.5 127V120H1128.53V127H1138.5ZM1170.38 134H1175.37V141H1170.38V134ZM1167.39 141V134H1157.43V141H1167.39ZM1151.45 141V134H1141.49V141H1151.45ZM1138.5 141V134H1128.53V141H1138.5ZM1170.38 148H1175.37V155H1170.38V148ZM1167.39 155V148H1157.43V155H1167.39ZM1151.45 155V148H1141.49V155H1151.45ZM1138.5 155V148H1128.53V155H1138.5ZM1170.38 162H1175.37V169H1170.38V162ZM1167.39 169V162H1157.43V169H1167.39ZM1151.45 169V162H1141.49V169H1151.45ZM1138.5 169V162H1128.53V169H1138.5ZM1170.38 176H1175.37V183H1170.38V176ZM1167.39 183V176H1157.43V183H1167.39ZM1151.45 183V176H1141.49V183H1151.45ZM1138.5 183V176H1128.53V183H1138.5ZM1170.38 190H1175.37V197H1170.38V190ZM1167.39 197V190H1157.43V197H1167.39ZM1151.45 197V190H1141.49V197H1151.45ZM1138.5 197V190H1128.53V197H1138.5ZM1170.38 204H1175.37V211H1170.38V204ZM1167.39 211V204H1157.43V211H1167.39ZM1151.45 211V204H1141.49V211H1151.45ZM1138.5 211V204H1128.53V211H1138.5ZM1170.38 218H1175.37V225H1170.38V218ZM1167.39 225V218H1157.43V225H1167.39ZM1151.45 225V218H1141.49V225H1151.45ZM1138.5 225V218H1128.53V225H1138.5ZM1170.38 232H1175.37V239H1170.38V232ZM1167.39 239V232H1157.43V239H1167.39ZM1151.45 239V232H1141.49V239H1151.45ZM1138.5 239V232H1128.53V239H1138.5ZM1199.28 127V120H1189.32V127H1199.28ZM1181.35 120H1186.33V127H1181.35V120ZM1228.18 127V120H1218.21V127H1228.18ZM1215.23 127V120H1205.26V127H1215.23ZM1199.28 141V134H1189.32V141H1199.28ZM1181.35 134H1186.33V141H1181.35V134ZM1228.18 141V134H1218.21V141H1228.18ZM1215.23 141V134H1205.26V141H1215.23ZM1199.28 155V148H1189.32V155H1199.28ZM1181.35 148H1186.33V155H1181.35V148ZM1228.18 155V148H1218.21V155H1228.18ZM1215.23 155V148H1205.26V155H1215.23ZM1199.28 169V162H1189.32V169H1199.28ZM1181.35 162H1186.33V169H1181.35V162ZM1228.18 169V162H1218.21V169H1228.18ZM1215.23 169V162H1205.26V169H1215.23ZM1199.28 183V176H1189.32V183H1199.28ZM1181.35 176H1186.33V183H1181.35V176ZM1228.18 183V176H1218.21V183H1228.18ZM1215.23 183V176H1205.26V183H1215.23ZM1199.28 197V190H1189.32V197H1199.28ZM1181.35 190H1186.33V197H1181.35V190ZM1228.18 197V190H1218.21V197H1228.18ZM1215.23 197V190H1205.26V197H1215.23ZM1199.28 211V204H1189.32V211H1199.28ZM1181.35 204H1186.33V211H1181.35V204ZM1228.18 211V204H1218.21V211H1228.18ZM1215.23 211V204H1205.26V211H1215.23ZM1199.28 225V218H1189.32V225H1199.28ZM1181.35 218H1186.33V225H1181.35V218ZM1228.18 225V218H1218.21V225H1228.18ZM1215.23 225V218H1205.26V225H1215.23ZM1199.28 239V232H1189.32V239H1199.28ZM1181.35 232H1186.33V239H1181.35V232ZM1228.18 239V232H1218.21V239H1228.18ZM1215.23 239V232H1205.26V239H1215.23ZM1067.75 120H1072.73V127H1067.75V120ZM1064.76 127V120H1054.79V127H1064.76ZM1048.81 127V120H1038.85V127H1048.81ZM1035.86 127V120H1025.89V127H1035.86ZM1067.75 134H1072.73V141H1067.75V134ZM1064.76 141V134H1054.79V141H1064.76ZM1048.81 141V134H1038.85V141H1048.81ZM1035.86 141V134H1025.89V141H1035.86ZM1067.75 148H1072.73V155H1067.75V148ZM1064.76 155V148H1054.79V155H1064.76ZM1048.81 155V148H1038.85V155H1048.81ZM1035.86 155V148H1025.89V155H1035.86ZM1067.75 162H1072.73V169H1067.75V162ZM1064.76 169V162H1054.79V169H1064.76ZM1048.81 169V162H1038.85V169H1048.81ZM1035.86 169V162H1025.89V169H1035.86ZM1067.75 176H1072.73V183H1067.75V176ZM1064.76 183V176H1054.79V183H1064.76ZM1048.81 183V176H1038.85V183H1048.81ZM1035.86 183V176H1025.89V183H1035.86ZM1067.75 190H1072.73V197H1067.75V190ZM1064.76 197V190H1054.79V197H1064.76ZM1048.81 197V190H1038.85V197H1048.81ZM1035.86 197V190H1025.89V197H1035.86ZM1067.75 204H1072.73V211H1067.75V204ZM1064.76 211V204H1054.79V211H1064.76ZM1048.81 211V204H1038.85V211H1048.81ZM1035.86 211V204H1025.89V211H1035.86ZM1067.75 218H1072.73V225H1067.75V218ZM1064.76 225V218H1054.79V225H1064.76ZM1048.81 225V218H1038.85V225H1048.81ZM1035.86 225V218H1025.89V225H1035.86ZM1067.75 232H1072.73V239H1067.75V232ZM1064.76 239V232H1054.79V239H1064.76ZM1048.81 239V232H1038.85V239H1048.81ZM1035.86 239V232H1025.89V239H1035.86ZM1096.64 127V120H1086.68V127H1096.64ZM1078.71 120H1083.69V127H1078.71V120ZM1125.54 127V120H1115.58V127H1125.54ZM1112.59 127V120H1102.62V127H1112.59ZM1096.64 141V134H1086.68V141H1096.64ZM1078.71 134H1083.69V141H1078.71V134ZM1125.54 141V134H1115.58V141H1125.54ZM1112.59 141V134H1102.62V141H1112.59ZM1096.64 155V148H1086.68V155H1096.64ZM1078.71 148H1083.69V155H1078.71V148ZM1125.54 155V148H1115.58V155H1125.54ZM1112.59 155V148H1102.62V155H1112.59ZM1096.64 169V162H1086.68V169H1096.64ZM1078.71 162H1083.69V169H1078.71V162ZM1125.54 169V162H1115.58V169H1125.54ZM1112.59 169V162H1102.62V169H1112.59ZM1096.64 183V176H1086.68V183H1096.64ZM1078.71 176H1083.69V183H1078.71V176ZM1125.54 183V176H1115.58V183H1125.54ZM1112.59 183V176H1102.62V183H1112.59ZM1096.64 197V190H1086.68V197H1096.64ZM1078.71 190H1083.69V197H1078.71V190ZM1125.54 197V190H1115.58V197H1125.54ZM1112.59 197V190H1102.62V197H1112.59ZM1096.64 211V204H1086.68V211H1096.64ZM1078.71 204H1083.69V211H1078.71V204ZM1125.54 211V204H1115.58V211H1125.54ZM1112.59 211V204H1102.62V211H1112.59ZM1096.64 225V218H1086.68V225H1096.64ZM1078.71 218H1083.69V225H1078.71V218ZM1125.54 225V218H1115.58V225H1125.54ZM1112.59 225V218H1102.62V225H1112.59ZM1096.64 239V232H1086.68V239H1096.64ZM1078.71 232H1083.69V239H1078.71V232ZM1125.54 239V232H1115.58V239H1125.54ZM1112.59 239V232H1102.62V239H1112.59Z" fill="#4D5E80"/>
<path d="M1178.05 107.459L1181.35 107V111L1178.05 111V107.459Z" fill="#6B7A99"/>
<path d="M1170.38 111L1167.17 111V107.459L1170.38 107V111Z" fill="#6B7A99"/>
<path d="M1078.71 107V111L1076.14 111V107.459L1078.71 107Z" fill="#6B7A99"/>
<path d="M1067.75 111L1065.25 111V107.459L1067.75 107V111Z" fill="#6B7A99"/>
<path d="M1019.92 111V247L995.137 240.915V115.949L1019.92 111Z" fill="#6B7A99"/>
<path d="M1336.8 0.354187H1422.84V252H1336.8L1294.94 247V12L1336.8 0.354187Z" fill="#7C8AA6"/>
<path fill-rule="evenodd" clip-rule="evenodd" d="M1346.4 11.0625H1341.02V18.5584H1346.4V11.0625ZM1349.62 18.5584V11.0625H1360.38V18.5584H1349.62ZM1398.02 18.5584V11.0625H1408.78V18.5584H1398.02ZM1417.38 11.0625H1412.01V18.5584H1417.38V11.0625ZM1366.83 18.5584V11.0625H1377.59V18.5584H1366.83ZM1380.81 18.5584V11.0625H1391.57V18.5584H1380.81ZM1346.4 26.0542H1341.02V33.55H1346.4V26.0542ZM1349.62 33.55V26.0542H1360.38V33.55H1349.62ZM1398.02 33.55V26.0542H1408.78V33.55H1398.02ZM1417.38 26.0542H1412.01V33.55H1417.38V26.0542ZM1366.83 33.55V26.0542H1377.59V33.55H1366.83ZM1380.81 33.55V26.0542H1391.57V33.55H1380.81ZM1346.4 41.0459H1341.02V48.5417H1346.4V41.0459ZM1349.62 48.5417V41.0459H1360.38V48.5417H1349.62ZM1398.02 48.5417V41.0459H1408.78V48.5417H1398.02ZM1417.38 41.0459H1412.01V48.5417H1417.38V41.0459ZM1366.83 48.5417V41.0459H1377.59V48.5417H1366.83ZM1380.81 48.5417V41.0459H1391.57V48.5417H1380.81ZM1346.4 56.0375H1341.02V63.5334H1346.4V56.0375ZM1349.62 63.5334V56.0375H1360.38V63.5334H1349.62ZM1398.02 63.5334V56.0375H1408.78V63.5334H1398.02ZM1417.38 56.0375H1412.01V63.5334H1417.38V56.0375ZM1366.83 63.5334V56.0375H1377.59V63.5334H1366.83ZM1380.81 63.5334V56.0375H1391.57V63.5334H1380.81ZM1346.4 71.0292H1341.02V78.525H1346.4V71.0292ZM1349.62 78.525V71.0292H1360.38V78.525H1349.62ZM1398.02 78.525V71.0292H1408.78V78.525H1398.02ZM1417.38 71.0292H1412.01V78.525H1417.38V71.0292ZM1366.83 78.525V71.0292H1377.59V78.525H1366.83ZM1380.81 78.525V71.0292H1391.57V78.525H1380.81ZM1346.4 86.0209H1341.02V93.5167H1346.4V86.0209ZM1349.62 93.5167V86.0209H1360.38V93.5167H1349.62ZM1398.02 93.5167V86.0209H1408.78V93.5167H1398.02ZM1417.38 86.0209H1412.01V93.5167H1417.38V86.0209ZM1366.83 93.5167V86.0209H1377.59V93.5167H1366.83ZM1380.81 93.5167V86.0209H1391.57V93.5167H1380.81ZM1346.4 101.013H1341.02V108.508H1346.4V101.013ZM1349.62 108.508V101.013H1360.38V108.508H1349.62ZM1398.02 108.508V101.013H1408.78V108.508H1398.02ZM1417.38 101.013H1412.01V108.508H1417.38V101.013ZM1366.83 108.508V101.013H1377.59V108.508H1366.83ZM1380.81 108.508V101.013H1391.57V108.508H1380.81ZM1346.4 116.004H1341.02V123.5H1346.4V116.004ZM1349.62 123.5V116.004H1360.38V123.5H1349.62ZM1398.02 123.5V116.004H1408.78V123.5H1398.02ZM1417.38 116.004H1412.01V123.5H1417.38V116.004ZM1366.83 123.5V116.004H1377.59V123.5H1366.83ZM1380.81 123.5V116.004H1391.57V123.5H1380.81ZM1346.4 130.996H1341.02V138.492H1346.4V130.996ZM1349.62 138.492V130.996H1360.38V138.492H1349.62ZM1398.02 138.492V130.996H1408.78V138.492H1398.02ZM1417.38 130.996H1412.01V138.492H1417.38V130.996ZM1366.83 138.492V130.996H1377.59V138.492H1366.83ZM1380.81 138.492V130.996H1391.57V138.492H1380.81ZM1346.4 145.988H1341.02V153.483H1346.4V145.988ZM1349.62 153.483V145.988H1360.38V153.483H1349.62ZM1398.02 153.483V145.988H1408.78V153.483H1398.02ZM1417.38 145.988H1412.01V153.483H1417.38V145.988ZM1366.83 153.483V145.988H1377.59V153.483H1366.83ZM1380.81 153.483V145.988H1391.57V153.483H1380.81ZM1346.4 160.979H1341.02V168.475H1346.4V160.979ZM1349.62 168.475V160.979H1360.38V168.475H1349.62ZM1398.02 168.475V160.979H1408.78V168.475H1398.02ZM1417.38 160.979H1412.01V168.475H1417.38V160.979ZM1366.83 168.475V160.979H1377.59V168.475H1366.83ZM1380.81 168.475V160.979H1391.57V168.475H1380.81ZM1346.4 175.971H1341.02V183.467H1346.4V175.971ZM1349.62 183.467V175.971H1360.38V183.467H1349.62ZM1398.02 183.467V175.971H1408.78V183.467H1398.02ZM1417.38 175.971H1412.01V183.467H1417.38V175.971ZM1366.83 183.467V175.971H1377.59V183.467H1366.83ZM1380.81 183.467V175.971H1391.57V183.467H1380.81ZM1346.4 190.963H1341.02V198.458H1346.4V190.963ZM1349.62 198.458V190.963H1360.38V198.458H1349.62ZM1398.02 198.458V190.963H1408.78V198.458H1398.02ZM1417.38 190.963H1412.01V198.458H1417.38V190.963ZM1366.83 198.458V190.963H1377.59V198.458H1366.83ZM1380.81 198.458V190.963H1391.57V198.458H1380.81ZM1346.4 205.954H1341.02V213.45H1346.4V205.954ZM1349.62 213.45V205.954H1360.38V213.45H1349.62ZM1398.02 213.45V205.954H1408.78V213.45H1398.02ZM1417.38 205.954H1412.01V213.45H1417.38V205.954ZM1366.83 213.45V205.954H1377.59V213.45H1366.83ZM1380.81 213.45V205.954H1391.57V213.45H1380.81ZM1346.4 220.946H1341.02V228.442H1346.4V220.946ZM1349.62 228.442V220.946H1360.38V228.442H1349.62ZM1398.02 228.442V220.946H1408.78V228.442H1398.02ZM1417.38 220.946H1412.01V228.442H1417.38V220.946ZM1366.83 228.442V220.946H1377.59V228.442H1366.83ZM1380.81 228.442V220.946H1391.57V228.442H1380.81ZM1346.4 235.938H1341.02V243.433H1346.4V235.938ZM1349.62 243.433V235.938H1360.38V243.433H1349.62ZM1398.02 243.433V235.938H1408.78V243.433H1398.02ZM1417.38 235.938H1412.01V243.433H1417.38V235.938ZM1366.83 243.433V235.938H1377.59V243.433H1366.83ZM1380.81 243.433V235.938H1391.57V243.433H1380.81Z" fill="#7C8AA6"/>
<path fill-rule="evenodd" clip-rule="evenodd" d="M1346.4 11.0625H1341.02V18.5584H1346.4V11.0625ZM1349.62 18.5584V11.0625H1360.38V18.5584H1349.62ZM1398.02 18.5584V11.0625H1408.78V18.5584H1398.02ZM1417.38 11.0625H1412.01V18.5584H1417.38V11.0625ZM1366.83 18.5584V11.0625H1377.59V18.5584H1366.83ZM1380.81 18.5584V11.0625H1391.57V18.5584H1380.81ZM1346.4 26.0542H1341.02V33.55H1346.4V26.0542ZM1349.62 33.55V26.0542H1360.38V33.55H1349.62ZM1398.02 33.55V26.0542H1408.78V33.55H1398.02ZM1417.38 26.0542H1412.01V33.55H1417.38V26.0542ZM1366.83 33.55V26.0542H1377.59V33.55H1366.83ZM1380.81 33.55V26.0542H1391.57V33.55H1380.81ZM1346.4 41.0459H1341.02V48.5417H1346.4V41.0459ZM1349.62 48.5417V41.0459H1360.38V48.5417H1349.62ZM1398.02 48.5417V41.0459H1408.78V48.5417H1398.02ZM1417.38 41.0459H1412.01V48.5417H1417.38V41.0459ZM1366.83 48.5417V41.0459H1377.59V48.5417H1366.83ZM1380.81 48.5417V41.0459H1391.57V48.5417H1380.81ZM1346.4 56.0375H1341.02V63.5334H1346.4V56.0375ZM1349.62 63.5334V56.0375H1360.38V63.5334H1349.62ZM1398.02 63.5334V56.0375H1408.78V63.5334H1398.02ZM1417.38 56.0375H1412.01V63.5334H1417.38V56.0375ZM1366.83 63.5334V56.0375H1377.59V63.5334H1366.83ZM1380.81 63.5334V56.0375H1391.57V63.5334H1380.81ZM1346.4 71.0292H1341.02V78.525H1346.4V71.0292ZM1349.62 78.525V71.0292H1360.38V78.525H1349.62ZM1398.02 78.525V71.0292H1408.78V78.525H1398.02ZM1417.38 71.0292H1412.01V78.525H1417.38V71.0292ZM1366.83 78.525V71.0292H1377.59V78.525H1366.83ZM1380.81 78.525V71.0292H1391.57V78.525H1380.81ZM1346.4 86.0209H1341.02V93.5167H1346.4V86.0209ZM1349.62 93.5167V86.0209H1360.38V93.5167H1349.62ZM1398.02 93.5167V86.0209H1408.78V93.5167H1398.02ZM1417.38 86.0209H1412.01V93.5167H1417.38V86.0209ZM1366.83 93.5167V86.0209H1377.59V93.5167H1366.83ZM1380.81 93.5167V86.0209H1391.57V93.5167H1380.81ZM1346.4 101.013H1341.02V108.508H1346.4V101.013ZM1349.62 108.508V101.013H1360.38V108.508H1349.62ZM1398.02 108.508V101.013H1408.78V108.508H1398.02ZM1417.38 101.013H1412.01V108.508H1417.38V101.013ZM1366.83 108.508V101.013H1377.59V108.508H1366.83ZM1380.81 108.508V101.013H1391.57V108.508H1380.81ZM1346.4 116.004H1341.02V123.5H1346.4V116.004ZM1349.62 123.5V116.004H1360.38V123.5H1349.62ZM1398.02 123.5V116.004H1408.78V123.5H1398.02ZM1417.38 116.004H1412.01V123.5H1417.38V116.004ZM1366.83 123.5V116.004H1377.59V123.5H1366.83ZM1380.81 123.5V116.004H1391.57V123.5H1380.81ZM1346.4 130.996H1341.02V138.492H1346.4V130.996ZM1349.62 138.492V130.996H1360.38V138.492H1349.62ZM1398.02 138.492V130.996H1408.78V138.492H1398.02ZM1417.38 130.996H1412.01V138.492H1417.38V130.996ZM1366.83 138.492V130.996H1377.59V138.492H1366.83ZM1380.81 138.492V130.996H1391.57V138.492H1380.81ZM1346.4 145.988H1341.02V153.483H1346.4V145.988ZM1349.62 153.483V145.988H1360.38V153.483H1349.62ZM1398.02 153.483V145.988H1408.78V153.483H1398.02ZM1417.38 145.988H1412.01V153.483H1417.38V145.988ZM1366.83 153.483V145.988H1377.59V153.483H1366.83ZM1380.81 153.483V145.988H1391.57V153.483H1380.81ZM1346.4 160.979H1341.02V168.475H1346.4V160.979ZM1349.62 168.475V160.979H1360.38V168.475H1349.62ZM1398.02 168.475V160.979H1408.78V168.475H1398.02ZM1417.38 160.979H1412.01V168.475H1417.38V160.979ZM1366.83 168.475V160.979H1377.59V168.475H1366.83ZM1380.81 168.475V160.979H1391.57V168.475H1380.81ZM1346.4 175.971H1341.02V183.467H1346.4V175.971ZM1349.62 183.467V175.971H1360.38V183.467H1349.62ZM1398.02 183.467V175.971H1408.78V183.467H1398.02ZM1417.38 175.971H1412.01V183.467H1417.38V175.971ZM1366.83 183.467V175.971H1377.59V183.467H1366.83ZM1380.81 183.467V175.971H1391.57V183.467H1380.81ZM1346.4 190.963H1341.02V198.458H1346.4V190.963ZM1349.62 198.458V190.963H1360.38V198.458H1349.62ZM1398.02 198.458V190.963H1408.78V198.458H1398.02ZM1417.38 190.963H1412.01V198.458H1417.38V190.963ZM1366.83 198.458V190.963H1377.59V198.458H1366.83ZM1380.81 198.458V190.963H1391.57V198.458H1380.81ZM1346.4 205.954H1341.02V213.45H1346.4V205.954ZM1349.62 213.45V205.954H1360.38V213.45H1349.62ZM1398.02 213.45V205.954H1408.78V213.45H1398.02ZM1417.38 205.954H1412.01V213.45H1417.38V205.954ZM1366.83 213.45V205.954H1377.59V213.45H1366.83ZM1380.81 213.45V205.954H1391.57V213.45H1380.81ZM1346.4 220.946H1341.02V228.442H1346.4V220.946ZM1349.62 228.442V220.946H1360.38V228.442H1349.62ZM1398.02 228.442V220.946H1408.78V228.442H1398.02ZM1417.38 220.946H1412.01V228.442H1417.38V220.946ZM1366.83 228.442V220.946H1377.59V228.442H1366.83ZM1380.81 228.442V220.946H1391.57V228.442H1380.81ZM1346.4 235.938H1341.02V243.433H1346.4V235.938ZM1349.62 243.433V235.938H1360.38V243.433H1349.62ZM1398.02 243.433V235.938H1408.78V243.433H1398.02ZM1417.38 235.938H1412.01V243.433H1417.38V235.938ZM1366.83 243.433V235.938H1377.59V243.433H1366.83ZM1380.81 243.433V235.938H1391.57V243.433H1380.81Z" fill="black" fill-opacity="0.2"/>
<path fill-rule="evenodd" clip-rule="evenodd" d="M1346.4 11.0625H1341.02V18.5584H1346.4V11.0625ZM1349.62 18.5584V11.0625H1360.38V18.5584H1349.62ZM1398.02 18.5584V11.0625H1408.78V18.5584H1398.02ZM1417.38 11.0625H1412.01V18.5584H1417.38V11.0625ZM1366.83 18.5584V11.0625H1377.59V18.5584H1366.83ZM1380.81 18.5584V11.0625H1391.57V18.5584H1380.81ZM1346.4 26.0542H1341.02V33.55H1346.4V26.0542ZM1349.62 33.55V26.0542H1360.38V33.55H1349.62ZM1398.02 33.55V26.0542H1408.78V33.55H1398.02ZM1417.38 26.0542H1412.01V33.55H1417.38V26.0542ZM1366.83 33.55V26.0542H1377.59V33.55H1366.83ZM1380.81 33.55V26.0542H1391.57V33.55H1380.81ZM1346.4 41.0459H1341.02V48.5417H1346.4V41.0459ZM1349.62 48.5417V41.0459H1360.38V48.5417H1349.62ZM1398.02 48.5417V41.0459H1408.78V48.5417H1398.02ZM1417.38 41.0459H1412.01V48.5417H1417.38V41.0459ZM1366.83 48.5417V41.0459H1377.59V48.5417H1366.83ZM1380.81 48.5417V41.0459H1391.57V48.5417H1380.81ZM1346.4 56.0375H1341.02V63.5334H1346.4V56.0375ZM1349.62 63.5334V56.0375H1360.38V63.5334H1349.62ZM1398.02 63.5334V56.0375H1408.78V63.5334H1398.02ZM1417.38 56.0375H1412.01V63.5334H1417.38V56.0375ZM1366.83 63.5334V56.0375H1377.59V63.5334H1366.83ZM1380.81 63.5334V56.0375H1391.57V63.5334H1380.81ZM1346.4 71.0292H1341.02V78.525H1346.4V71.0292ZM1349.62 78.525V71.0292H1360.38V78.525H1349.62ZM1398.02 78.525V71.0292H1408.78V78.525H1398.02ZM1417.38 71.0292H1412.01V78.525H1417.38V71.0292ZM1366.83 78.525V71.0292H1377.59V78.525H1366.83ZM1380.81 78.525V71.0292H1391.57V78.525H1380.81ZM1346.4 86.0209H1341.02V93.5167H1346.4V86.0209ZM1349.62 93.5167V86.0209H1360.38V93.5167H1349.62ZM1398.02 93.5167V86.0209H1408.78V93.5167H1398.02ZM1417.38 86.0209H1412.01V93.5167H1417.38V86.0209ZM1366.83 93.5167V86.0209H1377.59V93.5167H1366.83ZM1380.81 93.5167V86.0209H1391.57V93.5167H1380.81ZM1346.4 101.013H1341.02V108.508H1346.4V101.013ZM1349.62 108.508V101.013H1360.38V108.508H1349.62ZM1398.02 108.508V101.013H1408.78V108.508H1398.02ZM1417.38 101.013H1412.01V108.508H1417.38V101.013ZM1366.83 108.508V101.013H1377.59V108.508H1366.83ZM1380.81 108.508V101.013H1391.57V108.508H1380.81ZM1346.4 116.004H1341.02V123.5H1346.4V116.004ZM1349.62 123.5V116.004H1360.38V123.5H1349.62ZM1398.02 123.5V116.004H1408.78V123.5H1398.02ZM1417.38 116.004H1412.01V123.5H1417.38V116.004ZM1366.83 123.5V116.004H1377.59V123.5H1366.83ZM1380.81 123.5V116.004H1391.57V123.5H1380.81ZM1346.4 130.996H1341.02V138.492H1346.4V130.996ZM1349.62 138.492V130.996H1360.38V138.492H1349.62ZM1398.02 138.492V130.996H1408.78V138.492H1398.02ZM1417.38 130.996H1412.01V138.492H1417.38V130.996ZM1366.83 138.492V130.996H1377.59V138.492H1366.83ZM1380.81 138.492V130.996H1391.57V138.492H1380.81ZM1346.4 145.988H1341.02V153.483H1346.4V145.988ZM1349.62 153.483V145.988H1360.38V153.483H1349.62ZM1398.02 153.483V145.988H1408.78V153.483H1398.02ZM1417.38 145.988H1412.01V153.483H1417.38V145.988ZM1366.83 153.483V145.988H1377.59V153.483H1366.83ZM1380.81 153.483V145.988H1391.57V153.483H1380.81ZM1346.4 160.979H1341.02V168.475H1346.4V160.979ZM1349.62 168.475V160.979H1360.38V168.475H1349.62ZM1398.02 168.475V160.979H1408.78V168.475H1398.02ZM1417.38 160.979H1412.01V168.475H1417.38V160.979ZM1366.83 168.475V160.979H1377.59V168.475H1366.83ZM1380.81 168.475V160.979H1391.57V168.475H1380.81ZM1346.4 175.971H1341.02V183.467H1346.4V175.971ZM1349.62 183.467V175.971H1360.38V183.467H1349.62ZM1398.02 183.467V175.971H1408.78V183.467H1398.02ZM1417.38 175.971H1412.01V183.467H1417.38V175.971ZM1366.83 183.467V175.971H1377.59V183.467H1366.83ZM1380.81 183.467V175.971H1391.57V183.467H1380.81ZM1346.4 190.963H1341.02V198.458H1346.4V190.963ZM1349.62 198.458V190.963H1360.38V198.458H1349.62ZM1398.02 198.458V190.963H1408.78V198.458H1398.02ZM1417.38 190.963H1412.01V198.458H1417.38V190.963ZM1366.83 198.458V190.963H1377.59V198.458H1366.83ZM1380.81 198.458V190.963H1391.57V198.458H1380.81ZM1346.4 205.954H1341.02V213.45H1346.4V205.954ZM1349.62 213.45V205.954H1360.38V213.45H1349.62ZM1398.02 213.45V205.954H1408.78V213.45H1398.02ZM1417.38 205.954H1412.01V213.45H1417.38V205.954ZM1366.83 213.45V205.954H1377.59V213.45H1366.83ZM1380.81 213.45V205.954H1391.57V213.45H1380.81ZM1346.4 220.946H1341.02V228.442H1346.4V220.946ZM1349.62 228.442V220.946H1360.38V228.442H1349.62ZM1398.02 228.442V220.946H1408.78V228.442H1398.02ZM1417.38 220.946H1412.01V228.442H1417.38V220.946ZM1366.83 228.442V220.946H1377.59V228.442H1366.83ZM1380.81 228.442V220.946H1391.57V228.442H1380.81ZM1346.4 235.938H1341.02V243.433H1346.4V235.938ZM1349.62 243.433V235.938H1360.38V243.433H1349.62ZM1398.02 243.433V235.938H1408.78V243.433H1398.02ZM1417.38 235.938H1412.01V243.433H1417.38V235.938ZM1366.83 243.433V235.938H1377.59V243.433H1366.83ZM1380.81 243.433V235.938H1391.57V243.433H1380.81Z" fill="#4D5E80"/>
<path d="M1336.8 0.354187L1294.94 12V247L1336.8 252V0.354187Z" fill="#6B7A99"/>
<path d="M890.096 168.5V187H818.146V213.154L838.154 221H841.122V239L865.362 252H901.473L905.431 253.5H933.133V252H943.521V190L933.133 189.149V168.5H905.431H890.096Z" fill="#7C8AA6"/>
<path d="M930.66 183.5V175.5H926.702V183.5H930.66Z" fill="#4D5E80"/>
<path d="M930.66 195.5V187.5H926.702V195.5H930.66Z" fill="#4D5E80"/>
<path d="M930.66 207.5V199.5H926.702V207.5H930.66Z" fill="#4D5E80"/>
<path d="M930.66 219.5V211.5H926.702V219.5H930.66Z" fill="#4D5E80"/>
<path d="M930.66 231.5V223.5H926.702V231.5H930.66Z" fill="#4D5E80"/>
<path d="M930.66 243.5V235.5H926.702V243.5H930.66Z" fill="#4D5E80"/>
<path d="M890.096 168.5V187V189L901.473 190V252L905.431 253.5V168.5H890.096Z" fill="#6B7A99"/>
<path d="M841.122 221V239L865.362 252V221H841.122Z" fill="#6B7A99"/>
<path d="M818.146 187V213.154L838.154 221V190L818.146 187Z" fill="#6B7A99"/>
<path d="M890.096 187H818.146L838.154 190H901.473L890.096 189V187Z" fill="#62708C"/>
<path d="M744.172 224.594V237.742L744.57 238.141H745.367L745.766 237.742V224.594L745.367 223.797V200.289L735.008 193.117H729.828L729.43 193.914L730.227 194.312H732.617L733.414 193.914H735.008L744.57 200.688V223.797L744.172 224.594Z" fill="#62708C"/>
<path d="M661.695 224.594V237.742L661.297 238.141H660.5L660.102 237.742V224.594L660.5 223.797V200.289L670.859 193.117H676.039L676.438 193.914L675.641 194.312H673.25L672.453 193.914H670.859L661.297 200.688V223.797L661.695 224.594Z" fill="#62708C"/>
</svg>
