<svg width="1423" height="254" viewBox="0 0 1423 254" fill="none" xmlns="http://www.w3.org/2000/svg">
<path d="M190 111V247H405L429.866 240.915V115.949L405 111L359.501 111V107.459L357 107H352V111L348.578 111V107.459L346 107L341 107V111L257.228 111V107.459L254 107H249V111L246.305 111V107.459L243 107L238 107V111H190Z" fill="#7C8AA6"/>
<path fill-rule="evenodd" clip-rule="evenodd" d="M254 120H249V127H254V120ZM257 127V120H267V127H257ZM273 127V120H283V127H273ZM286 127V120H296V127H286ZM254 134H249V141H254V134ZM257 141V134H267V141H257ZM273 141V134H283V141H273ZM286 141V134H296V141H286ZM254 148H249V155H254V148ZM257 155V148H267V155H257ZM273 155V148H283V155H273ZM286 155V148H296V155H286ZM254 162H249V169H254V162ZM257 169V162H267V169H257ZM273 169V162H283V169H273ZM286 169V162H296V169H286ZM254 176H249V183H254V176ZM257 183V176H267V183H257ZM273 183V176H283V183H273ZM286 183V176H296V183H286ZM254 190H249V197H254V190ZM257 197V190H267V197H257ZM273 197V190H283V197H273ZM286 197V190H296V197H286ZM254 204H249V211H254V204ZM257 211V204H267V211H257ZM273 211V204H283V211H273ZM286 211V204H296V211H286ZM254 218H249V225H254V218ZM257 225V218H267V225H257ZM273 225V218H283V225H273ZM286 225V218H296V225H286ZM254 232H249V239H254V232ZM257 239V232H267V239H257ZM273 239V232H283V239H273ZM286 239V232H296V239H286ZM225 127V120H235V127H225ZM243 120H238V127H243V120ZM196 127V120H206V127H196ZM209 127V120H219V127H209ZM225 141V134H235V141H225ZM243 134H238V141H243V134ZM196 141V134H206V141H196ZM209 141V134H219V141H209ZM225 155V148H235V155H225ZM243 148H238V155H243V148ZM196 155V148H206V155H196ZM209 155V148H219V155H209ZM225 169V162H235V169H225ZM243 162H238V169H243V162ZM196 169V162H206V169H196ZM209 169V162H219V169H209ZM225 183V176H235V183H225ZM243 176H238V183H243V176ZM196 183V176H206V183H196ZM209 183V176H219V183H209ZM225 197V190H235V197H225ZM243 190H238V197H243V190ZM196 197V190H206V197H196ZM209 197V190H219V197H209ZM225 211V204H235V211H225ZM243 204H238V211H243V204ZM196 211V204H206V211H196ZM209 211V204H219V211H209ZM225 225V218H235V225H225ZM243 218H238V225H243V218ZM196 225V218H206V225H196ZM209 225V218H219V225H209ZM225 239V232H235V239H225ZM243 232H238V239H243V232ZM196 239V232H206V239H196ZM209 239V232H219V239H209ZM357 120H352V127H357V120ZM360 127V120H370V127H360ZM376 127V120H386V127H376ZM389 127V120H399V127H389ZM357 134H352V141H357V134ZM360 141V134H370V141H360ZM376 141V134H386V141H376ZM389 141V134H399V141H389ZM357 148H352V155H357V148ZM360 155V148H370V155H360ZM376 155V148H386V155H376ZM389 155V148H399V155H389ZM357 162H352V169H357V162ZM360 169V162H370V169H360ZM376 169V162H386V169H376ZM389 169V162H399V169H389ZM357 176H352V183H357V176ZM360 183V176H370V183H360ZM376 183V176H386V183H376ZM389 183V176H399V183H389ZM357 190H352V197H357V190ZM360 197V190H370V197H360ZM376 197V190H386V197H376ZM389 197V190H399V197H389ZM357 204H352V211H357V204ZM360 211V204H370V211H360ZM376 211V204H386V211H376ZM389 211V204H399V211H389ZM357 218H352V225H357V218ZM360 225V218H370V225H360ZM376 225V218H386V225H376ZM389 225V218H399V225H389ZM357 232H352V239H357V232ZM360 239V232H370V239H360ZM376 239V232H386V239H376ZM389 239V232H399V239H389ZM328 127V120H338V127H328ZM346 120H341V127H346V120ZM299 127V120H309V127H299ZM312 127V120H322V127H312ZM328 141V134H338V141H328ZM346 134H341V141H346V134ZM299 141V134H309V141H299ZM312 141V134H322V141H312ZM328 155V148H338V155H328ZM346 148H341V155H346V148ZM299 155V148H309V155H299ZM312 155V148H322V155H312ZM328 169V162H338V169H328ZM346 162H341V169H346V162ZM299 169V162H309V169H299ZM312 169V162H322V169H312ZM328 183V176H338V183H328ZM346 176H341V183H346V176ZM299 183V176H309V183H299ZM312 183V176H322V183H312ZM328 197V190H338V197H328ZM346 190H341V197H346V190ZM299 197V190H309V197H299ZM312 197V190H322V197H312ZM328 211V204H338V211H328ZM346 204H341V211H346V204ZM299 211V204H309V211H299ZM312 211V204H322V211H312ZM328 225V218H338V225H328ZM346 218H341V225H346V218ZM299 225V218H309V225H299ZM312 225V218H322V225H312ZM328 239V232H338V239H328ZM346 232H341V239H346V232ZM299 239V232H309V239H299ZM312 239V232H322V239H312Z" fill="#4D5E80"/>
<path d="M246.305 107.459L243 107V111L246.305 111V107.459Z" fill="#6B7A99"/>
<path d="M254 111L257.228 111V107.459L254 107V111Z" fill="#6B7A99"/>
<path d="M346 107V111L348.578 111V107.459L346 107Z" fill="#6B7A99"/>
<path d="M357 111L359.501 111V107.459L357 107V111Z" fill="#6B7A99"/>
<path d="M405 111V247L429.866 240.915V115.949L405 111Z" fill="#6B7A99"/>
<path d="M87 0.354187H0.650787V252H87L129 247V12L87 0.354187Z" fill="#7C8AA6"/>
<path fill-rule="evenodd" clip-rule="evenodd" d="M77.3651 11.0625H82.7619V18.5584H77.3651V11.0625ZM74.127 18.5584V11.0625H63.3333V18.5584H74.127ZM25.5556 18.5584V11.0625H14.7619V18.5584H25.5556ZM6.12698 11.0625H11.5238V18.5584H6.12698V11.0625ZM56.8571 18.5584V11.0625H46.0635V18.5584H56.8571ZM42.8254 18.5584V11.0625H32.0317V18.5584H42.8254ZM77.3651 26.0542H82.7619V33.55H77.3651V26.0542ZM74.127 33.55V26.0542H63.3333V33.55H74.127ZM25.5556 33.55V26.0542H14.7619V33.55H25.5556ZM6.12698 26.0542H11.5238V33.55H6.12698V26.0542ZM56.8571 33.55V26.0542H46.0635V33.55H56.8571ZM42.8254 33.55V26.0542H32.0317V33.55H42.8254ZM77.3651 41.0459H82.7619V48.5417H77.3651V41.0459ZM74.127 48.5417V41.0459H63.3333V48.5417H74.127ZM25.5556 48.5417V41.0459H14.7619V48.5417H25.5556ZM6.12698 41.0459H11.5238V48.5417H6.12698V41.0459ZM56.8571 48.5417V41.0459H46.0635V48.5417H56.8571ZM42.8254 48.5417V41.0459H32.0317V48.5417H42.8254ZM77.3651 56.0375H82.7619V63.5334H77.3651V56.0375ZM74.127 63.5334V56.0375H63.3333V63.5334H74.127ZM25.5556 63.5334V56.0375H14.7619V63.5334H25.5556ZM6.12698 56.0375H11.5238V63.5334H6.12698V56.0375ZM56.8571 63.5334V56.0375H46.0635V63.5334H56.8571ZM42.8254 63.5334V56.0375H32.0317V63.5334H42.8254ZM77.3651 71.0292H82.7619V78.525H77.3651V71.0292ZM74.127 78.525V71.0292H63.3333V78.525H74.127ZM25.5556 78.525V71.0292H14.7619V78.525H25.5556ZM6.12698 71.0292H11.5238V78.525H6.12698V71.0292ZM56.8571 78.525V71.0292H46.0635V78.525H56.8571ZM42.8254 78.525V71.0292H32.0317V78.525H42.8254ZM77.3651 86.0209H82.7619V93.5167H77.3651V86.0209ZM74.127 93.5167V86.0209H63.3333V93.5167H74.127ZM25.5556 93.5167V86.0209H14.7619V93.5167H25.5556ZM6.12698 86.0209H11.5238V93.5167H6.12698V86.0209ZM56.8571 93.5167V86.0209H46.0635V93.5167H56.8571ZM42.8254 93.5167V86.0209H32.0317V93.5167H42.8254ZM77.3651 101.013H82.7619V108.508H77.3651V101.013ZM74.127 108.508V101.013H63.3333V108.508H74.127ZM25.5556 108.508V101.013H14.7619V108.508H25.5556ZM6.12698 101.013H11.5238V108.508H6.12698V101.013ZM56.8571 108.508V101.013H46.0635V108.508H56.8571ZM42.8254 108.508V101.013H32.0317V108.508H42.8254ZM77.3651 116.004H82.7619V123.5H77.3651V116.004ZM74.127 123.5V116.004H63.3333V123.5H74.127ZM25.5556 123.5V116.004H14.7619V123.5H25.5556ZM6.12698 116.004H11.5238V123.5H6.12698V116.004ZM56.8571 123.5V116.004H46.0635V123.5H56.8571ZM42.8254 123.5V116.004H32.0317V123.5H42.8254ZM77.3651 130.996H82.7619V138.492H77.3651V130.996ZM74.127 138.492V130.996H63.3333V138.492H74.127ZM25.5556 138.492V130.996H14.7619V138.492H25.5556ZM6.12698 130.996H11.5238V138.492H6.12698V130.996ZM56.8571 138.492V130.996H46.0635V138.492H56.8571ZM42.8254 138.492V130.996H32.0317V138.492H42.8254ZM77.3651 145.988H82.7619V153.483H77.3651V145.988ZM74.127 153.483V145.988H63.3333V153.483H74.127ZM25.5556 153.483V145.988H14.7619V153.483H25.5556ZM6.12698 145.988H11.5238V153.483H6.12698V145.988ZM56.8571 153.483V145.988H46.0635V153.483H56.8571ZM42.8254 153.483V145.988H32.0317V153.483H42.8254ZM77.3651 160.979H82.7619V168.475H77.3651V160.979ZM74.127 168.475V160.979H63.3333V168.475H74.127ZM25.5556 168.475V160.979H14.7619V168.475H25.5556ZM6.12698 160.979H11.5238V168.475H6.12698V160.979ZM56.8571 168.475V160.979H46.0635V168.475H56.8571ZM42.8254 168.475V160.979H32.0317V168.475H42.8254ZM77.3651 175.971H82.7619V183.467H77.3651V175.971ZM74.127 183.467V175.971H63.3333V183.467H74.127ZM25.5556 183.467V175.971H14.7619V183.467H25.5556ZM6.12698 175.971H11.5238V183.467H6.12698V175.971ZM56.8571 183.467V175.971H46.0635V183.467H56.8571ZM42.8254 183.467V175.971H32.0317V183.467H42.8254ZM77.3651 190.963H82.7619V198.458H77.3651V190.963ZM74.127 198.458V190.963H63.3333V198.458H74.127ZM25.5556 198.458V190.963H14.7619V198.458H25.5556ZM6.12698 190.963H11.5238V198.458H6.12698V190.963ZM56.8571 198.458V190.963H46.0635V198.458H56.8571ZM42.8254 198.458V190.963H32.0317V198.458H42.8254ZM77.3651 205.954H82.7619V213.45H77.3651V205.954ZM74.127 213.45V205.954H63.3333V213.45H74.127ZM25.5556 213.45V205.954H14.7619V213.45H25.5556ZM6.12698 205.954H11.5238V213.45H6.12698V205.954ZM56.8571 213.45V205.954H46.0635V213.45H56.8571ZM42.8254 213.45V205.954H32.0317V213.45H42.8254ZM77.3651 220.946H82.7619V228.442H77.3651V220.946ZM74.127 228.442V220.946H63.3333V228.442H74.127ZM25.5556 228.442V220.946H14.7619V228.442H25.5556ZM6.12698 220.946H11.5238V228.442H6.12698V220.946ZM56.8571 228.442V220.946H46.0635V228.442H56.8571ZM42.8254 228.442V220.946H32.0317V228.442H42.8254ZM77.3651 235.938H82.7619V243.433H77.3651V235.938ZM74.127 243.433V235.938H63.3333V243.433H74.127ZM25.5556 243.433V235.938H14.7619V243.433H25.5556ZM6.12698 235.938H11.5238V243.433H6.12698V235.938ZM56.8571 243.433V235.938H46.0635V243.433H56.8571ZM42.8254 243.433V235.938H32.0317V243.433H42.8254Z" fill="#7C8AA6"/>
<path fill-rule="evenodd" clip-rule="evenodd" d="M77.3651 11.0625H82.7619V18.5584H77.3651V11.0625ZM74.127 18.5584V11.0625H63.3333V18.5584H74.127ZM25.5556 18.5584V11.0625H14.7619V18.5584H25.5556ZM6.12698 11.0625H11.5238V18.5584H6.12698V11.0625ZM56.8571 18.5584V11.0625H46.0635V18.5584H56.8571ZM42.8254 18.5584V11.0625H32.0317V18.5584H42.8254ZM77.3651 26.0542H82.7619V33.55H77.3651V26.0542ZM74.127 33.55V26.0542H63.3333V33.55H74.127ZM25.5556 33.55V26.0542H14.7619V33.55H25.5556ZM6.12698 26.0542H11.5238V33.55H6.12698V26.0542ZM56.8571 33.55V26.0542H46.0635V33.55H56.8571ZM42.8254 33.55V26.0542H32.0317V33.55H42.8254ZM77.3651 41.0459H82.7619V48.5417H77.3651V41.0459ZM74.127 48.5417V41.0459H63.3333V48.5417H74.127ZM25.5556 48.5417V41.0459H14.7619V48.5417H25.5556ZM6.12698 41.0459H11.5238V48.5417H6.12698V41.0459ZM56.8571 48.5417V41.0459H46.0635V48.5417H56.8571ZM42.8254 48.5417V41.0459H32.0317V48.5417H42.8254ZM77.3651 56.0375H82.7619V63.5334H77.3651V56.0375ZM74.127 63.5334V56.0375H63.3333V63.5334H74.127ZM25.5556 63.5334V56.0375H14.7619V63.5334H25.5556ZM6.12698 56.0375H11.5238V63.5334H6.12698V56.0375ZM56.8571 63.5334V56.0375H46.0635V63.5334H56.8571ZM42.8254 63.5334V56.0375H32.0317V63.5334H42.8254ZM77.3651 71.0292H82.7619V78.525H77.3651V71.0292ZM74.127 78.525V71.0292H63.3333V78.525H74.127ZM25.5556 78.525V71.0292H14.7619V78.525H25.5556ZM6.12698 71.0292H11.5238V78.525H6.12698V71.0292ZM56.8571 78.525V71.0292H46.0635V78.525H56.8571ZM42.8254 78.525V71.0292H32.0317V78.525H42.8254ZM77.3651 86.0209H82.7619V93.5167H77.3651V86.0209ZM74.127 93.5167V86.0209H63.3333V93.5167H74.127ZM25.5556 93.5167V86.0209H14.7619V93.5167H25.5556ZM6.12698 86.0209H11.5238V93.5167H6.12698V86.0209ZM56.8571 93.5167V86.0209H46.0635V93.5167H56.8571ZM42.8254 93.5167V86.0209H32.0317V93.5167H42.8254ZM77.3651 101.013H82.7619V108.508H77.3651V101.013ZM74.127 108.508V101.013H63.3333V108.508H74.127ZM25.5556 108.508V101.013H14.7619V108.508H25.5556ZM6.12698 101.013H11.5238V108.508H6.12698V101.013ZM56.8571 108.508V101.013H46.0635V108.508H56.8571ZM42.8254 108.508V101.013H32.0317V108.508H42.8254ZM77.3651 116.004H82.7619V123.5H77.3651V116.004ZM74.127 123.5V116.004H63.3333V123.5H74.127ZM25.5556 123.5V116.004H14.7619V123.5H25.5556ZM6.12698 116.004H11.5238V123.5H6.12698V116.004ZM56.8571 123.5V116.004H46.0635V123.5H56.8571ZM42.8254 123.5V116.004H32.0317V123.5H42.8254ZM77.3651 130.996H82.7619V138.492H77.3651V130.996ZM74.127 138.492V130.996H63.3333V138.492H74.127ZM25.5556 138.492V130.996H14.7619V138.492H25.5556ZM6.12698 130.996H11.5238V138.492H6.12698V130.996ZM56.8571 138.492V130.996H46.0635V138.492H56.8571ZM42.8254 138.492V130.996H32.0317V138.492H42.8254ZM77.3651 145.988H82.7619V153.483H77.3651V145.988ZM74.127 153.483V145.988H63.3333V153.483H74.127ZM25.5556 153.483V145.988H14.7619V153.483H25.5556ZM6.12698 145.988H11.5238V153.483H6.12698V145.988ZM56.8571 153.483V145.988H46.0635V153.483H56.8571ZM42.8254 153.483V145.988H32.0317V153.483H42.8254ZM77.3651 160.979H82.7619V168.475H77.3651V160.979ZM74.127 168.475V160.979H63.3333V168.475H74.127ZM25.5556 168.475V160.979H14.7619V168.475H25.5556ZM6.12698 160.979H11.5238V168.475H6.12698V160.979ZM56.8571 168.475V160.979H46.0635V168.475H56.8571ZM42.8254 168.475V160.979H32.0317V168.475H42.8254ZM77.3651 175.971H82.7619V183.467H77.3651V175.971ZM74.127 183.467V175.971H63.3333V183.467H74.127ZM25.5556 183.467V175.971H14.7619V183.467H25.5556ZM6.12698 175.971H11.5238V183.467H6.12698V175.971ZM56.8571 183.467V175.971H46.0635V183.467H56.8571ZM42.8254 183.467V175.971H32.0317V183.467H42.8254ZM77.3651 190.963H82.7619V198.458H77.3651V190.963ZM74.127 198.458V190.963H63.3333V198.458H74.127ZM25.5556 198.458V190.963H14.7619V198.458H25.5556ZM6.12698 190.963H11.5238V198.458H6.12698V190.963ZM56.8571 198.458V190.963H46.0635V198.458H56.8571ZM42.8254 198.458V190.963H32.0317V198.458H42.8254ZM77.3651 205.954H82.7619V213.45H77.3651V205.954ZM74.127 213.45V205.954H63.3333V213.45H74.127ZM25.5556 213.45V205.954H14.7619V213.45H25.5556ZM6.12698 205.954H11.5238V213.45H6.12698V205.954ZM56.8571 213.45V205.954H46.0635V213.45H56.8571ZM42.8254 213.45V205.954H32.0317V213.45H42.8254ZM77.3651 220.946H82.7619V228.442H77.3651V220.946ZM74.127 228.442V220.946H63.3333V228.442H74.127ZM25.5556 228.442V220.946H14.7619V228.442H25.5556ZM6.12698 220.946H11.5238V228.442H6.12698V220.946ZM56.8571 228.442V220.946H46.0635V228.442H56.8571ZM42.8254 228.442V220.946H32.0317V228.442H42.8254ZM77.3651 235.938H82.7619V243.433H77.3651V235.938ZM74.127 243.433V235.938H63.3333V243.433H74.127ZM25.5556 243.433V235.938H14.7619V243.433H25.5556ZM6.12698 235.938H11.5238V243.433H6.12698V235.938ZM56.8571 243.433V235.938H46.0635V243.433H56.8571ZM42.8254 243.433V235.938H32.0317V243.433H42.8254Z" fill="black" fill-opacity="0.2"/>
<path fill-rule="evenodd" clip-rule="evenodd" d="M77.3651 11.0625H82.7619V18.5584H77.3651V11.0625ZM74.127 18.5584V11.0625H63.3333V18.5584H74.127ZM25.5556 18.5584V11.0625H14.7619V18.5584H25.5556ZM6.12698 11.0625H11.5238V18.5584H6.12698V11.0625ZM56.8571 18.5584V11.0625H46.0635V18.5584H56.8571ZM42.8254 18.5584V11.0625H32.0317V18.5584H42.8254ZM77.3651 26.0542H82.7619V33.55H77.3651V26.0542ZM74.127 33.55V26.0542H63.3333V33.55H74.127ZM25.5556 33.55V26.0542H14.7619V33.55H25.5556ZM6.12698 26.0542H11.5238V33.55H6.12698V26.0542ZM56.8571 33.55V26.0542H46.0635V33.55H56.8571ZM42.8254 33.55V26.0542H32.0317V33.55H42.8254ZM77.3651 41.0459H82.7619V48.5417H77.3651V41.0459ZM74.127 48.5417V41.0459H63.3333V48.5417H74.127ZM25.5556 48.5417V41.0459H14.7619V48.5417H25.5556ZM6.12698 41.0459H11.5238V48.5417H6.12698V41.0459ZM56.8571 48.5417V41.0459H46.0635V48.5417H56.8571ZM42.8254 48.5417V41.0459H32.0317V48.5417H42.8254ZM77.3651 56.0375H82.7619V63.5334H77.3651V56.0375ZM74.127 63.5334V56.0375H63.3333V63.5334H74.127ZM25.5556 63.5334V56.0375H14.7619V63.5334H25.5556ZM6.12698 56.0375H11.5238V63.5334H6.12698V56.0375ZM56.8571 63.5334V56.0375H46.0635V63.5334H56.8571ZM42.8254 63.5334V56.0375H32.0317V63.5334H42.8254ZM77.3651 71.0292H82.7619V78.525H77.3651V71.0292ZM74.127 78.525V71.0292H63.3333V78.525H74.127ZM25.5556 78.525V71.0292H14.7619V78.525H25.5556ZM6.12698 71.0292H11.5238V78.525H6.12698V71.0292ZM56.8571 78.525V71.0292H46.0635V78.525H56.8571ZM42.8254 78.525V71.0292H32.0317V78.525H42.8254ZM77.3651 86.0209H82.7619V93.5167H77.3651V86.0209ZM74.127 93.5167V86.0209H63.3333V93.5167H74.127ZM25.5556 93.5167V86.0209H14.7619V93.5167H25.5556ZM6.12698 86.0209H11.5238V93.5167H6.12698V86.0209ZM56.8571 93.5167V86.0209H46.0635V93.5167H56.8571ZM42.8254 93.5167V86.0209H32.0317V93.5167H42.8254ZM77.3651 101.013H82.7619V108.508H77.3651V101.013ZM74.127 108.508V101.013H63.3333V108.508H74.127ZM25.5556 108.508V101.013H14.7619V108.508H25.5556ZM6.12698 101.013H11.5238V108.508H6.12698V101.013ZM56.8571 108.508V101.013H46.0635V108.508H56.8571ZM42.8254 108.508V101.013H32.0317V108.508H42.8254ZM77.3651 116.004H82.7619V123.5H77.3651V116.004ZM74.127 123.5V116.004H63.3333V123.5H74.127ZM25.5556 123.5V116.004H14.7619V123.5H25.5556ZM6.12698 116.004H11.5238V123.5H6.12698V116.004ZM56.8571 123.5V116.004H46.0635V123.5H56.8571ZM42.8254 123.5V116.004H32.0317V123.5H42.8254ZM77.3651 130.996H82.7619V138.492H77.3651V130.996ZM74.127 138.492V130.996H63.3333V138.492H74.127ZM25.5556 138.492V130.996H14.7619V138.492H25.5556ZM6.12698 130.996H11.5238V138.492H6.12698V130.996ZM56.8571 138.492V130.996H46.0635V138.492H56.8571ZM42.8254 138.492V130.996H32.0317V138.492H42.8254ZM77.3651 145.988H82.7619V153.483H77.3651V145.988ZM74.127 153.483V145.988H63.3333V153.483H74.127ZM25.5556 153.483V145.988H14.7619V153.483H25.5556ZM6.12698 145.988H11.5238V153.483H6.12698V145.988ZM56.8571 153.483V145.988H46.0635V153.483H56.8571ZM42.8254 153.483V145.988H32.0317V153.483H42.8254ZM77.3651 160.979H82.7619V168.475H77.3651V160.979ZM74.127 168.475V160.979H63.3333V168.475H74.127ZM25.5556 168.475V160.979H14.7619V168.475H25.5556ZM6.12698 160.979H11.5238V168.475H6.12698V160.979ZM56.8571 168.475V160.979H46.0635V168.475H56.8571ZM42.8254 168.475V160.979H32.0317V168.475H42.8254ZM77.3651 175.971H82.7619V183.467H77.3651V175.971ZM74.127 183.467V175.971H63.3333V183.467H74.127ZM25.5556 183.467V175.971H14.7619V183.467H25.5556ZM6.12698 175.971H11.5238V183.467H6.12698V175.971ZM56.8571 183.467V175.971H46.0635V183.467H56.8571ZM42.8254 183.467V175.971H32.0317V183.467H42.8254ZM77.3651 190.963H82.7619V198.458H77.3651V190.963ZM74.127 198.458V190.963H63.3333V198.458H74.127ZM25.5556 198.458V190.963H14.7619V198.458H25.5556ZM6.12698 190.963H11.5238V198.458H6.12698V190.963ZM56.8571 198.458V190.963H46.0635V198.458H56.8571ZM42.8254 198.458V190.963H32.0317V198.458H42.8254ZM77.3651 205.954H82.7619V213.45H77.3651V205.954ZM74.127 213.45V205.954H63.3333V213.45H74.127ZM25.5556 213.45V205.954H14.7619V213.45H25.5556ZM6.12698 205.954H11.5238V213.45H6.12698V205.954ZM56.8571 213.45V205.954H46.0635V213.45H56.8571ZM42.8254 213.45V205.954H32.0317V213.45H42.8254ZM77.3651 220.946H82.7619V228.442H77.3651V220.946ZM74.127 228.442V220.946H63.3333V228.442H74.127ZM25.5556 228.442V220.946H14.7619V228.442H25.5556ZM6.12698 220.946H11.5238V228.442H6.12698V220.946ZM56.8571 228.442V220.946H46.0635V228.442H56.8571ZM42.8254 228.442V220.946H32.0317V228.442H42.8254ZM77.3651 235.938H82.7619V243.433H77.3651V235.938ZM74.127 243.433V235.938H63.3333V243.433H74.127ZM25.5556 243.433V235.938H14.7619V243.433H25.5556ZM6.12698 235.938H11.5238V243.433H6.12698V235.938ZM56.8571 243.433V235.938H46.0635V243.433H56.8571ZM42.8254 243.433V235.938H32.0317V243.433H42.8254Z" fill="#4D5E80"/>
<path d="M87 0.354187L129 12V247L87 252V0.354187Z" fill="#6B7A99"/>
<path d="M819.086 30.4362V238.358L831.581 247H877.419L887.955 251.85H972.829V1.65311H887.955L877.419 12H874.43V10L865.461 7.00003L855.496 7L852.844 10.1041V12H831.581L819.086 30.4362Z" fill="#7C8AA6"/>
<path fill-rule="evenodd" clip-rule="evenodd" d="M964.341 12.2998H969.646V19.7524H964.341V12.2998ZM961.158 19.7524V12.2998H950.549V19.7524H961.158ZM913.417 19.7524V12.2998H902.808V19.7524H913.417ZM894.321 12.2998H899.625V19.7524H894.321V12.2998ZM944.184 19.7524V12.2998H933.575V19.7524H944.184ZM930.392 19.7524V12.2998H919.783V19.7524H930.392ZM964.341 27.2051H969.646V34.6578H964.341V27.2051ZM961.158 34.6578V27.2051H950.549V34.6578H961.158ZM913.417 34.6578V27.2051H902.808V34.6578H913.417ZM894.321 27.2051H899.625V34.6578H894.321V27.2051ZM944.184 34.6578V27.2051H933.575V34.6578H944.184ZM930.392 34.6578V27.2051H919.783V34.6578H930.392ZM964.341 42.1105H969.646V49.5631H964.341V42.1105ZM961.158 49.5631V42.1105H950.549V49.5631H961.158ZM913.417 49.5631V42.1105H902.808V49.5631H913.417ZM894.321 42.1105H899.625V49.5631H894.321V42.1105ZM944.184 49.5631V42.1105H933.575V49.5631H944.184ZM930.392 49.5631V42.1105H919.783V49.5631H930.392ZM964.341 57.0158H969.646V64.4685H964.341V57.0158ZM961.158 64.4685V57.0158H950.549V64.4685H961.158ZM913.417 64.4685V57.0158H902.808V64.4685H913.417ZM894.321 57.0158H899.625V64.4685H894.321V57.0158ZM944.184 64.4685V57.0158H933.575V64.4685H944.184ZM930.392 64.4685V57.0158H919.783V64.4685H930.392ZM964.341 71.9212H969.646V79.3738H964.341V71.9212ZM961.158 79.3738V71.9212H950.549V79.3738H961.158ZM913.417 79.3738V71.9212H902.808V79.3738H913.417ZM894.321 71.9212H899.625V79.3738H894.321V71.9212ZM944.184 79.3738V71.9212H933.575V79.3738H944.184ZM930.392 79.3738V71.9212H919.783V79.3738H930.392ZM964.341 86.8265H969.646V94.2792H964.341V86.8265ZM961.158 94.2792V86.8265H950.549V94.2792H961.158ZM913.417 94.2792V86.8265H902.808V94.2792H913.417ZM894.321 86.8265H899.625V94.2792H894.321V86.8265ZM944.184 94.2792V86.8265H933.575V94.2792H944.184ZM930.392 94.2792V86.8265H919.783V94.2792H930.392ZM964.341 101.732H969.646V109.185H964.341V101.732ZM961.158 109.185V101.732H950.549V109.185H961.158ZM913.417 109.185V101.732H902.808V109.185H913.417ZM894.321 101.732H899.625V109.185H894.321V101.732ZM944.184 109.185V101.732H933.575V109.185H944.184ZM930.392 109.185V101.732H919.783V109.185H930.392ZM964.341 116.637H969.646V124.09H964.341V116.637ZM961.158 124.09V116.637H950.549V124.09H961.158ZM913.417 124.09V116.637H902.808V124.09H913.417ZM894.321 116.637H899.625V124.09H894.321V116.637ZM944.184 124.09V116.637H933.575V124.09H944.184ZM930.392 124.09V116.637H919.783V124.09H930.392ZM964.341 131.543H969.646V138.995H964.341V131.543ZM961.158 138.995V131.543H950.549V138.995H961.158ZM913.417 138.995V131.543H902.808V138.995H913.417ZM894.321 131.543H899.625V138.995H894.321V131.543ZM944.184 138.995V131.543H933.575V138.995H944.184ZM930.392 138.995V131.543H919.783V138.995H930.392ZM964.341 146.448H969.646V153.901H964.341V146.448ZM961.158 153.901V146.448H950.549V153.901H961.158ZM913.417 153.901V146.448H902.808V153.901H913.417ZM894.321 146.448H899.625V153.901H894.321V146.448ZM944.184 153.901V146.448H933.575V153.901H944.184ZM930.392 153.901V146.448H919.783V153.901H930.392ZM964.341 161.353H969.646V168.806H964.341V161.353ZM961.158 168.806V161.353H950.549V168.806H961.158ZM913.417 168.806V161.353H902.808V168.806H913.417ZM894.321 161.353H899.625V168.806H894.321V161.353ZM944.184 168.806V161.353H933.575V168.806H944.184ZM930.392 168.806V161.353H919.783V168.806H930.392ZM964.341 176.259H969.646V183.711H964.341V176.259ZM961.158 183.711V176.259H950.549V183.711H961.158ZM913.417 183.711V176.259H902.808V183.711H913.417ZM894.321 176.259H899.625V183.711H894.321V176.259ZM944.184 183.711V176.259H933.575V183.711H944.184ZM930.392 183.711V176.259H919.783V183.711H930.392ZM964.341 191.164H969.646V198.617H964.341V191.164ZM961.158 198.617V191.164H950.549V198.617H961.158ZM913.417 198.617V191.164H902.808V198.617H913.417ZM894.321 191.164H899.625V198.617H894.321V191.164ZM944.184 198.617V191.164H933.575V198.617H944.184ZM930.392 198.617V191.164H919.783V198.617H930.392ZM964.341 206.069H969.646V213.522H964.341V206.069ZM961.158 213.522V206.069H950.549V213.522H961.158ZM913.417 213.522V206.069H902.808V213.522H913.417ZM894.321 206.069H899.625V213.522H894.321V206.069ZM944.184 213.522V206.069H933.575V213.522H944.184ZM930.392 213.522V206.069H919.783V213.522H930.392ZM964.341 220.975H969.646V228.427H964.341V220.975ZM961.158 228.427V220.975H950.549V228.427H961.158ZM913.417 228.427V220.975H902.808V228.427H913.417ZM894.321 220.975H899.625V228.427H894.321V220.975ZM944.184 228.427V220.975H933.575V228.427H944.184ZM930.392 228.427V220.975H919.783V228.427H930.392ZM964.341 235.88H969.646V243.333H964.341V235.88ZM961.158 243.333V235.88H950.549V243.333H961.158ZM913.417 243.333V235.88H902.808V243.333H913.417ZM894.321 235.88H899.625V243.333H894.321V235.88ZM944.184 243.333V235.88H933.575V243.333H944.184ZM930.392 243.333V235.88H919.783V243.333H930.392Z" fill="#4D5E80"/>
<path fill-rule="evenodd" clip-rule="evenodd" d="M871.44 22H866.458V26H871.44V22ZM871.44 36H866.458V40H871.44V36ZM871.44 50H866.458V54H871.44V50ZM871.44 64H866.458V68H871.44V64ZM871.44 78H866.458V82H871.44V78ZM871.44 92H866.458V96H871.44V92ZM871.44 106H866.458V110H871.44V106ZM871.44 120H866.458V124H871.44V120ZM871.44 134H866.458V138H871.44V134ZM871.44 148H866.458V152H871.44V148ZM871.44 162H866.458V166H871.44V162ZM871.44 176H866.458V180H871.44V176ZM871.44 190H866.458V194H871.44V190ZM871.44 204H866.458V208H871.44V204ZM871.44 218H866.458V222H871.44V218ZM871.44 232H866.458V236H871.44V232ZM863.468 22H858.486V29H863.468V22ZM863.468 36H858.486V43H863.468V36ZM863.468 50H858.486V57H863.468V50ZM863.468 64H858.486V71H863.468V64ZM863.468 78H858.486V85H863.468V78ZM863.468 92H858.486V99H863.468V92ZM863.468 106H858.486V113H863.468V106ZM863.468 120H858.486V127H863.468V120ZM863.468 134H858.486V141H863.468V134ZM863.468 148H858.486V155H863.468V148ZM863.468 162H858.486V169H863.468V162ZM863.468 176H858.486V183H863.468V176ZM863.468 190H858.486V197H863.468V190ZM863.468 204H858.486V211H863.468V204ZM863.468 218H858.486V225H863.468V218ZM863.468 232H858.486V239H863.468V232ZM852.507 22V29H842.542V22H852.507ZM839.553 22H834.57V29H839.553V22ZM852.507 36V43H842.542V36H852.507ZM839.553 36H834.57V43H839.553V36ZM852.507 50V57H842.542V50H852.507ZM839.553 50H834.57V57H839.553V50ZM852.507 64V71H842.542V64H852.507ZM839.553 64H834.57V71H839.553V64ZM852.507 78V85H842.542V78H852.507ZM839.553 78H834.57V85H839.553V78ZM852.507 92V99H842.542V92H852.507ZM839.553 92H834.57V99H839.553V92ZM852.507 106V113H842.542V106H852.507ZM839.553 106H834.57V113H839.553V106ZM852.507 120V127H842.542V120H852.507ZM839.553 120H834.57V127H839.553V120ZM852.507 134V141H842.542V134H852.507ZM839.553 134H834.57V141H839.553V134ZM852.507 148V155H842.542V148H852.507ZM839.553 148H834.57V155H839.553V148ZM852.507 162V169H842.542V162H852.507ZM839.553 162H834.57V169H839.553V162ZM852.507 176V183H842.542V176H852.507ZM839.553 176H834.57V183H839.553V176ZM852.507 190V197H842.542V190H852.507ZM839.553 190H834.57V197H839.553V190ZM852.507 204V211H842.542V204H852.507ZM839.553 204H834.57V211H839.553V204ZM852.507 218V225H842.542V218H852.507ZM839.553 218H834.57V225H839.553V218ZM852.507 232V239H842.542V232H852.507ZM839.553 232H834.57V239H839.553V232Z" fill="#4D5E80"/>
<path d="M877.419 247V12L887.955 1.65311V251.85L877.419 247Z" fill="#6B7A99"/>
<path d="M819.086 238.358V30.4362L831.581 12V247L819.086 238.358Z" fill="#6B7A99"/>
<path d="M852.844 12V10.1041L855.497 7V12H852.844Z" fill="#6B7A99"/>
<path d="M1234.16 111V247H1019.92L995.137 240.915V115.949L1019.92 111L1065.25 111V107.459L1067.75 107H1072.73V111L1076.14 111V107.459L1078.71 107L1083.69 107V111L1167.17 111V107.459L1170.38 107H1175.37V111L1178.05 111V107.459L1181.35 107L1186.33 107V111H1234.16Z" fill="#7C8AA6"/>
<path fill-rule="evenodd" clip-rule="evenodd" d="M1170.38 120H1175.37V127H1170.38V120ZM1167.39 127V120H1157.43V127H1167.39ZM1151.45 127V120H1141.49V127H1151.45ZM1138.5 127V120H1128.53V127H1138.5ZM1170.38 134H1175.37V141H1170.38V134ZM1167.39 141V134H1157.43V141H1167.39ZM1151.45 141V134H1141.49V141H1151.45ZM1138.5 141V134H1128.53V141H1138.5ZM1170.38 148H1175.37V155H1170.38V148ZM1167.39 155V148H1157.43V155H1167.39ZM1151.45 155V148H1141.49V155H1151.45ZM1138.5 155V148H1128.53V155H1138.5ZM1170.38 162H1175.37V169H1170.38V162ZM1167.39 169V162H1157.43V169H1167.39ZM1151.45 169V162H1141.49V169H1151.45ZM1138.5 169V162H1128.53V169H1138.5ZM1170.38 176H1175.37V183H1170.38V176ZM1167.39 183V176H1157.43V183H1167.39ZM1151.45 183V176H1141.49V183H1151.45ZM1138.5 183V176H1128.53V183H1138.5ZM1170.38 190H1175.37V197H1170.38V190ZM1167.39 197V190H1157.43V197H1167.39ZM1151.45 197V190H1141.49V197H1151.45ZM1138.5 197V190H1128.53V197H1138.5ZM1170.38 204H1175.37V211H1170.38V204ZM1167.39 211V204H1157.43V211H1167.39ZM1151.45 211V204H1141.49V211H1151.45ZM1138.5 211V204H1128.53V211H1138.5ZM1170.38 218H1175.37V225H1170.38V218ZM1167.39 225V218H1157.43V225H1167.39ZM1151.45 225V218H1141.49V225H1151.45ZM1138.5 225V218H1128.53V225H1138.5ZM1170.38 232H1175.37V239H1170.38V232ZM1167.39 239V232H1157.43V239H1167.39ZM1151.45 239V232H1141.49V239H1151.45ZM1138.5 239V232H1128.53V239H1138.5ZM1199.28 127V120H1189.32V127H1199.28ZM1181.35 120H1186.33V127H1181.35V120ZM1228.18 127V120H1218.21V127H1228.18ZM1215.23 127V120H1205.26V127H1215.23ZM1199.28 141V134H1189.32V141H1199.28ZM1181.35 134H1186.33V141H1181.35V134ZM1228.18 141V134H1218.21V141H1228.18ZM1215.23 141V134H1205.26V141H1215.23ZM1199.28 155V148H1189.32V155H1199.28ZM1181.35 148H1186.33V155H1181.35V148ZM1228.18 155V148H1218.21V155H1228.18ZM1215.23 155V148H1205.26V155H1215.23ZM1199.28 169V162H1189.32V169H1199.28ZM1181.35 162H1186.33V169H1181.35V162ZM1228.18 169V162H1218.21V169H1228.18ZM1215.23 169V162H1205.26V169H1215.23ZM1199.28 183V176H1189.32V183H1199.28ZM1181.35 176H1186.33V183H1181.35V176ZM1228.18 183V176H1218.21V183H1228.18ZM1215.23 183V176H1205.26V183H1215.23ZM1199.28 197V190H1189.32V197H1199.28ZM1181.35 190H1186.33V197H1181.35V190ZM1228.18 197V190H1218.21V197H1228.18ZM1215.23 197V190H1205.26V197H1215.23ZM1199.28 211V204H1189.32V211H1199.28ZM1181.35 204H1186.33V211H1181.35V204ZM1228.18 211V204H1218.21V211H1228.18ZM1215.23 211V204H1205.26V211H1215.23ZM1199.28 225V218H1189.32V225H1199.28ZM1181.35 218H1186.33V225H1181.35V218ZM1228.18 225V218H1218.21V225H1228.18ZM1215.23 225V218H1205.26V225H1215.23ZM1199.28 239V232H1189.32V239H1199.28ZM1181.35 232H1186.33V239H1181.35V232ZM1228.18 239V232H1218.21V239H1228.18ZM1215.23 239V232H1205.26V239H1215.23ZM1067.75 120H1072.73V127H1067.75V120ZM1064.76 127V120H1054.79V127H1064.76ZM1048.81 127V120H1038.85V127H1048.81ZM1035.86 127V120H1025.89V127H1035.86ZM1067.75 134H1072.73V141H1067.75V134ZM1064.76 141V134H1054.79V141H1064.76ZM1048.81 141V134H1038.85V141H1048.81ZM1035.86 141V134H1025.89V141H1035.86ZM1067.75 148H1072.73V155H1067.75V148ZM1064.76 155V148H1054.79V155H1064.76ZM1048.81 155V148H1038.85V155H1048.81ZM1035.86 155V148H1025.89V155H1035.86ZM1067.75 162H1072.73V169H1067.75V162ZM1064.76 169V162H1054.79V169H1064.76ZM1048.81 169V162H1038.85V169H1048.81ZM1035.86 169V162H1025.89V169H1035.86ZM1067.75 176H1072.73V183H1067.75V176ZM1064.76 183V176H1054.79V183H1064.76ZM1048.81 183V176H1038.85V183H1048.81ZM1035.86 183V176H1025.89V183H1035.86ZM1067.75 190H1072.73V197H1067.75V190ZM1064.76 197V190H1054.79V197H1064.76ZM1048.81 197V190H1038.85V197H1048.81ZM1035.86 197V190H1025.89V197H1035.86ZM1067.75 204H1072.73V211H1067.75V204ZM1064.76 211V204H1054.79V211H1064.76ZM1048.81 211V204H1038.85V211H1048.81ZM1035.86 211V204H1025.89V211H1035.86ZM1067.75 218H1072.73V225H1067.75V218ZM1064.76 225V218H1054.79V225H1064.76ZM1048.81 225V218H1038.85V225H1048.81ZM1035.86 225V218H1025.89V225H1035.86ZM1067.75 232H1072.73V239H1067.75V232ZM1064.76 239V232H1054.79V239H1064.76ZM1048.81 239V232H1038.85V239H1048.81ZM1035.86 239V232H1025.89V239H1035.86ZM1096.64 127V120H1086.68V127H1096.64ZM1078.71 120H1083.69V127H1078.71V120ZM1125.54 127V120H1115.58V127H1125.54ZM1112.59 127V120H1102.62V127H1112.59ZM1096.64 141V134H1086.68V141H1096.64ZM1078.71 134H1083.69V141H1078.71V134ZM1125.54 141V134H1115.58V141H1125.54ZM1112.59 141V134H1102.62V141H1112.59ZM1096.64 155V148H1086.68V155H1096.64ZM1078.71 148H1083.69V155H1078.71V148ZM1125.54 155V148H1115.58V155H1125.54ZM1112.59 155V148H1102.62V155H1112.59ZM1096.64 169V162H1086.68V169H1096.64ZM1078.71 162H1083.69V169H1078.71V162ZM1125.54 169V162H1115.58V169H1125.54ZM1112.59 169V162H1102.62V169H1112.59ZM1096.64 183V176H1086.68V183H1096.64ZM1078.71 176H1083.69V183H1078.71V176ZM1125.54 183V176H1115.58V183H1125.54ZM1112.59 183V176H1102.62V183H1112.59ZM1096.64 197V190H1086.68V197H1096.64ZM1078.71 190H1083.69V197H1078.71V190ZM1125.54 197V190H1115.58V197H1125.54ZM1112.59 197V190H1102.62V197H1112.59ZM1096.64 211V204H1086.68V211H1096.64ZM1078.71 204H1083.69V211H1078.71V204ZM1125.54 211V204H1115.58V211H1125.54ZM1112.59 211V204H1102.62V211H1112.59ZM1096.64 225V218H1086.68V225H1096.64ZM1078.71 218H1083.69V225H1078.71V218ZM1125.54 225V218H1115.58V225H1125.54ZM1112.59 225V218H1102.62V225H1112.59ZM1096.64 239V232H1086.68V239H1096.64ZM1078.71 232H1083.69V239H1078.71V232ZM1125.54 239V232H1115.58V239H1125.54ZM1112.59 239V232H1102.62V239H1112.59Z" fill="#4D5E80"/>
<path d="M1178.05 107.459L1181.35 107V111L1178.05 111V107.459Z" fill="#6B7A99"/>
<path d="M1170.38 111L1167.17 111V107.459L1170.38 107V111Z" fill="#6B7A99"/>
<path d="M1078.71 107V111L1076.14 111V107.459L1078.71 107Z" fill="#6B7A99"/>
<path d="M1067.75 111L1065.25 111V107.459L1067.75 107V111Z" fill="#6B7A99"/>
<path d="M1019.92 111V247L995.137 240.915V115.949L1019.92 111Z" fill="#6B7A99"/>
<path d="M1336.8 0.354187H1422.84V252H1336.8L1294.94 247V12L1336.8 0.354187Z" fill="#7C8AA6"/>
<path fill-rule="evenodd" clip-rule="evenodd" d="M1346.4 11.0625H1341.02V18.5584H1346.4V11.0625ZM1349.62 18.5584V11.0625H1360.38V18.5584H1349.62ZM1398.02 18.5584V11.0625H1408.78V18.5584H1398.02ZM1417.38 11.0625H1412.01V18.5584H1417.38V11.0625ZM1366.83 18.5584V11.0625H1377.59V18.5584H1366.83ZM1380.81 18.5584V11.0625H1391.57V18.5584H1380.81ZM1346.4 26.0542H1341.02V33.55H1346.4V26.0542ZM1349.62 33.55V26.0542H1360.38V33.55H1349.62ZM1398.02 33.55V26.0542H1408.78V33.55H1398.02ZM1417.38 26.0542H1412.01V33.55H1417.38V26.0542ZM1366.83 33.55V26.0542H1377.59V33.55H1366.83ZM1380.81 33.55V26.0542H1391.57V33.55H1380.81ZM1346.4 41.0459H1341.02V48.5417H1346.4V41.0459ZM1349.62 48.5417V41.0459H1360.38V48.5417H1349.62ZM1398.02 48.5417V41.0459H1408.78V48.5417H1398.02ZM1417.38 41.0459H1412.01V48.5417H1417.38V41.0459ZM1366.83 48.5417V41.0459H1377.59V48.5417H1366.83ZM1380.81 48.5417V41.0459H1391.57V48.5417H1380.81ZM1346.4 56.0375H1341.02V63.5334H1346.4V56.0375ZM1349.62 63.5334V56.0375H1360.38V63.5334H1349.62ZM1398.02 63.5334V56.0375H1408.78V63.5334H1398.02ZM1417.38 56.0375H1412.01V63.5334H1417.38V56.0375ZM1366.83 63.5334V56.0375H1377.59V63.5334H1366.83ZM1380.81 63.5334V56.0375H1391.57V63.5334H1380.81ZM1346.4 71.0292H1341.02V78.525H1346.4V71.0292ZM1349.62 78.525V71.0292H1360.38V78.525H1349.62ZM1398.02 78.525V71.0292H1408.78V78.525H1398.02ZM1417.38 71.0292H1412.01V78.525H1417.38V71.0292ZM1366.83 78.525V71.0292H1377.59V78.525H1366.83ZM1380.81 78.525V71.0292H1391.57V78.525H1380.81ZM1346.4 86.0209H1341.02V93.5167H1346.4V86.0209ZM1349.62 93.5167V86.0209H1360.38V93.5167H1349.62ZM1398.02 93.5167V86.0209H1408.78V93.5167H1398.02ZM1417.38 86.0209H1412.01V93.5167H1417.38V86.0209ZM1366.83 93.5167V86.0209H1377.59V93.5167H1366.83ZM1380.81 93.5167V86.0209H1391.57V93.5167H1380.81ZM1346.4 101.013H1341.02V108.508H1346.4V101.013ZM1349.62 108.508V101.013H1360.38V108.508H1349.62ZM1398.02 108.508V101.013H1408.78V108.508H1398.02ZM1417.38 101.013H1412.01V108.508H1417.38V101.013ZM1366.83 108.508V101.013H1377.59V108.508H1366.83ZM1380.81 108.508V101.013H1391.57V108.508H1380.81ZM1346.4 116.004H1341.02V123.5H1346.4V116.004ZM1349.62 123.5V116.004H1360.38V123.5H1349.62ZM1398.02 123.5V116.004H1408.78V123.5H1398.02ZM1417.38 116.004H1412.01V123.5H1417.38V116.004ZM1366.83 123.5V116.004H1377.59V123.5H1366.83ZM1380.81 123.5V116.004H1391.57V123.5H1380.81ZM1346.4 130.996H1341.02V138.492H1346.4V130.996ZM1349.62 138.492V130.996H1360.38V138.492H1349.62ZM1398.02 138.492V130.996H1408.78V138.492H1398.02ZM1417.38 130.996H1412.01V138.492H1417.38V130.996ZM1366.83 138.492V130.996H1377.59V138.492H1366.83ZM1380.81 138.492V130.996H1391.57V138.492H1380.81ZM1346.4 145.988H1341.02V153.483H1346.4V145.988ZM1349.62 153.483V145.988H1360.38V153.483H1349.62ZM1398.02 153.483V145.988H1408.78V153.483H1398.02ZM1417.38 145.988H1412.01V153.483H1417.38V145.988ZM1366.83 153.483V145.988H1377.59V153.483H1366.83ZM1380.81 153.483V145.988H1391.57V153.483H1380.81ZM1346.4 160.979H1341.02V168.475H1346.4V160.979ZM1349.62 168.475V160.979H1360.38V168.475H1349.62ZM1398.02 168.475V160.979H1408.78V168.475H1398.02ZM1417.38 160.979H1412.01V168.475H1417.38V160.979ZM1366.83 168.475V160.979H1377.59V168.475H1366.83ZM1380.81 168.475V160.979H1391.57V168.475H1380.81ZM1346.4 175.971H1341.02V183.467H1346.4V175.971ZM1349.62 183.467V175.971H1360.38V183.467H1349.62ZM1398.02 183.467V175.971H1408.78V183.467H1398.02ZM1417.38 175.971H1412.01V183.467H1417.38V175.971ZM1366.83 183.467V175.971H1377.59V183.467H1366.83ZM1380.81 183.467V175.971H1391.57V183.467H1380.81ZM1346.4 190.963H1341.02V198.458H1346.4V190.963ZM1349.62 198.458V190.963H1360.38V198.458H1349.62ZM1398.02 198.458V190.963H1408.78V198.458H1398.02ZM1417.38 190.963H1412.01V198.458H1417.38V190.963ZM1366.83 198.458V190.963H1377.59V198.458H1366.83ZM1380.81 198.458V190.963H1391.57V198.458H1380.81ZM1346.4 205.954H1341.02V213.45H1346.4V205.954ZM1349.62 213.45V205.954H1360.38V213.45H1349.62ZM1398.02 213.45V205.954H1408.78V213.45H1398.02ZM1417.38 205.954H1412.01V213.45H1417.38V205.954ZM1366.83 213.45V205.954H1377.59V213.45H1366.83ZM1380.81 213.45V205.954H1391.57V213.45H1380.81ZM1346.4 220.946H1341.02V228.442H1346.4V220.946ZM1349.62 228.442V220.946H1360.38V228.442H1349.62ZM1398.02 228.442V220.946H1408.78V228.442H1398.02ZM1417.38 220.946H1412.01V228.442H1417.38V220.946ZM1366.83 228.442V220.946H1377.59V228.442H1366.83ZM1380.81 228.442V220.946H1391.57V228.442H1380.81ZM1346.4 235.938H1341.02V243.433H1346.4V235.938ZM1349.62 243.433V235.938H1360.38V243.433H1349.62ZM1398.02 243.433V235.938H1408.78V243.433H1398.02ZM1417.38 235.938H1412.01V243.433H1417.38V235.938ZM1366.83 243.433V235.938H1377.59V243.433H1366.83ZM1380.81 243.433V235.938H1391.57V243.433H1380.81Z" fill="#7C8AA6"/>
<path fill-rule="evenodd" clip-rule="evenodd" d="M1346.4 11.0625H1341.02V18.5584H1346.4V11.0625ZM1349.62 18.5584V11.0625H1360.38V18.5584H1349.62ZM1398.02 18.5584V11.0625H1408.78V18.5584H1398.02ZM1417.38 11.0625H1412.01V18.5584H1417.38V11.0625ZM1366.83 18.5584V11.0625H1377.59V18.5584H1366.83ZM1380.81 18.5584V11.0625H1391.57V18.5584H1380.81ZM1346.4 26.0542H1341.02V33.55H1346.4V26.0542ZM1349.62 33.55V26.0542H1360.38V33.55H1349.62ZM1398.02 33.55V26.0542H1408.78V33.55H1398.02ZM1417.38 26.0542H1412.01V33.55H1417.38V26.0542ZM1366.83 33.55V26.0542H1377.59V33.55H1366.83ZM1380.81 33.55V26.0542H1391.57V33.55H1380.81ZM1346.4 41.0459H1341.02V48.5417H1346.4V41.0459ZM1349.62 48.5417V41.0459H1360.38V48.5417H1349.62ZM1398.02 48.5417V41.0459H1408.78V48.5417H1398.02ZM1417.38 41.0459H1412.01V48.5417H1417.38V41.0459ZM1366.83 48.5417V41.0459H1377.59V48.5417H1366.83ZM1380.81 48.5417V41.0459H1391.57V48.5417H1380.81ZM1346.4 56.0375H1341.02V63.5334H1346.4V56.0375ZM1349.62 63.5334V56.0375H1360.38V63.5334H1349.62ZM1398.02 63.5334V56.0375H1408.78V63.5334H1398.02ZM1417.38 56.0375H1412.01V63.5334H1417.38V56.0375ZM1366.83 63.5334V56.0375H1377.59V63.5334H1366.83ZM1380.81 63.5334V56.0375H1391.57V63.5334H1380.81ZM1346.4 71.0292H1341.02V78.525H1346.4V71.0292ZM1349.62 78.525V71.0292H1360.38V78.525H1349.62ZM1398.02 78.525V71.0292H1408.78V78.525H1398.02ZM1417.38 71.0292H1412.01V78.525H1417.38V71.0292ZM1366.83 78.525V71.0292H1377.59V78.525H1366.83ZM1380.81 78.525V71.0292H1391.57V78.525H1380.81ZM1346.4 86.0209H1341.02V93.5167H1346.4V86.0209ZM1349.62 93.5167V86.0209H1360.38V93.5167H1349.62ZM1398.02 93.5167V86.0209H1408.78V93.5167H1398.02ZM1417.38 86.0209H1412.01V93.5167H1417.38V86.0209ZM1366.83 93.5167V86.0209H1377.59V93.5167H1366.83ZM1380.81 93.5167V86.0209H1391.57V93.5167H1380.81ZM1346.4 101.013H1341.02V108.508H1346.4V101.013ZM1349.62 108.508V101.013H1360.38V108.508H1349.62ZM1398.02 108.508V101.013H1408.78V108.508H1398.02ZM1417.38 101.013H1412.01V108.508H1417.38V101.013ZM1366.83 108.508V101.013H1377.59V108.508H1366.83ZM1380.81 108.508V101.013H1391.57V108.508H1380.81ZM1346.4 116.004H1341.02V123.5H1346.4V116.004ZM1349.62 123.5V116.004H1360.38V123.5H1349.62ZM1398.02 123.5V116.004H1408.78V123.5H1398.02ZM1417.38 116.004H1412.01V123.5H1417.38V116.004ZM1366.83 123.5V116.004H1377.59V123.5H1366.83ZM1380.81 123.5V116.004H1391.57V123.5H1380.81ZM1346.4 130.996H1341.02V138.492H1346.4V130.996ZM1349.62 138.492V130.996H1360.38V138.492H1349.62ZM1398.02 138.492V130.996H1408.78V138.492H1398.02ZM1417.38 130.996H1412.01V138.492H1417.38V130.996ZM1366.83 138.492V130.996H1377.59V138.492H1366.83ZM1380.81 138.492V130.996H1391.57V138.492H1380.81ZM1346.4 145.988H1341.02V153.483H1346.4V145.988ZM1349.62 153.483V145.988H1360.38V153.483H1349.62ZM1398.02 153.483V145.988H1408.78V153.483H1398.02ZM1417.38 145.988H1412.01V153.483H1417.38V145.988ZM1366.83 153.483V145.988H1377.59V153.483H1366.83ZM1380.81 153.483V145.988H1391.57V153.483H1380.81ZM1346.4 160.979H1341.02V168.475H1346.4V160.979ZM1349.62 168.475V160.979H1360.38V168.475H1349.62ZM1398.02 168.475V160.979H1408.78V168.475H1398.02ZM1417.38 160.979H1412.01V168.475H1417.38V160.979ZM1366.83 168.475V160.979H1377.59V168.475H1366.83ZM1380.81 168.475V160.979H1391.57V168.475H1380.81ZM1346.4 175.971H1341.02V183.467H1346.4V175.971ZM1349.62 183.467V175.971H1360.38V183.467H1349.62ZM1398.02 183.467V175.971H1408.78V183.467H1398.02ZM1417.38 175.971H1412.01V183.467H1417.38V175.971ZM1366.83 183.467V175.971H1377.59V183.467H1366.83ZM1380.81 183.467V175.971H1391.57V183.467H1380.81ZM1346.4 190.963H1341.02V198.458H1346.4V190.963ZM1349.62 198.458V190.963H1360.38V198.458H1349.62ZM1398.02 198.458V190.963H1408.78V198.458H1398.02ZM1417.38 190.963H1412.01V198.458H1417.38V190.963ZM1366.83 198.458V190.963H1377.59V198.458H1366.83ZM1380.81 198.458V190.963H1391.57V198.458H1380.81ZM1346.4 205.954H1341.02V213.45H1346.4V205.954ZM1349.62 213.45V205.954H1360.38V213.45H1349.62ZM1398.02 213.45V205.954H1408.78V213.45H1398.02ZM1417.38 205.954H1412.01V213.45H1417.38V205.954ZM1366.83 213.45V205.954H1377.59V213.45H1366.83ZM1380.81 213.45V205.954H1391.57V213.45H1380.81ZM1346.4 220.946H1341.02V228.442H1346.4V220.946ZM1349.62 228.442V220.946H1360.38V228.442H1349.62ZM1398.02 228.442V220.946H1408.78V228.442H1398.02ZM1417.38 220.946H1412.01V228.442H1417.38V220.946ZM1366.83 228.442V220.946H1377.59V228.442H1366.83ZM1380.81 228.442V220.946H1391.57V228.442H1380.81ZM1346.4 235.938H1341.02V243.433H1346.4V235.938ZM1349.62 243.433V235.938H1360.38V243.433H1349.62ZM1398.02 243.433V235.938H1408.78V243.433H1398.02ZM1417.38 235.938H1412.01V243.433H1417.38V235.938ZM1366.83 243.433V235.938H1377.59V243.433H1366.83ZM1380.81 243.433V235.938H1391.57V243.433H1380.81Z" fill="black" fill-opacity="0.2"/>
<path fill-rule="evenodd" clip-rule="evenodd" d="M1346.4 11.0625H1341.02V18.5584H1346.4V11.0625ZM1349.62 18.5584V11.0625H1360.38V18.5584H1349.62ZM1398.02 18.5584V11.0625H1408.78V18.5584H1398.02ZM1417.38 11.0625H1412.01V18.5584H1417.38V11.0625ZM1366.83 18.5584V11.0625H1377.59V18.5584H1366.83ZM1380.81 18.5584V11.0625H1391.57V18.5584H1380.81ZM1346.4 26.0542H1341.02V33.55H1346.4V26.0542ZM1349.62 33.55V26.0542H1360.38V33.55H1349.62ZM1398.02 33.55V26.0542H1408.78V33.55H1398.02ZM1417.38 26.0542H1412.01V33.55H1417.38V26.0542ZM1366.83 33.55V26.0542H1377.59V33.55H1366.83ZM1380.81 33.55V26.0542H1391.57V33.55H1380.81ZM1346.4 41.0459H1341.02V48.5417H1346.4V41.0459ZM1349.62 48.5417V41.0459H1360.38V48.5417H1349.62ZM1398.02 48.5417V41.0459H1408.78V48.5417H1398.02ZM1417.38 41.0459H1412.01V48.5417H1417.38V41.0459ZM1366.83 48.5417V41.0459H1377.59V48.5417H1366.83ZM1380.81 48.5417V41.0459H1391.57V48.5417H1380.81ZM1346.4 56.0375H1341.02V63.5334H1346.4V56.0375ZM1349.62 63.5334V56.0375H1360.38V63.5334H1349.62ZM1398.02 63.5334V56.0375H1408.78V63.5334H1398.02ZM1417.38 56.0375H1412.01V63.5334H1417.38V56.0375ZM1366.83 63.5334V56.0375H1377.59V63.5334H1366.83ZM1380.81 63.5334V56.0375H1391.57V63.5334H1380.81ZM1346.4 71.0292H1341.02V78.525H1346.4V71.0292ZM1349.62 78.525V71.0292H1360.38V78.525H1349.62ZM1398.02 78.525V71.0292H1408.78V78.525H1398.02ZM1417.38 71.0292H1412.01V78.525H1417.38V71.0292ZM1366.83 78.525V71.0292H1377.59V78.525H1366.83ZM1380.81 78.525V71.0292H1391.57V78.525H1380.81ZM1346.4 86.0209H1341.02V93.5167H1346.4V86.0209ZM1349.62 93.5167V86.0209H1360.38V93.5167H1349.62ZM1398.02 93.5167V86.0209H1408.78V93.5167H1398.02ZM1417.38 86.0209H1412.01V93.5167H1417.38V86.0209ZM1366.83 93.5167V86.0209H1377.59V93.5167H1366.83ZM1380.81 93.5167V86.0209H1391.57V93.5167H1380.81ZM1346.4 101.013H1341.02V108.508H1346.4V101.013ZM1349.62 108.508V101.013H1360.38V108.508H1349.62ZM1398.02 108.508V101.013H1408.78V108.508H1398.02ZM1417.38 101.013H1412.01V108.508H1417.38V101.013ZM1366.83 108.508V101.013H1377.59V108.508H1366.83ZM1380.81 108.508V101.013H1391.57V108.508H1380.81ZM1346.4 116.004H1341.02V123.5H1346.4V116.004ZM1349.62 123.5V116.004H1360.38V123.5H1349.62ZM1398.02 123.5V116.004H1408.78V123.5H1398.02ZM1417.38 116.004H1412.01V123.5H1417.38V116.004ZM1366.83 123.5V116.004H1377.59V123.5H1366.83ZM1380.81 123.5V116.004H1391.57V123.5H1380.81ZM1346.4 130.996H1341.02V138.492H1346.4V130.996ZM1349.62 138.492V130.996H1360.38V138.492H1349.62ZM1398.02 138.492V130.996H1408.78V138.492H1398.02ZM1417.38 130.996H1412.01V138.492H1417.38V130.996ZM1366.83 138.492V130.996H1377.59V138.492H1366.83ZM1380.81 138.492V130.996H1391.57V138.492H1380.81ZM1346.4 145.988H1341.02V153.483H1346.4V145.988ZM1349.62 153.483V145.988H1360.38V153.483H1349.62ZM1398.02 153.483V145.988H1408.78V153.483H1398.02ZM1417.38 145.988H1412.01V153.483H1417.38V145.988ZM1366.83 153.483V145.988H1377.59V153.483H1366.83ZM1380.81 153.483V145.988H1391.57V153.483H1380.81ZM1346.4 160.979H1341.02V168.475H1346.4V160.979ZM1349.62 168.475V160.979H1360.38V168.475H1349.62ZM1398.02 168.475V160.979H1408.78V168.475H1398.02ZM1417.38 160.979H1412.01V168.475H1417.38V160.979ZM1366.83 168.475V160.979H1377.59V168.475H1366.83ZM1380.81 168.475V160.979H1391.57V168.475H1380.81ZM1346.4 175.971H1341.02V183.467H1346.4V175.971ZM1349.62 183.467V175.971H1360.38V183.467H1349.62ZM1398.02 183.467V175.971H1408.78V183.467H1398.02ZM1417.38 175.971H1412.01V183.467H1417.38V175.971ZM1366.83 183.467V175.971H1377.59V183.467H1366.83ZM1380.81 183.467V175.971H1391.57V183.467H1380.81ZM1346.4 190.963H1341.02V198.458H1346.4V190.963ZM1349.62 198.458V190.963H1360.38V198.458H1349.62ZM1398.02 198.458V190.963H1408.78V198.458H1398.02ZM1417.38 190.963H1412.01V198.458H1417.38V190.963ZM1366.83 198.458V190.963H1377.59V198.458H1366.83ZM1380.81 198.458V190.963H1391.57V198.458H1380.81ZM1346.4 205.954H1341.02V213.45H1346.4V205.954ZM1349.62 213.45V205.954H1360.38V213.45H1349.62ZM1398.02 213.45V205.954H1408.78V213.45H1398.02ZM1417.38 205.954H1412.01V213.45H1417.38V205.954ZM1366.83 213.45V205.954H1377.59V213.45H1366.83ZM1380.81 213.45V205.954H1391.57V213.45H1380.81ZM1346.4 220.946H1341.02V228.442H1346.4V220.946ZM1349.62 228.442V220.946H1360.38V228.442H1349.62ZM1398.02 228.442V220.946H1408.78V228.442H1398.02ZM1417.38 220.946H1412.01V228.442H1417.38V220.946ZM1366.83 228.442V220.946H1377.59V228.442H1366.83ZM1380.81 228.442V220.946H1391.57V228.442H1380.81ZM1346.4 235.938H1341.02V243.433H1346.4V235.938ZM1349.62 243.433V235.938H1360.38V243.433H1349.62ZM1398.02 243.433V235.938H1408.78V243.433H1398.02ZM1417.38 235.938H1412.01V243.433H1417.38V235.938ZM1366.83 243.433V235.938H1377.59V243.433H1366.83ZM1380.81 243.433V235.938H1391.57V243.433H1380.81Z" fill="#4D5E80"/>
<path d="M1336.8 0.354187L1294.94 12V247L1336.8 252V0.354187Z" fill="#6B7A99"/>
<path d="M534 168.5V187H606.723V213.154L586.5 221H583.5V239L559 252H522.5L518.5 253.5H490.5V252H480V190L490.5 189.149V168.5H518.5H534Z" fill="#7C8AA6"/>
<path d="M493 183.5V175.5H497V183.5H493Z" fill="#4D5E80"/>
<path d="M493 195.5V187.5H497V195.5H493Z" fill="#4D5E80"/>
<path d="M493 207.5V199.5H497V207.5H493Z" fill="#4D5E80"/>
<path d="M493 219.5V211.5H497V219.5H493Z" fill="#4D5E80"/>
<path d="M493 231.5V223.5H497V231.5H493Z" fill="#4D5E80"/>
<path d="M493 243.5V235.5H497V243.5H493Z" fill="#4D5E80"/>
<path d="M534 168.5V187V189L522.5 190V252L518.5 253.5V168.5H534Z" fill="#6B7A99"/>
<path d="M583.5 221V239L559 252V221H583.5Z" fill="#6B7A99"/>
<path d="M606.723 187V213.154L586.5 221V190L606.723 187Z" fill="#6B7A99"/>
<path d="M534 187H606.723L586.5 190H522.5L534 189V187Z" fill="#62708C"/>
<path d="M744.172 224.594V237.742L744.57 238.141H745.367L745.766 237.742V224.594L745.367 223.797V200.289L735.008 193.117H729.828L729.43 193.914L730.227 194.312H732.617L733.414 193.914H735.008L744.57 200.688V223.797L744.172 224.594Z" fill="#62708C"/>
<path d="M661.695 224.594V237.742L661.297 238.141H660.5L660.102 237.742V224.594L660.5 223.797V200.289L670.859 193.117H676.039L676.438 193.914L675.641 194.312H673.25L672.453 193.914H670.859L661.297 200.688V223.797L661.695 224.594Z" fill="#62708C"/>
</svg>
